<svg width="86" height="131" viewBox="0 0 86 131" fill="none" xmlns="http://www.w3.org/2000/svg">
<path d="M46.4176 102.938C68.8382 108.945 90.9466 102.32 96.6688 80.9647C101.072 64.5325 93.212 51.9451 71.3113 40.0158L59.5103 33.6449C45.6627 26.1553 40.4882 18.1376 43.0908 8.42457C45.8895 -2.02022 58.1796 -8.35311 74.962 -3.8563C88.6929 -0.177108 96.3831 8.79991 96.8404 21.6859C96.9751 25.4298 98.749 27.8303 102.066 28.719C105.98 29.7677 108.846 27.8261 109.879 23.9675C110.165 22.903 110.335 21.7366 110.325 20.4503C110.462 4.01592 97.6854 -10.3884 78.1172 -15.6317C55.0332 -21.817 35.0224 -13.2034 29.942 5.75702C25.735 21.4574 33.4449 34.076 54.2224 45.4195L66.0236 51.7899C81.4709 60.2077 86.3721 67.6528 83.4843 78.43C80.0438 91.2701 67.5491 95.9793 49.7054 91.1981C33.7855 86.9324 25.1716 77.4228 25.3211 64.1288C25.1382 60.3006 23.4304 57.9183 20.1138 57.0296C16.2664 55.9987 13.316 57.9886 12.2642 61.9139C11.9968 62.9119 11.8265 64.0783 11.8372 65.3648C11.542 83.1825 26.5177 97.6057 46.4176 102.938ZM41.7899 118.882C44.5759 119.628 47.4373 117.971 48.1858 115.177L85.7274 -24.9298C86.4761 -27.724 84.8091 -30.5237 82.0231 -31.2702C79.2371 -32.0167 76.4598 -30.4078 75.7111 -27.6137L38.1695 112.493C37.421 115.287 39.0039 118.135 41.7899 118.882Z" fill="#E5E5E5"/>
</svg>
