<svg width="95" height="147" viewBox="0 0 95 147" fill="none" xmlns="http://www.w3.org/2000/svg">
<g opacity="0.05" clip-path="url(#clip0_2106_2225)">
<path d="M39.1888 123.211C58.1178 128.283 76.7832 122.689 81.6143 104.659C85.3316 90.7861 78.6958 80.159 60.2058 70.0875L50.2425 64.7087C38.5515 58.3855 34.1828 51.6164 36.3801 43.416C38.7429 34.5978 49.1191 29.2511 63.2879 33.0476C74.8805 36.1539 81.3731 43.7329 81.7592 54.6121C81.8729 57.7729 83.3705 59.7996 86.1707 60.5499C89.4751 61.4353 91.8947 59.7961 92.7676 56.5384C93.0084 55.6397 93.1524 54.6549 93.1434 53.5689C93.2594 39.6939 82.4726 27.5328 65.9517 23.1061C46.4627 17.884 29.5682 25.1562 25.279 41.1639C21.7272 54.4192 28.2363 65.0726 45.7781 74.6496L55.7415 80.028C68.7832 87.1348 72.9211 93.4205 70.483 102.519C67.5784 113.36 57.0294 117.336 41.9646 113.299C28.5239 109.698 21.2515 101.669 21.3777 90.4453C21.2233 87.2132 19.7815 85.2019 16.9813 84.4516C13.7332 83.5813 11.2422 85.2613 10.3542 88.5753C10.1284 89.4179 9.98463 90.4026 9.99372 91.4888C9.74449 106.532 22.3879 118.709 39.1888 123.211ZM35.2818 136.672C37.6339 137.302 40.0497 135.903 40.6817 133.544L72.3768 15.2559C73.0089 12.8969 71.6015 10.5332 69.2493 9.90295C66.8973 9.27271 64.5525 10.631 63.9204 12.99L32.2252 131.278C31.5932 133.637 32.9297 136.041 35.2818 136.672Z" fill="#404040"/>
</g>
<defs>
<clipPath id="clip0_2106_2225">
<rect width="75.1398" height="131.706" fill="white" transform="translate(34.0879) rotate(15)"/>
</clipPath>
</defs>
</svg>
