<svg width="95" height="106" viewBox="0 0 95 106" fill="none" xmlns="http://www.w3.org/2000/svg">
<g opacity="0.05">
<path d="M53.0381 105.948C82.0532 105.948 106.076 81.9022 106.076 52.9742C106.076 23.9942 82.001 0 52.986 0C24.0231 0 0 23.9942 0 52.9742C0 81.9022 24.0751 105.948 53.0381 105.948ZM53.0381 97.1192C28.4949 97.1192 8.89166 77.4876 8.89166 52.9742C8.89166 28.4606 28.443 8.82904 52.986 8.82904C77.5289 8.82904 97.1847 28.4606 97.2363 52.9742C97.2885 77.4876 77.5811 97.1192 53.0381 97.1192Z" fill="#404040"/>
<path d="M53.0381 85.9009C71.0814 85.9009 86.0046 70.9435 86.0046 52.9741C86.0046 34.9525 71.0292 19.9951 53.0381 19.9951C34.9948 19.9951 20.0713 34.9525 20.0713 52.9741C20.0713 70.9435 35.0467 85.9009 53.0381 85.9009ZM53.0381 77.5397C39.6746 77.5397 28.443 66.3215 28.443 52.9741C28.443 39.5228 39.6226 28.3567 53.0381 28.3567C66.4016 28.3567 77.6333 39.5748 77.6333 52.9741C77.6333 66.3736 66.4538 77.5397 53.0381 77.5397Z" fill="#404040"/>
<path d="M53.09 66.4253C60.4737 66.4253 66.5576 60.4009 66.5576 52.9223C66.5576 45.5474 60.4737 39.5229 53.09 39.5229C45.6543 39.5229 39.5706 45.5474 39.5706 52.9223C39.5706 60.4009 45.6543 66.4253 53.09 66.4253Z" fill="#404040"/>
</g>
</svg>
