<svg width="70" height="80" viewBox="0 0 70 80" fill="none" xmlns="http://www.w3.org/2000/svg">
<path d="M16.0381 79.9484C45.0532 79.9484 69.0762 55.9022 69.0762 26.9742C69.0762 -2.00582 45.001 -26 15.986 -26C-12.9769 -26 -37 -2.00582 -37 26.9742C-37 55.9022 -12.9249 79.9484 16.0381 79.9484ZM16.0381 71.1192C-8.50506 71.1192 -28.1083 51.4876 -28.1083 26.9742C-28.1083 2.46061 -8.55703 -17.171 15.986 -17.171C40.5289 -17.171 60.1847 2.46061 60.2363 26.9742C60.2885 51.4876 40.5811 71.1192 16.0381 71.1192Z" fill="#E5E5E5"/>
<path d="M16.0381 59.9009C34.0813 59.9009 49.0046 44.9435 49.0046 26.9741C49.0046 8.95252 34.0292 -6.00488 16.0381 -6.00488C-2.00526 -6.00488 -16.9287 8.95252 -16.9287 26.9741C-16.9287 44.9435 -1.95329 59.9009 16.0381 59.9009ZM16.0381 51.5397C2.67453 51.5397 -8.55703 40.3215 -8.55703 26.9741C-8.55703 13.5228 2.62257 2.35669 16.0381 2.35669C29.4015 2.35669 40.6333 13.5748 40.6333 26.9741C40.6333 40.3736 29.4537 51.5397 16.0381 51.5397Z" fill="#E5E5E5"/>
<path d="M16.09 40.4253C23.4737 40.4253 29.5576 34.4009 29.5576 26.9223C29.5576 19.5474 23.4737 13.5229 16.09 13.5229C8.65433 13.5229 2.57054 19.5474 2.57054 26.9223C2.57054 34.4009 8.65433 40.4253 16.09 40.4253Z" fill="#E5E5E5"/>
</svg>
