<svg width="1360" height="348" viewBox="0 0 1360 348" fill="none" xmlns="http://www.w3.org/2000/svg">
<g filter="url(#filter0_ii_3616_72)">
<path d="M204.013 176.394C204.013 120.209 242.091 79.0098 295.261 79.0098C348.434 79.0098 386.512 120.209 386.512 176.394C386.512 232.579 348.434 273.763 295.261 273.763C242.091 273.763 204.013 232.564 204.013 176.394ZM338.49 176.394C338.49 144.929 320.999 123.589 295.261 123.589C269.525 123.589 252.034 144.944 252.034 176.394C252.034 207.844 269.525 228.825 295.261 228.825C320.999 228.825 338.49 207.485 338.49 176.394Z" fill="#204039"/>
<path d="M393.343 199.637V82.0352H441.365V188.033C441.365 210.884 454.747 227.364 474.634 227.364C495.564 227.364 510.316 209.388 510.316 185.416V82.0352H557.996V270.791H510.316V244.577C500.714 262.551 481.497 273.783 457.486 273.783C418.723 273.783 393.343 242.692 393.343 199.622V199.637Z" fill="#204039"/>
<path d="M576.562 82.0352H624.239V113.5C633.499 89.9013 646.539 82.0352 667.81 82.0352H687.013V125.478H658.537C634.869 125.478 624.239 146.833 624.239 179.03V270.791H576.562V82.0352Z" fill="#204039"/>
<path d="M692.12 306.349H771.7C787.137 306.349 796.738 294.744 796.738 276.381V251.661C787.137 265.149 767.92 273.763 745.963 273.763C698.285 273.763 667.754 234.807 667.754 176.394C667.754 117.981 698.285 79.0098 746.991 79.0098C766.892 79.0098 785.753 87.2497 796.725 100.739V82.0156H844.404V282.018C844.404 322.845 820.393 347.19 779.576 347.19H692.106V306.365L692.12 306.349ZM799.135 176.394C799.135 144.555 782.328 123.589 756.948 123.589C731.568 123.589 714.761 144.555 714.761 176.394C714.761 208.232 731.91 228.825 756.948 228.825C781.986 228.825 799.135 207.859 799.135 176.394Z" fill="#204039"/>
<path d="M862.974 0H910.654V270.782H862.974V0Z" fill="#204039"/>
<path d="M921.951 217.204C921.951 180.132 947.675 157.282 987.465 157.282H1012.5C1023.13 157.282 1027.6 152.796 1027.6 143.793C1027.6 128.061 1016.28 117.204 996.723 117.204C975.795 117.204 965.166 131.44 964.481 147.173H921.951C924.007 109.353 951.797 79.0098 999.477 79.0098C1043.05 79.0098 1074.95 106.72 1074.95 149.416V270.757H1027.61V244.541C1021.43 262.144 1002.57 273.747 978.904 273.747C945.292 273.747 921.964 249.402 921.964 217.189L921.951 217.204ZM1027.6 193.233V190.99H994.326C978.206 190.99 967.918 199.977 967.918 214.588C967.918 228.078 977.177 235.942 990.902 235.942C1014.23 235.942 1027.61 217.595 1027.61 193.248L1027.6 193.233Z" fill="#204039"/>
<path d="M1080.8 207.095H1121.96C1123.67 223.95 1136.02 234.434 1153.17 234.434C1168.61 234.434 1178.55 226.941 1178.55 215.335C1178.55 179.011 1085.59 213.841 1085.59 136.689C1085.59 102.608 1112 79.0098 1148.36 79.0098C1190.89 79.0098 1216.97 102.982 1218.68 140.428H1177.53C1175.47 125.817 1164.14 116.082 1149.39 116.082C1136.35 116.082 1126.41 122.453 1126.41 134.805C1126.41 172.251 1220.74 132.936 1220.74 210.834C1220.74 250.912 1194.33 273.748 1153.5 273.748C1109.59 273.748 1083.18 248.654 1080.78 207.08L1080.8 207.095Z" fill="#204039"/>
<path d="M1220.06 207.095H1261.22C1262.93 223.95 1275.28 234.434 1292.43 234.434C1307.87 234.434 1317.81 226.941 1317.81 215.335C1317.81 179.011 1224.85 213.841 1224.85 136.689C1224.85 102.608 1251.26 79.0098 1287.62 79.0098C1330.15 79.0098 1356.23 102.982 1357.95 140.428H1316.78C1314.73 125.817 1303.4 116.082 1288.65 116.082C1275.61 116.082 1265.67 122.453 1265.67 134.805C1265.67 172.251 1360 132.936 1360 210.834C1360 250.912 1333.59 273.748 1292.76 273.748C1248.85 273.748 1222.44 248.654 1220.04 207.08L1220.06 207.095Z" fill="#204039"/>
<path d="M143.307 8.5625V80.0901C143.307 92.7267 138.705 104.855 130.528 113.783L110.517 135.631C108.394 137.949 108.394 141.688 110.517 144.006L130.528 165.855C138.719 174.797 143.307 186.911 143.307 199.546V270.715H195.11V8.5625H143.307Z" fill="#204039"/>
<path d="M51.8022 8.5625V80.0901C51.8022 92.7267 56.4044 104.855 64.5815 113.783L84.5929 135.631C86.7159 137.949 86.7159 141.688 84.5929 144.006L64.5815 165.855C56.3907 174.797 51.8022 186.911 51.8022 199.546V270.715H0V8.5625H51.8022Z" fill="#204039"/>
</g>
<defs>
<filter id="filter0_ii_3616_72" x="-5" y="-5" width="1375" height="362.189" filterUnits="userSpaceOnUse" color-interpolation-filters="sRGB">
<feFlood flood-opacity="0" result="BackgroundImageFix"/>
<feBlend mode="normal" in="SourceGraphic" in2="BackgroundImageFix" result="shape"/>
<feColorMatrix in="SourceAlpha" type="matrix" values="0 0 0 0 0 0 0 0 0 0 0 0 0 0 0 0 0 0 127 0" result="hardAlpha"/>
<feOffset dx="10" dy="10"/>
<feGaussianBlur stdDeviation="10"/>
<feComposite in2="hardAlpha" operator="arithmetic" k2="-1" k3="1"/>
<feColorMatrix type="matrix" values="0 0 0 0 0 0 0 0 0 0 0 0 0 0 0 0 0 0 0.25 0"/>
<feBlend mode="normal" in2="shape" result="effect1_innerShadow_3616_72"/>
<feColorMatrix in="SourceAlpha" type="matrix" values="0 0 0 0 0 0 0 0 0 0 0 0 0 0 0 0 0 0 127 0" result="hardAlpha"/>
<feOffset dx="-5" dy="-5"/>
<feGaussianBlur stdDeviation="5"/>
<feComposite in2="hardAlpha" operator="arithmetic" k2="-1" k3="1"/>
<feColorMatrix type="matrix" values="0 0 0 0 1 0 0 0 0 1 0 0 0 0 1 0 0 0 0.05 0"/>
<feBlend mode="normal" in2="effect1_innerShadow_3616_72" result="effect2_innerShadow_3616_72"/>
</filter>
</defs>
</svg>
