<svg width="792" height="185" viewBox="0 0 792 185" fill="none" xmlns="http://www.w3.org/2000/svg">
<g clip-path="url(#clip0_222_89)">
<mask id="mask0_222_89" style="mask-type:luminance" maskUnits="userSpaceOnUse" x="0" y="0" width="792" height="185">
<path d="M792 0H0V185H792V0Z" fill="#FBF9F0"/>
</mask>
<g mask="url(#mask0_222_89)">
<path d="M118.671 93.9796C118.671 64.0468 140.82 42.0972 171.748 42.0972C202.677 42.0972 224.826 64.0468 224.826 93.9796C224.826 123.913 202.677 145.854 171.748 145.854C140.82 145.854 118.671 123.905 118.671 93.9796ZM196.893 93.9796C196.893 77.2166 186.719 65.8474 171.748 65.8474C156.778 65.8474 146.604 77.2246 146.604 93.9796C146.604 110.735 156.778 121.913 171.748 121.913C186.719 121.913 196.893 110.544 196.893 93.9796Z" fill="#FBF9F0"/>
<path d="M228.81 106.353V43.6992H256.743V100.171C256.743 112.345 264.527 121.125 276.095 121.125C288.269 121.125 296.85 111.548 296.85 98.7765V43.6992H324.584V144.261H296.85V130.295C291.265 139.871 280.087 145.855 266.12 145.855C243.573 145.855 228.81 129.291 228.81 106.345V106.353Z" fill="#FBF9F0"/>
<path d="M335.364 43.6992H363.097V60.4622C368.483 47.89 376.068 43.6992 388.441 43.6992H399.611V66.844H383.047C369.28 66.844 363.097 78.2211 363.097 95.3745V144.261H335.364V43.6992Z" fill="#FBF9F0"/>
<path d="M402.606 163.215H448.896C457.875 163.215 463.46 157.032 463.46 147.249V134.079C457.875 141.265 446.697 145.854 433.925 145.854C406.192 145.854 388.433 125.1 388.433 93.9796C388.433 62.8597 406.192 42.0972 434.523 42.0972C446.099 42.0972 457.07 46.4871 463.452 53.6735V43.6986H491.186V150.252C491.186 172.003 477.219 184.973 453.477 184.973H402.598V163.223L402.606 163.215ZM464.854 93.9796C464.854 77.0174 455.078 65.8474 440.315 65.8474C425.552 65.8474 415.776 77.0174 415.776 93.9796C415.776 110.942 425.751 121.913 440.315 121.913C454.879 121.913 464.854 110.743 464.854 93.9796Z" fill="#FBF9F0"/>
<path d="M501.965 0H529.699V144.262H501.965V0Z" fill="#FBF9F0"/>
<path d="M536.288 115.731C536.288 95.9806 551.251 83.8068 574.396 83.8068H588.96C595.142 83.8068 597.74 81.4166 597.74 76.6203C597.74 68.2388 591.159 62.4546 579.781 62.4546C567.608 62.4546 561.425 70.0394 561.027 78.4209H536.288C537.484 58.2719 553.649 42.1064 581.383 42.1064C606.726 42.1064 625.282 56.8696 625.282 79.616V144.262H597.747V130.295C594.154 139.673 583.183 145.855 569.416 145.855C549.865 145.855 536.296 132.885 536.296 115.723L536.288 115.731ZM597.74 102.96V101.765H578.387C569.01 101.765 563.026 106.553 563.026 114.337C563.026 121.524 568.412 125.714 576.395 125.714C589.964 125.714 597.747 115.939 597.747 102.968L597.74 102.96Z" fill="#FBF9F0"/>
<path d="M628.668 110.336H652.61C653.606 119.316 660.792 124.901 670.767 124.901C679.746 124.901 685.53 120.909 685.53 114.726C685.53 95.3738 631.457 113.93 631.457 72.8267C631.457 54.6694 646.817 42.0972 667.97 42.0972C692.709 42.0972 707.878 54.8686 708.874 74.8185H684.933C683.738 67.0345 677.149 61.8478 668.568 61.8478C660.983 61.8478 655.199 65.2419 655.199 71.8228C655.199 91.7727 710.069 70.8269 710.069 112.328C710.069 133.68 694.708 145.846 670.958 145.846C645.415 145.846 630.054 132.477 628.66 110.328L628.668 110.336Z" fill="#FBF9F0"/>
<path d="M709.679 110.336H733.62C734.616 119.316 741.803 124.901 751.778 124.901C760.757 124.901 766.541 120.909 766.541 114.726C766.541 95.3738 712.468 113.93 712.468 72.8267C712.468 54.6694 727.828 42.0972 748.981 42.0972C773.719 42.0972 788.889 54.8686 789.885 74.8185H765.943C764.748 67.0345 758.159 61.8478 749.579 61.8478C741.994 61.8478 736.21 65.2419 736.21 71.8228C736.21 91.7727 791.08 70.8269 791.08 112.328C791.08 133.68 775.719 145.846 751.969 145.846C726.426 145.846 711.065 132.477 709.671 110.328L709.679 110.336Z" fill="#FBF9F0"/>
<path d="M83.3605 4.58838V42.6955C83.3605 49.4278 80.6835 55.8892 75.9271 60.6457L64.287 72.2857C63.0521 73.5207 63.0521 75.5125 64.287 76.7474L75.9271 88.3875C80.6915 93.1519 83.3605 99.6053 83.3605 106.337V144.253H113.493V4.58838H83.3605Z" fill="#FBF9F0"/>
<path d="M30.132 4.58838V42.6955C30.132 49.4278 32.809 55.8892 37.5654 60.6457L49.2055 72.2857C50.4404 73.5207 50.4404 75.5125 49.2055 76.7474L37.5654 88.3875C32.801 93.1519 30.132 99.6053 30.132 106.337V144.253H0V4.58838H30.132Z" fill="#FBF9F0"/>
</g>
</g>
<defs>
<clipPath id="clip0_222_89">
<rect width="792" height="185" fill="#FBF9F0"/>
</clipPath>
</defs>
</svg>
