<svg width="486" height="48" viewBox="0 0 486 48" fill="none" xmlns="http://www.w3.org/2000/svg">
<path d="M35.815 15.86C35.815 13.52 35.49 11.5917 34.84 10.075C34.19 8.515 33.2583 7.36666 32.045 6.63C30.875 5.85 29.4667 5.48167 27.82 5.525H24.7V36.01C24.7 37.18 24.6783 38.3067 24.635 39.39C24.5917 40.4733 24.5267 41.2967 24.44 41.86C25.1767 41.7733 26.1083 41.73 27.235 41.73C28.405 41.6867 29.2067 41.665 29.64 41.665V46.67H10.66V42.38C11.6567 42.3367 12.48 42.2067 13.13 41.99C13.8233 41.7733 14.3433 41.275 14.69 40.495C15.08 39.715 15.275 38.4583 15.275 36.725V5.59H12.285C9.815 5.63333 7.865 6.47833 6.435 8.125C5.005 9.7717 4.29 12.35 4.29 15.86H0L0.325 1.17H39.715L40.105 15.86H35.815ZM44.4854 46.67V42.38C45.4821 42.3367 46.3054 42.2067 46.9554 41.99C47.6487 41.7733 48.1687 41.275 48.5154 40.495C48.9054 39.715 49.1004 38.4583 49.1004 36.725V11.83C49.1004 10.66 49.1221 9.53333 49.1654 8.45C49.2521 7.36667 49.3171 6.54333 49.3604 5.98C48.6671 6.02333 47.8004 6.06667 46.7604 6.11C45.7204 6.11 44.9621 6.13167 44.4854 6.175V1.17C47.5621 1.12666 50.6387 1.105 53.7154 1.105C56.7921 1.105 59.8687 1.08333 62.9454 1.04C66.7587 0.996674 70.0737 1.43 72.8904 2.34C75.7071 3.25 77.8737 4.72333 79.3904 6.76C80.9071 8.79666 81.6221 11.5483 81.5354 15.015C81.4921 16.835 81.0371 18.5683 80.1704 20.215C79.3471 21.8617 78.0904 23.3133 76.4004 24.57C74.7537 25.8267 72.6521 26.8233 70.0954 27.56C70.9187 27.9067 71.7204 28.47 72.5004 29.25C73.3237 30.03 74.0171 30.8533 74.5804 31.72L77.6354 36.27C78.5887 37.7433 79.4337 38.9133 80.1704 39.78C80.9071 40.6467 81.6437 41.2967 82.3804 41.73C83.1171 42.12 83.9621 42.3367 84.9154 42.38V46.67H74.1904C73.4104 46.1067 72.6304 45.305 71.8504 44.265C71.1137 43.1817 70.3121 41.9467 69.4454 40.56L64.6354 32.76C64.0721 31.8933 63.5737 31.1567 63.1404 30.55C62.7504 29.9433 62.3387 29.4233 61.9054 28.99C61.2121 28.99 60.6271 28.99 60.1504 28.99C59.6737 28.99 59.1321 28.99 58.5254 28.99V35.945C58.5254 37.1583 58.5037 38.3067 58.4604 39.39C58.4171 40.4733 58.3521 41.2967 58.2654 41.86C58.7421 41.8167 59.3487 41.795 60.0854 41.795C60.8221 41.7517 61.5371 41.73 62.2304 41.73C62.9671 41.6867 63.4871 41.665 63.7904 41.665V46.67H44.4854ZM61.6454 24.31C64.0721 24.31 66.0221 23.9633 67.4954 23.27C68.9687 22.5333 70.0304 21.45 70.6804 20.02C71.3737 18.5467 71.7204 16.705 71.7204 14.495C71.7204 12.415 71.3954 10.79 70.7454 9.62C70.0954 8.40666 69.2721 7.51833 68.2754 6.955C67.3221 6.34833 66.3471 5.98 65.3504 5.85C64.3537 5.67666 63.5304 5.59 62.8804 5.59C61.9704 5.59 61.1904 5.69833 60.5404 5.915C59.8904 6.13166 59.3921 6.60833 59.0454 7.345C58.6987 8.08167 58.5254 9.20833 58.5254 10.725V24.05C59.0021 24.0933 59.5004 24.1583 60.0204 24.245C60.5404 24.2883 61.0821 24.31 61.6454 24.31ZM107.701 5.46C106.748 5.50333 105.924 5.63333 105.231 5.85C104.538 6.06667 103.996 6.565 103.606 7.345C103.259 8.08167 103.086 9.33833 103.086 11.115V36.01C103.086 37.18 103.064 38.3067 103.021 39.39C102.978 40.4733 102.913 41.2967 102.826 41.86C103.519 41.7733 104.386 41.73 105.426 41.73C106.509 41.6867 107.268 41.665 107.701 41.665V46.67H89.0459V42.38C90.0426 42.3367 90.8659 42.2067 91.5159 41.99C92.2093 41.7733 92.7293 41.275 93.0759 40.495C93.4659 39.715 93.6609 38.4583 93.6609 36.725V11.83C93.6609 10.66 93.6826 9.53333 93.7259 8.45C93.8126 7.36667 93.8776 6.54333 93.9209 5.98C93.2276 6.02333 92.3609 6.06667 91.3209 6.11C90.2809 6.11 89.5226 6.13167 89.0459 6.175V1.17H107.701V5.46ZM114.183 46.67V42.38C115.179 42.3367 116.003 42.2067 116.653 41.99C117.346 41.7733 117.866 41.275 118.213 40.495C118.603 39.715 118.798 38.4583 118.798 36.725V11.83C118.798 10.66 118.819 9.53333 118.863 8.45C118.949 7.36667 119.014 6.54333 119.058 5.98C118.364 6.02333 117.498 6.06667 116.458 6.11C115.418 6.11 114.659 6.13167 114.183 6.175V1.17C117.173 1.12666 120.163 1.105 123.153 1.105C126.186 1.105 129.198 1.08333 132.188 1.04C137.388 0.996674 141.504 1.97167 144.538 3.965C147.614 5.915 149.044 8.88333 148.828 12.87C148.741 14.1267 148.351 15.3617 147.658 16.575C146.964 17.745 145.924 18.8067 144.538 19.76C143.194 20.7133 141.504 21.4717 139.468 22.035V22.1C143.801 22.7933 146.986 24.245 149.023 26.455C151.059 28.6217 152.078 31.0483 152.078 33.735C152.078 36.5517 151.384 38.935 149.998 40.885C148.654 42.7917 146.791 44.2433 144.408 45.24C142.024 46.1933 139.316 46.67 136.283 46.67H114.183ZM127.963 42.055C128.743 42.055 129.479 42.055 130.173 42.055C130.866 42.055 131.559 42.055 132.253 42.055C132.946 42.0117 133.618 41.99 134.268 41.99C136.911 41.86 138.839 41.015 140.053 39.455C141.266 37.895 141.873 35.9233 141.873 33.54C141.873 31.5467 141.461 29.9867 140.638 28.86C139.814 27.69 138.753 26.8667 137.453 26.39C136.196 25.9133 134.874 25.675 133.488 25.675C132.404 25.675 131.473 25.675 130.693 25.675C129.913 25.675 129.089 25.6967 128.223 25.74V36.335C128.223 37.505 128.201 38.61 128.158 39.65C128.114 40.69 128.049 41.4917 127.963 42.055ZM128.223 21.125L131.603 21.06C133.423 21.0167 134.853 20.605 135.893 19.825C136.976 19.045 137.734 18.005 138.168 16.705C138.644 15.3617 138.883 13.91 138.883 12.35C138.883 10.6167 138.536 9.27333 137.843 8.32C137.149 7.32333 136.283 6.60833 135.243 6.175C134.203 5.74167 133.119 5.54667 131.993 5.59C131.299 5.59 130.671 5.69833 130.108 5.915C129.544 6.13166 129.089 6.63 128.743 7.41C128.396 8.14667 128.223 9.36 128.223 11.05V21.125ZM178.558 31.005C178.558 29.185 178.276 27.885 177.713 27.105C177.15 26.2817 176.37 25.7617 175.373 25.545C174.42 25.3283 173.358 25.2417 172.188 25.285L170.498 25.35V36.01C170.498 37.18 170.476 38.285 170.433 39.325C170.39 40.365 170.325 41.1667 170.238 41.73H178.948C180.248 41.73 181.505 41.4483 182.718 40.885C183.931 40.2783 184.928 39.3033 185.708 37.96C186.488 36.5733 186.878 34.71 186.878 32.37H191.103L190.778 46.67H156.458V42.38C157.455 42.3367 158.278 42.2067 158.928 41.99C159.621 41.7733 160.141 41.275 160.488 40.495C160.878 39.715 161.073 38.4583 161.073 36.725V11.83C161.073 10.66 161.095 9.53333 161.138 8.45C161.225 7.36667 161.29 6.54333 161.333 5.98C160.64 6.02333 159.773 6.06667 158.733 6.11C157.693 6.11 156.935 6.13167 156.458 6.175V1.17H188.958L189.348 13.78H185.058C185.058 11.3967 184.646 9.59833 183.823 8.385C183 7.17166 181.981 6.37 180.768 5.98C179.555 5.54666 178.363 5.35166 177.193 5.395L174.853 5.46C173.943 5.46 173.163 5.59 172.513 5.85C171.863 6.06667 171.365 6.58666 171.018 7.41C170.671 8.19 170.498 9.425 170.498 11.115V20.865H178.103L177.843 15.21H182.848V31.005H178.558ZM247.635 15.73C247.071 12.1333 245.858 9.425 243.995 7.605C242.175 5.785 239.748 4.85333 236.715 4.81C234.461 4.81 232.49 5.33 230.8 6.37C229.11 7.41 227.701 8.79666 226.575 10.53C225.491 12.2633 224.668 14.235 224.105 16.445C223.585 18.655 223.325 20.93 223.325 23.27C223.325 26.9967 223.845 30.3117 224.885 33.215C225.968 36.075 227.528 38.3283 229.565 39.975C231.601 41.6217 234.071 42.445 236.975 42.445C239.705 42.445 242.413 41.7517 245.1 40.365C247.786 38.935 250.04 36.9633 251.86 34.45L254.98 37.31C252.856 40.2133 250.625 42.4233 248.285 43.94C245.945 45.4133 243.648 46.41 241.395 46.93C239.185 47.45 237.191 47.71 235.415 47.71C232.078 47.71 229.045 47.125 226.315 45.955C223.585 44.7417 221.223 43.095 219.23 41.015C217.28 38.8917 215.763 36.4433 214.68 33.67C213.64 30.8533 213.12 27.82 213.12 24.57C213.12 21.6233 213.596 18.6983 214.55 15.795C215.503 12.8917 216.911 10.27 218.775 7.93C220.681 5.54667 223.065 3.66167 225.925 2.275C228.785 0.845004 232.1 0.130003 235.87 0.130003C237.56 0.130003 239.401 0.41167 241.395 0.975004C243.431 1.495 245.338 2.275 247.115 3.315L246.855 0.585001H251.86V15.73H247.635ZM255.411 46.67V42.185C256.625 42.185 257.6 41.8383 258.336 41.145C259.073 40.4517 259.68 39.5417 260.156 38.415C260.676 37.2883 261.175 36.075 261.651 34.775L274.326 0H278.876L292.721 35.425C292.981 36.075 293.328 37.0717 293.761 38.415C294.195 39.715 294.455 40.8633 294.541 41.86C295.278 41.7733 295.971 41.73 296.621 41.73C297.315 41.6867 297.878 41.665 298.311 41.665V46.67H280.826V42.38C282.04 42.38 282.863 42.1417 283.296 41.665C283.773 41.145 283.99 40.4517 283.946 39.585C283.903 38.7183 283.665 37.7433 283.231 36.66L281.931 33.085L267.826 33.345L266.786 36.4C266.57 36.9633 266.245 37.8083 265.811 38.935C265.421 40.0183 265.053 40.9283 264.706 41.665C265.4 41.5783 266.223 41.535 267.176 41.535C268.173 41.4917 268.888 41.47 269.321 41.47V46.67H255.411ZM269.451 28.47H280.306L277.316 20.345C276.753 18.785 276.255 17.225 275.821 15.665C275.388 14.0617 275.063 12.6533 274.846 11.44H274.781C274.608 12.1767 274.348 13.2817 274.001 14.755C273.655 16.2283 273.113 17.9833 272.376 20.02L269.451 28.47ZM301.819 42.38C302.816 42.3367 303.639 42.2067 304.289 41.99C304.983 41.7733 305.503 41.275 305.849 40.495C306.239 39.715 306.434 38.4583 306.434 36.725V11.83C306.434 10.66 306.456 9.53333 306.499 8.45C306.586 7.36667 306.651 6.54333 306.694 5.98C306.001 6.02333 305.134 6.06667 304.094 6.11C303.054 6.11 302.296 6.13167 301.819 6.175V1.17C304.896 1.12666 307.973 1.105 311.049 1.105C314.126 1.105 317.203 1.08333 320.279 1.04C324.093 0.996674 327.408 1.495 330.224 2.535C333.084 3.575 335.273 5.17833 336.789 7.345C338.349 9.51167 339.086 12.3283 338.999 15.795C338.956 17.5283 338.544 19.24 337.764 20.93C336.984 22.5767 335.836 24.0933 334.319 25.48C332.803 26.8233 330.896 27.9283 328.599 28.795C326.303 29.6617 323.616 30.1383 320.539 30.225C319.586 30.2683 318.741 30.29 318.004 30.29C317.311 30.29 316.596 30.2683 315.859 30.225V35.945C315.859 37.1583 315.838 38.3067 315.794 39.39C315.751 40.4733 315.686 41.2967 315.599 41.86C316.076 41.8167 316.683 41.795 317.419 41.795C318.156 41.7517 318.871 41.73 319.564 41.73C320.301 41.6867 320.821 41.665 321.124 41.665V46.67H301.819V42.38ZM315.859 25.35C316.336 25.3933 316.813 25.4367 317.289 25.48C317.766 25.5233 318.264 25.545 318.784 25.545C321.168 25.545 323.096 25.155 324.569 24.375C326.086 23.5517 327.191 22.3817 327.884 20.865C328.578 19.305 328.924 17.42 328.924 15.21C328.924 13.0433 328.621 11.31 328.014 10.01C327.451 8.71 326.714 7.75666 325.804 7.15C324.894 6.5 323.941 6.08833 322.944 5.915C321.948 5.69833 321.038 5.59 320.214 5.59C319.304 5.59 318.524 5.69833 317.874 5.915C317.224 6.13166 316.726 6.60833 316.379 7.345C316.033 8.08167 315.859 9.20833 315.859 10.725V25.35ZM361.607 5.46C360.654 5.50333 359.831 5.63333 359.137 5.85C358.444 6.06667 357.902 6.565 357.512 7.345C357.166 8.08167 356.992 9.33833 356.992 11.115V36.01C356.992 37.18 356.971 38.3067 356.927 39.39C356.884 40.4733 356.819 41.2967 356.732 41.86C357.426 41.7733 358.292 41.73 359.332 41.73C360.416 41.6867 361.174 41.665 361.607 41.665V46.67H342.952V42.38C343.949 42.3367 344.772 42.2067 345.422 41.99C346.116 41.7733 346.636 41.275 346.982 40.495C347.372 39.715 347.567 38.4583 347.567 36.725V11.83C347.567 10.66 347.589 9.53333 347.632 8.45C347.719 7.36667 347.784 6.54333 347.827 5.98C347.134 6.02333 346.267 6.06667 345.227 6.11C344.187 6.11 343.429 6.13167 342.952 6.175V1.17H361.607V5.46ZM401.694 15.86C401.694 13.52 401.369 11.5917 400.719 10.075C400.069 8.515 399.137 7.36666 397.924 6.63C396.754 5.85 395.346 5.48167 393.699 5.525H390.579V36.01C390.579 37.18 390.557 38.3067 390.514 39.39C390.471 40.4733 390.406 41.2967 390.319 41.86C391.056 41.7733 391.987 41.73 393.114 41.73C394.284 41.6867 395.086 41.665 395.519 41.665V46.67H376.539V42.38C377.536 42.3367 378.359 42.2067 379.009 41.99C379.702 41.7733 380.222 41.275 380.569 40.495C380.959 39.715 381.154 38.4583 381.154 36.725V5.59H378.164C375.694 5.63333 373.744 6.47833 372.314 8.125C370.884 9.7717 370.169 12.35 370.169 15.86H365.879L366.204 1.17H405.594L405.984 15.86H401.694ZM403.883 46.67V42.185C405.096 42.185 406.071 41.8383 406.808 41.145C407.545 40.4517 408.151 39.5417 408.628 38.415C409.148 37.2883 409.646 36.075 410.123 34.775L422.798 0H427.348L441.193 35.425C441.453 36.075 441.8 37.0717 442.233 38.415C442.666 39.715 442.926 40.8633 443.013 41.86C443.75 41.7733 444.443 41.73 445.093 41.73C445.786 41.6867 446.35 41.665 446.783 41.665V46.67H429.298V42.38C430.511 42.38 431.335 42.1417 431.768 41.665C432.245 41.145 432.461 40.4517 432.418 39.585C432.375 38.7183 432.136 37.7433 431.703 36.66L430.403 33.085L416.298 33.345L415.258 36.4C415.041 36.9633 414.716 37.8083 414.283 38.935C413.893 40.0183 413.525 40.9283 413.178 41.665C413.871 41.5783 414.695 41.535 415.648 41.535C416.645 41.4917 417.36 41.47 417.793 41.47V46.67H403.883ZM417.923 28.47H428.778L425.788 20.345C425.225 18.785 424.726 17.225 424.293 15.665C423.86 14.0617 423.535 12.6533 423.318 11.44H423.253C423.08 12.1767 422.82 13.2817 422.473 14.755C422.126 16.2283 421.585 17.9833 420.848 20.02L417.923 28.47ZM450.291 46.67V42.38C451.288 42.3367 452.111 42.2067 452.761 41.99C453.454 41.7733 453.974 41.275 454.321 40.495C454.711 39.715 454.906 38.4583 454.906 36.725V11.83C454.906 10.66 454.928 9.53333 454.971 8.45C455.058 7.36667 455.123 6.54333 455.166 5.98C454.473 6.02333 453.606 6.06667 452.566 6.11C451.526 6.11 450.768 6.13167 450.291 6.175V1.17H468.946V5.46C467.993 5.50333 467.169 5.63333 466.476 5.85C465.783 6.06667 465.241 6.565 464.851 7.345C464.504 8.08167 464.331 9.33833 464.331 11.115V36.01C464.331 37.18 464.309 38.285 464.266 39.325C464.223 40.365 464.158 41.1667 464.071 41.73H472.781C475.338 41.6867 477.331 40.7983 478.761 39.065C480.234 37.2883 480.971 34.6233 480.971 31.07H485.326L484.936 46.67H450.291Z" fill="#FFFDF3"/>
</svg>
