<svg width="24" height="24" viewBox="0 0 24 24" fill="none" xmlns="http://www.w3.org/2000/svg">
<path d="M6.9376 12.7062H17.3574L15.0318 15.0319C14.756 15.3076 14.756 15.7548 15.0318 16.0306C15.1697 16.1685 15.3505 16.2375 15.5312 16.2375C15.712 16.2375 15.8927 16.1685 16.0306 16.0306L19.5618 12.4994C19.8376 12.2236 19.8376 11.7764 19.5618 11.5006L16.0306 7.9694C15.7548 7.69363 15.3076 7.69363 15.0318 7.9694C14.756 8.24516 14.756 8.69235 15.0318 8.96816L17.3574 11.2938H6.9376C6.54757 11.2938 6.23136 11.61 6.23136 12C6.23136 12.39 6.54757 12.7062 6.9376 12.7062Z" fill="white"/>
</svg>
