<svg width="25" height="24" viewBox="0 0 25 24" fill="none" xmlns="http://www.w3.org/2000/svg">
<g clip-path="url(#clip0_216_527)">
<path fill-rule="evenodd" clip-rule="evenodd" d="M2.64474 10.6787C8.802 7.99603 12.9079 6.22746 14.9622 5.37303C20.8278 2.93336 22.0466 2.50953 22.841 2.49551C23.0157 2.49246 23.4064 2.53577 23.6594 2.74113C24.0348 3.04573 24.037 3.70693 23.9953 4.14454C23.6774 7.48434 22.302 15.589 21.6023 19.3297C21.3062 20.9124 20.7232 21.4432 20.1589 21.4951C18.9324 21.608 18.001 20.6845 16.813 19.9058C14.9541 18.6872 13.9039 17.9286 12.0994 16.7396C10.0141 15.3654 11.3659 14.6101 12.5543 13.3758C12.8654 13.0528 18.2695 8.1372 18.3741 7.69126C18.3873 7.63549 18.3994 7.42757 18.2759 7.31784C18.1524 7.20811 17.9701 7.24557 17.8386 7.27543C17.6521 7.31776 14.6825 9.28063 8.92956 13.164C8.0866 13.7428 7.3231 14.0248 6.63905 14.0101C5.88487 13.9938 4.43427 13.5837 3.35585 13.2331C2.03313 12.8032 0.981852 12.5758 1.07343 11.8456C1.12112 11.4652 1.64486 11.0763 2.64474 10.6787V10.6787Z" fill="#9CA3AF"/>
</g>
<defs>
<clipPath id="clip0_216_527">
<rect width="24" height="24" fill="white" transform="translate(0.540527)"/>
</clipPath>
</defs>
</svg>
