<svg width="211" height="34" viewBox="0 0 211 34" fill="none" xmlns="http://www.w3.org/2000/svg">
<path d="M83.0983 31.4858C82.8084 31.4858 82.4648 31.4321 82.0944 31.3355V30.7181C82.5239 30.804 82.7762 30.847 83.0017 30.847C83.4741 30.847 83.662 30.7235 83.9304 30.2189H83.56L81.8796 27.0353H82.7816L84.1613 29.7625L85.541 27.0353H86.4375L84.7679 30.192C84.3706 30.9866 83.9465 31.4858 83.0983 31.4858Z" fill="#6030D9"/>
<path d="M77.5635 30.2189V26.0314H78.3849V27.6849C78.707 27.2018 79.2921 26.928 80.0384 26.928C81.2194 26.928 82.014 27.5937 82.014 28.6298C82.014 29.6605 81.2194 30.3316 80.0384 30.3316C79.2921 30.3316 78.707 30.0524 78.3849 29.5693V30.2189H77.5635ZM79.8558 29.6444C80.6826 29.6444 81.1819 29.2418 81.1819 28.6298C81.1819 28.0124 80.6826 27.6151 79.8558 27.6151C78.9432 27.6151 78.3902 28.0124 78.3902 28.6298C78.3902 29.2418 78.9432 29.6444 79.8558 29.6444Z" fill="#6030D9"/>
<path d="M74.3667 30.2189V29.5746C74.0446 30.0524 73.4648 30.3262 72.7185 30.3262C71.5375 30.3262 70.7429 29.6605 70.7429 28.6244C70.7429 27.5937 71.5375 26.9226 72.7185 26.9226C73.4648 26.9226 74.0499 27.2071 74.3667 27.6742V26.0314H75.188V30.2189H74.3667ZM72.9011 27.6098C72.0743 27.6098 71.575 28.0124 71.575 28.6244C71.575 29.2418 72.0743 29.6391 72.9011 29.6391C73.8137 29.6391 74.3667 29.2418 74.3667 28.6244C74.3667 28.0124 73.8137 27.6098 72.9011 27.6098Z" fill="#6030D9"/>
<path d="M68.195 30.3262C66.8583 30.3262 65.9939 29.6552 65.9993 28.6298C65.9993 27.5937 66.8583 26.928 68.1843 26.928C69.5801 26.928 70.4068 27.599 70.4068 28.7962H66.826C66.9066 29.3975 67.4327 29.6874 68.2433 29.6874C68.8929 29.6874 69.4137 29.5102 69.5586 29.1666H70.3639C70.1277 29.9182 69.4137 30.3262 68.195 30.3262ZM66.869 28.2594H69.5532C69.3976 27.7816 68.9251 27.5668 68.2165 27.5668C67.5025 27.5668 67.0247 27.7869 66.869 28.2594Z" fill="#6030D9"/>
<path d="M62.8621 30.2189V27.0353H63.6834V27.6742C64.1022 27.1051 64.5478 26.928 65.09 26.928C65.4175 26.928 65.6752 26.9817 65.9167 27.0729V27.7869C65.5839 27.6796 65.3423 27.6474 65.0578 27.6474C64.682 27.6474 64.1881 27.7547 63.6834 28.3184V30.2189H62.8621Z" fill="#6030D9"/>
<path d="M60.2753 30.3262C58.9386 30.3262 58.0742 29.6552 58.0796 28.6298C58.0796 27.5937 58.9386 26.928 60.2646 26.928C61.6604 26.928 62.4872 27.599 62.4872 28.7962H58.9064C58.9869 29.3975 59.513 29.6874 60.3237 29.6874C60.9732 29.6874 61.494 29.5102 61.6389 29.1666H62.4442C62.208 29.9182 61.494 30.3262 60.2753 30.3262ZM58.9493 28.2594H61.6336C61.4779 27.7816 61.0055 27.5668 60.2968 27.5668C59.5828 27.5668 59.105 27.7869 58.9493 28.2594Z" fill="#6030D9"/>
<path d="M52.054 30.2189L50.6152 27.0353H51.5118L52.6499 29.7357L53.9115 27.0353H54.8939L56.1502 29.7196L57.2883 27.0353H58.1848L56.7407 30.2189H55.6026L54.4 27.7386L53.1975 30.2189H52.054Z" fill="#6030D9"/>
<path d="M48.508 30.3262C47.1819 30.3262 46.2961 29.6605 46.2961 28.6298C46.2961 27.5937 47.1819 26.928 48.508 26.928C49.834 26.928 50.7198 27.5937 50.7198 28.6298C50.7198 29.6605 49.834 30.3262 48.508 30.3262ZM48.508 29.6767C49.3347 29.6767 49.8984 29.2633 49.8984 28.6298C49.8984 27.9909 49.3347 27.5776 48.508 27.5776C47.6812 27.5776 47.1175 27.9909 47.1175 28.6298C47.1175 29.2633 47.6812 29.6767 48.508 29.6767Z" fill="#6030D9"/>
<path d="M41.7434 30.2189V26.3535H44.5511C45.4853 26.3535 46.0704 26.885 46.0704 27.7547C46.0704 28.6137 45.4745 29.1452 44.5458 29.1452H42.5755V30.2189H41.7434ZM42.5755 28.4526H44.3793C44.8947 28.4526 45.2168 28.254 45.2168 27.7547C45.2168 27.2447 44.8894 27.0515 44.3793 27.0515H42.5755V28.4526Z" fill="#6030D9"/>
<path d="M113.742 25.5206C116.217 25.5207 117.819 26.7938 117.819 28.7501C117.819 30.7149 116.226 31.996 113.742 31.9962C111.249 31.9962 109.656 30.7151 109.656 28.7501C109.656 26.7851 111.258 25.5206 113.742 25.5206ZM121.731 25.5206C124.061 25.5206 125.252 26.2297 125.295 27.6475H123.924C123.923 26.8192 123.135 26.5626 121.654 26.5626C120.249 26.5626 119.76 26.7768 119.76 27.2979C119.761 27.9812 120.455 28.0755 122.048 28.1866C124.275 28.3489 125.552 28.5113 125.552 30.0577C125.551 31.5353 124.249 31.9961 122.065 31.9962C119.598 31.9962 118.279 31.4413 118.227 29.7755H119.606C119.606 30.604 120.318 30.9541 122.048 30.9542C123.607 30.9542 124.18 30.7148 124.18 30.0997C124.18 29.3738 123.418 29.3484 121.662 29.2374C119.272 29.0921 118.39 28.5792 118.39 27.2979C118.39 26.0677 119.59 25.5206 121.731 25.5206ZM129.417 25.5206C131.746 25.5206 132.937 26.2296 132.98 27.6475H131.61C131.61 26.8192 130.821 26.5626 129.34 26.5626C127.935 26.5626 127.447 26.7768 127.447 27.2979C127.447 27.9812 128.141 28.0755 129.734 28.1866C131.961 28.3489 133.237 28.5114 133.237 30.0577C133.237 31.5353 131.935 31.9962 129.751 31.9962C127.284 31.9961 125.964 31.4413 125.913 29.7755H127.293C127.293 30.6041 128.004 30.9542 129.734 30.9542C131.293 30.9541 131.867 30.7147 131.867 30.0997C131.867 29.3738 131.104 29.3484 129.348 29.2374C126.959 29.0921 126.076 28.5793 126.076 27.2979C126.076 26.0677 127.275 25.5206 129.417 25.5206ZM90.5642 31.8253H89.2361V25.6749H90.5642V31.8253ZM96.7117 30.3643L99.3074 25.6749H101.337V31.8253H100.01V26.9385L97.3279 31.8253H96.0867L93.405 26.9219V31.8253H92.0769V25.6749H94.1072L96.7117 30.3643ZM106.753 25.6749C108.243 25.6749 109.177 26.5203 109.177 27.9044C109.177 29.2713 108.226 30.1172 106.744 30.1172H103.6V31.8253H102.273V25.6749H106.753ZM135.765 31.8253H134.437V25.6749H135.765V31.8253ZM141.887 25.6749C143.361 25.6749 143.9 26.3156 143.9 27.2042C143.9 27.9045 143.489 28.383 142.855 28.6221C143.626 28.8101 144.252 29.2371 144.252 30.1426C144.252 31.1593 143.618 31.8253 142.264 31.8253H137.279V25.6749H141.887ZM146.66 30.6983H151.132V31.8253H145.332V25.6749H146.66V30.6983ZM158.278 26.6915H153.558V28.2374H158.107V29.1856H153.558V30.8008H158.278V31.8253H152.23V25.6749H158.278V26.6915ZM113.742 26.6397C112.063 26.6397 111.035 27.4942 111.035 28.7501C111.035 30.0145 112.072 30.8692 113.742 30.8692C115.403 30.869 116.448 30.0058 116.448 28.7501C116.448 27.4943 115.412 26.6399 113.742 26.6397ZM138.607 30.8174H141.844C142.478 30.8174 142.864 30.6127 142.864 29.9893C142.864 29.3315 142.367 29.211 141.844 29.211H138.607V30.8174ZM103.6 29.0147H106.479C107.301 29.0146 107.815 28.6987 107.815 27.9044C107.815 27.0929 107.293 26.7853 106.479 26.7852H103.6V29.0147ZM138.607 28.2549H141.502C142.076 28.2549 142.573 28.1259 142.573 27.4766C142.573 26.879 142.187 26.6827 141.502 26.6827H138.607V28.2549Z" fill="#6030D9"/>
<g clip-path="url(#clip0_1281_7315)">
<path d="M33.8041 18.1719L24.2113 14.2754L32.7645 12.2536C33.1306 12.1666 33.3318 11.7722 33.1871 11.4264L32.2142 9.10972C32.1001 8.83737 31.804 8.68707 31.5147 8.75488L21.3117 11.1665L27.1076 4.4368C27.3528 4.15202 27.2839 3.71354 26.9641 3.51917L24.8159 2.21617C24.5628 2.06248 24.2362 2.11559 24.0418 2.33935L17.1814 10.3065L17.8888 1.43641C17.9182 1.06122 17.6052 0.748183 17.2311 0.780955L14.7281 0.996803C14.4332 1.02166 14.2004 1.25785 14.1755 1.55394L13.3427 12.0084L8.71071 4.43341C8.51408 4.11246 8.07676 4.04353 7.79312 4.28876L5.8958 5.9353C5.67206 6.12855 5.62234 6.45627 5.77602 6.71054L11.2352 15.6394L3.04926 12.2412C2.70121 12.0977 2.30683 12.2988 2.22208 12.6639L1.6548 15.1116C1.58813 15.3998 1.73956 15.6948 2.01415 15.8089L11.7335 19.8445L3.07864 21.9577C2.71364 22.047 2.51476 22.4437 2.66166 22.7883L3.65157 25.0982C3.76796 25.3706 4.06516 25.5175 4.35331 25.4474L14.5337 22.9624L8.78981 29.735C8.54685 30.0221 8.61805 30.4594 8.9401 30.6515L11.0973 31.9387C11.3516 32.0901 11.6782 32.0347 11.8703 31.8087L18.681 23.7772L18.073 32.6744C18.0481 33.0496 18.3646 33.3592 18.7386 33.3231L21.2393 33.079C21.5343 33.0507 21.7648 32.8122 21.7851 32.5162L22.4993 22.0651L27.1867 29.6073C27.3856 29.9271 27.824 29.9927 28.1054 29.7452L29.9914 28.0851C30.214 27.8896 30.2615 27.5618 30.1056 27.3087L24.5741 18.4092L32.795 21.7487C33.1431 21.8899 33.5363 21.6854 33.6188 21.3192L34.168 18.8669C34.2336 18.5788 34.0787 18.2849 33.8041 18.1731V18.1719ZM17.9114 19.9823C16.2943 19.9823 14.9824 18.6714 14.9824 17.0531C14.9824 15.4348 16.2932 14.1239 17.9114 14.1239C19.5296 14.1239 20.8404 15.4348 20.8404 17.0531C20.8404 18.6714 19.5296 19.9823 17.9114 19.9823Z" fill="#6030D9"/>
</g>
<path d="M142.839 20.1919V6.08655H152.102C156.273 6.08655 159.367 9.08394 159.367 13.1392C159.367 17.1749 156.273 20.1919 152.102 20.1919H142.839ZM145.874 17.6059H150.907C154.178 17.6059 156.214 15.8819 156.214 13.1392C156.214 10.3965 154.178 8.67253 150.907 8.67253H145.874V17.6059Z" fill="#6030D9"/>
<path d="M127.39 20.1919V6.08655H141.216V8.41785H130.426V11.9638H140.824V14.1384H130.426V17.841H141.216V20.1919H127.39Z" fill="#6030D9"/>
<path d="M110.063 8.67253V6.08655H126.239V8.67253H119.678V20.1919H116.643V8.67253H110.063Z" fill="#6030D9"/>
<path d="M94.4397 20.1919L102.058 6.08655H106.053L113.651 20.1919H110.302L108.735 17.0966H99.3551L97.7884 20.1919H94.4397ZM100.491 14.8436H107.6L104.055 7.81054L100.491 14.8436Z" fill="#6030D9"/>
<path d="M77.1431 20.1919V6.08655H87.953C91.6738 6.08655 93.4363 7.51668 93.4363 10.2006C93.4363 12.1597 92.3788 13.4331 90.4597 13.9229C92.4963 13.9425 93.358 14.8045 93.358 16.6068V20.1919H90.3226V17.0574C90.3226 15.784 89.7547 15.2942 88.5013 15.2942H80.1785V20.1919H77.1431ZM80.1785 12.8258H87.2872C89.2259 12.8258 90.303 12.2381 90.303 10.6316C90.303 9.02517 89.2259 8.5354 87.2872 8.5354H80.1785V12.8258Z" fill="#6030D9"/>
<path d="M67.2798 20.5837C61.2482 20.5837 59.0745 17.7039 59.0745 13.3156V6.08655H62.1294V13.2176C62.1294 15.6077 63.089 17.9978 67.2798 17.9978C71.4511 17.9978 72.4106 15.5881 72.4106 13.2176V6.08655H75.4656V13.3156C75.4656 17.7039 73.2919 20.5837 67.2798 20.5837Z" fill="#6030D9"/>
<path d="M48.9028 20.5837C43.5174 20.5837 39.7966 17.6451 39.7966 13.1392C39.7966 8.63335 43.537 5.73392 48.9028 5.73392C53.7399 5.73392 57.2649 8.14359 57.6761 11.5132H54.4449C54.1316 9.90676 52.0949 8.30031 48.9028 8.30031C45.2995 8.30031 42.9495 10.3182 42.9495 13.1392C42.9495 15.9799 45.3191 17.9978 48.9028 17.9978C52.0949 17.9978 54.1316 16.3913 54.4449 14.7653H57.6761C57.2845 18.1349 53.7399 20.5837 48.9028 20.5837Z" fill="#6030D9"/>
<path d="M166.562 22.5C166.562 20.2909 168.352 18.5 170.562 18.5H204.567C206.776 18.5 208.567 20.2909 208.567 22.5V29.7C208.567 31.9091 206.776 33.7 204.567 33.7H170.562C168.352 33.7 166.562 31.9091 166.562 29.7V22.5Z" fill="#F7F6FF"/>
<path d="M194.757 29.7L198.647 22.5H200.687L204.567 29.7H202.857L202.057 28.12H197.267L196.467 29.7H194.757ZM197.847 26.97H201.477L199.667 23.38L197.847 26.97Z" fill="#6030D9"/>
<path d="M187.834 23.82V22.5H196.094V23.82H192.744V29.7H191.194V23.82H187.834Z" fill="#6030D9"/>
<path d="M179.79 29.7V22.5H186.85V23.69H181.34V25.5H186.65V26.61H181.34V28.5H186.85V29.7H179.79Z" fill="#6030D9"/>
<path d="M170.562 29.7V22.5H175.942C177.662 22.5 178.292 23.25 178.292 24.29C178.292 25.11 177.812 25.67 177.072 25.95C177.972 26.17 178.702 26.67 178.702 27.73C178.702 28.92 177.962 29.7 176.382 29.7H170.562ZM172.112 28.52H175.892C176.632 28.52 177.082 28.28 177.082 27.55C177.082 26.78 176.502 26.64 175.892 26.64H172.112V28.52ZM172.112 25.52H175.492C176.162 25.52 176.742 25.37 176.742 24.61C176.742 23.91 176.292 23.68 175.492 23.68H172.112V25.52Z" fill="#6030D9"/>
<defs>
<clipPath id="clip0_1281_7315">
<rect width="32.5448" height="32.5466" fill="white" transform="translate(1.63867 0.778931)"/>
</clipPath>
</defs>
</svg>
