<svg width="84" height="33" viewBox="0 0 84 33" fill="none" xmlns="http://www.w3.org/2000/svg">
<g clip-path="url(#clip0_1305_7361)">
<path d="M33.8041 17.6719L24.2113 13.7753L32.7645 11.7536C33.1306 11.6666 33.3318 11.2722 33.1871 10.9264L32.2142 8.60969C32.1001 8.33734 31.804 8.18704 31.5147 8.25485L21.3117 10.6665L27.1076 3.93677C27.3528 3.65199 27.2839 3.21351 26.9641 3.01914L24.8159 1.71614C24.5628 1.56245 24.2362 1.61556 24.0418 1.83932L17.1814 9.80646L17.8888 0.936378C17.9182 0.561188 17.6052 0.248152 17.2311 0.280925L14.7281 0.496772C14.4332 0.521634 14.2004 0.757823 14.1755 1.05391L13.3427 11.5084L8.71071 3.93338C8.51408 3.61243 8.07676 3.5435 7.79312 3.78873L5.8958 5.43527C5.67206 5.62851 5.62234 5.95624 5.77602 6.21051L11.2352 15.1394L3.04926 11.7412C2.70121 11.5977 2.30683 11.7988 2.22208 12.1638L1.6548 14.6116C1.58813 14.8998 1.73956 15.1947 2.01415 15.3089L11.7335 19.3444L3.07864 21.4577C2.71364 21.547 2.51476 21.9436 2.66166 22.2883L3.65157 24.5982C3.76796 24.8706 4.06516 25.0175 4.35331 24.9474L14.5337 22.4623L8.78981 29.235C8.54685 29.522 8.61805 29.9594 8.9401 30.1515L11.0973 31.4387C11.3516 31.5901 11.6782 31.5347 11.8703 31.3087L18.681 23.2771L18.073 32.1743C18.0481 32.5495 18.3646 32.8592 18.7386 32.823L21.2393 32.5789C21.5343 32.5507 21.7648 32.3122 21.7851 32.0161L22.4993 21.5651L27.1867 29.1073C27.3856 29.4271 27.824 29.4926 28.1054 29.2452L29.9914 27.585C30.214 27.3895 30.2615 27.0618 30.1056 26.8087L24.5741 17.9092L32.795 21.2486C33.1431 21.3899 33.5363 21.1853 33.6188 20.8192L34.168 18.3669C34.2336 18.0787 34.0787 17.7849 33.8041 17.673V17.6719ZM17.9114 19.4823C16.2943 19.4823 14.9824 18.1714 14.9824 16.5531C14.9824 14.9348 16.2932 13.6239 17.9114 13.6239C19.5296 13.6239 20.8404 14.9348 20.8404 16.5531C20.8404 18.1714 19.5296 19.4823 17.9114 19.4823Z" fill="#6030D9"/>
</g>
<path d="M39.385 13.0522C39.385 10.8431 41.1759 9.05225 43.385 9.05225H79.385C81.5941 9.05225 83.385 10.8431 83.385 13.0522V20.0522C83.385 22.2614 81.5941 24.0522 79.385 24.0522H43.385C41.1759 24.0522 39.385 22.2614 39.385 20.0522V13.0522Z" fill="#F7F6FF"/>
<path d="M44.4592 20.0522V12.8522H49.8392C51.5592 12.8522 52.1892 13.6022 52.1892 14.6422C52.1892 15.4622 51.7092 16.0222 50.9692 16.3022C51.8692 16.5222 52.5992 17.0222 52.5992 18.0822C52.5992 19.2722 51.8592 20.0522 50.2792 20.0522H44.4592ZM46.0092 18.8722H49.7892C50.5292 18.8722 50.9792 18.6322 50.9792 17.9022C50.9792 17.1322 50.3992 16.9922 49.7892 16.9922H46.0092V18.8722ZM46.0092 15.8722H49.3892C50.0592 15.8722 50.6392 15.7222 50.6392 14.9622C50.6392 14.2622 50.1892 14.0322 49.3892 14.0322H46.0092V15.8722ZM53.6877 20.0522V12.8522H60.7477V14.0422H55.2377V15.8522H60.5477V16.9622H55.2377V18.8522H60.7477V20.0522H53.6877ZM61.7323 14.1722V12.8522H69.9923V14.1722H66.6423V20.0522H65.0923V14.1722H61.7323ZM68.6549 20.0522L72.5449 12.8522H74.5849L78.4649 20.0522H76.7549L75.9549 18.4722H71.1649L70.3649 20.0522H68.6549ZM71.7449 17.3222H75.3749L73.5649 13.7322L71.7449 17.3222Z" fill="#6030D9"/>
<defs>
<clipPath id="clip0_1305_7361">
<rect width="32.5448" height="32.5466" fill="white" transform="translate(1.63867 0.278931)"/>
</clipPath>
</defs>
</svg>
