<svg width="100" height="149" viewBox="0 0 100 149" fill="none" xmlns="http://www.w3.org/2000/svg">
<g opacity="0.05" clip-path="url(#clip0_2106_2215)">
<path d="M29.8517 144.408C30.5072 146.854 33.0608 148.375 35.5082 147.719L146.201 118.059C148.648 117.403 150.156 114.795 149.5 112.348C148.845 109.902 146.25 108.453 143.803 109.109L33.1101 138.769C30.6626 139.424 29.1963 141.962 29.8517 144.408ZM22.53 78.146C23.1407 80.4253 24.7627 81.3612 27.0433 80.7501L41.2832 76.9345C43.5639 76.3234 44.5562 74.6871 43.9455 72.4078L43.588 71.0736C43.007 68.9054 41.3146 67.9289 39.0339 68.54L24.794 72.3555C22.5134 72.9666 21.5916 74.6437 22.1725 76.8118L22.53 78.146ZM41.7743 123.934L50.1736 121.684L37.5864 74.7075L29.1871 76.9581L41.7743 123.934ZM36.1302 128.902C36.7409 131.182 38.3629 132.118 40.6435 131.507L54.8834 127.691C57.164 127.08 58.1564 125.444 57.5456 123.164L57.1881 121.83C56.6072 119.662 54.9147 118.685 52.6341 119.296L38.3942 123.112C36.1136 123.723 35.1917 125.4 35.7726 127.568L36.1302 128.902ZM48.9517 71.0663C49.5625 73.3457 51.24 74.2666 53.465 73.6704L67.7605 69.8399C69.9855 69.2437 70.9778 67.6074 70.367 65.3281L70.0095 63.9939C69.4286 61.8258 67.7362 60.8492 65.5112 61.4454L51.2157 65.2759C48.9907 65.8721 48.0133 67.564 48.5942 69.7321L48.9517 71.0663ZM68.2516 116.84L76.6509 114.589L64.0637 67.613L55.6644 69.8636L68.2516 116.84ZM62.5519 121.823C63.1626 124.102 64.8402 125.023 67.0652 124.427L81.3607 120.596C83.5857 120 84.5779 118.364 83.9672 116.085L83.6096 114.75C83.0288 112.582 81.3364 111.606 79.1114 112.202L64.8159 116.032C62.5909 116.629 61.6135 118.321 62.1943 120.488L62.5519 121.823ZM75.429 63.9718C76.0398 66.2511 77.7175 67.172 79.9424 66.5758L94.2381 62.7453C96.4629 62.1492 97.4554 60.5128 96.8447 58.2335L96.4872 56.8993C95.9062 54.7311 94.2136 53.7546 91.9888 54.3508L77.6931 58.1813C75.4682 58.7774 74.4906 60.4694 75.0715 62.6376L75.429 63.9718ZM94.7287 109.745L103.128 107.495L90.5407 60.5185L82.1415 62.7691L94.7287 109.745ZM89.0292 114.728C89.6399 117.008 91.3177 117.928 93.5425 117.332L107.838 113.502C110.063 112.906 111.056 111.269 110.445 108.99L110.087 107.656C109.506 105.488 107.814 104.511 105.589 105.107L91.2932 108.938C89.0684 109.534 88.0908 111.226 88.6716 113.394L89.0292 114.728ZM101.906 56.8773C102.517 59.1566 104.139 60.0924 106.419 59.4813L120.659 55.6657C122.94 55.0546 123.877 53.4332 123.266 51.1539L122.908 49.8197C122.328 47.6516 120.691 46.6601 118.41 47.2712L104.17 51.0868C101.889 51.6979 100.968 53.3749 101.549 55.5431L101.906 56.8773ZM121.151 102.665L129.55 100.415L116.963 53.4388L108.563 55.6893L121.151 102.665ZM115.506 107.634C116.117 109.913 117.739 110.849 120.02 110.238L134.259 106.422C136.54 105.811 137.477 104.19 136.866 101.91L136.509 100.576C135.928 98.4082 134.291 97.4166 132.01 98.0277L117.77 101.843C115.49 102.454 114.568 104.132 115.149 106.299L115.506 107.634ZM17.5462 69.1137L122.454 41.0038C125.513 40.184 126.697 37.4834 126.087 35.2041C125.64 33.5363 124.363 32.3293 121.992 31.7132L67.1595 17.0901C64.592 16.4076 62.0768 16.3666 59.7962 16.9777C57.5161 17.5886 55.3583 18.8818 53.476 20.7566L13.3014 60.8368C11.5561 62.5557 11.0535 64.2396 11.5003 65.9074C12.1111 68.1867 14.4313 69.9484 17.5462 69.1137Z" fill="#404040"/>
</g>
<defs>
<clipPath id="clip0_2106_2215">
<rect width="126" height="120" fill="white" transform="translate(0 33) rotate(-15)"/>
</clipPath>
</defs>
</svg>
