<svg width="138" height="95" viewBox="0 0 138 95" fill="none" xmlns="http://www.w3.org/2000/svg">
<path d="M29.8517 143.468C30.5072 145.914 33.0608 147.434 35.5082 146.779L146.201 117.119C148.648 116.463 150.156 113.854 149.5 111.408C148.845 108.962 146.25 107.513 143.803 108.168L33.1101 137.828C30.6626 138.484 29.1963 141.022 29.8517 143.468ZM22.53 77.2058C23.1407 79.4851 24.7627 80.421 27.0433 79.8099L41.2832 75.9943C43.5639 75.3832 44.5562 73.7469 43.9455 71.4676L43.588 70.1334C43.007 67.9652 41.3146 66.9887 39.0339 67.5998L24.794 71.4154C22.5134 72.0264 21.5916 73.7035 22.1725 75.8716L22.53 77.2058ZM41.7743 122.994L50.1736 120.743L37.5864 73.7674L29.1871 76.018L41.7743 122.994ZM36.1302 127.962C36.7409 130.242 38.3629 131.177 40.6435 130.566L54.8834 126.751C57.164 126.14 58.1564 124.503 57.5456 122.224L57.1881 120.89C56.6072 118.722 54.9147 117.745 52.6341 118.356L38.3942 122.172C36.1136 122.783 35.1917 124.46 35.7726 126.628L36.1302 127.962ZM48.9517 70.1262C49.5625 72.4055 51.24 73.3264 53.465 72.7302L67.7605 68.8998C69.9855 68.3036 70.9778 66.6673 70.367 64.3879L70.0095 63.0537C69.4286 60.8856 67.7362 59.909 65.5112 60.5052L51.2157 64.3357C48.9907 64.9319 48.0133 66.6238 48.5942 68.792L48.9517 70.1262ZM68.2516 115.899L76.6509 113.649L64.0637 66.6728L55.6644 68.9234L68.2516 115.899ZM62.5519 120.883C63.1626 123.162 64.8402 124.083 67.0652 123.487L81.3607 119.656C83.5857 119.06 84.5779 117.424 83.9672 115.144L83.6096 113.81C83.0288 111.642 81.3364 110.666 79.1114 111.262L64.8159 115.092C62.5909 115.688 61.6135 117.38 62.1943 119.548L62.5519 120.883ZM75.429 63.0316C76.0398 65.3109 77.7175 66.2318 79.9424 65.6356L94.2381 61.8051C96.4629 61.209 97.4554 59.5726 96.8447 57.2933L96.4872 55.9591C95.9062 53.7909 94.2136 52.8144 91.9888 53.4106L77.6931 57.2411C75.4682 57.8372 74.4906 59.5293 75.0715 61.6974L75.429 63.0316ZM94.7287 108.805L103.128 106.554L90.5407 59.5783L82.1415 61.8289L94.7287 108.805ZM89.0292 113.788C89.6399 116.067 91.3177 116.988 93.5425 116.392L107.838 112.562C110.063 111.965 111.056 110.329 110.445 108.05L110.087 106.715C109.506 104.548 107.814 103.571 105.589 104.167L91.2932 107.998C89.0684 108.594 88.0908 110.286 88.6716 112.454L89.0292 113.788ZM101.906 55.9371C102.517 58.2164 104.139 59.1522 106.419 58.5411L120.659 54.7256C122.94 54.1145 123.877 52.493 123.266 50.2137L122.908 48.8795C122.328 46.7114 120.691 45.7199 118.41 46.331L104.17 50.1466C101.889 50.7577 100.968 52.4347 101.549 54.6029L101.906 55.9371ZM121.151 101.725L129.55 99.4747L116.963 52.4986L108.563 54.7492L121.151 101.725ZM115.506 106.694C116.117 108.973 117.739 109.909 120.02 109.298L134.259 105.482C136.54 104.871 137.477 103.25 136.866 100.97L136.509 99.6358C135.928 97.468 134.291 96.4764 132.01 97.0875L117.77 100.903C115.49 101.514 114.568 103.191 115.149 105.359L115.506 106.694ZM17.5462 68.1736L122.454 40.0636C125.513 39.2439 126.697 36.5432 126.087 34.2639C125.64 32.5961 124.363 31.3891 121.992 30.773L67.1595 16.1499C64.592 15.4674 62.0768 15.4264 59.7962 16.0375C57.5161 16.6484 55.3583 17.9416 53.476 19.8164L13.3014 59.8966C11.5561 61.6155 11.0535 63.2995 11.5003 64.9673C12.1111 67.2466 14.4313 69.0082 17.5462 68.1736Z" fill="#E5E5E5"/>
</svg>
