<svg width="85" height="84" viewBox="0 0 85 84" fill="none" xmlns="http://www.w3.org/2000/svg">
<path d="M8.27286 66.0624C11.8217 70.9986 16.3738 75.1289 21.6308 78.1824C26.8879 81.236 32.7309 83.1438 38.777 83.7809C35.6663 79.1 31.1449 74.7935 25.5002 71.5149C19.8555 68.2363 13.8777 66.4453 8.27286 66.0624Z" fill="url(#paint0_linear_412_6550)"/>
<path d="M33.0852 58.4601C22.2101 52.142 10.4395 50.5319 2.01728 53.3763C2.83034 56.0635 3.90263 58.6653 5.21903 61.1451C12.5365 60.9756 20.5259 62.963 27.9601 67.2809C35.3943 71.5988 41.0803 77.5581 44.5596 84C47.3674 83.9138 50.1603 83.5562 52.8992 82.9323C51.1966 74.2083 43.9574 64.7796 33.0852 58.4601Z" fill="url(#paint1_linear_412_6550)"/>
<path d="M84.9084 32.8149C83.5258 27.1908 81.024 21.9031 77.5524 17.2674C74.0808 12.6316 69.7107 8.74301 64.703 5.83368C59.6953 2.92434 54.1526 1.05395 48.406 0.334189C42.6594 -0.385571 36.8267 0.0600598 31.2561 1.64447C40.5624 2.78338 50.8922 6.27696 61.0228 12.1622C71.1533 18.0475 79.3122 25.2895 84.9084 32.8149Z" fill="url(#paint2_linear_412_6550)"/>
<path d="M71.3683 53.4406C66.6048 45.5295 58.4446 37.9544 48.3923 32.1146C38.3401 26.2749 27.7198 22.9394 18.4961 22.7187C10.3814 22.5265 4.29112 24.8855 1.79123 29.1891C1.77699 29.2147 1.75706 29.2389 1.7414 29.2645C1.51647 30.0717 1.32286 30.8804 1.14633 31.6918C4.63707 30.3138 8.6816 29.5464 13.1788 29.461C23.1798 29.2731 34.3724 32.472 44.7009 38.4726C55.0293 44.4732 63.3589 52.6149 68.148 61.393C70.2949 65.3479 71.6345 69.2415 72.1655 72.9614C72.7834 72.4091 73.3898 71.8382 73.9778 71.2445C73.9935 71.2175 74.0034 71.189 74.0191 71.1605C76.519 66.8526 75.5523 60.3951 71.3683 53.4406Z" fill="url(#paint3_linear_412_6550)"/>
<path d="M40.7445 45.2774C25.3508 36.3341 8.33984 34.9333 0.159667 41.1745C0.175734 43.128 0.325085 45.0782 0.606684 47.0114C3.01301 46.2819 5.49306 45.8226 8.00102 45.6418C17.1421 44.9542 27.22 47.5011 36.3654 52.8169C45.5108 58.1328 52.7201 65.6296 56.6521 73.9052C57.739 76.1723 58.568 78.5542 59.1236 81.0062C60.9429 80.293 62.7117 79.4573 64.418 78.5049C65.7876 68.306 56.1425 54.222 40.7445 45.2774Z" fill="url(#paint4_linear_412_6550)"/>
<path d="M79.2862 40.1995C74.4686 32.2969 66.2372 24.7004 56.1138 18.8223C45.9903 12.9441 35.3288 9.55586 26.0752 9.28395C19.0211 9.08037 13.5572 10.7902 10.7242 14.0204C22.4876 12.0273 38.0038 15.3771 53.043 24.1139C68.0822 32.8507 78.6826 44.6725 82.7741 55.8779C84.1763 51.8192 82.9563 46.2257 79.2862 40.1995Z" fill="url(#paint5_linear_412_6550)"/>
<defs>
<linearGradient id="paint0_linear_412_6550" x1="56.5972" y1="17.0625" x2="17.6597" y2="84" gradientUnits="userSpaceOnUse">
<stop offset="0.0001" stop-color="#A4D756"/>
<stop offset="1" stop-color="#00B6E7"/>
</linearGradient>
<linearGradient id="paint1_linear_412_6550" x1="56.5972" y1="17.0625" x2="17.6597" y2="84" gradientUnits="userSpaceOnUse">
<stop offset="0.0001" stop-color="#A4D756"/>
<stop offset="1" stop-color="#00B6E7"/>
</linearGradient>
<linearGradient id="paint2_linear_412_6550" x1="56.5972" y1="17.0625" x2="17.6597" y2="84" gradientUnits="userSpaceOnUse">
<stop offset="0.0001" stop-color="#A4D756"/>
<stop offset="1" stop-color="#00B6E7"/>
</linearGradient>
<linearGradient id="paint3_linear_412_6550" x1="56.5972" y1="17.0625" x2="17.6597" y2="84" gradientUnits="userSpaceOnUse">
<stop offset="0.0001" stop-color="#A4D756"/>
<stop offset="1" stop-color="#00B6E7"/>
</linearGradient>
<linearGradient id="paint4_linear_412_6550" x1="56.5972" y1="17.0625" x2="17.6597" y2="84" gradientUnits="userSpaceOnUse">
<stop offset="0.0001" stop-color="#A4D756"/>
<stop offset="1" stop-color="#00B6E7"/>
</linearGradient>
<linearGradient id="paint5_linear_412_6550" x1="56.5972" y1="17.0625" x2="17.6597" y2="84" gradientUnits="userSpaceOnUse">
<stop offset="0.0001" stop-color="#A4D756"/>
<stop offset="1" stop-color="#00B6E7"/>
</linearGradient>
</defs>
</svg>
