<svg width="44" height="12" viewBox="0 0 44 12" fill="none" xmlns="http://www.w3.org/2000/svg">
<g clip-path="url(#clip0_3444_1980)">
<path d="M21.624 2.47434H16.6225V1.29883H23.286V2.47434L18.073 9.2825V9.5274H23.272V10.7029H16.3965V9.5274L21.6235 2.71924V2.47434H21.624Z" fill="#FFFDF3"/>
<path d="M26.6529 10.8695C26.1354 10.8695 25.6809 10.7774 25.2904 10.5928C24.8999 10.4086 24.5749 10.1549 24.3164 9.83213C24.0574 9.50935 23.8644 9.12242 23.7374 8.67033C23.6104 8.21874 23.5469 7.72062 23.5469 7.17695C23.5469 6.63327 23.6149 6.14642 23.7514 5.69042C23.8879 5.23393 24.0904 4.84454 24.3584 4.52176C24.6264 4.19899 24.9514 3.94576 25.3324 3.76111C25.7134 3.57695 26.1534 3.48438 26.6524 3.48438C27.1514 3.48438 27.6214 3.57205 28.0079 3.74691C28.3939 3.92225 28.7139 4.16176 28.9679 4.46593C29.2219 4.77009 29.4124 5.12764 29.5399 5.5376C29.6669 5.94805 29.7304 6.38789 29.7304 6.85858V7.52225H24.8879V8.26919C24.8879 8.52731 24.9374 8.75556 25.0359 8.95393C25.1349 9.15229 25.2689 9.32029 25.4384 9.45891C25.6079 9.59703 25.7984 9.70086 26.0104 9.76993C26.2224 9.83899 26.4409 9.87376 26.6669 9.87376C27.1189 9.87376 27.5089 9.76111 27.8389 9.53482C28.1684 9.30903 28.3564 8.95197 28.4034 8.46315H29.6739C29.6459 8.84127 29.5444 9.17776 29.3704 9.47262C29.1959 9.76797 28.9704 10.0187 28.6929 10.2264C28.4154 10.4341 28.1019 10.5928 27.7539 10.7035C27.4054 10.8142 27.0384 10.8695 26.6529 10.8695ZM28.4174 6.13956C28.4174 5.88144 28.3699 5.64878 28.2764 5.44111C28.1824 5.23344 28.0529 5.05858 27.8884 4.91556C27.7234 4.77254 27.5354 4.66429 27.3239 4.59033C27.1119 4.51686 26.8884 4.47964 26.6534 4.47964C26.4184 4.47964 26.1944 4.51638 25.9829 4.59033C25.7709 4.66429 25.5829 4.77254 25.4184 4.91556C25.2534 5.05858 25.1239 5.23344 25.0304 5.44111C24.9364 5.64878 24.8894 5.88144 24.8894 6.13956V6.52699H28.4189V6.13956H28.4174Z" fill="#FFFDF3"/>
<path d="M37.0536 1.29883H35.7266V2.59875H37.0536V1.29883Z" fill="#FFFDF3"/>
<path d="M30.6719 10.7029V1.29883H31.9424V10.7029H30.6719Z" fill="#FFFDF3"/>
<path d="M33.2129 10.7029V1.29883H34.4834V10.7029H33.2129Z" fill="#FFFDF3"/>
<path d="M37.0244 3.65039H35.7539V10.7035H37.0244V3.65039Z" fill="#FFFDF3"/>
<path d="M37.9824 7.23229C37.9824 6.67001 38.0504 6.15572 38.1869 5.69042C38.3234 5.22511 38.5234 4.83082 38.7869 4.50805C39.0504 4.18527 39.3749 3.93401 39.7609 3.75425C40.1469 3.5745 40.5844 3.48438 41.0739 3.48438C41.4504 3.48438 41.8054 3.53286 42.1399 3.62935C42.4739 3.72633 42.7684 3.87621 43.0224 4.07899C43.2764 4.28176 43.4834 4.53989 43.6434 4.85335C43.8034 5.16682 43.9019 5.53564 43.9399 5.9598H42.6694C42.6414 5.67425 42.5799 5.4367 42.4859 5.24764C42.3919 5.05858 42.2694 4.90674 42.1189 4.79115C41.9684 4.67605 41.7964 4.59523 41.6034 4.54919C41.4104 4.50315 41.2104 4.48013 41.0034 4.48013C40.7964 4.48013 40.5799 4.51491 40.3824 4.58397C40.1849 4.65303 40.0059 4.75686 39.8459 4.89499C39.6859 5.03311 39.5589 5.20601 39.4649 5.41368C39.3709 5.62135 39.3239 5.86331 39.3239 6.13956V8.21384C39.3239 8.46266 39.3684 8.69091 39.4579 8.89858C39.5474 9.10625 39.6699 9.28111 39.8249 9.42413C39.9804 9.56715 40.1589 9.67784 40.3614 9.75621C40.5639 9.83458 40.7824 9.87376 41.0179 9.87376C41.4884 9.87376 41.8789 9.74935 42.1899 9.50054C42.5004 9.25172 42.6794 8.86429 42.7264 8.33874H43.9969C43.9499 8.77221 43.8369 9.14788 43.6579 9.46576C43.4789 9.78364 43.2579 10.0467 42.9944 10.2538C42.7309 10.4615 42.4319 10.6158 42.0979 10.7172C41.7639 10.8186 41.4134 10.8695 41.0459 10.8695C40.5189 10.8695 40.0649 10.7794 39.6834 10.5996C39.3024 10.4199 38.9844 10.1662 38.7304 9.83899C38.4764 9.5118 38.2879 9.12682 38.1659 8.68405C38.0434 8.24127 37.9824 7.75735 37.9824 7.2318V7.23229Z" fill="#FFFDF3"/>
<path d="M4.20039 0.123047V4.86966L3.40039 4.41709V0.123047H4.20039Z" fill="#FFFDF3"/>
<path d="M5.8 0.123047V5.77431L5 5.32174V0.123047H5.8Z" fill="#FFFDF3"/>
<path d="M0.403906 5.4375L4.59991 7.81056L3.79991 8.26313L0.00390625 6.11587L0.403906 5.4375Z" fill="#FFFDF3"/>
<path d="M1.20469 4.08008L6.20069 6.90571L5.40069 7.35828L0.804688 4.75894L1.20469 4.08008Z" fill="#FFFDF3"/>
<path d="M3.20312 11.315L7.39912 8.94141V9.84655L3.60313 11.9933L3.20312 11.315Z" fill="#FFFDF3"/>
<path d="M2.4043 9.95649L7.4003 7.13086V8.036L2.8043 10.6353L2.4043 9.95649Z" fill="#FFFDF3"/>
<path d="M9.80078 11.8775V7.13086L10.6008 7.58343V11.8775H9.80078Z" fill="#FFFDF3"/>
<path d="M8.19922 11.8778V6.22656L8.99922 6.67913V11.8778H8.19922Z" fill="#FFFDF3"/>
<path d="M13.5964 6.56391L9.40039 4.19085L10.2004 3.73828L13.9964 5.88555L13.5964 6.56391Z" fill="#FFFDF3"/>
<path d="M12.7968 7.92078L7.80078 5.09515L8.60078 4.64258L13.1968 7.24193L12.7968 7.92078Z" fill="#FFFDF3"/>
<path d="M10.7956 0.68618L6.59961 3.05973V2.15459L10.3956 0.0078125L10.7956 0.68618Z" fill="#FFFDF3"/>
<path d="M11.5956 2.04409L6.59961 4.86972V3.96458L11.1956 1.36523L11.5956 2.04409Z" fill="#FFFDF3"/>
</g>
<defs>
<clipPath id="clip0_3444_1980">
<rect width="44" height="12" fill="white"/>
</clipPath>
</defs>
</svg>
