<svg width="501" height="79" viewBox="0 0 501 79" fill="none" xmlns="http://www.w3.org/2000/svg">
<g clip-path="url(#clip0_3700_16)">
<path d="M25.988 51.3252C26.9048 53.4088 28.155 55.3258 29.6553 56.9928C26.4048 58.7431 23.0709 59.5765 19.3202 59.5765C8.31838 59.5765 0.400391 52.242 0.400391 40.49C0.400391 28.6547 8.73512 21.3202 19.3202 21.3202C23.0709 21.3202 26.0714 22.1536 29.0719 23.7372C27.655 25.4875 26.4881 27.4879 25.6546 29.6549C23.821 28.9048 21.9874 28.5714 20.0704 28.5714C13.5693 28.5714 8.48507 32.8221 8.48507 40.49C8.48507 47.7412 13.4026 52.4087 20.3204 52.4087C22.4041 52.4087 24.2377 52.0753 25.988 51.3252ZM48.075 21.4035C58.9102 21.4035 66.6615 29.1548 66.6615 40.5734C66.6615 51.9086 58.8268 59.6599 48.075 59.6599C37.3232 59.6599 29.572 51.9086 29.572 40.5734C29.572 29.1548 37.4066 21.4035 48.075 21.4035ZM48.075 28.4047C42.074 28.4047 37.6566 33.0721 37.6566 40.5734C37.6566 47.9079 42.074 52.6587 48.075 52.6587C54.2427 52.6587 58.5768 47.9913 58.5768 40.5734C58.5768 33.0721 54.3261 28.4047 48.075 28.4047ZM71.829 58.7431V22.1536H79.9137V58.7431H71.829ZM70.8288 10.9851C70.8288 8.15131 73.1626 5.98428 75.8297 5.98428C78.4968 5.98428 80.8305 8.23465 80.8305 10.9851C80.8305 13.9023 78.4968 16.1527 75.8297 16.1527C73.1626 16.1527 70.8288 13.8189 70.8288 10.9851ZM86.9148 24.4874C91.9157 22.487 98.1667 21.3202 103.417 21.3202C112.585 21.3202 118.503 24.9041 118.503 35.1558V58.6597H110.502V35.9893C110.502 30.7384 107.251 28.8214 102.75 28.8214C99.917 28.8214 97.0832 29.2382 94.9162 29.9049V58.8264H86.8315V24.4874H86.9148ZM125.254 2.65039H133.339V23.2372C135.006 22.3203 138.34 21.4035 141.59 21.4035C152.009 21.4035 159.843 28.1547 159.843 39.9066C159.843 51.7419 152.092 59.6599 138.756 59.6599C133.589 59.6599 129.005 58.5764 125.338 57.2428V2.65039H125.254ZM133.256 51.8253C134.839 52.3253 136.839 52.5754 138.84 52.5754C146.258 52.5754 151.509 48.408 151.509 39.9899C151.509 32.9054 146.508 28.6547 140.423 28.6547C137.256 28.6547 134.839 29.4882 133.172 30.405V51.8253H133.256ZM182.93 34.239C182.93 30.2383 180.013 28.488 176.013 28.488C171.845 28.488 168.595 29.7382 165.594 31.4885V24.3207C168.761 22.487 172.845 21.3202 177.263 21.3202C185.181 21.3202 190.765 24.6541 190.765 33.8222V57.9929C187.348 58.9098 182.514 59.4932 178.43 59.4932C169.095 59.4932 162.26 56.576 162.26 48.3247C162.26 40.9068 168.511 37.2395 178.93 37.2395H182.93V34.239ZM182.93 42.7404H179.513C173.929 42.7404 170.262 44.4074 170.262 48.0746C170.262 51.9086 173.679 53.3255 178.596 53.3255C179.847 53.3255 181.514 53.1588 183.014 52.9088L182.93 42.7404ZM196.683 48.8247C200.017 51.4085 204.017 52.9921 207.685 52.9921C211.269 52.9921 213.602 51.7419 213.602 48.8247C213.602 45.8242 211.519 44.7407 206.851 43.5739C199.35 41.8236 196.183 38.8231 196.183 32.4054C196.183 24.9875 201.684 21.3202 209.018 21.3202C213.102 21.3202 216.353 22.237 219.353 24.154V31.6552C216.186 29.3215 213.102 27.9046 209.268 27.9046C205.768 27.9046 203.934 29.6549 203.934 32.072C203.934 34.489 205.518 35.7392 209.602 36.8228C217.853 38.6564 221.354 41.7402 221.354 48.408C221.354 56.076 215.603 59.5765 207.768 59.5765C203.517 59.5765 199.35 58.4097 196.599 56.5761V48.8247H196.683ZM232.439 42.3237V42.4904C232.939 48.9914 238.44 52.5754 244.107 52.5754C249.108 52.5754 252.609 51.4085 256.193 48.9915V56.1593C252.942 58.493 248.108 59.5765 243.524 59.5765C232.272 59.5765 224.687 52.3253 224.687 40.7401C224.687 29.0715 232.189 21.3202 242.107 21.3202C252.609 21.3202 257.526 28.1546 257.526 38.1563V42.3237H232.439ZM249.942 37.0728C249.775 31.4052 247.024 28.238 241.774 28.238C237.106 28.238 233.689 31.5719 232.689 37.0728H249.942Z" fill="#FFFDF3"/>
<path d="M286.198 0.900391H286.948C287.698 0.900391 288.281 1.48383 288.281 2.23395V77.2465C288.281 77.9966 287.698 78.58 286.948 78.58H286.198C285.447 78.58 284.864 77.9966 284.864 77.2465V2.23395C284.864 1.48383 285.531 0.900391 286.198 0.900391Z" fill="#FFFDF3"/>
<path d="M332.622 58.8271H328.121L314.286 21.9043H318.37L330.538 54.9931L342.707 21.9043H346.624L332.622 58.8271ZM368.545 45.4916H348.541V45.5749C348.541 52.2427 353.209 56.16 358.376 56.16C362.127 56.16 364.711 55.1598 367.378 53.0762V56.8268C365.044 58.6604 361.627 59.4106 358.376 59.4106C350.708 59.4106 344.874 54.0763 344.874 45.2415C344.874 37.0735 350.292 31.0725 357.459 31.0725C364.127 31.0725 368.545 35.1565 368.545 42.9078V45.4916ZM348.791 42.3244H364.961C364.711 36.6568 361.71 34.4064 357.293 34.4064C353.209 34.4064 349.875 37.2402 348.791 42.3244ZM372.629 58.8271V33.1562C376.129 31.8226 380.13 31.0725 383.714 31.0725C390.382 31.0725 394.466 33.7396 394.466 40.4907V58.7438H390.798V41.2408C390.798 35.7399 386.964 34.4897 383.38 34.4897C380.63 34.4897 378.13 34.9898 376.213 35.4899V58.7438H372.629V58.8271ZM396.716 34.9065V31.7393H400.8V25.1548H404.467V31.7393H411.885V34.9065H404.467V51.4092C404.467 54.9098 405.801 56.2434 408.301 56.2434C409.968 56.2434 411.385 55.6599 413.219 54.7431V58.077C411.635 58.9105 409.802 59.4106 407.551 59.4106C403.717 59.4106 400.883 57.3269 400.883 51.7426V34.8231H396.716V34.9065ZM437.223 31.7393V58.4937C433.972 59.0772 430.722 59.4106 427.971 59.4106C420.303 59.4106 415.969 56.7434 415.969 49.9923V31.7393H419.637V49.8256C419.637 54.9098 423.554 56.2434 427.805 56.2434C429.638 56.2434 431.722 56.16 433.639 55.91V31.8226H437.223V31.7393ZM447.058 36.24V58.8271H443.391V34.2397C446.141 32.406 449.558 31.3225 453.225 31.3225C454.642 31.3225 456.143 31.4892 457.643 31.906V35.5732C456.059 34.9898 454.226 34.9065 452.975 34.9065C450.392 34.8231 448.391 35.4065 447.058 36.24ZM481.23 45.4916H461.227V45.5749C461.227 52.2427 465.894 56.16 471.062 56.16C474.812 56.16 477.396 55.1598 480.063 53.0762V56.8268C477.73 58.6604 474.312 59.4106 471.062 59.4106C463.394 59.4106 457.56 54.0763 457.56 45.2415C457.56 37.0735 462.977 31.0725 470.145 31.0725C476.813 31.0725 481.23 35.1565 481.23 42.9078V45.4916ZM461.477 42.3244H477.646C477.396 36.6568 474.396 34.4064 469.978 34.4064C465.811 34.4064 462.477 37.2402 461.477 42.3244ZM483.981 57.2435V52.9928C486.231 55.0765 488.565 56.2434 491.398 56.2434C494.732 56.2434 496.816 54.9098 496.816 51.9093C496.816 48.6588 494.482 47.8253 490.315 46.4084C485.648 44.8248 483.647 42.8245 483.647 38.4904C483.647 33.7396 487.148 31.1559 491.982 31.1559C494.566 31.1559 497.149 31.7393 499.233 33.2395V37.2402C497.149 35.4899 495.066 34.323 491.982 34.323C489.065 34.323 487.231 35.9066 487.231 38.4904C487.231 40.9908 488.648 42.241 492.732 43.5746C497.316 44.9915 500.4 46.8251 500.4 51.7426C500.4 57.0768 496.316 59.4939 491.398 59.4939C488.481 59.4106 485.648 58.5771 483.981 57.2435Z" fill="#FFFDF3"/>
</g>
<defs>
<clipPath id="clip0_3700_16">
<rect width="501" height="79" fill="white"/>
</clipPath>
</defs>
</svg>
