<svg width="500" height="44" viewBox="0 0 500 44" fill="none" xmlns="http://www.w3.org/2000/svg">
<path fill-rule="evenodd" clip-rule="evenodd" d="M239.625 32.6809C241.252 31.7872 242.757 30.6874 244.106 29.409L247.993 33.3473C247.135 34.2699 246.204 35.1194 245.207 35.8864C244.231 36.6273 243.183 37.2689 242.079 37.8018C240.913 38.3612 239.683 38.7763 238.415 39.0379C236.967 39.3251 235.493 39.4636 234.017 39.4509C231.616 39.4747 229.236 39.005 227.025 38.0708C224.94 37.1932 223.05 35.91 221.464 34.2963C219.879 32.6826 218.629 30.7701 217.788 28.6699C216.887 26.4689 216.432 24.1105 216.451 21.732V21.6335C216.43 19.2668 216.875 16.9191 217.761 14.7243C218.612 12.6045 219.873 10.6738 221.472 9.04301C223.071 7.41221 224.977 6.11356 227.08 5.22164C229.353 4.26493 231.799 3.78774 234.264 3.81988C235.706 3.8107 237.146 3.94277 238.562 4.21418C239.789 4.45536 240.988 4.82714 242.135 5.32317C243.19 5.78517 244.192 6.35291 245.132 7.01767C246.053 7.67709 246.925 8.40185 247.743 9.18635L243.858 13.6587C242.546 12.4325 241.072 11.3906 239.479 10.5615C237.842 9.75091 236.035 9.34524 234.209 9.37856C232.642 9.36344 231.09 9.69219 229.664 10.3416C228.297 10.9618 227.067 11.8462 226.044 12.944C225.013 14.0677 224.209 15.3811 223.678 16.8112C223.115 18.3201 222.832 19.9193 222.844 21.53V21.6285C222.832 23.2484 223.115 24.8571 223.678 26.3759C224.207 27.8206 225.01 29.1492 226.044 30.2884C227.058 31.4057 228.29 32.3035 229.664 32.9273C231.092 33.5694 232.643 33.8946 234.209 33.8804C236.086 33.9338 237.946 33.5218 239.625 32.6809ZM120.444 32.6809C122.073 31.7891 123.579 30.6893 124.925 29.409L128.81 33.3473C127.954 34.2703 127.023 35.1199 126.025 35.8864C125.05 36.6275 124.003 37.2691 122.9 37.8018C121.733 38.3612 120.502 38.7763 119.234 39.0379C117.786 39.3251 116.312 39.4636 114.836 39.4509C112.435 39.4747 110.055 39.005 107.844 38.0708C105.761 37.1891 103.873 35.9047 102.288 34.2912C100.703 32.678 99.4515 30.7677 98.6066 28.6699C97.7049 26.4689 97.2501 24.1105 97.2691 21.732V21.6335C97.2484 19.2667 97.6941 16.9191 98.5801 14.7243C99.4308 12.6047 100.692 10.674 102.292 9.04327C103.891 7.4125 105.796 6.11375 107.899 5.22164C110.171 4.26495 112.617 3.78774 115.083 3.81991C116.528 3.81113 117.971 3.94317 119.391 4.21421C120.614 4.45664 121.809 4.82837 122.954 5.32317C124.008 5.78474 125.012 6.3525 125.951 7.01769C126.872 7.67712 127.745 8.40188 128.563 9.18635L124.677 13.6587C123.364 12.4321 121.891 11.39 120.297 10.5615C118.661 9.75094 116.854 9.34527 115.029 9.37856C113.461 9.36337 111.91 9.69212 110.483 10.3417C109.117 10.9613 107.886 11.8458 106.864 12.944C105.832 14.0675 105.028 15.3809 104.498 16.8112C103.934 18.32 103.651 19.9193 103.664 21.53V21.6285C103.652 23.2485 103.934 24.8571 104.498 26.3759C105.026 27.8208 105.829 29.1497 106.864 30.2884C107.877 31.4062 109.109 32.3042 110.483 32.9273C111.912 33.5696 113.462 33.8946 115.029 33.8804C116.905 33.9336 118.766 33.5215 120.444 32.6809ZM8.54718 24.1855V33.3953H28.2732V38.8566H2.54492V4.41031H28.0287V9.87238H8.54718V18.7244H25.8205V24.1855H8.54718ZM41.4633 4.41426V33.3953H59.5696V38.8566H35.4609V4.41426H41.4633ZM71.8772 33.3953V24.1855H89.1506V18.7244H71.8772V9.87238H91.3587V4.41031H65.871V38.8566H91.5991V33.3953H71.8772ZM132.595 4.41031V10.0193H143.519V38.8566H149.621V10.0193H160.544V4.41031H132.595ZM190.149 24.4153C189.11 25.0328 187.991 25.5045 186.823 25.817L196.131 38.8566H188.992L180.495 26.8441L176.885 21.4836H181.778C183.633 21.5851 185.464 21.034 186.955 19.9261C187.588 19.4239 188.092 18.7794 188.428 18.0452C188.764 17.311 188.922 16.5079 188.888 15.7012V15.6026C188.939 14.793 188.796 13.983 188.47 13.2402C188.144 12.4973 187.645 11.8432 187.015 11.3323C185.463 10.2732 183.603 9.76063 181.728 9.87534H172.894V38.8566H166.892V4.41229H182.25C184.207 4.37914 186.154 4.68632 188.005 5.32017C189.564 5.85579 190.99 6.72161 192.184 7.85849C193.106 8.79918 193.826 9.91863 194.3 11.148C194.807 12.4686 195.059 13.8735 195.042 15.2881V15.3798C195.058 16.676 194.85 17.9652 194.428 19.1907C194.04 20.2848 193.463 21.3023 192.724 22.1973C191.995 23.0751 191.125 23.8248 190.149 24.4153ZM202.769 4.41031V38.8566H208.773V4.41031H202.769Z" fill="#FFFDF3"/>
<path fill-rule="evenodd" clip-rule="evenodd" d="M308.81 29.407C307.464 30.6868 305.959 31.7868 304.329 32.6787C302.654 33.5205 300.796 33.9328 298.923 33.8784C297.353 33.8926 295.8 33.5674 294.368 32.9253C292.995 32.3003 291.764 31.4025 290.75 30.2864C289.714 29.1477 288.911 27.8191 288.382 26.3739C287.825 24.8537 287.543 23.246 287.551 21.6265V21.5279C287.543 19.9177 287.825 18.3193 288.382 16.8091C288.913 15.3787 289.716 14.0652 290.75 12.942C291.774 11.8453 293.002 10.961 294.368 10.3396C295.798 9.69002 297.353 9.36132 298.923 9.37651C300.745 9.34445 302.548 9.7501 304.183 10.5594C305.779 11.3863 307.252 12.4285 308.563 13.6566L312.447 9.1843C311.632 8.39993 310.764 7.67517 309.846 7.01563C308.904 6.35065 307.897 5.78291 306.839 5.32113C305.695 4.82632 304.5 4.45459 303.274 4.21216C301.856 3.94075 300.413 3.80868 298.969 3.81786C296.502 3.78644 294.058 4.26361 291.784 5.21959C289.68 6.11151 287.776 7.41019 286.176 9.04096C284.577 10.6717 283.315 12.6025 282.464 14.7223C281.587 16.9169 281.142 19.2615 281.159 21.6255V21.7241C281.144 24.102 281.601 26.4597 282.498 28.6618C283.353 30.7611 284.606 32.6748 286.19 34.2965C287.776 35.9041 289.663 37.1842 291.743 38.063C293.952 38.9979 296.329 39.4678 298.726 39.4431C300.204 39.4561 301.683 39.3176 303.132 39.0299C304.397 38.7657 305.625 38.3501 306.788 37.7919C307.889 37.2551 308.938 36.6138 309.913 35.8765C310.909 35.1094 311.839 34.2599 312.692 33.3373L308.81 29.407ZM336.757 4.16149H331.147L315.995 38.8551H322.2L325.736 30.5354L327.952 25.1739L333.853 11.392L339.813 25.1748L342.031 30.5364L345.522 38.8561H351.918L336.757 4.16149ZM380.928 7.55221C382.05 8.56392 382.937 9.80873 383.531 11.1995C384.159 12.6934 384.469 14.3011 384.445 15.9213V16.0198C384.481 17.78 384.108 19.5247 383.353 21.1152C382.654 22.5435 381.644 23.7962 380.394 24.7803C379.087 25.7953 377.596 26.5539 376.005 27.0159C374.262 27.5361 372.447 27.7926 370.627 27.777H363.772V38.8549H357.769V4.40865H371.351C373.197 4.38373 375.034 4.65599 376.793 5.215C378.317 5.70478 379.724 6.50007 380.928 7.55221ZM377.798 18.5943C378.144 17.8232 378.312 16.9839 378.288 16.1391L378.284 16.0474C378.344 15.1713 378.192 14.2935 377.839 13.4892C377.486 12.6848 376.945 11.9777 376.26 11.4282C374.678 10.3154 372.769 9.76685 370.837 9.87072H363.772V22.3139H370.837C372.805 22.4273 374.745 21.8145 376.291 20.5918C376.938 20.0482 377.452 19.3654 377.798 18.5943ZM390.935 4.40865V38.8549H396.947V4.40865H390.935ZM403.68 10.0176V4.40865H431.63V10.0176H420.707V38.8549H414.603V10.0176H403.68ZM451.12 4.16149H445.512L430.356 38.8551H436.548L440.099 30.5354L442.315 25.1739L448.216 11.392L454.171 25.1748L456.38 30.5364L459.88 38.8561H466.276L451.12 4.16149ZM478.382 4.4126V33.3938H496.488V38.8549H472.38V4.4126H478.382Z" fill="#FFFDF3"/>
<path d="M269.796 19.6434H263.43V3.81836L257.07 23.6268H263.43V39.4518L269.796 19.6434Z" fill="#FFFDF3"/>
</svg>
