<svg width="89" height="22" viewBox="0 0 89 22" fill="none" xmlns="http://www.w3.org/2000/svg">
<path fill-rule="evenodd" clip-rule="evenodd" d="M61.2174 2.96133C61.2144 2.96733 61.2144 3.51333 61.2174 4.17333C61.2194 4.83333 61.2244 8.43333 61.2284 12.1723L61.2354 18.9703L62.3414 18.9723C63.1064 18.9743 63.4494 18.9723 63.4564 18.9653C63.4634 18.9583 63.4664 18.7383 63.4694 18.2853L63.4724 17.6133L63.5034 17.5643C63.5198 17.5384 63.54 17.5151 63.5634 17.4953C63.5855 17.4805 63.6119 17.4735 63.6384 17.4753C63.6678 17.4753 63.6914 17.4813 63.7094 17.4933C63.7244 17.5023 63.7834 17.5563 63.8414 17.6133C63.8984 17.6693 63.9574 17.7323 63.9714 17.7513C64.0338 17.8237 64.1013 17.8916 64.1734 17.9543C64.1774 17.9543 64.2174 17.9893 64.2624 18.0333C64.3039 18.0823 64.3524 18.1248 64.4064 18.1593C64.4204 18.1683 64.4404 18.1823 64.4504 18.1913L64.5144 18.2463C64.5404 18.2683 64.5804 18.2963 64.6034 18.3063C64.6264 18.3183 64.6544 18.3363 64.6654 18.3463C64.6989 18.376 64.7343 18.4034 64.7714 18.4283L64.8884 18.4893C64.9444 18.5193 65.0014 18.5513 65.0144 18.5623C65.0384 18.5795 65.0643 18.5939 65.0914 18.6053L65.2884 18.6853C65.2914 18.6853 65.3204 18.6973 65.3514 18.7113C65.3814 18.7263 65.4314 18.7473 65.4614 18.7583L65.5444 18.7903C65.5589 18.7964 65.574 18.8008 65.5894 18.8033C65.6008 18.8033 65.6094 18.806 65.6154 18.8113C65.6204 18.8153 65.6444 18.8213 65.6694 18.8243C65.6944 18.8273 65.7394 18.8343 65.7694 18.8423L65.8594 18.8663C65.8794 18.8723 65.9254 18.8823 65.9624 18.8903C66.0277 18.9024 66.0927 18.9157 66.1574 18.9303C66.28 18.9502 66.4035 18.9635 66.5274 18.9703C66.5638 18.971 66.6001 18.9757 66.6354 18.9843C66.8627 18.9937 67.0904 18.991 67.3174 18.9763C67.3644 18.9703 67.4514 18.9613 67.5114 18.9563C67.5695 18.9514 67.6271 18.9413 67.6834 18.9263L67.7504 18.9123L67.9454 18.8663C68.0334 18.8423 68.1221 18.8213 68.2114 18.8033L68.2744 18.7833C68.2874 18.7783 68.3164 18.7643 68.3394 18.7523C68.3563 18.7424 68.3745 18.735 68.3934 18.7303C68.4101 18.7267 68.4262 18.721 68.4414 18.7133L68.5294 18.6733C68.5517 18.6625 68.5752 18.6544 68.5994 18.6493C68.6108 18.6487 68.6181 18.646 68.6214 18.6413C68.6244 18.6363 68.6384 18.6303 68.6534 18.6273C68.6688 18.6227 68.6829 18.6145 68.6944 18.6033C68.7058 18.5927 68.7154 18.587 68.7234 18.5863C68.7459 18.5789 68.7674 18.5688 68.7874 18.5563L68.8874 18.4983C68.9068 18.4846 68.9285 18.4744 68.9514 18.4683C68.9731 18.4612 68.9934 18.4503 69.0114 18.4363L69.1964 18.3113L69.2614 18.2683C69.2946 18.2453 69.3263 18.2202 69.3564 18.1933C69.3814 18.1703 69.4324 18.1303 69.4704 18.1033C69.5064 18.0787 69.539 18.0494 69.5674 18.0163C69.5811 17.9967 69.5965 17.9782 69.6134 17.9613C69.6225 17.9527 69.634 17.9471 69.6464 17.9453C69.6544 17.9453 69.6804 17.9253 69.7024 17.9023C69.7273 17.875 69.7507 17.8463 69.7724 17.8163C69.7827 17.8003 69.7951 17.7858 69.8094 17.7733C69.8134 17.7733 69.8394 17.7513 69.8674 17.7233C69.8882 17.7059 69.9052 17.6845 69.9174 17.6603C69.9174 17.6523 69.9484 17.6153 69.9864 17.5783C70.0149 17.5516 70.0407 17.5221 70.0634 17.4903L70.0834 17.4533L70.1454 17.3733C70.1692 17.3436 70.1912 17.3126 70.2114 17.2803C70.2194 17.2633 70.2294 17.2503 70.2334 17.2503C70.2374 17.2503 70.2564 17.2203 70.2754 17.1823C70.2926 17.1481 70.3131 17.1156 70.3364 17.0853C70.3521 17.067 70.3656 17.0469 70.3764 17.0253C70.3873 17.0021 70.4004 16.98 70.4154 16.9593C70.4264 16.944 70.4352 16.9271 70.4414 16.9093C70.4414 16.9033 70.4514 16.8823 70.4644 16.8633C70.4736 16.8509 70.4813 16.8375 70.4874 16.8233C70.4874 16.8193 70.5074 16.7823 70.5314 16.7413C70.5554 16.7003 70.5834 16.6473 70.5944 16.6233C70.6026 16.6053 70.609 16.5866 70.6134 16.5673C70.6134 16.5613 70.6234 16.5373 70.6364 16.5133C70.6464 16.4965 70.6538 16.4783 70.6584 16.4593C70.6584 16.4533 70.6774 16.4123 70.6984 16.3693C70.7151 16.3404 70.7288 16.31 70.7394 16.2783C70.7394 16.2713 70.7474 16.2493 70.7584 16.2303C70.7812 16.183 70.7977 16.1329 70.8074 16.0813C70.812 16.0579 70.8194 16.035 70.8294 16.0133C70.8388 15.9945 70.8462 15.9747 70.8514 15.9543C70.8554 15.9393 70.8694 15.8973 70.8834 15.8593C70.8984 15.8223 70.9164 15.7673 70.9254 15.7383C70.9322 15.7147 70.9399 15.6914 70.9484 15.6683C70.9559 15.6419 70.9606 15.6147 70.9624 15.5873C70.9652 15.5522 70.9726 15.5175 70.9844 15.4843C70.9945 15.4568 71.0016 15.4283 71.0054 15.3993C71.0097 15.3586 71.0201 15.3188 71.0364 15.2813C71.0423 15.2636 71.0457 15.245 71.0464 15.2263C71.0464 15.2143 71.0504 15.2003 71.0554 15.1963C71.0648 15.1716 71.0709 15.1457 71.0734 15.1193L71.0884 15.0193C71.0907 15.0025 71.095 14.986 71.1014 14.9703C71.1091 14.9377 71.1151 14.9046 71.1194 14.8713L71.1374 14.6953C71.1414 14.6433 71.1494 14.5703 71.1554 14.5333C71.1614 14.4963 71.1714 14.4003 71.1784 14.3203C71.1864 14.2403 71.1964 14.1273 71.2004 14.0683C71.2054 14.0083 71.2144 13.8203 71.2194 13.6513C71.2272 13.3099 71.2209 12.9683 71.2004 12.6273L71.1784 12.3703C71.1727 12.2995 71.165 12.2288 71.1554 12.1583C71.1473 12.1059 71.1413 12.0532 71.1374 12.0003C71.1324 11.9385 71.1254 11.8768 71.1164 11.8153C71.111 11.7742 71.103 11.7335 71.0924 11.6933C71.0838 11.6577 71.0771 11.6217 71.0724 11.5853C71.0687 11.5406 71.0589 11.4965 71.0434 11.4543L71.0294 11.3953L71.0064 11.3053L70.9834 11.2153C70.9754 11.1823 70.9691 11.149 70.9644 11.1153C70.9587 11.0597 70.9453 11.0052 70.9244 10.9533L70.8774 10.8133L70.8294 10.6833C70.8188 10.6518 70.8098 10.6198 70.8024 10.5873C70.794 10.5517 70.7823 10.5169 70.7674 10.4833L70.7224 10.3803L70.6674 10.2533L70.6184 10.1383C70.5889 10.0664 70.5552 9.99631 70.5174 9.92833C70.4864 9.88251 70.4609 9.83316 70.4414 9.78133C70.4326 9.75939 70.4212 9.73858 70.4074 9.71933L70.3444 9.61833C70.3336 9.59805 70.3194 9.57978 70.3024 9.56433C70.2954 9.56133 70.2874 9.54733 70.2844 9.53333C70.2764 9.50901 70.2653 9.48583 70.2514 9.46433C70.2414 9.44947 70.2327 9.43374 70.2254 9.41733C70.2185 9.40478 70.209 9.39386 70.1974 9.38533C70.1735 9.35758 70.1512 9.32853 70.1304 9.29833C70.1119 9.26966 70.0918 9.24195 70.0704 9.21533L70.0224 9.15633C69.9646 9.08078 69.9032 9.00804 69.8384 8.93833C69.8185 8.91262 69.7945 8.89033 69.7674 8.87233C69.7594 8.87166 69.7534 8.86633 69.7494 8.85633C69.7237 8.82398 69.696 8.79325 69.6664 8.76433C69.5697 8.6706 69.4682 8.58182 69.3624 8.49833C69.349 8.49106 69.3373 8.4808 69.3284 8.46833C69.3231 8.46166 69.3171 8.45799 69.3104 8.45733C69.3044 8.45733 69.2884 8.44533 69.2744 8.43033C69.2594 8.41533 69.2444 8.40333 69.2384 8.40333C69.2324 8.40333 69.2184 8.39033 69.2034 8.37633C69.1894 8.36133 69.1714 8.34833 69.1634 8.34833C69.1418 8.34147 69.1215 8.33099 69.1034 8.31733L69.0334 8.26733C68.9687 8.21828 68.8981 8.17731 68.8234 8.14533C68.7782 8.12301 68.7338 8.099 68.6904 8.07333C68.6631 8.0587 68.635 8.04535 68.6064 8.03333C68.5802 8.02365 68.5551 8.01125 68.5314 7.99633C68.5284 7.99133 68.5154 7.98733 68.5014 7.98733C68.4826 7.98562 68.4641 7.98124 68.4464 7.97433L68.3644 7.94233L68.2524 7.90033L68.1344 7.85633C68.0936 7.84181 68.0514 7.83175 68.0084 7.82633C67.9501 7.81875 67.8925 7.80603 67.8364 7.78833C67.7992 7.77849 67.7615 7.77081 67.7234 7.76533L67.5434 7.73033C67.4983 7.72378 67.4529 7.71878 67.4074 7.71533C67.2466 7.70767 67.0855 7.70434 66.9244 7.70533C66.7204 7.70533 66.4994 7.71033 66.4324 7.71533L66.2784 7.73033C66.2122 7.74067 66.1462 7.75234 66.0804 7.76533L65.9624 7.78833L65.8864 7.80733C65.8534 7.81468 65.82 7.82036 65.7864 7.82433C65.7572 7.82683 65.7284 7.83253 65.7004 7.84133L65.6244 7.86633C65.5874 7.87754 65.551 7.8909 65.5154 7.90633C65.4862 7.91956 65.4557 7.92994 65.4244 7.93733C65.4049 7.93961 65.3865 7.94761 65.3714 7.96033C65.3572 7.97252 65.3399 7.98049 65.3214 7.98333C65.2762 7.99258 65.2324 8.00806 65.1914 8.02933L65.0104 8.12633L64.9244 8.16833C64.8949 8.18221 64.8667 8.19896 64.8404 8.21833C64.8304 8.22802 64.8185 8.23551 64.8054 8.24033C64.7897 8.24739 64.7749 8.25647 64.7614 8.26733C64.7483 8.27812 64.7339 8.28719 64.7184 8.29433C64.7134 8.29433 64.6984 8.30633 64.6834 8.32133C64.6694 8.33633 64.6514 8.34833 64.6434 8.34833C64.6354 8.34833 64.6174 8.35833 64.6034 8.37133C64.5941 8.38115 64.5829 8.38898 64.5704 8.39433C64.5485 8.40894 64.5281 8.42569 64.5094 8.44433C64.48 8.4715 64.4489 8.49688 64.4164 8.52033C64.3948 8.53614 64.3738 8.55282 64.3534 8.57033C64.3431 8.57888 64.3346 8.58942 64.3284 8.60133C64.3284 8.60533 64.3134 8.61833 64.2944 8.63133C64.2469 8.66505 64.2024 8.70286 64.1614 8.74433C64.1157 8.79323 64.0683 8.84059 64.0194 8.88633C63.9906 8.9148 63.9625 8.94415 63.9354 8.97433C63.9169 8.99743 63.895 9.01765 63.8704 9.03433C63.8559 9.03759 63.8422 9.04409 63.8304 9.05333C63.8092 9.06479 63.7855 9.07096 63.7614 9.07133C63.732 9.06962 63.7033 9.06142 63.6774 9.04733C63.6354 9.02533 63.6334 9.02133 63.6334 8.98933C63.6334 8.97033 63.6284 8.95233 63.6234 8.94933C63.6174 8.94533 63.6144 7.99533 63.6144 6.12933C63.6144 4.30933 63.6114 3.31233 63.6064 3.30633C63.597 3.24681 63.593 3.18657 63.5944 3.12633L63.5924 2.95433L62.4064 2.95233C61.4634 2.95033 61.2204 2.95233 61.2164 2.96233M72.4954 2.96233C72.4924 2.96833 72.4914 6.57233 72.4934 10.9723L72.4954 18.9713H74.8344L74.8414 18.8853C74.8464 18.8383 74.8504 15.2353 74.8514 10.8773V2.95433L73.6754 2.95233C72.7394 2.95033 72.4984 2.95233 72.4954 2.96233ZM35.6704 3.57233C35.6274 3.57949 35.584 3.58383 35.5404 3.58533C35.4463 3.59052 35.3523 3.59719 35.2584 3.60533L35.0004 3.62833C34.9356 3.63342 34.8709 3.64009 34.8064 3.64833C34.736 3.65729 34.6665 3.67201 34.5984 3.69233L34.5014 3.70933C34.4784 3.71234 34.4556 3.71736 34.4334 3.72433C34.4203 3.73012 34.4065 3.73448 34.3924 3.73733C34.3331 3.75098 34.2741 3.76598 34.2154 3.78233C34.187 3.78958 34.1584 3.79559 34.1294 3.80033C34.0958 3.80529 34.0624 3.81196 34.0294 3.82033C34.0038 3.8283 33.9784 3.83731 33.9534 3.84733C33.9329 3.85636 33.9115 3.86307 33.8894 3.86733C33.8443 3.87563 33.8006 3.8901 33.7594 3.91033L33.6544 3.95233C33.6234 3.96572 33.5908 3.97513 33.5574 3.98033C33.5437 3.98022 33.5301 3.98294 33.5174 3.98833L33.4654 4.01233C33.3932 4.04289 33.3218 4.07557 33.2514 4.11033C33.2202 4.126 33.1881 4.14002 33.1554 4.15233C33.0642 4.1925 32.9757 4.2386 32.8904 4.29033C32.8701 4.30555 32.847 4.31675 32.8224 4.32333C32.8046 4.3267 32.7877 4.33349 32.7724 4.34333L32.6704 4.41133C32.6458 4.42846 32.6205 4.44448 32.5944 4.45933C32.5914 4.45933 32.5784 4.46933 32.5674 4.48133C32.5554 4.49333 32.5394 4.50433 32.5314 4.50433C32.5119 4.51178 32.4937 4.52224 32.4774 4.53533C32.4625 4.54842 32.4456 4.55921 32.4274 4.56733C32.4087 4.57789 32.3918 4.5914 32.3774 4.60733C32.364 4.62337 32.3482 4.6372 32.3304 4.64833C32.3098 4.65808 32.2903 4.67016 32.2724 4.68433C32.237 4.70976 32.2033 4.73749 32.1714 4.76733C32.1523 4.78711 32.1312 4.80488 32.1084 4.82033C32.0839 4.83889 32.0602 4.85858 32.0374 4.87933C31.9225 4.98798 31.8101 5.09934 31.7004 5.21333C31.6824 5.23333 31.6584 5.26333 31.6454 5.28033C31.6324 5.29733 31.5954 5.34033 31.5624 5.37733C31.5397 5.4003 31.5193 5.42542 31.5014 5.45233C31.4839 5.49245 31.4588 5.52879 31.4274 5.55933C31.3889 5.60139 31.3563 5.64849 31.3304 5.69933C31.2987 5.76063 31.263 5.81976 31.2234 5.87633C31.1891 5.92951 31.1613 5.98658 31.1404 6.04633C31.1376 6.0604 31.1318 6.0737 31.1234 6.08533C31.0935 6.13098 31.069 6.17998 31.0504 6.23133C31.0491 6.23799 31.0451 6.24566 31.0384 6.25433C31.0082 6.30461 30.9868 6.35976 30.9754 6.41733C30.9688 6.44768 30.9608 6.47772 30.9514 6.50733C30.9342 6.56107 30.9125 6.61326 30.8864 6.66333C30.8819 6.67379 30.8792 6.68495 30.8784 6.69633C30.8784 6.70633 30.8694 6.73933 30.8584 6.77133C30.8312 6.85742 30.8137 6.94632 30.8064 7.03633C30.8024 7.07633 30.7944 7.12633 30.7894 7.14933L30.7744 7.21233C30.7714 7.22433 30.7644 7.28233 30.7604 7.33833L30.7414 7.57333C30.7298 7.74914 30.7298 7.92552 30.7414 8.10133C30.7464 8.18633 30.7544 8.30533 30.7604 8.36833C30.7663 8.43946 30.776 8.51023 30.7894 8.58033C30.7944 8.61033 30.8014 8.67033 30.8054 8.71533C30.8186 8.83011 30.8417 8.94353 30.8744 9.05433L30.8944 9.13433C30.9004 9.15233 30.9184 9.20733 30.9374 9.25733C30.9564 9.30733 30.9744 9.36633 30.9774 9.38933C30.9838 9.41832 30.9915 9.44702 31.0004 9.47533C31.0084 9.49933 31.0304 9.54833 31.0504 9.58333C31.0668 9.61226 31.0802 9.64274 31.0904 9.67433C31.0934 9.68933 31.1054 9.71433 31.1184 9.73133C31.1295 9.74422 31.137 9.7597 31.1404 9.77633C31.1404 9.78433 31.1544 9.81933 31.1704 9.85433C31.183 9.88094 31.1984 9.9061 31.2164 9.92933C31.2308 9.946 31.2423 9.96492 31.2504 9.98533C31.2604 10.0093 31.2744 10.0333 31.2824 10.0393C31.2894 10.0453 31.2994 10.0593 31.3034 10.0693C31.3129 10.0913 31.3242 10.1124 31.3374 10.1323L31.3564 10.1693C31.3604 10.1793 31.3704 10.1933 31.3784 10.1993C31.3864 10.2063 31.3934 10.2173 31.3934 10.2233C31.3934 10.2293 31.4064 10.2463 31.4234 10.2603C31.4555 10.2923 31.4819 10.3295 31.5014 10.3703C31.5014 10.3753 31.5364 10.4153 31.5784 10.4593C31.6055 10.4872 31.6308 10.5165 31.6544 10.5473C31.6544 10.5523 31.7144 10.6153 31.7884 10.6873C31.8614 10.7603 31.9334 10.8273 31.9484 10.8363C31.9697 10.8514 31.9888 10.8693 32.0054 10.8893C32.0224 10.9093 32.0454 10.9323 32.0564 10.9403L32.1144 10.9803C32.1354 10.9933 32.1714 11.0233 32.1944 11.0453C32.2184 11.0673 32.2404 11.0853 32.2434 11.0853C32.2464 11.0853 32.2664 11.0993 32.2884 11.1163C32.3049 11.1299 32.3235 11.1407 32.3434 11.1483C32.3524 11.1483 32.3704 11.1603 32.3854 11.1753C32.3941 11.1865 32.405 11.1957 32.4174 11.2023C32.455 11.2242 32.4917 11.2476 32.5274 11.2723L32.5624 11.2943L32.6384 11.3303C32.6644 11.3413 32.6964 11.3603 32.7104 11.3723C32.7388 11.3931 32.7693 11.4109 32.8014 11.4253L32.9914 11.5153L33.1714 11.6013C33.2169 11.6235 33.2629 11.6445 33.3094 11.6643C33.3215 11.6695 33.3344 11.6722 33.3474 11.6723C33.3604 11.6723 33.3914 11.6823 33.4174 11.6933L33.4994 11.7293C33.5179 11.7372 33.5375 11.7423 33.5574 11.7443C33.5714 11.7443 33.5904 11.7523 33.6004 11.7613C33.6158 11.7723 33.6326 11.7811 33.6504 11.7873L33.7344 11.8153C33.7624 11.8253 33.8034 11.8353 33.8244 11.8353C33.8484 11.8353 33.8814 11.8443 33.9144 11.8603C33.9459 11.8756 33.9791 11.8867 34.0134 11.8933C34.0429 11.8978 34.0717 11.9055 34.0994 11.9163C34.1194 11.9263 34.1574 11.9363 34.1814 11.9413L34.2604 11.9613C34.3468 11.9859 34.4342 12.0066 34.5224 12.0233L34.6084 12.0463L34.6934 12.0693L34.7794 12.0913C34.8334 12.1036 34.8862 12.1203 34.9374 12.1413C34.9474 12.1463 34.9714 12.1513 34.9914 12.1543C35.0318 12.1613 35.0713 12.1723 35.1094 12.1873C35.1194 12.1913 35.1564 12.1973 35.1914 12.1993C35.2523 12.2051 35.3117 12.2221 35.3664 12.2493C35.3744 12.2533 35.4024 12.2593 35.4294 12.2633C35.4588 12.2674 35.4877 12.2748 35.5154 12.2853C35.5354 12.2953 35.5754 12.3053 35.6014 12.3083C35.6305 12.3122 35.6588 12.3203 35.6854 12.3323C35.7034 12.3423 35.7504 12.3523 35.7884 12.3573C35.8461 12.3647 35.903 12.3771 35.9584 12.3943L36.0434 12.4163C36.0721 12.4237 36.1005 12.4324 36.1284 12.4423C36.1484 12.4503 36.1714 12.4573 36.1804 12.4573C36.1894 12.4573 36.2274 12.4673 36.2644 12.4803C36.2917 12.4901 36.3198 12.4974 36.3484 12.5023C36.3591 12.503 36.3681 12.5063 36.3754 12.5123C36.4008 12.5228 36.428 12.5279 36.4554 12.5273C36.4954 12.5293 36.5414 12.5393 36.5584 12.5473C36.5764 12.5573 36.6084 12.5673 36.6304 12.5703C36.6691 12.5773 36.7069 12.588 36.7434 12.6023C36.7617 12.6094 36.7809 12.6138 36.8004 12.6153C36.8361 12.6215 36.871 12.6316 36.9044 12.6453C36.9344 12.6573 36.9864 12.6733 37.0194 12.6793C37.0514 12.6863 37.0964 12.6953 37.1184 12.7013C37.1404 12.7073 37.1814 12.7143 37.2084 12.7183C37.2364 12.7223 37.2684 12.7293 37.2814 12.7343L37.3444 12.7553C37.3964 12.7689 37.4473 12.7866 37.4964 12.8083C37.5234 12.8183 37.5524 12.8283 37.5624 12.8283C37.5724 12.8283 37.6144 12.8413 37.6574 12.8583C37.7004 12.8753 37.7474 12.8903 37.7604 12.8903C37.7836 12.8941 37.806 12.9018 37.8264 12.9133C37.8433 12.9233 37.8615 12.9307 37.8804 12.9353C37.8864 12.9353 37.9074 12.9443 37.9274 12.9543L38.0574 13.0143C38.1094 13.0363 38.1844 13.0693 38.2224 13.0873C38.2624 13.1053 38.3004 13.1273 38.3084 13.1373C38.3164 13.1473 38.3364 13.1593 38.3514 13.1673C38.3788 13.1821 38.4055 13.1981 38.4314 13.2153C38.4614 13.2353 38.4954 13.2553 38.5064 13.2603C38.5191 13.267 38.5258 13.2727 38.5264 13.2773C38.5264 13.2813 38.5414 13.2923 38.5584 13.3023C38.5754 13.3123 38.5904 13.3223 38.5904 13.3243C38.5904 13.3273 38.6034 13.3373 38.6204 13.3463C38.6354 13.3563 38.6604 13.3763 38.6754 13.3933C38.6904 13.4103 38.7054 13.4233 38.7124 13.4233C38.7194 13.4233 38.7504 13.4533 38.7824 13.4883C38.8124 13.5233 38.8484 13.5633 38.8614 13.5763C38.8744 13.5893 38.8914 13.6113 38.9014 13.6263C38.9114 13.6413 38.9214 13.6573 38.9264 13.6623L38.9694 13.7213C38.9894 13.7483 39.0054 13.7753 39.0054 13.7823C39.0054 13.7893 39.0154 13.8093 39.0284 13.8273C39.0377 13.84 39.0454 13.8538 39.0514 13.8683C39.0514 13.8723 39.0614 13.8933 39.0764 13.9133C39.0894 13.9343 39.1064 13.9653 39.1124 13.9833L39.1504 14.0873C39.1654 14.1273 39.1774 14.1713 39.1774 14.1853C39.1774 14.2003 39.1814 14.2253 39.1854 14.2393L39.2044 14.3033C39.2094 14.3233 39.2184 14.3733 39.2244 14.4163C39.2366 14.529 39.2449 14.6421 39.2494 14.7553C39.2494 14.7793 39.2474 14.8423 39.2444 14.8953C39.2425 14.9329 39.2385 14.9702 39.2324 15.0073C39.2246 15.0417 39.2186 15.0764 39.2144 15.1113L39.1984 15.2313C39.1964 15.2493 39.1894 15.2673 39.1854 15.2703C39.1814 15.2723 39.1774 15.2973 39.1774 15.3233C39.1774 15.3503 39.1734 15.3743 39.1694 15.3773C39.1644 15.3803 39.1594 15.3973 39.1554 15.4163C39.1492 15.4435 39.1402 15.47 39.1284 15.4953L39.0564 15.6443C39.0369 15.6825 39.0199 15.7219 39.0054 15.7623C38.9986 15.7817 38.9888 15.7999 38.9764 15.8163C38.9295 15.8801 38.8838 15.9448 38.8394 16.0103C38.8298 16.0244 38.8183 16.0372 38.8054 16.0483C38.7954 16.0563 38.7901 16.064 38.7894 16.0713C38.7894 16.0773 38.7354 16.1343 38.6694 16.1993C38.6185 16.2498 38.5665 16.2991 38.5134 16.3473C38.4859 16.3695 38.4572 16.3902 38.4274 16.4093C38.4051 16.4229 38.3845 16.4394 38.3664 16.4583C38.3584 16.4683 38.3511 16.4737 38.3444 16.4743C38.3283 16.4815 38.3138 16.4917 38.3014 16.5043C38.2774 16.5244 38.2504 16.5406 38.2214 16.5523C38.1975 16.5594 38.1751 16.571 38.1554 16.5863C38.119 16.6112 38.0809 16.6335 38.0414 16.6533L37.9354 16.7093C37.9243 16.7156 37.9121 16.7197 37.8994 16.7213C37.8598 16.7299 37.8217 16.7444 37.7864 16.7643C37.7619 16.777 37.7361 16.787 37.7094 16.7943C37.6789 16.8039 37.6489 16.8149 37.6194 16.8273C37.56 16.8543 37.498 16.8754 37.4344 16.8903C37.4104 16.8956 37.386 16.8986 37.3614 16.8993C37.3444 16.8973 37.3272 16.8998 37.3114 16.9063C37.2975 16.9141 37.2828 16.9201 37.2674 16.9243C37.2361 16.9325 37.2044 16.9392 37.1724 16.9443C37.1405 16.9488 37.1088 16.9548 37.0774 16.9623C37.0128 16.9813 36.9465 16.9937 36.8794 16.9993C36.8458 17.0036 36.8124 17.0096 36.7794 17.0173C36.7565 17.0227 36.733 17.0254 36.7094 17.0253C36.6163 17.0421 36.522 17.0514 36.4274 17.0533C36.1596 17.066 35.8913 17.066 35.6234 17.0533C35.5586 17.0504 35.4939 17.0454 35.4294 17.0383L35.3574 17.0253L35.2274 17.0073C35.1658 17.0007 35.1048 16.9883 35.0454 16.9703C35.0301 16.9658 35.0144 16.9631 34.9984 16.9623C34.9884 16.9623 34.9774 16.9583 34.9744 16.9543C34.9714 16.9503 34.9444 16.9443 34.9124 16.9403C34.882 16.9374 34.8519 16.9317 34.8224 16.9233C34.8085 16.9188 34.7951 16.9128 34.7824 16.9053C34.7672 16.8994 34.7507 16.8974 34.7344 16.8993C34.7021 16.8968 34.6703 16.889 34.6404 16.8763C34.6184 16.8662 34.5952 16.8588 34.5714 16.8543C34.5538 16.8516 34.5367 16.8466 34.5204 16.8393L34.4524 16.8083C34.4382 16.8005 34.4231 16.7945 34.4074 16.7903C34.3907 16.7864 34.3746 16.7804 34.3594 16.7723C34.3285 16.7574 34.2968 16.744 34.2644 16.7323C34.2307 16.7195 34.1976 16.7048 34.1654 16.6883L34.0614 16.6323C34.0351 16.6185 34.0094 16.6035 33.9844 16.5873C33.9598 16.5712 33.9344 16.5562 33.9084 16.5423C33.8751 16.5252 33.8427 16.5061 33.8114 16.4853C33.7939 16.4724 33.7778 16.4577 33.7634 16.4413C33.7554 16.4293 33.7434 16.4213 33.7384 16.4213C33.7324 16.4203 33.7184 16.4103 33.7064 16.3973C33.6944 16.3853 33.6774 16.3753 33.6694 16.3753C33.6324 16.3525 33.5993 16.3238 33.5714 16.2903C33.5297 16.2449 33.4838 16.2033 33.4344 16.1663C33.4222 16.1467 33.4078 16.1286 33.3914 16.1123L33.3074 16.0243C33.284 15.9997 33.2639 15.9721 33.2474 15.9423C33.233 15.9138 33.2141 15.8878 33.1914 15.8653C33.1772 15.8531 33.1647 15.839 33.1544 15.8233C33.1439 15.8023 33.1315 15.7822 33.1174 15.7633C33.1029 15.7435 33.0908 15.7221 33.0814 15.6993C33.0785 15.6864 33.0731 15.6741 33.0654 15.6633C33.0483 15.6351 33.0327 15.6061 33.0184 15.5763C33.0048 15.547 32.9898 15.5182 32.9734 15.4903C32.9555 15.4569 32.9395 15.4225 32.9254 15.3873C32.9103 15.3488 32.8977 15.3094 32.8874 15.2693C32.881 15.2414 32.8716 15.2142 32.8594 15.1883C32.8451 15.1577 32.8334 15.1259 32.8244 15.0933L32.8014 15.0073L32.7814 14.9273C32.7754 14.898 32.7681 14.869 32.7594 14.8403C32.7505 14.8123 32.7429 14.784 32.7364 14.7553C32.7285 14.6879 32.7228 14.6202 32.7194 14.5523C32.7179 14.4955 32.7139 14.4388 32.7074 14.3823C32.7044 14.3733 32.4484 14.3723 31.4544 14.3733L30.2054 14.3753L30.2074 14.4703C30.2074 14.5223 30.2134 14.6023 30.2174 14.6463L30.2404 14.8453C30.2484 14.9103 30.2584 14.9853 30.2644 15.0123C30.2704 15.0393 30.2784 15.0983 30.2824 15.1423C30.292 15.2279 30.307 15.3127 30.3274 15.3963C30.3334 15.4163 30.3434 15.4583 30.3494 15.4903C30.3565 15.5224 30.3652 15.5541 30.3754 15.5853C30.3842 15.608 30.3909 15.6314 30.3954 15.6553C30.4044 15.6885 30.4151 15.7212 30.4274 15.7533C30.4414 15.7893 30.4534 15.8333 30.4534 15.8523C30.4534 15.8703 30.4634 15.9083 30.4764 15.9363C30.4858 15.956 30.4934 15.9764 30.4994 15.9973C30.4994 16.0023 30.5054 16.0223 30.5134 16.0403L30.5434 16.1043C30.5534 16.1223 30.5634 16.1493 30.5664 16.1643C30.5703 16.1807 30.5782 16.1958 30.5894 16.2083C30.5994 16.2163 30.6094 16.2403 30.6124 16.2613C30.6154 16.2823 30.6284 16.3213 30.6404 16.3483C30.6604 16.3968 30.6841 16.4436 30.7114 16.4883C30.7274 16.5193 30.7554 16.5663 30.7734 16.5943C30.7885 16.6144 30.7997 16.6371 30.8064 16.6613C30.8064 16.6713 30.8164 16.6933 30.8284 16.7113C30.8404 16.7273 30.8554 16.7513 30.8614 16.7633C30.8684 16.7763 30.8864 16.8033 30.9024 16.8233C30.9194 16.8443 30.9324 16.8653 30.9324 16.8693C30.9324 16.8743 30.9424 16.8873 30.9554 16.8993C30.9674 16.9103 30.9774 16.9273 30.9774 16.9353C30.9774 16.9433 30.9904 16.9653 31.0044 16.9853C31.0161 16.9982 31.0252 17.0131 31.0314 17.0293C31.0314 17.0343 31.0464 17.0523 31.0634 17.0683C31.0804 17.0843 31.1134 17.1243 31.1344 17.1583C31.1564 17.1923 31.2094 17.2563 31.2524 17.3003C31.2802 17.3288 31.3062 17.3588 31.3304 17.3903C31.4424 17.5103 31.5585 17.6263 31.6784 17.7383C31.7124 17.7683 31.7434 17.7923 31.7484 17.7923C31.7534 17.7923 31.7674 17.8023 31.7804 17.8153L31.8654 17.8923C31.8994 17.9223 31.9334 17.9463 31.9414 17.9463C31.9654 17.9567 31.9872 17.9716 32.0054 17.9903C32.0304 18.0116 32.0565 18.0316 32.0834 18.0503L32.1284 18.0833C32.1384 18.0933 32.1544 18.1023 32.1644 18.1053C32.1744 18.1083 32.2164 18.1323 32.2574 18.1593C32.2974 18.1863 32.3354 18.2083 32.3404 18.2083C32.3454 18.2083 32.3634 18.2183 32.3794 18.2333C32.4012 18.2504 32.4246 18.2651 32.4494 18.2773L32.6074 18.3553C32.6274 18.3653 32.6814 18.3963 32.7274 18.4223C32.7615 18.4456 32.7999 18.4616 32.8404 18.4693C32.8564 18.4693 32.8844 18.4793 32.9004 18.4903C32.9184 18.5023 32.9504 18.5183 32.9734 18.5273L33.0734 18.5693L33.1674 18.6093C33.1874 18.6153 33.2274 18.6293 33.2574 18.6373C33.2874 18.6453 33.3324 18.6593 33.3574 18.6693L33.4244 18.6913L33.4924 18.7123L33.5694 18.7403C33.6086 18.7548 33.6487 18.7668 33.6894 18.7763L33.7684 18.8003C33.804 18.8096 33.8401 18.817 33.8764 18.8223C33.9084 18.8263 33.9614 18.8353 33.9934 18.8433L34.1204 18.8733C34.1274 18.8773 34.1644 18.8843 34.2014 18.8913C34.2635 18.9011 34.3252 18.9127 34.3864 18.9263L34.4454 18.9403C34.4798 18.9478 34.5145 18.9535 34.5494 18.9573L34.6754 18.9753C34.7054 18.9813 34.8114 18.9893 34.9104 18.9933C35.0268 18.9976 35.1429 19.0069 35.2584 19.0213C35.4868 19.0375 35.7155 19.0465 35.9444 19.0483C36.178 19.0468 36.4114 19.0378 36.6444 19.0213L36.8474 19.0033C36.9044 18.9983 37.0024 18.9943 37.0644 18.9933C37.1053 18.9957 37.1462 18.993 37.1864 18.9853C37.2037 18.9785 37.2219 18.9741 37.2404 18.9723C37.337 18.9607 37.4334 18.947 37.5294 18.9313L37.6154 18.9133C37.6885 18.8966 37.7618 18.8813 37.8354 18.8673L37.9254 18.8493C37.9473 18.8464 37.9688 18.841 37.9894 18.8333C38.0115 18.8264 38.0343 18.822 38.0574 18.8203C38.1406 18.8146 38.2222 18.7957 38.2994 18.7643C38.3293 18.7532 38.3597 18.7435 38.3904 18.7353C38.4215 18.7281 38.4522 18.7195 38.4824 18.7093L38.5854 18.6733C38.6348 18.6567 38.6849 18.642 38.7354 18.6293C38.7965 18.6117 38.8558 18.5882 38.9124 18.5593C38.9194 18.5593 38.9684 18.5393 39.0204 18.5153C39.0552 18.4979 39.0909 18.4826 39.1274 18.4693C39.1515 18.4635 39.1749 18.4555 39.1974 18.4453C39.2532 18.4219 39.3068 18.3934 39.3574 18.3603L39.4304 18.3243C39.4987 18.2925 39.5658 18.2582 39.6314 18.2213C39.6635 18.2031 39.6946 18.183 39.7244 18.1613C39.7423 18.1466 39.7626 18.1351 39.7844 18.1273C39.8039 18.1218 39.8225 18.1134 39.8394 18.1023C39.8703 18.0813 39.9001 18.0586 39.9284 18.0343C39.9433 18.0205 39.9601 18.0091 39.9784 18.0003C39.9824 18.0003 39.9954 17.9903 40.0064 17.9773C40.0184 17.9653 40.0324 17.9553 40.0364 17.9553C40.0579 17.9451 40.078 17.9323 40.0964 17.9173C40.1254 17.8973 40.1754 17.8563 40.2084 17.8273C40.2291 17.8073 40.2519 17.7895 40.2764 17.7743C40.2804 17.7743 40.3054 17.7543 40.3304 17.7293C40.3472 17.7121 40.366 17.697 40.3864 17.6843C40.3914 17.6843 40.4034 17.6713 40.4134 17.6543C40.4272 17.6344 40.4445 17.6171 40.4644 17.6033C40.4887 17.5847 40.512 17.5651 40.5344 17.5443C40.5544 17.5255 40.5728 17.5051 40.5894 17.4833L40.6194 17.4403C40.6301 17.429 40.6391 17.423 40.6464 17.4223C40.6514 17.4223 40.6674 17.4093 40.6804 17.3933C40.6934 17.3773 40.7104 17.3583 40.7154 17.3503L40.7434 17.3103C40.7605 17.2872 40.7785 17.2649 40.7974 17.2433L40.8674 17.1663C40.8811 17.1534 40.8929 17.1386 40.9024 17.1223C40.9024 17.1173 40.9144 17.0983 40.9294 17.0793C40.94 17.0671 40.9491 17.0537 40.9564 17.0393L40.9864 16.9873C41.0031 16.9632 41.0208 16.9399 41.0394 16.9173C41.0693 16.8826 41.093 16.843 41.1094 16.8003C41.1094 16.7933 41.1234 16.7703 41.1394 16.7463C41.1817 16.6874 41.2185 16.6249 41.2494 16.5593C41.2635 16.5356 41.2743 16.51 41.2814 16.4833C41.2914 16.45 41.3048 16.4178 41.3214 16.3873C41.3434 16.3433 41.3694 16.2863 41.3804 16.2603C41.3905 16.2366 41.4015 16.2132 41.4134 16.1903C41.4239 16.1729 41.4317 16.1541 41.4364 16.1343L41.4534 16.0683C41.4695 16.0065 41.4885 15.9454 41.5104 15.8853C41.5215 15.8528 41.5308 15.8198 41.5384 15.7863C41.5459 15.7487 41.5569 15.7119 41.5714 15.6763C41.5777 15.6555 41.5818 15.634 41.5834 15.6123C41.5878 15.5661 41.5985 15.5206 41.6154 15.4773C41.6262 15.4236 41.6326 15.3691 41.6344 15.3143C41.6384 15.2443 41.6464 15.1553 41.6524 15.1163C41.6584 15.0773 41.6634 14.9993 41.6664 14.9443C41.6669 14.905 41.6713 14.8658 41.6794 14.8273C41.6866 14.7419 41.6883 14.656 41.6844 14.5703C41.6827 14.4542 41.678 14.3382 41.6704 14.2223C41.6661 14.1652 41.6601 14.1081 41.6524 14.0513C41.6441 13.9882 41.6378 13.9248 41.6334 13.8613C41.6321 13.8144 41.6274 13.7676 41.6194 13.7213L41.6054 13.6713C41.586 13.5791 41.564 13.4874 41.5394 13.3963C41.5308 13.3632 41.5204 13.3304 41.5084 13.2983L41.4714 13.1973C41.4621 13.1729 41.4561 13.1473 41.4534 13.1213C41.4437 13.08 41.4296 13.0397 41.4114 13.0013C41.3822 12.9294 41.3488 12.8593 41.3114 12.7913L41.2354 12.6313C41.2115 12.5751 41.1791 12.5228 41.1394 12.4763C41.1232 12.4542 41.1101 12.43 41.1004 12.4043C41.1004 12.3963 41.0914 12.3783 41.0804 12.3643L41.0334 12.3073C41.018 12.2876 41.0033 12.2672 40.9894 12.2463C40.9816 12.233 40.9722 12.2205 40.9614 12.2093C40.938 12.1847 40.9179 12.1571 40.9014 12.1273C40.8786 12.0987 40.8543 12.0713 40.8284 12.0453C40.7989 12.0167 40.7712 11.9863 40.7454 11.9543C40.7262 11.9301 40.7048 11.9076 40.6814 11.8873L40.6054 11.8153L40.5474 11.7533C40.5196 11.726 40.4902 11.7003 40.4594 11.6763C40.4306 11.6558 40.4029 11.6338 40.3764 11.6103L40.3224 11.5653C40.3081 11.5549 40.2947 11.5432 40.2824 11.5303C40.2711 11.5183 40.2631 11.5117 40.2584 11.5103C40.2408 11.502 40.2241 11.4919 40.2084 11.4803L40.1244 11.4243C40.1036 11.4102 40.0842 11.3941 40.0664 11.3763C40.0564 11.3653 40.0454 11.3563 40.0414 11.3563C40.0246 11.3495 40.0088 11.3404 39.9944 11.3293C39.9782 11.3177 39.9604 11.3086 39.9414 11.3023C39.9344 11.3023 39.9164 11.2923 39.9024 11.2813C39.8613 11.2507 39.8178 11.2233 39.7724 11.1993C39.7521 11.1892 39.733 11.1768 39.7154 11.1623C39.7014 11.1503 39.6804 11.1393 39.6694 11.1393C39.6198 11.1239 39.5726 11.1013 39.5294 11.0723C39.5015 11.0559 39.4728 11.0409 39.4434 11.0273L39.3454 10.9803C39.2974 10.9686 39.251 10.9508 39.2074 10.9273C39.172 10.9099 39.1356 10.8945 39.0984 10.8813C39.0748 10.8732 39.0514 10.8642 39.0284 10.8543L38.9284 10.8143L38.8584 10.7863C38.8483 10.7819 38.8375 10.7792 38.8264 10.7783C38.8041 10.7752 38.782 10.7702 38.7604 10.7633C38.706 10.7473 38.6523 10.7289 38.5994 10.7083L38.4954 10.6743L38.3884 10.6403C38.3532 10.6297 38.317 10.6223 38.2804 10.6183C38.2543 10.6157 38.2283 10.612 38.2024 10.6073C38.1515 10.591 38.1002 10.576 38.0484 10.5623L37.9854 10.5423C37.9683 10.5378 37.9515 10.5318 37.9354 10.5243C37.9168 10.5175 37.8973 10.5134 37.8774 10.5123C37.8502 10.5084 37.8233 10.5017 37.7974 10.4923C37.7685 10.482 37.7392 10.473 37.7094 10.4653L37.6064 10.4453C37.5775 10.4399 37.5488 10.4333 37.5204 10.4253C37.4652 10.4094 37.4095 10.3951 37.3534 10.3823C37.2797 10.3624 37.2064 10.3411 37.1334 10.3183C37.0853 10.3038 37.0366 10.2912 36.9874 10.2803L36.9334 10.2633C36.9099 10.2571 36.8858 10.2531 36.8614 10.2513C36.8267 10.2472 36.7925 10.2395 36.7594 10.2283C36.7311 10.2194 36.7024 10.2117 36.6734 10.2053C36.6455 10.1992 36.6178 10.1918 36.5904 10.1833L36.5124 10.1563C36.4972 10.1511 36.4814 10.1478 36.4654 10.1463C36.4243 10.1378 36.3842 10.1255 36.3454 10.1093C36.316 10.1009 36.2859 10.0952 36.2554 10.0923C36.2202 10.0885 36.1851 10.0829 36.1504 10.0753L36.0864 10.0563L35.9264 10.0093C35.8725 9.99381 35.8182 9.9798 35.7634 9.96733L35.6744 9.93933C35.6437 9.92917 35.6118 9.92279 35.5794 9.92033C35.5504 9.91881 35.5218 9.91308 35.4944 9.90333C35.4648 9.89393 35.4348 9.88593 35.4044 9.87933C35.3774 9.87472 35.3509 9.86735 35.3254 9.85733C35.2977 9.84683 35.2688 9.83945 35.2394 9.83533C35.2124 9.83264 35.1862 9.82447 35.1624 9.81133C35.1482 9.80161 35.1316 9.79576 35.1144 9.79433C35.1024 9.79379 35.0905 9.79108 35.0794 9.78633C35.0613 9.77862 35.0425 9.77227 35.0234 9.76733L34.9464 9.74733L34.8614 9.73133C34.801 9.71684 34.7421 9.69675 34.6854 9.67133L34.5224 9.60733L34.4624 9.58133C34.4478 9.57302 34.4313 9.56855 34.4144 9.56833C34.3758 9.55723 34.3391 9.54038 34.3054 9.51833C34.276 9.5001 34.2456 9.48341 34.2144 9.46833C34.1913 9.45753 34.1687 9.44586 34.1464 9.43333C34.1237 9.41894 34.0996 9.40688 34.0744 9.39733C34.0264 9.37614 33.9824 9.3467 33.9444 9.31033C33.9344 9.29833 33.9214 9.28833 33.9164 9.28833C33.9098 9.28699 33.9011 9.281 33.8904 9.27033C33.8791 9.25966 33.8701 9.25366 33.8634 9.25233C33.8498 9.24836 33.8372 9.24154 33.8264 9.23233C33.7956 9.20624 33.7656 9.17923 33.7364 9.15133L33.6214 9.03833C33.5941 9.01052 33.5684 8.98114 33.5444 8.95033C33.5264 8.92717 33.5074 8.90481 33.4874 8.88333C33.4693 8.8637 33.4519 8.84335 33.4354 8.82233C33.4243 8.8078 33.4174 8.79051 33.4154 8.77233C33.414 8.75669 33.4088 8.74161 33.4004 8.72833L33.3704 8.69033C33.3564 8.6723 33.3456 8.65201 33.3384 8.63033L33.3024 8.54433C33.2894 8.51524 33.2777 8.48554 33.2674 8.45533C33.2593 8.43006 33.2546 8.40383 33.2534 8.37733C33.2534 8.35733 33.2494 8.33933 33.2434 8.33633C33.2388 8.33233 33.2361 8.32399 33.2354 8.31133C33.2343 8.29536 33.2313 8.27958 33.2264 8.26433L33.2084 8.20133C33.1991 8.15947 33.1924 8.11705 33.1884 8.07433C33.1742 7.87119 33.1756 7.66726 33.1924 7.46433C33.2004 7.41333 33.2104 7.35633 33.2154 7.33833L33.2384 7.26633C33.2465 7.24239 33.2516 7.21753 33.2534 7.19233C33.2534 7.17333 33.2634 7.13733 33.2754 7.11133L33.3134 7.02233C33.3295 6.98423 33.3478 6.94716 33.3684 6.91133C33.386 6.88036 33.4007 6.8479 33.4124 6.81433C33.4169 6.79938 33.4248 6.78569 33.4354 6.77433C33.4454 6.76299 33.4511 6.75399 33.4524 6.74733C33.4524 6.74133 33.4744 6.70833 33.5024 6.67433L33.5864 6.56233C33.6173 6.5176 33.6517 6.47546 33.6894 6.43633C33.6964 6.42833 33.7174 6.40933 33.7354 6.39333C33.7525 6.37886 33.7671 6.36162 33.7784 6.34233C33.7878 6.32579 33.8017 6.31226 33.8184 6.30333C33.8354 6.29433 33.8494 6.28533 33.8494 6.28233C33.8494 6.27933 33.8624 6.26933 33.8794 6.26033C33.8999 6.24731 33.9187 6.23187 33.9354 6.21433C33.9584 6.19219 33.9824 6.17117 34.0074 6.15133C34.0277 6.13543 34.0474 6.11875 34.0664 6.10133C34.0779 6.09101 34.0916 6.08348 34.1064 6.07933C34.1222 6.07621 34.1369 6.06935 34.1494 6.05933L34.1824 6.03533L34.2374 6.00433C34.2594 5.99198 34.2802 5.97758 34.2994 5.96133C34.3218 5.94467 34.3464 5.9312 34.3724 5.92133C34.4004 5.91033 34.4554 5.88533 34.4954 5.86733C34.5771 5.82843 34.6598 5.79174 34.7434 5.75733C34.7717 5.74704 34.8004 5.73803 34.8294 5.73033C34.8494 5.72733 34.8864 5.71933 34.9134 5.71333C34.9425 5.70595 34.9712 5.69728 34.9994 5.68733C35.0204 5.67733 35.0594 5.66733 35.0874 5.66433C35.1073 5.66291 35.1269 5.65853 35.1454 5.65133C35.1597 5.64387 35.1748 5.63816 35.1904 5.63433C35.2234 5.62596 35.2568 5.61929 35.2904 5.61433L35.4044 5.59633L35.5134 5.57833C35.5434 5.57233 35.6084 5.56533 35.6554 5.56033C35.7727 5.55455 35.8901 5.55222 36.0074 5.55333C36.1544 5.55333 36.3124 5.55633 36.3594 5.56033C36.4414 5.5673 36.5229 5.57932 36.6034 5.59633L36.7104 5.61433C36.7333 5.61675 36.7557 5.62178 36.7774 5.62933C36.7834 5.63333 36.8044 5.63933 36.8244 5.64233C36.8841 5.65397 36.9431 5.66831 37.0014 5.68533L37.0814 5.70933C37.1094 5.71733 37.1484 5.72733 37.1684 5.73133C37.2019 5.73753 37.234 5.74936 37.2634 5.76633C37.2988 5.78414 37.3352 5.79983 37.3724 5.81333C37.3774 5.81333 37.4094 5.82933 37.4434 5.84933C37.4665 5.86378 37.4909 5.87584 37.5164 5.88533C37.5224 5.88533 37.5594 5.90133 37.5994 5.92133C37.6384 5.94133 37.7084 5.98433 37.7534 6.01533C37.7994 6.04633 37.8474 6.07533 37.8594 6.07733C37.8714 6.07933 37.9094 6.11033 37.9454 6.14433C37.9814 6.17833 38.0234 6.21733 38.0414 6.23033C38.0544 6.24035 38.0685 6.24874 38.0834 6.25533C38.0874 6.25533 38.1034 6.27033 38.1174 6.28933C38.1631 6.34577 38.2147 6.39707 38.2714 6.44233C38.2874 6.45674 38.3009 6.47362 38.3114 6.49233C38.3214 6.51033 38.3434 6.54033 38.3604 6.55833C38.3774 6.57633 38.4104 6.61533 38.4324 6.64533C38.4554 6.67533 38.4784 6.71033 38.4824 6.72333C38.4884 6.73633 38.4984 6.75333 38.5064 6.76333C38.5134 6.77133 38.5264 6.78933 38.5344 6.80433L38.6314 6.97333C38.6434 6.99333 38.6534 7.01533 38.6534 7.02333C38.6534 7.03133 38.6714 7.07433 38.6934 7.11833C38.711 7.1547 38.7264 7.1921 38.7394 7.23033C38.7436 7.24885 38.7503 7.2667 38.7594 7.28333C38.7721 7.30789 38.7821 7.33369 38.7894 7.36033C38.8062 7.41105 38.8208 7.46243 38.8334 7.51433C38.8384 7.53433 38.8454 7.57133 38.8484 7.59633C38.8532 7.64233 38.8633 7.68763 38.8784 7.73133C38.8844 7.75133 38.8924 7.80133 38.8974 7.84433C38.9024 7.88733 38.9084 7.93733 38.9124 7.95733L38.9204 7.99333L40.1434 7.99733L41.3674 8.00233L41.3714 8.91433L41.3764 9.82633L42.6364 9.83033L43.8964 9.83533L43.9004 13.0633C43.9034 15.4783 43.9074 16.2943 43.9154 16.3033C43.9238 16.3234 43.9289 16.3447 43.9304 16.3663C43.9412 16.4778 43.9612 16.5882 43.9904 16.6963L44.0104 16.7763C44.0175 16.8091 44.0262 16.8414 44.0364 16.8733C44.0473 16.9059 44.0553 16.9394 44.0604 16.9733C44.0664 17.01 44.0765 17.0459 44.0904 17.0803C44.1022 17.1098 44.1125 17.1399 44.1214 17.1703C44.1254 17.1873 44.1384 17.2203 44.1494 17.2443C44.1583 17.2603 44.1656 17.277 44.1714 17.2943C44.1714 17.2993 44.1894 17.3423 44.2114 17.3893C44.2337 17.4326 44.2527 17.4773 44.2684 17.5233C44.2786 17.5413 44.2892 17.559 44.3004 17.5763C44.3462 17.6465 44.3896 17.7182 44.4304 17.7913C44.4404 17.811 44.4536 17.8289 44.4694 17.8443C44.4794 17.8513 44.4874 17.8643 44.4874 17.8713C44.4874 17.8793 44.5074 17.9043 44.5304 17.9273C44.5534 17.9493 44.5804 17.9823 44.5904 18.0003C44.6004 18.0183 44.6654 18.0903 44.7354 18.1603C44.8064 18.2303 44.8814 18.2963 44.9024 18.3073C44.9224 18.3173 44.9424 18.3363 44.9484 18.3483C44.9524 18.3603 44.9624 18.3703 44.9684 18.3703C44.9754 18.3703 44.9924 18.3813 45.0054 18.3943C45.0178 18.4068 45.0311 18.4182 45.0454 18.4283L45.1014 18.4593C45.1224 18.4713 45.1594 18.4943 45.1834 18.5113C45.2084 18.5283 45.2304 18.5413 45.2334 18.5413C45.2364 18.5413 45.2664 18.5603 45.2994 18.5813C45.3324 18.6043 45.3694 18.6253 45.3834 18.6283C45.3974 18.6313 45.4104 18.6383 45.4134 18.6423C45.4164 18.6473 45.4264 18.6503 45.4354 18.6503C45.4454 18.6503 45.4714 18.6603 45.4954 18.6733C45.5184 18.6853 45.5444 18.6953 45.5524 18.6953C45.5604 18.6953 45.5754 18.7013 45.5854 18.7083C45.5954 18.7153 45.6394 18.7363 45.6844 18.7543C45.7284 18.7733 45.7824 18.7943 45.8054 18.8013C45.8351 18.8097 45.8651 18.8167 45.8954 18.8223C45.9615 18.8323 46.0267 18.8473 46.0904 18.8673L46.1764 18.8873C46.2269 18.8971 46.2769 18.9087 46.3264 18.9223C46.3404 18.9263 46.3664 18.9303 46.3814 18.9303C46.3974 18.9303 46.4194 18.9343 46.4314 18.9393C46.4753 18.9483 46.5198 18.9543 46.5644 18.9573L46.7634 18.9723C46.8104 18.9743 46.8534 18.9803 46.8574 18.9853C46.8614 18.9903 46.9854 18.9933 47.1474 18.9933C47.3264 18.9933 47.4324 18.9903 47.4354 18.9843C47.4384 18.9783 47.7304 18.9753 48.2794 18.9753C49.0794 18.9753 49.1174 18.9753 49.1324 18.9593C49.1454 18.9433 49.1474 18.8613 49.1474 17.9533C49.1474 17.0093 49.1464 16.9643 49.1304 16.9503C49.1154 16.9363 49.0404 16.9353 48.3244 16.9313C48.0371 16.9312 47.7497 16.9278 47.4624 16.9213C47.4353 16.9203 47.4083 16.9156 47.3824 16.9073C47.3585 16.9001 47.3334 16.8973 47.3084 16.8993C47.2402 16.8987 47.1728 16.884 47.1104 16.8563L47.0564 16.8333L46.9934 16.8023C46.8852 16.752 46.7859 16.6845 46.6994 16.6023C46.6811 16.5791 46.6618 16.5568 46.6414 16.5353C46.607 16.4971 46.5756 16.4564 46.5474 16.4133C46.4875 16.3033 46.4328 16.1905 46.3834 16.0753C46.3786 16.0529 46.3712 16.0311 46.3614 16.0103C46.3483 15.9792 46.3405 15.9461 46.3384 15.9123C46.3365 15.8815 46.3332 15.8508 46.3284 15.8203L46.3104 15.7303L46.2924 15.6353C46.2847 15.5836 46.2791 15.5315 46.2754 15.4793C46.2694 15.4143 46.2674 14.3163 46.2684 12.6043L46.2704 9.83433L47.6974 9.83033L49.1244 9.82533L49.1304 8.97233C49.1344 8.50333 49.1394 8.08133 49.1424 8.03333C49.1474 7.95633 49.1464 7.94533 49.1314 7.93233C49.1154 7.91733 49.0194 7.91633 47.6924 7.91433L46.2714 7.91033L46.2674 6.47033L46.2624 5.03033H44.1494L44.1444 5.95033C44.1404 6.49733 44.1344 6.91733 44.1284 6.98433C44.1234 7.04633 44.1144 7.11433 44.1084 7.13433L44.0904 7.19733C44.0859 7.21262 44.0832 7.2284 44.0824 7.24433C44.0824 7.25433 44.0784 7.26533 44.0744 7.26833C44.0694 7.27033 44.0644 7.29533 44.0614 7.32333C44.0592 7.35139 44.051 7.37865 44.0374 7.40333C44.0276 7.41624 44.0211 7.43134 44.0184 7.44733C44.0109 7.46649 44.0004 7.48436 43.9874 7.50033C43.9746 7.51439 43.9638 7.53022 43.9554 7.54733C43.9478 7.56356 43.9381 7.5787 43.9264 7.59233C43.8696 7.66333 43.8033 7.72624 43.7294 7.77933L43.6994 7.80433C43.6849 7.81544 43.6676 7.82236 43.6494 7.82433C43.6236 7.82846 43.5988 7.83763 43.5764 7.85133C43.555 7.86466 43.5313 7.87382 43.5064 7.87833C43.4882 7.88086 43.4703 7.88591 43.4534 7.89333C43.3949 7.91798 43.3328 7.93317 43.2694 7.93833L43.1024 7.96133C43.0524 7.96733 42.7054 7.97133 42.2174 7.97133L41.4134 7.97333L41.4064 7.90133L41.3914 7.74333L41.3734 7.56733C41.3682 7.50511 41.3589 7.4433 41.3454 7.38233C41.3305 7.29274 41.3125 7.20369 41.2914 7.11533C41.2848 7.0932 41.2808 7.07038 41.2794 7.04733C41.2715 6.97516 41.2558 6.90408 41.2324 6.83533L41.1964 6.73133L41.1684 6.64633C41.1596 6.61891 41.1496 6.59188 41.1384 6.56533C41.1246 6.53481 41.1139 6.50299 41.1064 6.47033C41.1032 6.44652 41.0958 6.42349 41.0844 6.40233C41.0742 6.38556 41.0664 6.36736 41.0614 6.34833C41.0543 6.32451 41.0442 6.30166 41.0314 6.28033C41.0097 6.24393 40.9904 6.20619 40.9734 6.16733L40.9224 6.05333C40.9143 6.03729 40.9076 6.02056 40.9024 6.00333C40.8887 5.9794 40.8741 5.95604 40.8584 5.93333C40.8279 5.88786 40.7992 5.84115 40.7724 5.79333C40.7542 5.76124 40.7341 5.7302 40.7124 5.70033C40.7024 5.69033 40.6954 5.67733 40.6954 5.67233C40.6871 5.65522 40.6763 5.63939 40.6634 5.62533C40.6508 5.61059 40.6403 5.59408 40.6324 5.57633C40.6318 5.57033 40.6274 5.56533 40.6194 5.56133C40.6043 5.54578 40.5918 5.52788 40.5824 5.50833C40.5731 5.48877 40.5606 5.47087 40.5454 5.45533C40.5417 5.45395 40.5385 5.4515 40.5362 5.4483C40.5339 5.44509 40.5326 5.44128 40.5324 5.43733C40.5196 5.41216 40.5015 5.39001 40.4794 5.37233C40.4534 5.34877 40.4305 5.32187 40.4114 5.29233C40.3969 5.26829 40.3791 5.24641 40.3584 5.22733L40.3014 5.17933C40.2864 5.16414 40.2729 5.14737 40.2614 5.12933C40.2322 5.083 40.1937 5.04318 40.1484 5.01233L40.0794 4.94933L40.0164 4.88333C39.9964 4.86233 39.9734 4.84533 39.9664 4.84533C39.9394 4.82922 39.9151 4.80898 39.8944 4.78533C39.8597 4.75203 39.8226 4.72128 39.7834 4.69333C39.7548 4.67476 39.7271 4.65473 39.7004 4.63333L39.6374 4.58533L39.5594 4.52833C39.5416 4.51325 39.5213 4.50141 39.4994 4.49333C39.4934 4.49333 39.4804 4.48533 39.4714 4.47533C39.4624 4.46533 39.4504 4.45733 39.4444 4.45733C39.4264 4.44982 39.4095 4.43972 39.3944 4.42733C39.35 4.39547 39.3043 4.36544 39.2574 4.33733C39.2454 4.32915 39.2318 4.32369 39.2174 4.32133C39.2016 4.31791 39.1869 4.3107 39.1744 4.30033C39.1423 4.2784 39.1089 4.25837 39.0744 4.24033L38.9504 4.17533C38.9308 4.16533 38.9104 4.15697 38.8894 4.15033C38.8605 4.13932 38.8322 4.12697 38.8044 4.11333C38.7763 4.09856 38.7468 4.08651 38.7164 4.07733C38.6985 4.07202 38.6819 4.06318 38.6674 4.05133C38.6534 4.03996 38.638 4.03054 38.6214 4.02333C38.6009 4.01761 38.5808 4.01025 38.5614 4.00133C38.5391 3.99081 38.5156 3.98309 38.4914 3.97833C38.4814 3.97833 38.4424 3.96833 38.4044 3.95533C38.3349 3.93252 38.2662 3.90717 38.1984 3.87933C38.1558 3.86166 38.1121 3.84696 38.0674 3.83533L37.9904 3.81533L37.9054 3.79833L37.8324 3.78133L37.7564 3.76133L37.6164 3.72533C37.5942 3.71904 37.5714 3.71469 37.5484 3.71233C37.5021 3.70622 37.4566 3.6955 37.4124 3.68033C37.3949 3.67433 37.3768 3.66998 37.3584 3.66733L37.2454 3.65333C37.2105 3.64883 37.1757 3.64249 37.1414 3.63433C37.1034 3.62798 37.0649 3.6253 37.0264 3.62633C36.9905 3.62718 36.9547 3.62416 36.9194 3.61733C36.8647 3.60671 36.8092 3.60069 36.7534 3.59933L36.4834 3.57933C36.213 3.56683 35.9421 3.5635 35.6714 3.56933M54.6654 7.70533C54.6327 7.71285 54.5991 7.71621 54.5654 7.71533C54.4643 7.71634 54.3633 7.72503 54.2634 7.74133L54.1014 7.76333C54.0226 7.7742 53.9442 7.78822 53.8664 7.80533C53.82 7.81297 53.7733 7.81898 53.7264 7.82333C53.6885 7.82684 53.6507 7.83251 53.6134 7.84033L53.5594 7.85833C53.5126 7.87239 53.4652 7.88474 53.4174 7.89533L53.3534 7.91233C53.3366 7.91689 53.3202 7.92292 53.3044 7.93033C53.2932 7.93589 53.281 7.93929 53.2684 7.94033C53.2584 7.94033 53.2254 7.95033 53.1954 7.96333C53.1677 7.97498 53.1384 7.9824 53.1084 7.98533C53.0919 7.98463 53.0754 7.98806 53.0604 7.99533C53.0374 8.00486 53.0141 8.01354 52.9904 8.02133C52.9564 8.03286 52.923 8.04621 52.8904 8.06133C52.8721 8.07208 52.8522 8.07984 52.8314 8.08433C52.8171 8.08803 52.8038 8.09486 52.7924 8.10433C52.7762 8.11557 52.7583 8.12433 52.7394 8.13033C52.6722 8.14707 52.6078 8.17369 52.5484 8.20933C52.4934 8.23533 52.4264 8.26933 52.4004 8.28433C52.3762 8.298 52.3525 8.31268 52.3294 8.32833C52.3182 8.33695 52.3052 8.34309 52.2914 8.34633C52.2744 8.34985 52.2585 8.35778 52.2454 8.36933C52.2347 8.37975 52.2217 8.38761 52.2074 8.39233C52.1631 8.41728 52.1212 8.44641 52.0824 8.47933C52.0694 8.49033 52.0554 8.49933 52.0494 8.49933C52.0281 8.50895 52.008 8.52103 51.9894 8.53533C51.965 8.55009 51.9428 8.56828 51.9234 8.58933C51.9164 8.59933 51.9054 8.60933 51.9004 8.60933C51.8838 8.61505 51.869 8.62505 51.8574 8.63833L51.7764 8.70333C51.7494 8.72333 51.6564 8.81233 51.5664 8.90033C51.5098 8.95383 51.4564 9.01059 51.4064 9.07033C51.3996 9.08658 51.3885 9.10072 51.3744 9.11133C51.3622 9.12293 51.3514 9.13603 51.3424 9.15033C51.3424 9.15433 51.3224 9.17833 51.2984 9.20333C51.2712 9.23306 51.2477 9.26596 51.2284 9.30133C51.213 9.33128 51.1939 9.35917 51.1714 9.38433C51.1511 9.40658 51.1333 9.43107 51.1184 9.45733L51.0494 9.58733L50.9654 9.74333C50.9501 9.76724 50.9374 9.79272 50.9274 9.81933C50.9274 9.82633 50.9174 9.85233 50.9054 9.87733C50.8914 9.90965 50.879 9.9427 50.8684 9.97633C50.8604 10.0063 50.8454 10.0483 50.8364 10.0713L50.8134 10.1343L50.7914 10.2023C50.7707 10.2608 50.7527 10.3202 50.7374 10.3803L50.7184 10.4483C50.71 10.4879 50.704 10.528 50.7004 10.5683C50.6931 10.6407 50.6831 10.7127 50.6704 10.7843C50.6574 10.8939 50.6487 11.004 50.6444 11.1143L50.6424 11.1863H52.9724L52.9794 11.0233C52.9796 10.9222 52.9951 10.8218 53.0254 10.7253C53.0342 10.6809 53.0504 10.6383 53.0734 10.5993L53.1224 10.4813C53.1434 10.4273 53.1704 10.3663 53.1824 10.3463C53.2001 10.3177 53.2202 10.2906 53.2424 10.2653C53.2593 10.2492 53.2731 10.2302 53.2834 10.2093C53.2841 10.2027 53.2884 10.1967 53.2964 10.1913C53.3104 10.1772 53.3222 10.161 53.3314 10.1433C53.342 10.1246 53.3555 10.1077 53.3714 10.0933C53.4061 10.0655 53.4388 10.0355 53.4694 10.0033C53.5019 9.96914 53.5378 9.93831 53.5764 9.91133L53.6264 9.88633C53.6412 9.8768 53.6547 9.86537 53.6664 9.85233C53.6825 9.83515 53.7014 9.82093 53.7224 9.81033L53.7984 9.76833C53.8614 9.73367 53.9269 9.70392 53.9944 9.67933C54.0085 9.67418 54.0219 9.66747 54.0344 9.65933C54.0557 9.64835 54.0782 9.63996 54.1014 9.63433C54.1389 9.6225 54.1756 9.60848 54.2114 9.59233C54.2411 9.57825 54.2728 9.56913 54.3054 9.56533C54.3322 9.56307 54.3589 9.55974 54.3854 9.55533L54.4664 9.53733C54.5547 9.51832 54.6438 9.5033 54.7334 9.49233L54.9054 9.47433C55.0646 9.46344 55.2243 9.46344 55.3834 9.47433L55.5464 9.48933C55.5764 9.49133 55.6084 9.49733 55.6184 9.50233C55.6515 9.50935 55.6849 9.51469 55.7184 9.51833C55.7624 9.52333 55.8174 9.53233 55.8394 9.53833C55.8624 9.54433 55.9094 9.55333 55.9434 9.55833C55.9829 9.56498 56.022 9.57399 56.0604 9.58533L56.1554 9.61633C56.1805 9.62534 56.2052 9.63535 56.2294 9.64633C56.2455 9.65496 56.2627 9.66135 56.2804 9.66533C56.2918 9.66533 56.3011 9.66933 56.3084 9.67733C56.3303 9.69278 56.3542 9.70522 56.3794 9.71433C56.4365 9.7369 56.4914 9.76469 56.5434 9.79733C56.5781 9.81796 56.6115 9.84066 56.6434 9.86533C56.6628 9.88277 56.6828 9.89945 56.7034 9.91533C56.7194 9.92633 56.7364 9.93533 56.7404 9.93533C56.7444 9.93533 56.7644 9.95233 56.7854 9.97233C56.8064 9.99233 56.8244 10.0143 56.8244 10.0193C56.8244 10.0243 56.8474 10.0503 56.8764 10.0793C56.9044 10.1063 56.9414 10.1463 56.9564 10.1673C56.9734 10.1873 56.9864 10.2073 56.9864 10.2103C56.9932 10.226 57.0019 10.2408 57.0124 10.2543C57.0327 10.2869 57.0511 10.3206 57.0674 10.3553C57.0844 10.3903 57.1044 10.4283 57.1124 10.4413C57.1204 10.4543 57.1324 10.4773 57.1384 10.4953L57.1584 10.5613L57.1764 10.6333C57.1951 10.713 57.2104 10.7934 57.2224 10.8743C57.2329 10.9901 57.2332 11.1065 57.2234 11.2223C57.2058 11.3077 57.179 11.3908 57.1434 11.4703C57.1351 11.4849 57.1251 11.4983 57.1134 11.5103C57.1034 11.5203 57.0944 11.5323 57.0944 11.5373C57.0773 11.5632 57.0571 11.5871 57.0344 11.6083C57.0135 11.631 56.99 11.6511 56.9644 11.6683C56.9584 11.6683 56.9434 11.6813 56.9294 11.6963C56.9154 11.7113 56.8994 11.7233 56.8944 11.7233C56.8803 11.7278 56.8673 11.7353 56.8564 11.7453C56.8274 11.7652 56.7974 11.7836 56.7664 11.8003C56.743 11.814 56.7177 11.8244 56.6914 11.8313C56.6791 11.8334 56.6672 11.8378 56.6564 11.8443C56.6258 11.8593 56.5944 11.8726 56.5624 11.8843L56.3364 11.9643C56.2719 11.9871 56.2052 12.0032 56.1374 12.0123C56.0738 12.0235 56.0105 12.0361 55.9474 12.0503L55.8934 12.0663L55.8264 12.0863C55.7967 12.093 55.7667 12.0984 55.7364 12.1023C55.7028 12.1066 55.6694 12.1126 55.6364 12.1203C55.6021 12.1285 55.5674 12.1348 55.5324 12.1393C55.479 12.1454 55.4262 12.1558 55.3744 12.1703C55.3594 12.1733 55.3144 12.1803 55.2744 12.1833C55.1804 12.1939 55.087 12.2089 54.9944 12.2283L54.8684 12.2513C54.829 12.2563 54.79 12.2637 54.7514 12.2733C54.7314 12.2793 54.6814 12.2893 54.6384 12.2963C54.5673 12.3078 54.4966 12.3218 54.4264 12.3383C54.38 12.3456 54.3333 12.3513 54.2864 12.3553C54.2475 12.3591 54.2087 12.3651 54.1704 12.3733C54.1569 12.3795 54.1423 12.3826 54.1274 12.3823C54.114 12.3824 54.1008 12.3851 54.0884 12.3903C54.0644 12.3987 54.0396 12.4047 54.0144 12.4083L53.9244 12.4233C53.9078 12.4263 53.8914 12.4306 53.8754 12.4363L53.8304 12.4523C53.8066 12.4582 53.7826 12.4632 53.7584 12.4673C53.7354 12.47 53.7127 12.4747 53.6904 12.4813C53.6344 12.4997 53.5768 12.5131 53.5184 12.5213L53.4054 12.5453L53.3514 12.5633L53.2934 12.5803L53.2254 12.5983L53.1534 12.6203C53.078 12.6416 53.0039 12.6673 52.9314 12.6973C52.9121 12.7037 52.8918 12.7071 52.8714 12.7073C52.8554 12.7073 52.8404 12.7113 52.8374 12.7153C52.8065 12.7313 52.774 12.7441 52.7404 12.7533C52.6894 12.7693 52.6204 12.7963 52.5874 12.8133C52.5651 12.8255 52.5417 12.8356 52.5174 12.8433C52.5022 12.8469 52.4874 12.8523 52.4734 12.8593C52.4502 12.8704 52.4257 12.8785 52.4004 12.8833C52.3655 12.8921 52.3318 12.9055 52.3004 12.9233C52.2649 12.9439 52.2282 12.9623 52.1904 12.9783C52.1659 12.9897 52.1419 13.002 52.1184 13.0153C52.0983 13.0271 52.0773 13.0372 52.0554 13.0453C52.0053 13.0614 51.9585 13.0864 51.9174 13.1193C51.9034 13.1313 51.8874 13.1403 51.8804 13.1403C51.8637 13.1468 51.8479 13.1556 51.8334 13.1663C51.8134 13.1803 51.7704 13.2063 51.7354 13.2263L51.6354 13.2843C51.6178 13.2953 51.6011 13.3077 51.5854 13.3213C51.5479 13.3533 51.5066 13.3805 51.4624 13.4023C51.4459 13.4115 51.4308 13.4229 51.4174 13.4363L51.3344 13.5103C51.3144 13.5275 51.2937 13.5438 51.2724 13.5593C51.2587 13.5691 51.2463 13.5805 51.2354 13.5933C51.2234 13.6073 51.2094 13.6193 51.2054 13.6193C51.1377 13.6753 51.0752 13.7372 51.0184 13.8043C50.9945 13.8348 50.9688 13.8638 50.9414 13.8913C50.9109 13.9234 50.8825 13.9575 50.8564 13.9933C50.8469 14.0096 50.8351 14.0244 50.8214 14.0373C50.8148 14.042 50.8108 14.048 50.8094 14.0553C50.8094 14.0613 50.7934 14.0843 50.7734 14.1063C50.7529 14.1292 50.7345 14.154 50.7184 14.1803C50.7108 14.1952 50.7051 14.211 50.7014 14.2273C50.7014 14.2353 50.6894 14.2543 50.6754 14.2713C50.6538 14.2986 50.635 14.3281 50.6194 14.3593L50.5694 14.4493C50.5533 14.4801 50.54 14.5122 50.5294 14.5453C50.5204 14.5704 50.5104 14.5951 50.4994 14.6193C50.4908 14.634 50.4835 14.6494 50.4774 14.6653L50.4514 14.7383L50.4214 14.8183C50.4132 14.8344 50.4071 14.8516 50.4034 14.8693C50.4034 14.8763 50.3934 14.9123 50.3804 14.9493C50.3688 14.986 50.3614 15.0239 50.3584 15.0623C50.3588 15.0847 50.3554 15.107 50.3484 15.1283C50.3404 15.1558 50.3347 15.1839 50.3314 15.2123L50.3124 15.3253C50.3053 15.3685 50.2997 15.4118 50.2954 15.4553C50.2894 15.5892 50.2867 15.7233 50.2874 15.8573C50.2874 16.0343 50.2914 16.2173 50.2954 16.2643C50.2994 16.3113 50.3074 16.3723 50.3124 16.3993C50.3174 16.4263 50.3264 16.4773 50.3314 16.5123C50.3364 16.5473 50.3434 16.5823 50.3464 16.5893C50.3526 16.6129 50.3566 16.637 50.3584 16.6613C50.3624 16.6916 50.3677 16.7216 50.3744 16.7513L50.3974 16.8333C50.4051 16.859 50.4138 16.8844 50.4234 16.9093C50.4321 16.9282 50.4388 16.948 50.4434 16.9683C50.4514 16.9944 50.4604 17.02 50.4704 17.0453C50.4956 17.0961 50.5173 17.1486 50.5354 17.2023C50.57 17.2861 50.6111 17.367 50.6584 17.4443C50.6761 17.4708 50.6911 17.499 50.7034 17.5283C50.7074 17.5403 50.7174 17.5583 50.7264 17.5683C50.7354 17.5783 50.7614 17.6153 50.7864 17.6493C50.8094 17.6843 50.8384 17.7273 50.8514 17.7443L50.8934 17.7993C50.927 17.8485 50.9655 17.8941 51.0084 17.9353C51.0321 17.9561 51.0533 17.9796 51.0714 18.0053C51.0714 18.0103 51.0894 18.0323 51.1114 18.0543C51.1324 18.0766 51.1567 18.0954 51.1834 18.1103C51.2008 18.1177 51.2157 18.1298 51.2264 18.1453C51.2431 18.1698 51.2649 18.1903 51.2904 18.2053C51.2944 18.2053 51.3084 18.2173 51.3234 18.2323C51.3324 18.2436 51.3436 18.2528 51.3564 18.2593C51.3604 18.2593 51.3944 18.2833 51.4334 18.3133C51.4714 18.3433 51.5074 18.3673 51.5114 18.3673C51.5154 18.3673 51.5384 18.3843 51.5634 18.4043C51.5884 18.4243 51.6184 18.4463 51.6314 18.4533C51.646 18.4602 51.661 18.4659 51.6764 18.4703C51.6941 18.4761 51.7104 18.4852 51.7244 18.4973C51.7597 18.5217 51.7964 18.5437 51.8344 18.5633L51.9584 18.6263C51.9794 18.6373 52.0064 18.6463 52.0174 18.6463C52.0455 18.6531 52.0724 18.6639 52.0974 18.6783C52.1324 18.6953 52.1864 18.7183 52.2174 18.7283C52.2609 18.7431 52.3034 18.7608 52.3444 18.7813C52.3669 18.7888 52.3895 18.7955 52.4124 18.8013L52.5024 18.8193C52.5648 18.8314 52.6265 18.8464 52.6874 18.8643C52.7204 18.8737 52.7537 18.8814 52.7874 18.8873L52.8954 18.9093C52.9477 18.9218 53.0004 18.9321 53.0534 18.9403C53.0684 18.9433 53.1214 18.9503 53.1714 18.9553L53.3614 18.9733C53.4154 18.9783 53.5964 18.9833 53.7624 18.9833C53.9284 18.9833 54.1054 18.9793 54.1554 18.9733L54.3634 18.9513C54.4833 18.9375 54.6021 18.9165 54.7194 18.8883C54.7849 18.8756 54.8496 18.8596 54.9134 18.8403C54.9434 18.8333 54.9904 18.8233 55.0174 18.8203C55.0892 18.8095 55.1592 18.789 55.2254 18.7593C55.2724 18.7413 55.3254 18.7193 55.3454 18.7093C55.3597 18.7019 55.3748 18.6962 55.3904 18.6923C55.4101 18.6879 55.429 18.6804 55.4464 18.6703C55.4648 18.6596 55.4847 18.6518 55.5054 18.6473C55.5144 18.6473 55.5404 18.6393 55.5624 18.6303C55.5789 18.6234 55.5944 18.6143 55.6084 18.6033C55.6223 18.5913 55.6393 18.5833 55.6574 18.5803C55.6828 18.5713 55.7079 18.5613 55.7324 18.5503C55.7518 18.5397 55.7699 18.5269 55.7864 18.5123C55.8014 18.4989 55.8182 18.4878 55.8364 18.4793C55.8512 18.4732 55.8666 18.4688 55.8824 18.4663C55.8914 18.4663 55.9104 18.4563 55.9244 18.4443C55.9384 18.4313 55.9554 18.4213 55.9614 18.4213C55.9674 18.4213 55.9784 18.4153 55.9844 18.4073C55.9991 18.3943 56.0156 18.3835 56.0334 18.3753C56.0526 18.3656 56.0707 18.3539 56.0874 18.3403C56.105 18.3262 56.1241 18.3141 56.1444 18.3043C56.1603 18.297 56.1751 18.2875 56.1884 18.2763C56.198 18.2676 56.2092 18.2608 56.2214 18.2563C56.2482 18.2406 56.273 18.2218 56.2954 18.2003C56.3256 18.1734 56.3573 18.1484 56.3904 18.1253C56.4189 18.1054 56.4462 18.0841 56.4724 18.0613C56.4904 18.0433 56.5264 18.0113 56.5524 17.9883L56.6424 17.9113C56.7134 17.8463 56.7811 17.7779 56.8454 17.7063C56.8644 17.6823 56.9064 17.6353 56.9394 17.6013L57.0394 17.4943C57.0585 17.472 57.08 17.4519 57.1034 17.4343C57.1319 17.4225 57.1627 17.4173 57.1934 17.4193C57.2274 17.4193 57.2654 17.4233 57.2774 17.4273C57.2969 17.4394 57.3133 17.4559 57.3254 17.4753L57.3524 17.5153L57.3564 18.2413L57.3614 18.9683H59.5824V15.0903C59.5804 12.3743 59.5774 11.1743 59.5704 11.0823C59.5668 11.0295 59.5618 10.9769 59.5554 10.9243C59.5416 10.8541 59.5302 10.7834 59.5214 10.7123C59.5151 10.665 59.5054 10.6182 59.4924 10.5723L59.4794 10.5093L59.4614 10.4413C59.4559 10.4207 59.4525 10.3996 59.4514 10.3783C59.4516 10.3587 59.4489 10.3392 59.4434 10.3203L59.3954 10.1523C59.3834 10.1138 59.369 10.0761 59.3524 10.0393L59.3314 9.98333C59.3135 9.93593 59.2939 9.88923 59.2724 9.84333C59.2664 9.83083 59.263 9.81721 59.2624 9.80333C59.2457 9.75759 59.2256 9.71314 59.2024 9.67033C59.1778 9.62023 59.1511 9.57119 59.1224 9.52333C59.111 9.51054 59.1031 9.49505 59.0994 9.47833C59.0972 9.46129 59.0907 9.4451 59.0804 9.43133L59.0514 9.38833L59.0184 9.34433L58.9674 9.27233C58.9484 9.24587 58.9308 9.21851 58.9144 9.19033C58.8991 9.16292 58.8807 9.13742 58.8594 9.11433C58.848 9.10323 58.8379 9.09081 58.8294 9.07733C58.8186 9.05969 58.8051 9.04383 58.7894 9.03033C58.7631 9.00244 58.7384 8.97306 58.7154 8.94233L58.6684 8.88533L58.6224 8.84833C58.6018 8.83347 58.5841 8.8148 58.5704 8.79333L58.5444 8.75733L58.5084 8.73033C58.4648 8.70126 58.4245 8.66738 58.3884 8.62933C58.3673 8.60775 58.3438 8.58863 58.3184 8.57233C58.3134 8.57233 58.3004 8.56233 58.2884 8.55133C58.2737 8.53682 58.2569 8.52467 58.2384 8.51533C58.2216 8.50657 58.2061 8.49545 58.1924 8.48233C58.1818 8.471 58.1731 8.46499 58.1664 8.46433C58.1493 8.45595 58.1335 8.44518 58.1194 8.43233C58.1053 8.41983 58.0895 8.40939 58.0724 8.40133C58.0684 8.40133 58.0524 8.38833 58.0384 8.37433C58.0211 8.35633 58.0044 8.34699 57.9884 8.34633C57.9685 8.34424 57.9497 8.33622 57.9344 8.32333C57.9082 8.30539 57.8812 8.2887 57.8534 8.27333L57.7724 8.22433C57.7331 8.20261 57.6923 8.18357 57.6504 8.16733C57.6004 8.14733 57.5404 8.12133 57.5154 8.10833C57.4971 8.09758 57.4772 8.08981 57.4564 8.08533C57.4416 8.0825 57.4276 8.07635 57.4154 8.06733C57.403 8.05817 57.3886 8.05201 57.3734 8.04933C57.3633 8.04815 57.354 8.04314 57.3474 8.03533C57.3388 8.02697 57.3274 8.022 57.3154 8.02133C57.3044 8.02133 57.2924 8.01733 57.2894 8.01233C57.2841 8.00699 57.2761 8.00399 57.2654 8.00333C57.2541 8.00256 57.2429 7.99986 57.2324 7.99533C57.213 7.98793 57.1929 7.98257 57.1724 7.97933C57.1417 7.97243 57.1114 7.96409 57.0814 7.95433L56.9524 7.91233L56.8244 7.87733L56.7474 7.85733L56.6874 7.83933C56.6485 7.83166 56.6091 7.82631 56.5694 7.82333C56.5258 7.82018 56.4823 7.81417 56.4394 7.80533C56.4114 7.79776 56.383 7.79142 56.3544 7.78633L56.2274 7.76833C56.1925 7.76416 56.1578 7.75815 56.1234 7.75033C56.0992 7.7446 56.0743 7.74191 56.0494 7.74233C56.0267 7.74283 56.004 7.73945 55.9824 7.73233C55.9184 7.72321 55.854 7.71721 55.7894 7.71433C55.4149 7.70024 55.0401 7.69724 54.6654 7.70533ZM80.8814 7.70633C80.8262 7.71533 80.7704 7.72101 80.7144 7.72333C80.6344 7.72833 80.5434 7.73633 80.5104 7.74133L80.3524 7.76233C80.3148 7.7662 80.2774 7.77221 80.2404 7.78033C80.2055 7.79407 80.1688 7.80282 80.1314 7.80633L80.0014 7.82333C79.9569 7.82902 79.9128 7.83771 79.8694 7.84933C79.8428 7.85813 79.8157 7.8658 79.7884 7.87233C79.7625 7.87863 79.7368 7.88597 79.7114 7.89433C79.6864 7.90433 79.6414 7.91833 79.6114 7.92633C79.5823 7.93567 79.5536 7.94635 79.5254 7.95833C79.4981 7.97057 79.4691 7.97866 79.4394 7.98233C79.4135 7.98467 79.3879 7.99038 79.3634 7.99933C79.3369 8.01083 79.3099 8.02117 79.2824 8.03033C79.2563 8.03992 79.2306 8.0506 79.2054 8.06233C79.1954 8.06833 79.1424 8.09233 79.0884 8.11533C79.0536 8.13137 79.0179 8.14539 78.9814 8.15733C78.957 8.16704 78.933 8.17772 78.9094 8.18933C78.833 8.2286 78.7574 8.26927 78.6824 8.31133C78.6501 8.33087 78.6168 8.34856 78.5824 8.36433C78.5471 8.38199 78.5136 8.40309 78.4824 8.42733L78.4184 8.47933C78.3998 8.49258 78.3796 8.50365 78.3584 8.51233C78.3371 8.52163 78.317 8.53338 78.2984 8.54733L78.2404 8.59033L78.1064 8.69133C78.054 8.73213 78.0036 8.77551 77.9554 8.82133C77.9386 8.84034 77.9195 8.85714 77.8984 8.87133C77.8783 8.88472 77.8598 8.9005 77.8434 8.91833C77.818 8.94433 77.7939 8.9717 77.7714 9.00033C77.7584 9.02033 77.7414 9.03533 77.7374 9.03533C77.7094 9.05404 77.6839 9.07622 77.6614 9.10133C77.6379 9.12454 77.6155 9.1489 77.5944 9.17433C77.5771 9.19833 77.5577 9.22076 77.5364 9.24133C77.4997 9.2783 77.466 9.31809 77.4354 9.36033L77.3874 9.42333L77.3374 9.48833L77.2714 9.57433C77.2628 9.58363 77.256 9.59449 77.2514 9.60633C77.2425 9.62401 77.2317 9.64076 77.2194 9.65633C77.207 9.67253 77.1963 9.68995 77.1874 9.70833C77.1874 9.71233 77.1784 9.72433 77.1674 9.73433C77.1275 9.77804 77.0957 9.82849 77.0734 9.88333C77.0696 9.89889 77.062 9.91329 77.0514 9.92533C77.0414 9.93333 77.0344 9.94533 77.0344 9.95133C77.0307 9.96372 77.0246 9.97527 77.0164 9.98533C77.0019 10.0071 76.9882 10.0295 76.9754 10.0523L76.9254 10.1363C76.9138 10.1538 76.9051 10.1731 76.8994 10.1933C76.8994 10.2023 76.8654 10.2773 76.8244 10.3603C76.7824 10.4433 76.7444 10.5293 76.7374 10.5513C76.7209 10.6034 76.7022 10.6548 76.6814 10.7053C76.6462 10.7935 76.6122 10.8822 76.5794 10.9713C76.5678 11.0068 76.5581 11.0428 76.5504 11.0793C76.5447 11.1113 76.5373 11.143 76.5284 11.1743C76.5196 11.201 76.512 11.228 76.5054 11.2553C76.4993 11.283 76.4919 11.3103 76.4834 11.3373L76.4574 11.4223C76.4514 11.4423 76.4434 11.4793 76.4384 11.5043L76.4194 11.5843C76.3994 11.665 76.3843 11.7468 76.3744 11.8293C76.3668 11.8973 76.3567 11.965 76.3444 12.0323C76.3404 12.0443 76.3344 12.0893 76.3294 12.1323L76.3114 12.2673C76.3023 12.3362 76.2947 12.4052 76.2884 12.4743L76.2654 12.7363C76.2604 12.7983 76.2554 13.0703 76.2554 13.3413C76.2554 13.6123 76.2604 13.8863 76.2654 13.9513L76.2884 14.2123C76.2954 14.2923 76.3064 14.3823 76.3114 14.4153C76.3164 14.4473 76.3254 14.5153 76.3304 14.5643C76.3344 14.6143 76.3424 14.6623 76.3474 14.6723C76.3524 14.6823 76.3574 14.7093 76.3614 14.7323L76.3744 14.8443C76.3784 14.8843 76.3884 14.9493 76.3974 14.9883L76.4174 15.0923C76.4186 15.1071 76.423 15.1215 76.4304 15.1343C76.4344 15.1393 76.4404 15.1693 76.4434 15.1993C76.4474 15.2303 76.4534 15.2573 76.4574 15.2603C76.4621 15.2643 76.4648 15.272 76.4654 15.2833C76.4654 15.2933 76.4724 15.3163 76.4824 15.3343C76.4914 15.3523 76.5024 15.3883 76.5054 15.4123C76.5094 15.4373 76.5194 15.4723 76.5284 15.4893C76.5394 15.5172 76.5461 15.5465 76.5484 15.5763C76.5514 15.6063 76.5614 15.6463 76.5714 15.6663C76.5814 15.6863 76.5914 15.7163 76.5954 15.7333C76.5991 15.7518 76.6044 15.7699 76.6114 15.7873L76.6374 15.8463C76.6464 15.8663 76.6594 15.9003 76.6674 15.9233L76.6934 15.9983C76.6993 16.0139 76.707 16.0287 76.7164 16.0423C76.7224 16.0483 76.7264 16.0653 76.7264 16.0793C76.7264 16.0943 76.7404 16.1353 76.7574 16.1703L76.8754 16.4103C76.8871 16.4346 76.8978 16.4592 76.9074 16.4843C76.9124 16.5023 76.9374 16.5533 76.9634 16.5973C76.9884 16.6413 77.0234 16.6973 77.0394 16.7233C77.0564 16.7483 77.0694 16.7753 77.0694 16.7833C77.0915 16.8296 77.1197 16.8727 77.1534 16.9113C77.1634 16.9203 77.1764 16.9413 77.1834 16.9563C77.1904 16.9713 77.2034 16.9913 77.2134 17.0013C77.2234 17.0113 77.2334 17.0213 77.2334 17.0263C77.2697 17.0892 77.3105 17.1493 77.3554 17.2063C77.3684 17.2232 77.3832 17.2386 77.3994 17.2523C77.4121 17.2655 77.4228 17.2803 77.4314 17.2963C77.4414 17.3163 77.4564 17.3393 77.4634 17.3463L77.5004 17.3903C77.5134 17.4073 77.5284 17.4213 77.5334 17.4213C77.5384 17.4213 77.5554 17.4353 77.5684 17.4513C77.5802 17.4624 77.5891 17.4761 77.5944 17.4913C77.5944 17.4983 77.6204 17.5293 77.6544 17.5613C77.6745 17.5834 77.697 17.6032 77.7214 17.6203C77.7254 17.6203 77.7394 17.6303 77.7514 17.6433C77.7634 17.6563 77.7744 17.6693 77.7744 17.6733C77.785 17.692 77.7985 17.7089 77.8144 17.7233C77.8288 17.7396 77.8457 17.7535 77.8644 17.7643C77.8684 17.7643 77.9094 17.8003 77.9534 17.8443C77.9974 17.8883 78.0524 17.9333 78.0754 17.9443C78.0984 17.9553 78.1174 17.9683 78.1174 17.9723C78.134 17.9927 78.1532 18.0109 78.1744 18.0263L78.2464 18.0863C78.2544 18.0923 78.2764 18.1063 78.2964 18.1163C78.3164 18.1263 78.3364 18.1403 78.3424 18.1473C78.3504 18.156 78.3581 18.161 78.3654 18.1623C78.3724 18.1623 78.3914 18.1723 78.4094 18.1863L78.4864 18.2443C78.5169 18.2663 78.5494 18.2854 78.5834 18.3013C78.6134 18.3143 78.6454 18.3333 78.6554 18.3413C78.6654 18.3513 78.7074 18.3753 78.7504 18.3973C78.7848 18.4137 78.8182 18.4321 78.8504 18.4523C78.8634 18.4623 78.8844 18.4683 78.8974 18.4683C78.9219 18.4746 78.945 18.4855 78.9654 18.5003C78.9829 18.5141 79.0025 18.525 79.0234 18.5323C79.0304 18.5323 79.0534 18.5423 79.0764 18.5533C79.0984 18.5653 79.1264 18.5783 79.1384 18.5813C79.1544 18.5871 79.1695 18.5948 79.1834 18.6043C79.2011 18.6149 79.2204 18.6226 79.2404 18.6273C79.2584 18.6303 79.2764 18.6373 79.2784 18.6413C79.2824 18.6467 79.2908 18.6493 79.3034 18.6493C79.3144 18.6493 79.3454 18.6573 79.3734 18.6673L79.4724 18.7043C79.4994 18.7143 79.5404 18.7283 79.5624 18.7343L79.6574 18.7663C79.7259 18.7924 79.797 18.8108 79.8694 18.8213L79.9734 18.8383C80.0034 18.8443 80.0354 18.8523 80.0454 18.8563C80.0617 18.8624 80.0784 18.8671 80.0954 18.8703L80.2084 18.8883C80.2825 18.8999 80.3562 18.9136 80.4294 18.9293L80.5064 18.9433C80.5214 18.9463 80.5844 18.9523 80.6464 18.9573L80.8634 18.9753C80.9204 18.9803 81.1274 18.9853 81.3234 18.9853C81.5194 18.9853 81.7334 18.9803 81.7974 18.9753L82.0374 18.9573C82.1489 18.9513 82.2596 18.9359 82.3684 18.9113L82.5064 18.8893C82.5534 18.8823 82.6104 18.8713 82.6334 18.8663C82.7121 18.8465 82.7919 18.8315 82.8724 18.8213C82.9384 18.8131 83.0034 18.7984 83.0664 18.7773L83.1384 18.7543L83.3284 18.6943C83.3538 18.6867 83.3788 18.678 83.4034 18.6683C83.4274 18.6583 83.4534 18.6493 83.4604 18.6493C83.4833 18.6453 83.5057 18.6393 83.5274 18.6313C83.5966 18.6074 83.6643 18.5797 83.7304 18.5483C83.8424 18.4974 83.9538 18.445 84.0644 18.3913C84.0831 18.378 84.1028 18.3663 84.1234 18.3563C84.1404 18.3483 84.1834 18.3263 84.2174 18.3063L84.3194 18.2513C84.3471 18.2358 84.3732 18.2178 84.3974 18.1973C84.4119 18.1833 84.4284 18.1715 84.4464 18.1623C84.4518 18.1617 84.4584 18.157 84.4664 18.1483C84.4819 18.1344 84.4994 18.1229 84.5184 18.1143C84.5512 18.0955 84.5817 18.073 84.6094 18.0473C84.6269 18.0296 84.646 18.0135 84.6664 17.9993C84.6704 17.9993 84.6824 17.9893 84.6934 17.9793C84.707 17.9663 84.7217 17.9546 84.7374 17.9443C84.7623 17.9258 84.7864 17.9061 84.8094 17.8853C84.8364 17.8613 84.9124 17.7883 84.9794 17.7233C85.0298 17.6762 85.0766 17.6254 85.1194 17.5713C85.1367 17.5545 85.1525 17.536 85.1664 17.5163C85.1914 17.4835 85.2175 17.4515 85.2444 17.4203C85.2544 17.4113 85.2824 17.3703 85.3084 17.3293C85.3275 17.2989 85.3482 17.2695 85.3704 17.2413C85.3862 17.2209 85.4013 17.1999 85.4154 17.1783C85.4334 17.1503 85.4674 17.0913 85.4914 17.0473L85.5544 16.9293C85.5644 16.9093 85.5844 16.8753 85.5984 16.8533C85.6136 16.8303 85.6238 16.8045 85.6284 16.7773C85.6319 16.7564 85.6386 16.7361 85.6484 16.7173C85.6584 16.7018 85.6661 16.685 85.6714 16.6673C85.6817 16.6368 85.6933 16.6067 85.7064 16.5773C85.7224 16.5423 85.7434 16.4943 85.7524 16.4693C85.7614 16.4443 85.7724 16.4093 85.7754 16.3923C85.7788 16.3746 85.7845 16.3575 85.7924 16.3413C85.7994 16.3239 85.8028 16.3051 85.8024 16.2863C85.8024 16.2663 85.8104 16.2303 85.8194 16.2063C85.8301 16.1741 85.8391 16.1414 85.8464 16.1083L85.8764 15.9683C85.8804 15.9503 85.8884 15.9043 85.8934 15.8643L85.9124 15.7343C85.9174 15.7013 85.9224 15.6563 85.9224 15.6343L85.9244 15.5943L84.7564 15.5913C83.9564 15.5893 83.5844 15.5913 83.5764 15.5983C83.5704 15.6033 83.5624 15.6223 83.5604 15.6413L83.5454 15.7153C83.5394 15.7373 83.5314 15.7763 83.5274 15.8013C83.5174 15.854 83.5012 15.9053 83.4794 15.9543L83.4514 16.0093L83.4154 16.0823C83.3812 16.1501 83.3431 16.2159 83.3014 16.2793L83.2614 16.3373C83.2474 16.3573 83.2314 16.3743 83.2274 16.3743C83.2234 16.3743 83.2094 16.3913 83.1964 16.4133C83.1779 16.44 83.1568 16.4648 83.1334 16.4873L82.9164 16.6813C82.9013 16.6864 82.8876 16.6949 82.8764 16.7063C82.8353 16.7373 82.7918 16.765 82.7464 16.7893C82.732 16.797 82.7186 16.8064 82.7064 16.8173C82.6589 16.8514 82.6067 16.8784 82.5514 16.8973C82.5303 16.9028 82.5099 16.9105 82.4904 16.9203C82.4729 16.9298 82.4545 16.9375 82.4354 16.9433C82.4094 16.9526 82.3837 16.9629 82.3584 16.9743C82.3244 16.9921 82.2881 17.0049 82.2504 17.0123C82.2378 17.0198 82.2244 17.0258 82.2104 17.0303C82.1877 17.0368 82.1646 17.0425 82.1414 17.0473C82.1256 17.0498 82.1102 17.0542 82.0954 17.0603C82.0752 17.0677 82.0539 17.0717 82.0324 17.0723C81.9989 17.0756 81.9655 17.0806 81.9324 17.0873C81.8818 17.0973 81.8307 17.1053 81.7794 17.1113L81.5804 17.1343C81.4093 17.1473 81.2375 17.1473 81.0664 17.1343L80.7504 17.0923L80.7054 17.0783C80.6846 17.072 80.6631 17.068 80.6414 17.0663C80.6112 17.062 80.5812 17.0564 80.5514 17.0493L80.4614 17.0193C80.4316 17.0087 80.4022 16.9967 80.3734 16.9833C80.3568 16.9744 80.3394 16.967 80.3214 16.9613C80.2964 16.9517 80.2717 16.941 80.2474 16.9293C80.2208 16.9148 80.1922 16.9043 80.1624 16.8983C80.124 16.8843 80.0879 16.8644 80.0554 16.8393C80.0119 16.8099 79.9672 16.7822 79.9214 16.7563C79.8738 16.726 79.8274 16.6936 79.7824 16.6593C79.7581 16.6385 79.7347 16.6164 79.7124 16.5933C79.6965 16.5743 79.6772 16.5583 79.6554 16.5463C79.6279 16.5282 79.6027 16.5067 79.5804 16.4823C79.5572 16.4604 79.5361 16.4363 79.5174 16.4103C79.505 16.3918 79.4906 16.3747 79.4744 16.3593L79.3954 16.2723C79.3801 16.2559 79.3667 16.2378 79.3554 16.2183C79.3461 16.2009 79.335 16.1845 79.3224 16.1693C79.3101 16.1558 79.2997 16.1407 79.2914 16.1243C79.2804 16.1038 79.2669 16.0847 79.2514 16.0673C79.2286 16.0395 79.2088 16.0094 79.1924 15.9773L79.1594 15.9093L79.0954 15.7873C79.0777 15.7501 79.0576 15.7141 79.0354 15.6793C79.0259 15.6637 79.0185 15.6469 79.0134 15.6293L78.9854 15.5363C78.9783 15.5122 78.969 15.4887 78.9574 15.4663C78.9223 15.3889 78.8939 15.3086 78.8724 15.2263C78.8668 15.2017 78.8581 15.1778 78.8464 15.1553C78.8339 15.1228 78.8271 15.0882 78.8264 15.0533C78.8235 14.9999 78.8134 14.9471 78.7964 14.8963L78.7764 14.8243C78.7688 14.792 78.7628 14.7593 78.7584 14.7263L78.7404 14.6143L78.7234 14.4963C78.7177 14.4539 78.7147 14.4111 78.7144 14.3683V14.3073H82.4024C84.8854 14.3073 86.0924 14.3043 86.0964 14.2973C86.0994 14.2933 86.1044 13.9163 86.1064 13.4603C86.1094 12.9053 86.1074 12.5863 86.1014 12.4923C86.0823 12.2201 86.0493 11.9491 86.0024 11.6803C85.9969 11.6426 85.9936 11.6045 85.9924 11.5663C85.9942 11.542 85.9915 11.5176 85.9844 11.4943C85.9768 11.4809 85.9723 11.4658 85.9714 11.4503L85.9564 11.3733L85.9334 11.2733L85.9114 11.1793C85.8971 11.1331 85.8844 11.0864 85.8734 11.0393L85.8534 10.9713L85.8234 10.8763C85.8153 10.8496 85.8083 10.8226 85.8024 10.7953C85.7881 10.7224 85.7656 10.6513 85.7354 10.5833C85.7089 10.5164 85.6809 10.45 85.6514 10.3843C85.6407 10.3586 85.6326 10.3318 85.6274 10.3043C85.6225 10.2771 85.6119 10.2512 85.5964 10.2283C85.5812 10.2031 85.5688 10.1763 85.5594 10.1483C85.5534 10.1273 85.5454 10.1083 85.5414 10.1053C85.5258 10.0837 85.5124 10.0606 85.5014 10.0363C85.4878 10.0119 85.4767 9.98608 85.4684 9.95933C85.4623 9.94082 85.4536 9.9233 85.4424 9.90733C85.4224 9.87669 85.404 9.84498 85.3874 9.81233C85.3737 9.78338 85.3566 9.75619 85.3364 9.73133C85.3151 9.70471 85.2973 9.67547 85.2834 9.64433C85.2708 9.61518 85.2546 9.58766 85.2354 9.56233C85.2044 9.52325 85.176 9.48216 85.1504 9.43933C85.142 9.42453 85.1323 9.41048 85.1214 9.39733C85.1128 9.38666 85.1081 9.378 85.1074 9.37133C85.1068 9.36466 85.1031 9.35866 85.0964 9.35333C85.0768 9.33182 85.0581 9.30947 85.0404 9.28633C85.0192 9.2567 84.9939 9.23012 84.9654 9.20733C84.9494 9.19733 84.9354 9.18033 84.9354 9.17133C84.9354 9.16133 84.9224 9.14133 84.9064 9.12333C84.8933 9.10886 84.8782 9.0964 84.8614 9.08633C84.8514 9.08233 84.8461 9.07633 84.8454 9.06833C84.8454 9.06133 84.8324 9.04333 84.8154 9.02933C84.7944 9.00791 84.7744 8.98555 84.7554 8.96233C84.7371 8.93983 84.7177 8.91814 84.6974 8.89733C84.6519 8.86499 84.6096 8.82813 84.5714 8.78733C84.5373 8.75166 84.5005 8.71857 84.4614 8.68833C84.4337 8.66838 84.407 8.64701 84.3814 8.62433C84.3625 8.60484 84.3409 8.58802 84.3174 8.57433C84.3124 8.57433 84.2994 8.56433 84.2874 8.55333C84.2725 8.53838 84.2553 8.52589 84.2364 8.51633C84.2184 8.50833 84.2044 8.49833 84.2044 8.49433C84.2044 8.49033 84.1934 8.48133 84.1794 8.47433C84.1583 8.46111 84.1376 8.4471 84.1174 8.43233C84.1036 8.42026 84.0881 8.41017 84.0714 8.40233C84.0664 8.40233 84.0534 8.39233 84.0414 8.38133C84.0285 8.36728 84.0119 8.35722 83.9934 8.35233C83.9723 8.34763 83.952 8.33953 83.9334 8.32833C83.8781 8.28781 83.8192 8.25234 83.7574 8.22233C83.6974 8.19233 83.6274 8.16033 83.6014 8.15033C83.5759 8.14084 83.5515 8.12878 83.5284 8.11433C83.5178 8.10595 83.5055 8.09983 83.4924 8.09633C83.4874 8.09633 83.4394 8.07633 83.3854 8.05233C83.3428 8.03281 83.2994 8.0148 83.2554 7.99833L83.1834 7.98033C83.1548 7.97325 83.1264 7.96491 83.0984 7.95533L82.9124 7.88933C82.8972 7.88412 82.8815 7.88076 82.8654 7.87933C82.8457 7.8766 82.8263 7.87191 82.8074 7.86533L82.7354 7.84233C82.7011 7.83484 82.6664 7.82916 82.6314 7.82533C82.5509 7.8169 82.4713 7.80151 82.3934 7.77933C82.3604 7.77197 82.327 7.7663 82.2934 7.76233C82.2197 7.75438 82.1464 7.74371 82.0734 7.73033C82.0179 7.72377 81.9622 7.71877 81.9064 7.71533C81.8314 7.71033 81.5764 7.70533 81.3364 7.70333C81.0984 7.70133 80.8934 7.70333 80.8814 7.70833M81.5714 9.54833C81.5744 9.55333 81.6404 9.55833 81.7184 9.56233C81.7964 9.56533 81.8774 9.57233 81.8974 9.57733L81.9874 9.60333C82.0174 9.61333 82.0614 9.62333 82.0874 9.62633C82.1127 9.62935 82.1371 9.63715 82.1594 9.64933C82.1775 9.65963 82.1971 9.66706 82.2174 9.67133C82.2344 9.67533 82.2814 9.69133 82.3214 9.70833C82.3614 9.72533 82.4034 9.73833 82.4174 9.73833C82.4314 9.73833 82.4504 9.74633 82.4624 9.75533C82.4744 9.76433 82.5254 9.79333 82.5764 9.81933C82.6274 9.84533 82.6694 9.87033 82.6694 9.87433C82.6694 9.87833 82.6994 9.89533 82.7354 9.91333C82.7801 9.93466 82.8174 9.96033 82.8474 9.99033C82.8626 10.0079 82.8797 10.0237 82.8984 10.0373C82.9024 10.0373 82.9234 10.0523 82.9454 10.0703C82.9674 10.0903 83.0094 10.1273 83.0374 10.1543C83.0617 10.1763 83.0832 10.2011 83.1014 10.2283C83.1084 10.2423 83.1214 10.2553 83.1304 10.2583C83.1456 10.2646 83.159 10.2746 83.1694 10.2873C83.1824 10.2993 83.1924 10.3173 83.1924 10.3233C83.1924 10.3313 83.2054 10.3493 83.2204 10.3633C83.2344 10.3773 83.2474 10.3933 83.2474 10.3973C83.2539 10.4122 83.2638 10.4252 83.2764 10.4353C83.3102 10.4714 83.337 10.5135 83.3554 10.5593C83.3981 10.6207 83.4349 10.686 83.4654 10.7543C83.4994 10.8243 83.5274 10.8893 83.5274 10.8993C83.5274 10.9093 83.5304 10.9223 83.5344 10.9263C83.5444 10.9464 83.5522 10.9675 83.5574 10.9893L83.5914 11.0893C83.6004 11.1133 83.6114 11.1523 83.6164 11.1743L83.6334 11.2463L83.6534 11.3053C83.6636 11.3425 83.6716 11.3802 83.6774 11.4183C83.6844 11.4653 83.6944 11.5283 83.7004 11.5583C83.7064 11.5883 83.7114 11.7243 83.7134 11.8603C83.7164 11.9496 83.7164 12.039 83.7134 12.1283C83.7013 12.1529 83.6843 12.1746 83.6634 12.1923C83.6347 12.2215 83.6017 12.2462 83.5654 12.2653L83.5094 12.2943L81.1184 12.2913L78.7274 12.2893L78.7294 12.2673L78.7404 12.1903L78.7624 12.0363C78.7733 11.9483 78.79 11.8611 78.8124 11.7753C78.8205 11.746 78.8252 11.7158 78.8264 11.6853C78.8294 11.6518 78.8341 11.6184 78.8404 11.5853L78.8564 11.5353L78.8814 11.4503C78.8894 11.4203 78.9044 11.3733 78.9144 11.3463L78.9864 11.1393C79.0164 11.0523 79.0434 10.9773 79.0474 10.9713C79.0658 10.9406 79.0825 10.9089 79.0974 10.8763C79.1214 10.8293 79.1474 10.7803 79.1564 10.7683C79.1688 10.7473 79.1791 10.7252 79.1874 10.7023C79.1955 10.6793 79.2077 10.658 79.2234 10.6393L79.2674 10.5863C79.2771 10.5734 79.2852 10.5592 79.2914 10.5443C79.2914 10.5403 79.2994 10.5293 79.3084 10.5203C79.3212 10.5077 79.3313 10.4928 79.3384 10.4763C79.3474 10.4576 79.3592 10.4404 79.3734 10.4253C79.3851 10.4165 79.3946 10.4052 79.4014 10.3923C79.4153 10.3698 79.4314 10.3487 79.4494 10.3293C79.4744 10.3013 79.5364 10.2363 79.5864 10.1843C79.6364 10.1323 79.6804 10.0913 79.6844 10.0913C79.7005 10.0827 79.7153 10.0719 79.7284 10.0593L79.7894 10.0063C79.8057 9.99228 79.8231 9.97958 79.8414 9.96833C79.8574 9.95933 79.8694 9.94833 79.8694 9.94433C79.8694 9.94033 79.8994 9.92233 79.9364 9.90533C79.9689 9.89079 80 9.87338 80.0294 9.85333C80.0675 9.82797 80.1073 9.80525 80.1484 9.78533C80.1966 9.75946 80.2476 9.73933 80.3004 9.72533L80.3824 9.68833C80.4029 9.67895 80.4244 9.6719 80.4464 9.66733C80.4564 9.66733 80.4794 9.66033 80.4984 9.65233C80.5506 9.6315 80.6045 9.61511 80.6594 9.60333L80.7324 9.58533C80.7524 9.57933 80.8354 9.56933 80.9184 9.56433C81.0014 9.55933 81.0724 9.55133 81.0764 9.54733C81.0794 9.54333 81.1914 9.54033 81.3244 9.54033C81.4574 9.54033 81.5684 9.54433 81.5714 9.54833ZM66.4314 9.58433C66.4694 9.58933 66.5204 9.59733 66.5454 9.60233C66.5704 9.60833 66.6184 9.61633 66.6534 9.62233C66.6884 9.62633 66.7334 9.63533 66.7534 9.64133C66.7688 9.64556 66.7835 9.6516 66.7974 9.65933C66.8024 9.66333 66.8174 9.66733 66.8294 9.66733C66.8414 9.66733 66.8934 9.68233 66.9424 9.69933C66.9839 9.71445 67.0263 9.72681 67.0694 9.73633C67.0894 9.73933 67.1154 9.74833 67.1284 9.75733C67.1414 9.76633 67.1784 9.78433 67.2114 9.79733C67.2415 9.80917 67.2701 9.82462 67.2964 9.84333C67.3125 9.85678 67.3299 9.86851 67.3484 9.87833L67.4214 9.91133C67.4549 9.92831 67.4867 9.9484 67.5164 9.97133L67.6164 10.0513C67.6244 10.0553 67.6464 10.0713 67.6664 10.0863C67.7696 10.1797 67.8678 10.2785 67.9604 10.3823C67.9764 10.3997 67.9908 10.4184 68.0034 10.4383C68.0034 10.4423 68.0284 10.4773 68.0574 10.5173C68.0874 10.5573 68.1124 10.5923 68.1124 10.5953C68.1124 10.5983 68.1224 10.6123 68.1344 10.6233C68.1474 10.6353 68.1574 10.6483 68.1574 10.6533C68.1574 10.6583 68.1644 10.6763 68.1724 10.6943C68.1804 10.7123 68.2024 10.7503 68.2194 10.7773C68.2638 10.8527 68.3033 10.9308 68.3374 11.0113C68.3374 11.018 68.3404 11.0267 68.3464 11.0373L68.3694 11.0883C68.3774 11.1083 68.3914 11.1383 68.4004 11.1563C68.4094 11.1743 68.4204 11.2023 68.4234 11.2193C68.4311 11.2478 68.4418 11.2753 68.4554 11.3013C68.4707 11.3349 68.484 11.3693 68.4954 11.4043L68.5184 11.4903L68.5324 11.5673C68.5354 11.5923 68.5414 11.6163 68.5444 11.6213C68.5771 11.7107 68.6019 11.8027 68.6184 11.8963L68.6414 12.0143L68.6814 12.2303C68.6844 12.2583 68.6884 12.3293 68.6894 12.3893C68.6894 12.4493 68.6934 12.5023 68.6984 12.5063C68.7034 12.5103 68.7084 12.5493 68.7114 12.5913L68.7264 12.7773C68.7324 12.8393 68.7364 13.0823 68.7364 13.3503C68.7364 13.6103 68.7324 13.8633 68.7264 13.9233L68.7114 14.1083C68.7112 14.1371 68.7068 14.1658 68.6984 14.1933C68.6909 14.2275 68.6879 14.2624 68.6894 14.2973C68.6882 14.3839 68.6795 14.4702 68.6634 14.5553L68.6414 14.6773C68.6356 14.7154 68.6276 14.7532 68.6174 14.7903C68.6102 14.8187 68.6042 14.8474 68.5994 14.8763C68.594 14.9049 68.5873 14.9333 68.5794 14.9613C68.5756 14.977 68.5699 14.9921 68.5624 15.0063C68.5574 15.0113 68.5544 15.0263 68.5544 15.0393C68.5544 15.0523 68.5504 15.0663 68.5464 15.0693C68.5424 15.0723 68.5364 15.0953 68.5324 15.1213C68.5273 15.1702 68.5163 15.2182 68.4994 15.2643C68.4722 15.3532 68.4388 15.4401 68.3994 15.5243C68.3884 15.5459 68.38 15.5687 68.3744 15.5923C68.3677 15.615 68.3583 15.6368 68.3464 15.6573C68.3348 15.6785 68.3257 15.701 68.3194 15.7243C68.3135 15.7462 68.3051 15.7673 68.2944 15.7873C68.2803 15.8147 68.265 15.8414 68.2484 15.8673C68.2272 15.8995 68.2078 15.9329 68.1904 15.9673C68.1704 16.0043 68.1474 16.0473 68.1374 16.0593C68.1303 16.0686 68.1249 16.0791 68.1214 16.0903C68.113 16.1071 68.1022 16.1226 68.0894 16.1363C68.0766 16.1504 68.0658 16.1662 68.0574 16.1833C68.0568 16.19 68.0508 16.1967 68.0394 16.2033C68.0232 16.2186 68.0097 16.2366 67.9994 16.2563C67.9716 16.2998 67.9391 16.34 67.9024 16.3763C67.8604 16.4183 67.8154 16.4663 67.8024 16.4833C67.7849 16.5054 67.7644 16.525 67.7414 16.5413C67.7099 16.5655 67.6799 16.5916 67.6514 16.6193C67.6154 16.6534 67.5759 16.6836 67.5334 16.7093C67.4916 16.7327 67.4515 16.7592 67.4134 16.7883C67.3872 16.8056 67.3602 16.8216 67.3324 16.8363C67.3175 16.8429 67.3034 16.8513 67.2904 16.8613L67.2634 16.8823C67.2494 16.8915 67.2332 16.897 67.2164 16.8983C67.1937 16.9019 67.1717 16.9093 67.1514 16.9203C67.135 16.9305 67.1171 16.9383 67.0984 16.9433C67.0761 16.9498 67.0547 16.9589 67.0344 16.9703C67.0071 16.9843 66.9782 16.995 66.9484 17.0023C66.934 17.0051 66.9199 17.0095 66.9064 17.0153C66.8921 17.0224 66.877 17.0278 66.8614 17.0313L66.7844 17.0513C66.7501 17.0595 66.7154 17.0658 66.6804 17.0703L66.5674 17.0873C66.5243 17.0947 66.481 17.1008 66.4374 17.1053C66.3319 17.1113 66.2262 17.114 66.1204 17.1133C65.9914 17.1133 65.8514 17.1093 65.8094 17.1053L65.6914 17.0923C65.6717 17.0896 65.6523 17.0849 65.6334 17.0783C65.6084 17.071 65.5825 17.067 65.5564 17.0663C65.5202 17.0636 65.4842 17.059 65.4484 17.0523C65.4194 17.0446 65.3907 17.0356 65.3624 17.0253C65.3405 17.0156 65.3177 17.0079 65.2944 17.0023C65.2545 16.9895 65.2154 16.9741 65.1774 16.9563C65.1347 16.9371 65.0914 16.9195 65.0474 16.9033C65.0151 16.8913 64.9834 16.8776 64.9524 16.8623C64.9128 16.8406 64.8747 16.8162 64.8384 16.7893C64.8082 16.7656 64.7753 16.7455 64.7404 16.7293C64.72 16.7211 64.7011 16.7097 64.6844 16.6953C64.5509 16.5842 64.4255 16.4636 64.3094 16.3343C64.3094 16.3303 64.2904 16.3043 64.2674 16.2763L64.1944 16.1943C64.1797 16.1777 64.1679 16.1588 64.1594 16.1383C64.1459 16.1072 64.1284 16.078 64.1074 16.0513C64.0589 15.9874 64.0183 15.9179 63.9864 15.8443C63.9691 15.8102 63.9538 15.7752 63.9404 15.7393C63.9369 15.7223 63.929 15.7064 63.9174 15.6933C63.9084 15.6816 63.9007 15.6688 63.8944 15.6553L63.8674 15.5903L63.8264 15.5053C63.8178 15.4901 63.8133 15.4728 63.8134 15.4553C63.8107 15.4325 63.8053 15.41 63.7974 15.3883C63.7913 15.3713 63.7836 15.3549 63.7744 15.3393C63.7714 15.3363 63.7684 15.3263 63.7684 15.3183C63.7649 15.2978 63.7592 15.2777 63.7514 15.2583L63.7144 15.1553C63.7029 15.1215 63.6933 15.0872 63.6854 15.0523C63.6783 15.0203 63.6697 14.9885 63.6594 14.9573C63.6472 14.9097 63.6385 14.8612 63.6334 14.8123C63.6287 14.7392 63.616 14.6667 63.5954 14.5963C63.5865 14.5499 63.5791 14.5032 63.5734 14.4563L63.5504 14.3023C63.5412 14.2305 63.5338 14.1585 63.5284 14.0863C63.5204 13.9963 63.5104 13.8563 63.5054 13.7743C63.4963 13.4901 63.4953 13.2056 63.5024 12.9213C63.5033 12.8731 63.5076 12.825 63.5154 12.7773C63.5229 12.7493 63.5263 12.7203 63.5254 12.6913C63.5269 12.5928 63.5355 12.4946 63.5514 12.3973L63.5694 12.2573C63.5726 12.2258 63.5773 12.1944 63.5834 12.1633C63.5874 12.1533 63.5934 12.1233 63.5984 12.0953L63.6114 12.0113C63.6144 11.9933 63.6204 11.9753 63.6244 11.9733C63.6294 11.9703 63.6334 11.9403 63.6334 11.9073C63.6334 11.8743 63.6374 11.8313 63.6434 11.8113L63.6594 11.7383L63.6824 11.6533L63.7264 11.5033C63.7525 11.416 63.7815 11.3296 63.8134 11.2443C63.8134 11.2333 63.8194 11.2073 63.8264 11.1873C63.8376 11.1598 63.8499 11.1328 63.8634 11.1063C63.8771 11.0779 63.8895 11.0489 63.9004 11.0193C63.9033 11.0016 63.9109 10.9851 63.9224 10.9713C63.9367 10.9528 63.9488 10.9327 63.9584 10.9113C63.97 10.8908 63.979 10.869 63.9854 10.8463C63.9854 10.8393 63.9914 10.8213 63.9994 10.8063C64.0074 10.7903 64.0164 10.7763 64.0204 10.7763C64.0244 10.7763 64.0354 10.7623 64.0434 10.7433C64.0686 10.695 64.0977 10.6489 64.1304 10.6053C64.1407 10.5915 64.1491 10.5763 64.1554 10.5603C64.1666 10.5367 64.1799 10.5143 64.1954 10.4933C64.2127 10.4733 64.2307 10.4539 64.2494 10.4353C64.2722 10.4138 64.2923 10.3896 64.3094 10.3633C64.3234 10.3403 64.3844 10.2713 64.4464 10.2093C64.5074 10.1483 64.5704 10.0923 64.5854 10.0863C64.617 10.0663 64.6461 10.0428 64.6724 10.0163C64.7052 9.985 64.7415 9.95749 64.7804 9.93433L64.8704 9.88633C64.9285 9.85349 64.9871 9.82182 65.0464 9.79133C65.1013 9.76414 65.1585 9.74205 65.2174 9.72533C65.2474 9.71733 65.2924 9.70233 65.3174 9.69333C65.3454 9.68341 65.3737 9.67473 65.4024 9.66733C65.4254 9.66233 65.4594 9.65433 65.4794 9.64833L65.5834 9.62533L65.6964 9.60233C65.7214 9.59733 65.7764 9.59033 65.8194 9.58733C65.8486 9.5872 65.8776 9.58282 65.9054 9.57433C65.9094 9.57033 66.0134 9.56833 66.1384 9.57133C66.2624 9.57333 66.3944 9.57933 66.4314 9.58433ZM57.3004 13.9663C57.2984 14.3523 57.2924 14.6573 57.2874 14.7003L57.2684 14.8173L57.2454 14.9343L57.2054 15.1213C57.2015 15.1416 57.1954 15.1613 57.1874 15.1803L57.1694 15.2283C57.1636 15.2458 57.1603 15.264 57.1594 15.2823C57.157 15.3038 57.1524 15.3249 57.1454 15.3453C57.1365 15.3714 57.1265 15.3971 57.1154 15.4223L57.0794 15.4983L57.0344 15.5983L56.9664 15.7423C56.9496 15.7804 56.9288 15.8166 56.9044 15.8503C56.8868 15.8726 56.8701 15.8956 56.8544 15.9193C56.8411 15.9375 56.831 15.9578 56.8244 15.9793C56.8244 15.9873 56.8114 16.0073 56.7954 16.0233C56.7758 16.0448 56.7571 16.0672 56.7394 16.0903L56.6994 16.1433L56.6294 16.2203C56.608 16.2408 56.5889 16.2636 56.5724 16.2883C56.5557 16.3125 56.5355 16.334 56.5124 16.3523L56.3924 16.4623C56.372 16.4844 56.3484 16.5033 56.3224 16.5183C56.3164 16.5183 56.3074 16.5243 56.3034 16.5313C56.2944 16.5434 56.2828 16.5533 56.2694 16.5603C56.2537 16.5706 56.2386 16.5819 56.2244 16.5943L56.1844 16.6253L56.1164 16.6773C56.0895 16.6987 56.0599 16.7165 56.0284 16.7303C56.0068 16.7375 55.9865 16.7483 55.9684 16.7623C55.9517 16.7759 55.9336 16.7876 55.9144 16.7973C55.8993 16.8049 55.8852 16.8143 55.8724 16.8253C55.8573 16.8374 55.8404 16.8471 55.8224 16.8543C55.8026 16.8617 55.784 16.8721 55.7674 16.8853C55.7614 16.8923 55.7474 16.8983 55.7344 16.8983C55.6915 16.9097 55.6499 16.9258 55.6104 16.9463C55.5678 16.9678 55.5237 16.9862 55.4784 17.0013C55.4597 17.0064 55.4419 17.0141 55.4254 17.0243C55.4055 17.0357 55.3844 17.0448 55.3624 17.0513L55.2804 17.0693L55.2044 17.0873C55.0189 17.1368 54.8301 17.1729 54.6394 17.1953C54.5359 17.2012 54.4322 17.2039 54.3284 17.2033C54.1984 17.2033 54.0644 17.2003 54.0304 17.1953L53.9124 17.1793C53.8835 17.1746 53.8548 17.1686 53.8264 17.1613C53.8087 17.1554 53.7901 17.1521 53.7714 17.1513C53.7481 17.148 53.7253 17.142 53.7034 17.1333C53.6415 17.1103 53.5788 17.0893 53.5154 17.0703C53.4217 17.0386 53.3339 16.9916 53.2554 16.9313C53.2358 16.9179 53.2147 16.9068 53.1924 16.8983C53.0501 16.7818 52.926 16.6446 52.8244 16.4913C52.8161 16.4749 52.81 16.4574 52.8064 16.4393C52.8064 16.4303 52.7964 16.4093 52.7834 16.3923C52.7726 16.3797 52.765 16.3646 52.7614 16.3483C52.7577 16.3309 52.7516 16.3141 52.7434 16.2983C52.7161 16.2373 52.695 16.1736 52.6804 16.1083L52.6674 16.0583C52.6526 15.9613 52.6443 15.8634 52.6424 15.7653C52.6424 15.7203 52.6464 15.6273 52.6524 15.5593C52.6562 15.4983 52.6656 15.4377 52.6804 15.3783C52.6804 15.3663 52.6874 15.3383 52.6964 15.3163C52.7053 15.2933 52.7133 15.2699 52.7204 15.2463C52.7284 15.2203 52.7374 15.1946 52.7474 15.1693L52.7874 15.0813C52.7974 15.0573 52.8064 15.0313 52.8064 15.0243C52.8064 15.0173 52.8204 14.9913 52.8384 14.9673C52.8504 14.9517 52.8608 14.935 52.8694 14.9173C52.8694 14.9143 52.8854 14.8903 52.9054 14.8643L52.9854 14.7613C53.0113 14.7272 53.0394 14.6948 53.0694 14.6643C53.0841 14.648 53.1013 14.6341 53.1204 14.6233C53.1254 14.6233 53.1374 14.6133 53.1464 14.6023C53.1737 14.5767 53.2024 14.5527 53.2324 14.5303C53.2584 14.5115 53.2834 14.4915 53.3074 14.4703C53.3093 14.467 53.3121 14.4643 53.3155 14.4626C53.3188 14.4608 53.3226 14.46 53.3264 14.4603C53.349 14.4519 53.3705 14.4409 53.3904 14.4273L53.5014 14.3573C53.5334 14.3363 53.5744 14.3123 53.5914 14.3043C53.6051 14.2977 53.6196 14.2927 53.6344 14.2893C53.6698 14.2779 53.7045 14.2646 53.7384 14.2493C53.771 14.2335 53.8044 14.2195 53.8384 14.2073C53.8451 14.2073 53.8531 14.2033 53.8624 14.1953C53.8795 14.1846 53.898 14.1765 53.9174 14.1713C53.9394 14.1643 53.9874 14.1453 54.0234 14.1293C54.0674 14.1093 54.1031 14.0993 54.1304 14.0993C54.1524 14.0993 54.1804 14.0943 54.1904 14.0893C54.2068 14.0815 54.2239 14.0751 54.2414 14.0703C54.2594 14.0653 54.2944 14.0583 54.3194 14.0533C54.3381 14.0506 54.3563 14.0452 54.3734 14.0373C54.3877 14.0299 54.4028 14.0242 54.4184 14.0203L54.4774 14.0053C54.5347 13.9926 54.5918 13.9786 54.6484 13.9633L54.7204 13.9473C54.7552 13.9421 54.7903 13.9388 54.8254 13.9373C54.8497 13.9391 54.8741 13.9364 54.8974 13.9293C54.9111 13.9211 54.9265 13.9163 54.9424 13.9153C55.0485 13.8996 55.154 13.8796 55.2584 13.8553C55.294 13.8457 55.33 13.838 55.3664 13.8323C55.4064 13.8263 55.4564 13.8163 55.4794 13.8103L55.5964 13.7863C55.6394 13.7793 55.7014 13.7713 55.7364 13.7693C55.7641 13.7679 55.7916 13.7635 55.8184 13.7563C55.836 13.7503 55.8541 13.746 55.8724 13.7433C55.8924 13.7413 55.9444 13.7333 55.9894 13.7253C56.0344 13.7173 56.0874 13.7083 56.1074 13.7023C56.1274 13.6963 56.1754 13.6863 56.2154 13.6793C56.275 13.6701 56.3338 13.6567 56.3914 13.6393L56.5674 13.5933C56.6005 13.586 56.6338 13.5803 56.6674 13.5763C56.7072 13.5707 56.7462 13.5603 56.7834 13.5453C56.8041 13.5348 56.8259 13.5268 56.8484 13.5213C56.8554 13.5213 56.8684 13.5183 56.8774 13.5133C56.8854 13.5083 56.9154 13.4963 56.9434 13.4853C56.9719 13.4748 56.9991 13.461 57.0244 13.4443C57.0379 13.433 57.0541 13.4254 57.0714 13.4223C57.0804 13.4223 57.1044 13.4143 57.1254 13.4053C57.1456 13.3964 57.1642 13.3843 57.1804 13.3693C57.1904 13.3593 57.2014 13.3493 57.2064 13.3493C57.2114 13.3493 57.2294 13.3393 57.2474 13.3273C57.2603 13.3163 57.2758 13.3087 57.2924 13.3053C57.3024 13.3053 57.3024 13.4333 57.3004 13.9663ZM12.5314 0.582328L12.1694 0.618328C12.0154 0.633328 11.7794 0.662328 11.6454 0.681328C11.5114 0.700328 11.2794 0.741328 11.1304 0.771328C10.7768 0.846688 10.4265 0.936766 10.0804 1.04133C9.98244 1.07133 9.85244 1.11433 9.79344 1.13533C9.43941 1.26271 9.09138 1.40619 8.75044 1.56533C8.56144 1.65333 8.29044 1.79233 8.14644 1.87233C8.00244 1.95233 7.77744 2.08633 7.64644 2.16833C7.51544 2.25033 7.30444 2.39033 7.17744 2.48033C6.89248 2.6835 6.61655 2.89904 6.35044 3.12633C5.97366 3.46411 5.61704 3.82373 5.28244 4.20333C5.02551 4.50746 4.78388 4.82418 4.55844 5.15233C4.48444 5.26233 4.36244 5.45233 4.28744 5.57733C4.21244 5.70133 4.08744 5.91933 4.01144 6.06133C3.91871 6.23678 3.83035 6.4145 3.74644 6.59433C3.67644 6.74433 3.56844 6.99833 3.50644 7.15733C3.44244 7.31733 3.34944 7.57333 3.29944 7.72733C3.24944 7.88133 3.17944 8.10933 3.14644 8.23333C3.11244 8.35733 3.07144 8.51633 3.05544 8.58533C3.03944 8.65533 3.00544 8.80533 2.98244 8.92033C2.92303 9.20694 2.87765 9.49629 2.84644 9.78733C2.82644 9.95133 2.80144 10.2193 2.79144 10.3833C2.78144 10.5473 2.77344 10.8233 2.77344 10.9983C2.77344 11.1723 2.78144 11.4523 2.79144 11.6213C2.80144 11.7913 2.82644 12.0673 2.84544 12.2363C2.86544 12.4053 2.90244 12.6693 2.92844 12.8233C3.07898 13.6369 3.32085 14.431 3.64944 15.1903C3.72244 15.3543 3.84944 15.6183 3.93344 15.7783C4.01744 15.9383 4.12444 16.1363 4.17244 16.2203C4.29905 16.4377 4.43381 16.6502 4.57644 16.8573C4.59359 16.876 4.61718 16.8874 4.64244 16.8893C4.66444 16.8893 4.78244 16.8293 4.90644 16.7563L5.24844 16.5563C5.31344 16.5203 5.39844 16.4663 5.43844 16.4383C5.47844 16.4103 5.57544 16.3513 5.65544 16.3063C5.73544 16.2623 5.84544 16.1983 5.90244 16.1643L6.29144 15.9383L7.63344 15.1633C7.76844 15.0863 7.95344 14.9783 8.04744 14.9233C8.14144 14.8683 8.29944 14.7773 8.40044 14.7213C8.76742 14.5138 9.13244 14.3028 9.49544 14.0883C9.77615 13.9282 10.0562 13.7669 10.3354 13.6043L10.6604 13.4193C10.7489 13.3696 10.8362 13.3179 10.9224 13.2643C11.0057 13.2132 11.0901 13.1639 11.1754 13.1163C11.2804 13.0573 11.4754 12.9463 11.6094 12.8683L12.0414 12.6213C12.1444 12.5623 12.2754 12.4873 12.3314 12.4533C12.5494 12.3225 12.7694 12.1952 12.9914 12.0713C13.1114 12.0053 13.2294 11.9363 13.2534 11.9193C13.6498 11.6796 14.0537 11.4525 14.4644 11.2383C14.6084 11.1683 14.7794 11.0883 14.8444 11.0633C15.047 10.9834 15.2553 10.9185 15.4674 10.8693C15.5574 10.8493 15.7194 10.8213 15.8274 10.8073C16.1084 10.773 16.3926 10.7737 16.6734 10.8093C16.7754 10.8243 16.9074 10.8493 16.9674 10.8643C17.0274 10.8793 17.1324 10.9123 17.2024 10.9383C17.2724 10.9643 17.4144 11.0283 17.5184 11.0803C17.6224 11.1323 17.7784 11.2263 17.8624 11.2883C17.9464 11.3503 18.0974 11.4833 18.1964 11.5833C18.2954 11.6833 18.4174 11.8273 18.4664 11.9013C18.5144 11.9763 18.5684 12.0533 18.5864 12.0733C18.7048 12.2852 18.8068 12.5059 18.8914 12.7333C18.9114 12.7973 18.9454 12.9193 18.9644 13.0033C18.9834 13.0873 19.0124 13.2433 19.0294 13.3473C19.0514 13.4793 19.0604 13.6413 19.0614 13.8803C19.0648 14.1623 19.0383 14.4439 18.9824 14.7203L18.9444 14.8923C18.9324 14.9523 18.8944 15.0803 18.8614 15.1773C18.815 15.3085 18.7646 15.4382 18.7104 15.5663C18.6604 15.6823 18.5654 15.8763 18.4994 15.9943C18.4334 16.1143 18.3184 16.3013 18.2434 16.4103C18.1694 16.5203 18.0334 16.7023 17.9404 16.8173C17.8362 16.9451 17.7275 17.0692 17.6144 17.1893C17.5264 17.2793 17.3904 17.4133 17.3114 17.4853C17.132 17.6456 16.9444 17.7964 16.7494 17.9373L16.6334 18.0233C16.355 18.1983 16.068 18.3592 15.7734 18.5053C15.3733 18.6947 14.9561 18.8457 14.5274 18.9563C14.3884 18.9913 14.2214 19.0323 14.1574 19.0463C13.9029 19.0978 13.6468 19.1408 13.3894 19.1753C13.2794 19.1893 13.0714 19.2093 12.9254 19.2193C12.4961 19.2445 12.0657 19.2445 11.6364 19.2193C11.4874 19.2093 11.2514 19.1893 11.1124 19.1743C10.9724 19.1593 10.7254 19.1223 10.5614 19.0943C10.4312 19.0711 10.3012 19.0464 10.1714 19.0203C9.99802 18.9825 9.82501 18.9428 9.65244 18.9013C9.58323 18.8821 9.51216 18.8703 9.44044 18.8663C9.42844 18.8743 9.42144 19.1863 9.42144 19.7803C9.42144 20.6803 9.42144 20.6823 9.46144 20.7183C9.48144 20.7383 9.62244 20.7943 9.77244 20.8433C9.92244 20.8933 10.1384 20.9633 10.2524 20.9973C10.5764 21.0948 10.9056 21.1739 11.2384 21.2343C11.3774 21.2603 11.5604 21.2933 11.6444 21.3073C12.2392 21.398 12.841 21.4348 13.4424 21.4173C13.6814 21.4113 13.9694 21.3973 14.0844 21.3873C14.1994 21.3773 14.3974 21.3573 14.5264 21.3413C14.6564 21.3253 14.9284 21.2803 15.1324 21.2413C15.3364 21.2023 15.6044 21.1443 15.7284 21.1153C15.8524 21.0853 16.0154 21.0423 16.0894 21.0183L16.4874 20.8913C17.2297 20.6452 17.9419 20.3161 18.6104 19.9103C18.7504 19.8263 18.8924 19.7373 18.9274 19.7143L19.1074 19.5923C19.4497 19.3555 19.7782 19.0994 20.0914 18.8253C20.1894 18.7393 20.4214 18.5173 20.6064 18.3343C20.7924 18.1503 21.0244 17.9023 21.1234 17.7823C21.2234 17.6633 21.3734 17.4763 21.4584 17.3673C21.5444 17.2573 21.6584 17.1053 21.7114 17.0283C21.9477 16.689 22.166 16.3375 22.3654 15.9753C22.5327 15.6642 22.6849 15.3451 22.8214 15.0193C22.9876 14.6115 23.1311 14.1949 23.2514 13.7713C23.2864 13.6413 23.3394 13.4313 23.3694 13.3013C23.3994 13.1713 23.4374 13.0013 23.4524 12.9213C23.6918 11.5908 23.6793 10.2272 23.4154 8.90133C23.3773 8.72079 23.3353 8.54108 23.2894 8.36233C23.2332 8.15 23.1712 7.93925 23.1034 7.73033C23.0365 7.53162 22.9649 7.33457 22.8884 7.13933C22.7536 6.80412 22.6031 6.47542 22.4374 6.15433C22.2707 5.84688 22.0933 5.54537 21.9054 5.25033C21.8624 5.18633 21.8154 5.13033 21.7994 5.12833C21.7834 5.12633 21.6124 5.21333 21.4194 5.32433C21.288 5.39814 21.1589 5.47618 21.0324 5.55833C21.0124 5.57533 20.8014 5.70233 20.5624 5.83833C19.9624 6.18314 19.3631 6.52914 18.7644 6.87633C17.2791 7.73215 15.7944 8.58915 14.3104 9.44733L13.5504 9.88533L12.7404 10.3543C12.4524 10.5193 12.0934 10.7163 11.9404 10.7913C11.7923 10.8642 11.6411 10.9309 11.4874 10.9913C11.3693 11.0337 11.25 11.0724 11.1294 11.1073C11.0294 11.1353 10.8514 11.1773 10.7324 11.1993C10.5564 11.2323 10.4494 11.2393 10.1724 11.2393C10.0019 11.2438 9.83128 11.2338 9.66244 11.2093C9.55611 11.189 9.45095 11.163 9.34744 11.1313C9.10343 11.0523 8.87054 10.9425 8.65444 10.8043C8.55632 10.7376 8.46123 10.6665 8.36944 10.5913C8.01608 10.2781 7.74455 9.88334 7.57844 9.44133C7.53025 9.31123 7.48886 9.17872 7.45444 9.04433C7.42456 8.92184 7.39854 8.79845 7.37644 8.67433C7.35864 8.48822 7.3513 8.30126 7.35444 8.11433C7.35444 7.88033 7.36444 7.65233 7.37544 7.59033L7.41544 7.38333C7.42544 7.32833 7.44544 7.22633 7.46044 7.15733C7.52325 6.8971 7.61203 6.64383 7.72544 6.40133C7.78344 6.27333 7.87344 6.09433 7.92544 6.00333C8.05317 5.78425 8.1927 5.57227 8.34344 5.36833C8.42072 5.26711 8.50041 5.16775 8.58244 5.07033C8.81396 4.80651 9.06501 4.56049 9.33344 4.33433C9.43844 4.24733 9.59544 4.12633 9.68244 4.06733C10.1374 3.75829 10.6258 3.50166 11.1384 3.30233C11.4292 3.19417 11.7261 3.10301 12.0274 3.02933C12.3306 2.95806 12.6369 2.901 12.9454 2.85833C13.0594 2.84333 13.2674 2.82233 13.4064 2.81233C13.5464 2.80233 13.7674 2.78933 13.9004 2.78433C14.0324 2.77833 14.3294 2.78333 14.5604 2.79433C14.7904 2.80433 15.1124 2.82833 15.2764 2.84733C15.4404 2.86733 15.7214 2.90733 15.9004 2.93733C16.1935 2.98686 16.4844 3.04824 16.7724 3.12133C16.8544 3.14133 16.9334 3.15333 16.9484 3.14733C16.9724 3.13833 16.9754 3.01733 16.9754 2.21733C16.9754 1.35233 16.9734 1.29733 16.9424 1.26933C16.7998 1.20617 16.6535 1.15141 16.5044 1.10533C16.2814 1.03233 15.9524 0.935328 15.7744 0.889328C15.4742 0.814541 15.1713 0.7505 14.8664 0.697328C14.8044 0.686328 14.5764 0.657328 14.3604 0.631328C14.0164 0.590328 13.8814 0.585328 13.2894 0.580328C13.0368 0.576831 12.7841 0.577498 12.5314 0.582328Z" fill="#FFFDF6"/>
</svg>
