<svg width="31" height="31" viewBox="0 0 31 31" fill="none" xmlns="http://www.w3.org/2000/svg">
	<path d="M3.62992 0.140055L3.73567 0.0625C5.94184 2.64797 12.2269 9.67047 15.8414 9.67047C18.6334 9.67047 20.2411 5.5583 20.4599 4.96417L20.5873 5.00739C20.5873 5.00739 18.582 10.4607 20.4667 11.8974C22.32 13.3102 30.1192 10.9251 30.7868 10.7197L30.8248 10.8432C30.8248 10.8432 21.8624 13.4937 21.2929 16.0199C20.8858 17.8255 23.2199 20.375 23.843 21.0291L23.7492 21.1169C23.7492 21.1169 21.0368 18.1599 19.0182 18.9865C16.0163 20.2163 14.3 28.816 14.0922 30.0269L13.9598 30.0027C13.9598 30.0027 15.843 20.3119 11.1261 18.1385C8.47627 16.9168 1.93598 18.4757 0.898386 18.7281L0.860352 18.6015C0.860352 18.6015 10.0081 16.3718 10.0081 11.4701C10.0081 7.50276 3.62992 0.140055 3.62992 0.140055Z" fill="white"/>
</svg>
