<svg width="1820" height="528" viewBox="0 0 1820 528" fill="none" xmlns="http://www.w3.org/2000/svg">
	<path fill-rule="evenodd" clip-rule="evenodd" d="M-50 519.07V427.835L304.624 2.04688L305.84 0.583008H307.708H353.04H426.044L447.892 0.576172H451.958V4.73145V514.889V519.044H447.892H353.04H348.979V514.889V395.374H106.003L4.2197 517.606L2.9976 519.07H1.1294H-50ZM1870 461.869V519.077H1783.58H1781.6L1780.39 517.501L1681.12 389.452L1579.14 517.554L1577.92 519.077H1576H1453.66H1444.73L1450.6 512.211L1611.88 323.062L1462.24 145.186L1456.47 138.32H1465.33H1587.67H1589.65L1590.86 139.896L1681.2 256.7L1773.53 139.87L1774.76 138.32H1776.7H1870V183.042L1751.17 323.062L1870 461.869ZM777.547 128.486C823.033 128.486 859.7 137.793 886.507 156.147C919.489 178.763 936.222 214.339 936.248 261.931V514.915V519.07H932.188H837.335H833.275V514.915V292.849C833.275 257.821 824.229 211.259 745.917 211.259C705.299 211.259 636.574 233.043 636.574 314.634V514.909V519.063H632.514H537.662H533.595V514.909V142.462V138.307H537.662H632.514H636.574V142.462V188.893C670.558 149.335 719.109 128.486 777.547 128.486ZM1177.03 444.74L1243.05 443.402L1244.94 443.316L1249.14 443.178V447.472V517.731V521.359L1245.62 521.86C1221.63 525.184 1202.32 527.532 1172.21 527.532C1052.69 527.532 1043.75 481.385 1043.75 410.953V216.931H972.21H968.15V212.775V142.509V138.353H972.21H1043.75V83.4795V81.0986L1045.78 79.9053L1140.64 23.6797L1146.73 20.0527V27.248V138.34H1241.66H1245.73V142.495V212.762V216.917H1241.66H1146.73V382.837C1146.73 426.828 1149.46 444.74 1177.03 444.74ZM1304.11 138.32H1308.17H1403.02H1407.09V142.475V514.922V519.077H1403.02H1308.17H1304.11V514.922V142.475V138.32ZM1304.11 0.583008H1308.17H1403.02H1407.09V4.73828V83.4473V87.6016H1403.02H1308.17H1304.11V83.4473V4.73828V0.583008ZM348.979 103.682L179.06 307.695H348.979V103.682Z" fill="#F0F0F0"/>
</svg>
