<svg width="24" height="24" viewBox="0 0 24 24" fill="none" xmlns="http://www.w3.org/2000/svg">
	<rect width="24" height="24" rx="12" fill="#F1F1F1"/>
	<path d="M5.52584 5.00029L3.0625 8.69531L5.5259 10.3376L7.98924 6.64255L5.52584 5.00029Z" fill="black"/>
	<path d="M6.34268 5.09925L3.46875 9.41016L3.77662 9.6154L6.65055 5.3045L6.34268 5.09925Z" fill="white"/>
	<path d="M7.27237 5.71253L4.39844 10.0234L4.70631 10.2287L7.58024 5.91778L7.27237 5.71253Z" fill="white"/>
	<path d="M19.0805 14.0276L16.6172 17.7227L19.0806 19.3649L21.5439 15.6699L19.0805 14.0276Z" fill="black"/>
	<path d="M19.8974 14.1344L17.0234 18.4453L17.3313 18.6506L20.2052 14.3397L19.8974 14.1344Z" fill="white"/>
	<path d="M20.8192 14.7516L17.9453 19.0625L18.2532 19.2677L21.1271 14.9568L20.8192 14.7516Z" fill="white"/>
	<path d="M17.6427 15.5163L17.4375 15.8242L20.5166 17.877L20.7219 17.5691L17.6427 15.5163Z" fill="white"/>
	<path d="M15.4361 15.3238C17.1704 13.5895 17.1704 10.7777 15.4361 9.04343C13.7018 7.30917 10.89 7.30917 9.15579 9.04343C7.42152 10.7777 7.42152 13.5895 9.15579 15.3238C10.89 17.058 13.7018 17.058 15.4361 15.3238Z" fill="#C60C30"/>
	<path d="M8.60591 9.71875C8.44143 9.9613 8.32659 10.234 8.26801 10.5212C8.20944 10.8083 8.20828 11.1042 8.26461 11.3918C8.32094 11.6794 8.43365 11.953 8.59623 12.1968C8.75881 12.4406 8.96805 12.6499 9.21188 12.8124C9.45571 12.975 9.72931 13.0877 10.0169 13.144C10.3045 13.2003 10.6004 13.1992 10.8875 13.1406C11.1747 13.082 11.4474 12.9671 11.6899 12.8027C11.9325 12.6382 12.1401 12.4273 12.3007 12.1822C12.4614 11.9371 12.6689 11.7262 12.9115 11.5617C13.154 11.3972 13.4267 11.2824 13.7139 11.2238C14.001 11.1652 14.2969 11.164 14.5845 11.2203C14.8721 11.2767 15.1457 11.3894 15.3895 11.5519C15.6334 11.7145 15.8426 11.9237 16.0052 12.1676C16.1678 12.4114 16.2805 12.685 16.3368 12.9726C16.3931 13.2602 16.392 13.5561 16.3334 13.8432C16.2748 14.1304 16.16 14.4031 15.9955 14.6456C14.6352 16.6863 11.8781 17.2377 9.83727 15.877C7.79643 14.5163 7.24523 11.7596 8.60591 9.71875Z" fill="#003478"/>
	<path d="M5.45732 14.0435L3 15.6719L5.44247 19.3578L7.8998 17.7294L5.45732 14.0435Z" fill="black"/>
	<path d="M3.77662 14.7518L3.46875 14.957L6.34268 19.2679L6.65055 19.0627L3.77662 14.7518Z" fill="white"/>
	<path d="M4.63523 14.1441L4.32812 14.3477L7.17771 18.6479L7.48482 18.4444L4.63523 14.1441Z" fill="white"/>
	<path d="M19.0806 5.00227L16.6172 6.64453L19.0805 10.3396L21.5439 8.69729L19.0806 5.00227Z" fill="black"/>
	<path d="M17.3313 5.71663L17.0234 5.92188L19.8974 10.2328L20.2052 10.0275L17.3313 5.71663Z" fill="white"/>
	<path d="M18.2532 5.09944L17.9453 5.30469L20.8192 9.61559L21.1271 9.41035L18.2532 5.09944Z" fill="white"/>
	<path d="M20.5088 6.48631L17.4297 8.53906L17.6349 8.84693L20.7141 6.79418L20.5088 6.48631Z" fill="white"/>
	<path d="M19.1862 7.15582L18.5703 7.56641L18.9809 8.18229L19.5968 7.7717L19.1862 7.15582Z" fill="black"/>
	<path d="M6.03631 16.136L4.80469 16.957L5.00993 17.2649L6.24156 16.4438L6.03631 16.136Z" fill="white"/>
</svg>
