<svg width="121" height="44" viewBox="0 0 121 44" fill="none" xmlns="http://www.w3.org/2000/svg">
	<g clip-path="url(#clip0_5133_1852)">
		<path d="M3.99479 0.113883L4.14733 0C7.32947 3.79652 16.395 14.1084 21.6085 14.1084C25.6356 14.1084 27.9546 8.07008 28.2702 7.19766L28.454 7.26112C28.454 7.26112 25.5615 15.2688 28.2799 17.3785C30.9532 19.453 42.2026 15.9508 43.1655 15.649L43.2203 15.8305C43.2203 15.8305 30.2931 19.7225 29.4717 23.432C28.8844 26.0833 32.2511 29.8271 33.1499 30.7875L33.0145 30.9165C33.0145 30.9165 29.1023 26.5744 26.1906 27.7882C21.8608 29.5939 19.3851 42.2219 19.0854 44L18.8945 43.9644C18.8945 43.9644 21.6108 29.7344 14.8071 26.5429C10.9851 24.7489 1.55147 27.0381 0.0548602 27.4087L0 27.2229C0 27.2229 13.1946 23.9487 13.1946 16.751C13.1946 10.9253 3.99479 0.113883 3.99479 0.113883ZM80.0633 19.1712C79.0004 18.459 77.5466 18.0979 75.7432 18.0979C73.4262 18.0979 71.5013 18.9069 70.1539 20.4419V18.6402V18.479H69.9929H66.2321H66.0709V18.6402V33.0921V33.2533H66.2321H69.9929H70.1539V33.0921V25.3209C70.1539 22.155 72.8787 21.3097 74.4891 21.3097C77.5941 21.3097 77.9527 23.1164 77.9527 24.4756V33.0923V33.2535H78.1137H81.8744H82.0354V33.0923V23.2759C82.0344 21.4292 81.371 20.0488 80.0633 19.1712ZM94.1995 30.3169L91.5821 30.3694C90.489 30.3694 90.3806 29.6743 90.3806 27.9673V21.5292H94.1447H94.3059V21.368V18.6415V18.4803H94.1447H90.3806V14.1696V13.8904L90.1391 14.0311L86.3784 16.2128L86.2979 16.2592V16.3515V18.4808H83.4613H83.3003V18.642V21.3685V21.5298H83.4613H86.2979V29.0583C86.2979 31.7912 86.6522 33.5819 91.3909 33.5819C92.5847 33.5819 93.3502 33.4908 94.3016 33.3618L94.441 33.3424V33.2016V30.4753V30.3087L94.2746 30.3141L94.1995 30.3169ZM96.7815 18.4795H96.6206V18.6407V33.0926V33.2538H96.7815H100.542H100.704V33.0926V18.6407V18.4795H100.542H96.7815ZM96.7815 13.1349H96.6206V13.2961V16.3503V16.5115H96.7815H100.542H100.704V16.3503V13.2961V13.1349H100.542H96.7815ZM120.766 32.9874L114.346 25.648L120.33 18.7469L120.562 18.4795H120.209H115.358H115.281L115.233 18.5396L111.571 23.0729L107.99 18.5406L107.942 18.4795H107.863H103.013H102.662L102.89 18.7459L108.823 25.648L102.429 32.9874L102.196 33.2538H102.55H107.401H107.477L107.525 33.1947L111.568 28.224L115.504 33.1926L115.552 33.2538H115.631H120.645H121L120.766 32.9874ZM61.8066 13.1349H58.9121H57.1148H57.0407L56.9925 13.1917L40.1453 32.9882L39.919 33.2535H40.2679H44.9594H45.0335L45.082 33.1967L49.1175 28.4538H58.7511V33.0913V33.2525H58.9121H62.6729H62.8341V33.0913V13.2959V13.1347H62.6729L61.8066 13.1349ZM52.0141 25.0517L58.7511 17.1354V25.0517H52.0141Z" fill="white"/>
	</g>
	<defs>
		<clipPath id="clip0_5133_1852">
			<rect width="121" height="44" fill="white"/>
		</clipPath>
	</defs>
</svg>
