<svg width="230" height="80" viewBox="0 0 230 80" fill="none" xmlns="http://www.w3.org/2000/svg">
	<path d="M28.3908 50.737C28.3855 50.8937 28.2375 50.9527 27.9467 50.9141C27.6848 50.8977 27.4315 50.7501 27.1869 50.4714C26.9187 50.0141 26.7576 49.5812 26.7036 49.1727C26.6496 48.7643 26.5814 48.1499 26.4989 47.3296C26.5339 46.4154 26.5845 45.2263 26.6507 43.7622C26.739 42.2691 26.8437 40.6049 26.9647 38.7696C27.1079 36.9053 27.2665 34.961 27.4404 32.9367C27.6116 31.8741 27.7309 30.9095 27.7981 30.0429C27.8875 29.1473 27.9478 28.4246 27.979 27.8747C28.0102 27.3248 28.0258 27.0498 28.0258 27.0498C28.0157 26.9733 27.9442 27.0219 27.8114 27.1958C27.7007 27.3407 27.5933 27.5112 27.4894 27.7072C27.3854 27.9031 27.3529 28.0505 27.392 28.1491C27.392 28.1491 27.3195 28.2888 27.1747 28.5683C27.0298 28.8478 26.8457 29.2235 26.6224 29.6955C26.401 29.9854 26.1623 30.5374 25.9063 31.3516C25.6503 32.1658 25.3493 32.9342 25.0032 33.6567C24.6962 34.4778 24.3721 35.3662 24.0309 36.3219C23.6863 37.252 23.3742 38.0349 23.0946 38.6704C22.9089 39.0334 22.7298 39.4474 22.5575 39.9125C22.3853 40.3775 22.282 40.6774 22.2479 40.8119C22.1829 41.1065 22.0499 41.4754 21.8487 41.9184C21.6442 42.3358 21.4141 42.7568 21.1585 43.1812C21.0358 43.4317 20.9148 43.6949 20.7954 43.9709C20.6727 44.2214 20.5721 44.4429 20.4936 44.6354C20.4373 44.799 20.4092 44.8807 20.4092 44.8807C20.4193 44.9573 20.3221 45.2044 20.1176 45.6218C19.9385 46.0359 19.7008 46.4968 19.4043 47.0047C19.1333 47.5091 18.8667 47.948 18.6043 48.3214C17.8361 49.3869 17.1959 50.0453 16.6837 50.2966C16.1681 50.5223 15.5381 50.3738 14.7937 49.8511C14.408 49.4876 14.1049 49.061 13.8843 48.5712C13.6604 48.0558 13.5105 47.4135 13.4348 46.6443C13.3557 45.8495 13.3151 44.8546 13.313 43.6596C13.3735 42.7419 13.4213 41.826 13.4562 40.9118C13.4879 39.9721 13.5152 39.0979 13.5381 38.2893C13.5833 37.4517 13.6197 36.7452 13.6476 36.1698C13.7009 35.5909 13.754 35.2069 13.807 35.0178C13.7905 34.5004 13.7406 34.2213 13.6573 34.1806C13.5741 34.1399 13.4412 34.3139 13.2588 34.7023C13.1804 34.8949 12.9715 35.3779 12.6322 36.1514C12.2895 36.8994 11.8922 37.8237 11.4404 38.9243C11.014 40.0215 10.5994 41.208 10.1966 42.4838C9.40696 44.5656 8.752 46.2914 8.23178 47.6611C7.73371 49.0018 7.32947 50.07 7.01907 50.8656C6.73419 51.6577 6.52606 52.2446 6.39469 52.6262C6.26332 53.0078 6.16779 53.2675 6.10812 53.4056C6.04844 53.5436 5.99646 53.6416 5.95218 53.6995C5.72253 53.7306 5.46663 53.6614 5.18448 53.4917C4.93122 53.3442 4.66013 53.16 4.37123 52.9393C4.27106 52.771 4.20917 52.5975 4.18555 52.4188C4.18744 52.2367 4.24301 51.9693 4.35224 51.6167C4.45809 51.2386 4.61687 50.6714 4.82858 49.9151C5.07256 49.2065 5.30283 48.5906 5.51939 48.0676C5.73258 47.519 5.90898 47.1833 6.04858 47.0605C6.14916 46.839 6.23699 46.6192 6.31206 46.4011C6.38713 46.1831 6.41886 45.9319 6.40726 45.6477C6.51459 45.4772 6.66547 45.145 6.85989 44.6509C7.07646 44.1279 7.28796 43.5665 7.4944 42.9669C7.65466 42.6074 7.85246 42.1389 8.08779 41.5613C8.34864 40.9803 8.61549 40.3465 8.88836 39.6599C9.15785 38.9478 9.39413 38.2792 9.5972 37.654C10.5043 35.4783 11.2751 33.6459 11.9094 32.1568C12.5403 30.6422 13.0346 29.6658 13.3922 29.2276C13.5029 29.0826 13.6069 28.8867 13.7041 28.6396C13.8268 28.3891 13.8764 28.1746 13.8528 27.9959C13.7819 27.4598 13.8198 26.961 13.9666 26.4993C14.1355 26.0087 14.3382 25.7734 14.5746 25.7933C14.8297 25.7588 15.0627 25.7532 15.2736 25.7766C15.4845 25.8 15.7233 25.9365 15.9901 26.1862C16.2347 26.4648 16.4538 26.747 16.6474 27.0326C16.841 27.3181 16.9092 27.9325 16.8521 28.8757C16.8993 29.2331 16.915 29.6467 16.8992 30.1165C16.88 30.5609 16.8575 30.9797 16.8315 31.373C16.8277 31.7373 16.8266 32.0232 16.8281 32.2309C16.6279 33.2714 16.4702 34.4361 16.3549 35.725C16.2362 36.9883 16.1464 38.2737 16.0854 39.5812C16.0211 40.8631 15.985 42.0633 15.977 43.1817C15.9656 44.2746 15.9816 45.1819 16.0251 45.9035C16.0907 46.5962 16.1685 46.9884 16.2585 47.0802C16.4507 47.1581 16.6054 47.1501 16.7229 47.0562C16.8403 46.9624 17.0134 46.6011 17.242 45.9725C17.3801 45.642 17.5735 45.239 17.8224 44.7635C18.0933 44.2591 18.3566 43.7947 18.6122 43.3703C18.7691 42.9853 19.0172 42.406 19.3565 41.6324C19.6958 40.8589 20.1229 39.8656 20.6378 38.6525C21.1783 37.436 21.8143 35.9596 22.5458 34.2235C23.2994 32.4584 24.1469 30.4207 25.0882 28.1105C25.557 27.1375 25.9909 26.1953 26.3898 25.2837C26.8109 24.3432 27.1705 23.7228 27.4684 23.4226C27.7818 23.0423 28.1417 22.9156 28.548 23.0425C28.951 23.1438 29.3266 23.4307 29.6747 23.9032C30.0484 24.3722 30.2986 24.9879 30.4254 25.7503C30.4981 26.1042 30.523 26.6855 30.5 27.4941C30.5026 28.2993 30.4565 29.228 30.3619 30.2802C30.2638 31.3068 30.107 32.3804 29.8915 33.501C29.8723 33.9453 29.8173 34.5114 29.7264 35.1993C29.6577 35.8583 29.5668 36.5462 29.4538 37.2631C29.3408 37.98 29.2227 38.6586 29.0995 39.2989C29.0833 40.1585 29.0399 41.0089 28.9693 41.85C28.9241 42.6876 28.9457 43.2433 29.0338 43.5172C28.8581 43.9568 28.7827 44.5646 28.8073 45.3408C28.832 46.117 28.8984 46.9135 29.0063 47.7304C29.0359 48.7398 29.0521 49.4522 29.0551 49.8675C29.058 50.2829 28.994 50.4864 28.8631 50.4782C28.5179 50.421 28.3604 50.5073 28.3908 50.737ZM34.3087 46.6612C34.1796 46.4708 34.0318 46.3349 33.8652 46.2535C33.6952 46.1466 33.6035 46.0421 33.59 45.94C33.5765 45.8379 33.5502 45.7375 33.5112 45.6389C33.4943 45.5113 33.4281 45.4033 33.3126 45.315C33.1647 45.1791 33.132 44.8328 33.2142 44.276C33.293 43.6936 33.4588 42.9826 33.7114 42.1429C33.9607 41.2776 34.2686 40.3654 34.6353 39.4062C34.8125 39.1744 34.9812 38.8787 35.1414 38.5192C35.3017 38.1597 35.4261 37.9219 35.5147 37.806C35.5012 37.7039 35.5276 37.6094 35.5941 37.5224C35.6571 37.4099 35.7397 37.3468 35.8417 37.3329L35.8114 37.1032C35.7945 36.9756 35.8806 36.743 36.0698 36.4056C36.2844 36.0647 36.5468 35.6913 36.8568 35.2856C37.1634 34.8542 37.4861 34.4467 37.825 34.063C38.1605 33.6538 38.4457 33.3553 38.6806 33.1675C39.1692 32.7376 39.6891 32.4463 40.2403 32.2936C40.8171 32.1375 41.3315 32.1977 41.7836 32.4743C41.8703 32.5405 42.0148 32.6508 42.217 32.8053C42.4192 32.9598 42.6503 33.1363 42.9104 33.335C43.1925 33.5046 43.4764 33.687 43.7619 33.8822L45.345 34.9539L44.9092 36.9618C44.7125 38.0278 44.7412 38.9334 44.9956 39.6784C45.2754 40.42 45.6183 41.0492 46.0242 41.5658C46.1889 41.8293 46.4795 42.0628 46.896 42.2662C47.338 42.4661 47.741 42.5675 48.105 42.5701C48.3125 42.568 48.514 42.6186 48.7095 42.7221C48.9049 42.8255 49.0212 43.0176 49.0584 43.2984C49.0921 43.5537 49.0681 43.7648 48.9862 43.9318C48.9044 44.0988 48.7393 44.2251 48.4909 44.3107C47.6624 44.5269 46.8444 44.4299 46.0369 44.0196C45.255 43.6059 44.4802 42.8534 43.7126 41.7621C43.5903 41.6228 43.4129 41.361 43.1803 40.9768C42.9698 40.5635 42.8434 40.2948 42.801 40.1707C42.7158 40.3121 42.5565 40.5806 42.323 40.976C42.0862 41.3459 41.9014 41.6178 41.7686 41.7917C40.1999 43.8751 38.7943 45.3258 37.5518 46.1438C36.3315 46.9327 35.2504 47.1052 34.3087 46.6612ZM35.4031 44.3302C35.4267 44.5089 35.6946 44.4726 36.2068 44.2213C36.7412 43.941 37.2936 43.5024 37.864 42.9054C38.6337 42.0475 39.3932 41.1131 40.1427 40.1021C40.9176 39.0877 41.5224 38.1612 41.957 37.3228L42.6168 35.8303C42.2841 35.2777 41.9511 34.9201 41.6179 34.7573C41.3069 34.5656 41.0493 34.4836 40.8452 34.5113C40.5134 34.5562 40.0564 34.93 39.4739 35.6325C38.917 36.3316 38.3361 37.2418 37.7311 38.3631C37.1261 39.4845 36.5729 40.7028 36.0714 42.018C35.8838 42.5631 35.7199 43.092 35.5799 43.6046C35.462 44.0883 35.4031 44.3302 35.4031 44.3302ZM61.0544 45.1808C60.7328 45.3024 60.4454 45.2893 60.1921 45.1418C59.9677 45.0163 59.7843 44.8073 59.6417 44.5148C59.36 43.9553 59.1225 43.3379 58.9293 42.6625C58.7583 41.9581 58.6629 41.3344 58.6431 40.7914L58.6133 39.9769L57.2775 41.3662C56.5112 42.2496 55.7417 42.9125 54.9691 43.355C54.222 43.794 53.5422 44.055 52.9298 44.138C52.6424 44.125 52.3482 44.0609 52.0473 43.9458C51.7464 43.8306 51.4659 43.6738 51.2059 43.4751C50.9714 43.273 50.7735 43.053 50.6122 42.815C50.4119 42.4784 50.2967 42.0003 50.2668 41.3807C50.2623 40.7577 50.3277 40.0733 50.4628 39.3274C50.6202 38.5525 50.8319 37.7963 51.098 37.0586C51.3862 36.292 51.7373 35.6078 52.1513 35.0061C52.8246 33.6156 53.6275 32.7143 54.56 32.3021C55.4925 31.8899 56.4679 31.9007 57.4862 32.3344C58.1867 32.5253 58.6119 32.5976 58.7616 32.5513C58.9368 32.5016 59.0511 32.1873 59.1045 31.6084C59.1525 31.1861 59.2006 30.7639 59.2487 30.3416C59.2934 29.8938 59.3833 29.297 59.5185 28.5511C59.8999 26.5246 60.2478 24.9314 60.5619 23.7715C60.9017 22.6082 61.2089 21.5921 61.4837 20.7234C61.6867 20.0982 61.8691 19.7097 62.0309 19.5579C62.2147 19.3771 62.4104 19.2856 62.6179 19.2835C62.8986 19.2454 63.1673 19.313 63.4239 19.4861C63.6805 19.6592 63.8963 19.9158 64.0711 20.2559C64.2035 20.4718 64.2688 20.6708 64.2669 20.853C64.2871 21.0061 64.2393 21.2335 64.1233 21.535C63.8726 22.1926 63.5851 23.0631 63.2607 24.1464C62.9586 25.2007 62.6571 26.3589 62.3564 27.6209C62.0813 28.8794 61.8299 30.1218 61.6024 31.3479C61.3749 32.574 61.1926 33.6511 61.0555 34.5791C60.9767 35.1614 60.9308 35.8952 60.9179 36.7804C60.9306 37.6621 60.9594 38.5677 61.0043 39.497C61.0459 40.4009 61.1011 41.2119 61.1701 41.9301C61.2612 42.6193 61.3458 43.0626 61.4238 43.2599C61.6444 43.7497 61.7588 44.124 61.767 44.3827C61.8008 44.638 61.7589 44.8125 61.6415 44.9064C61.5274 45.0258 61.3317 45.1173 61.0544 45.1808ZM54.0243 41.807C54.3714 41.682 54.6973 41.495 55.002 41.2458C55.3322 40.9932 55.6701 40.7005 56.0158 40.3679C56.7036 39.677 57.2962 39.0511 57.7934 38.49C58.2907 37.9289 58.5628 37.1385 58.6098 36.1187C58.5967 35.6268 58.4951 35.2508 58.3049 34.9908C58.1368 34.7017 57.8828 34.4503 57.5428 34.2365C57.2097 34.0738 56.7785 34.0543 56.2494 34.1779C55.7425 34.2726 55.2421 34.6132 54.7482 35.1999C54.2101 35.8444 53.71 36.6787 53.248 37.7027C52.8115 38.7233 52.544 39.9418 52.4455 41.3583C52.4282 41.6205 52.5318 41.8144 52.7562 41.9399C52.9805 42.0654 53.4032 42.0211 54.0243 41.807ZM69.6454 43.3931C68.5227 43.5452 67.5485 43.2485 66.7227 42.5029C65.8935 41.7318 65.4073 40.7063 65.2641 39.4265C65.1937 38.5006 65.2424 37.4937 65.4102 36.4056C65.6002 35.2885 65.899 34.2086 66.3066 33.166C66.7109 32.0978 67.183 31.1504 67.723 30.3237C68.2631 29.4969 68.8573 28.8837 69.5058 28.4841C69.7441 28.3218 69.9985 28.1834 70.269 28.0688C70.5651 27.9508 70.8662 27.871 71.1724 27.8295C71.4531 27.7915 71.7533 27.8027 72.073 27.8634C72.3893 27.8985 72.6563 27.9532 72.8739 28.0277C73.3313 28.1476 73.6917 28.3196 73.955 28.5438C74.2184 28.7679 74.4749 29.1359 74.7243 29.6478C74.865 30.1225 74.9488 30.4619 74.9758 30.6661C75.0028 30.8703 74.9795 31.1853 74.9059 31.611C74.7212 32.5715 74.4303 33.4164 74.0332 34.1458C73.6362 34.8752 73.0597 35.525 72.304 36.0951C72.1167 36.2504 71.8878 36.3853 71.6173 36.4999C71.3688 36.5856 71.1043 36.6474 70.8236 36.6854C70.3133 36.7546 69.8039 36.7326 69.2955 36.6197C68.8092 36.4777 68.4004 36.2342 68.0692 35.8894L67.7607 35.6193L67.6864 35.9412C67.5224 36.665 67.4026 37.3309 67.3271 37.9387C67.2771 38.5431 67.2842 39.0879 67.3483 39.5729C67.3888 39.8792 67.4531 40.1693 67.5413 40.4432C67.6549 40.7136 67.7891 40.9423 67.9436 41.1292C68.0659 41.2685 68.247 41.3609 68.4868 41.4064C68.7487 41.4229 69.02 41.4121 69.3006 41.3741C69.4792 41.3499 69.6578 41.3257 69.8365 41.3015C70.0372 41.2483 70.2218 41.1713 70.3903 41.0705C70.8039 40.8586 71.1264 40.646 71.3579 40.4327C71.615 40.216 71.8703 39.9865 72.124 39.7443L72.267 39.6469L72.2287 39.6521C72.5147 39.4575 72.7623 39.268 72.9717 39.0837C73.2067 38.896 73.3241 38.8021 73.3241 38.8021C73.4262 38.7883 73.5198 38.7107 73.605 38.5692C73.7956 38.4394 74.0558 38.4431 74.3857 38.5803C74.741 38.7141 74.9372 38.9214 74.9743 39.2021C74.9657 39.3332 74.8779 39.553 74.7108 39.8615C74.5405 40.1444 74.3429 40.418 74.1181 40.6823C73.9188 40.9432 73.7443 41.0968 73.5946 41.143C73.5724 41.172 73.4899 41.2352 73.3469 41.3325C73.2006 41.4043 73.1053 41.4692 73.061 41.5272L73.0992 41.522C72.9101 41.8594 72.7007 42.0437 72.4711 42.0748L72.1649 42.1163C72.0864 42.3088 71.7817 42.558 71.2507 42.8638C70.7164 43.1441 70.1813 43.3205 69.6454 43.3931ZM70.2542 34.7358C70.7135 34.6736 71.0922 34.4923 71.3901 34.1921C71.7102 33.8629 71.9759 33.5151 72.1872 33.1487C72.6064 32.3903 72.8121 31.6868 72.8043 31.0383C72.8187 30.3608 72.6814 29.9116 72.3925 29.6909C72.2292 29.6351 72.0838 29.6158 71.9563 29.6331C71.8508 29.6214 71.639 29.6891 71.3208 29.8362C71.0979 29.9183 70.8043 30.153 70.4399 30.5402C70.0755 30.9273 69.7161 31.3528 69.3619 31.8166C69.0331 32.2768 68.7853 32.6612 68.6182 32.9697L68.227 33.8412C68.421 33.737 68.6073 33.6727 68.7859 33.6485C68.9866 33.5954 69.1032 33.5926 69.1354 33.6402C69.1658 33.8699 69.2327 34.0817 69.3363 34.2755C69.462 34.4404 69.5954 34.5652 69.7364 34.6501C69.903 34.7314 70.0756 34.76 70.2542 34.7358ZM90.5055 39.2804C90.1839 39.4019 89.8777 39.4434 89.5869 39.4048C89.2961 39.3663 89.024 39.2732 88.7708 39.1257C88.5175 38.9781 88.2898 38.827 88.0875 38.6726C87.8819 38.4925 87.8073 38.3208 87.8636 38.1572C87.9165 37.9682 88.0323 37.8615 88.2109 37.8373C88.313 37.8235 88.3633 37.7128 88.3618 37.5051C88.3824 37.2684 88.3795 36.8531 88.3529 36.259C88.3567 35.8947 88.38 35.5798 88.4228 35.3141C88.4877 35.0195 88.5135 34.8211 88.5 34.719C88.5154 34.639 88.5139 34.4313 88.4955 34.096C88.4993 33.7317 88.5354 33.415 88.6037 33.1459C88.645 32.6726 88.7205 32.0647 88.8302 31.3223C88.9364 30.5544 89.0461 29.812 89.1591 29.0951C89.2943 28.3492 89.4003 27.7762 89.4773 27.376C89.4912 27.0882 89.5588 26.7153 89.68 26.2571C89.8013 25.799 89.9088 25.4336 90.0027 25.1611C90.1633 24.4117 90.382 23.5116 90.6587 22.4608C90.9608 21.4064 91.263 20.3521 91.5652 19.2978C91.8674 18.2434 92.1388 17.3492 92.3794 16.615C92.6421 15.8518 92.8144 15.3868 92.8962 15.2198C93.0733 14.9879 93.3039 14.8657 93.588 14.8532C93.8975 14.8372 94.2112 14.9506 94.529 15.1934C94.7958 15.4431 94.9383 15.7356 94.9567 16.0709C94.9717 16.3807 94.8497 16.735 94.5907 17.1339C94.5123 17.3264 94.4278 17.5717 94.3374 17.8698C94.2435 18.1423 94.1446 18.3766 94.0407 18.5726C93.9175 19.2129 93.7417 19.8473 93.5131 20.4759C93.31 21.1011 93.0915 21.8063 92.8577 22.5915C92.6205 23.3512 92.3813 24.2931 92.1403 25.4171C91.9748 25.9332 91.8475 26.4442 91.7586 26.9499C91.6662 27.4302 91.5774 27.741 91.4922 27.8825C91.4134 28.4648 91.2996 29.0779 91.1509 29.7216C90.9989 30.3399 90.9124 30.9622 90.8913 31.5887C90.8913 31.5887 91.002 31.4438 91.2234 31.1539C91.4703 30.8606 91.7599 30.4966 92.092 30.0618C92.9454 28.8549 93.8241 27.8393 94.7281 27.0153C95.6576 26.1877 96.4524 25.7163 97.1125 25.6008C97.4663 25.5269 97.8609 25.5644 98.2961 25.7133C98.7569 25.8587 99.1861 26.0604 99.5838 26.3183C99.9782 26.5507 100.261 26.8242 100.432 27.1388C100.697 27.5706 100.84 28.058 100.859 28.601C100.901 29.115 100.821 29.6846 100.618 30.3097C100.437 30.9059 100.156 31.5287 99.774 32.178C99.5574 32.7011 99.2754 33.22 98.9279 33.7348C98.6025 34.2206 98.313 34.5846 98.0593 34.8269C97.8345 35.0912 97.6097 35.3555 97.3849 35.6199C97.1823 35.8552 97.0128 36.047 96.8766 36.1954C96.5753 36.4701 96.331 36.6851 96.1437 36.8404C95.9531 36.9702 95.6876 37.1231 95.3473 37.2991C94.862 37.7546 94.1592 38.1357 93.2387 38.4423C92.3182 38.7489 91.4072 39.0283 90.5055 39.2804ZM91.2424 37.1927C91.4211 37.1685 91.7349 37.087 92.1841 36.9482C92.6588 36.8059 93.08 36.554 93.4478 36.1923C94.566 35.4172 95.4999 34.5241 96.2493 33.5131C96.9954 32.4766 97.5263 31.4822 97.8419 30.53C98.1798 29.5488 98.2843 28.768 98.1557 28.1878C98.0271 27.6076 97.5637 27.5405 96.7655 27.9864C95.9673 28.4324 95.0479 29.3365 94.0073 30.6988C93.5134 31.2854 93.0501 31.9068 92.6174 32.5631C92.2068 33.1904 91.8184 33.7887 91.4521 34.358C91.3106 34.663 91.1896 34.9262 91.089 35.1477C91.0139 35.3658 90.9771 35.5787 90.9786 35.7863C90.8993 36.7585 90.9873 37.2273 91.2424 37.1927ZM108.148 47.0237C108.129 47.0782 108.008 47.0427 107.783 46.9172C107.584 46.7882 107.38 46.621 107.171 46.4155C106.966 46.2354 106.866 46.0671 106.871 45.9105C106.722 45.567 106.675 45.1185 106.732 44.5651C106.818 44.0339 107.035 43.2248 107.385 42.1381C107.586 41.695 107.752 41.1789 107.882 40.5897C108.037 39.9969 108.218 39.4008 108.425 38.8011C108.522 38.5541 108.737 38.0183 109.069 37.1937C109.402 36.3691 109.746 35.439 110.103 34.4033C110.485 33.3641 110.784 32.3881 111.001 31.4752C110.429 32.2543 109.91 33.0393 109.443 33.8301C108.972 34.5954 108.524 35.2279 108.096 35.7275C107.694 36.2237 107.287 36.4867 106.876 36.5165C106.534 36.4849 106.162 36.4184 105.759 36.3171C105.378 36.1868 105.095 35.9133 104.91 35.4967C104.734 34.9489 104.601 34.2393 104.512 33.3679C104.448 32.4931 104.44 31.156 104.488 29.3566C104.577 28.461 104.604 27.7817 104.569 27.3188C104.556 26.8269 104.496 26.4712 104.389 26.2518C104.282 26.0325 104.115 25.8473 103.887 25.6962C103.515 25.4349 103.301 25.191 103.245 24.9647C103.211 24.7095 103.361 24.4683 103.695 24.2412C104.214 24.041 104.591 23.9508 104.828 23.9707C105.061 23.9652 105.369 24.1313 105.751 24.4693C105.999 24.7735 106.22 25.0684 106.413 25.354C106.629 25.6106 106.784 26.0962 106.879 26.811C106.919 27.1173 106.922 27.5327 106.887 28.057C106.878 28.578 106.866 29.0733 106.85 29.5432C106.856 29.9841 106.859 30.2956 106.857 30.4777C106.726 31.4568 106.669 32.2961 106.683 32.9958C106.723 33.6919 106.807 34.0313 106.935 34.014C107.391 33.5365 107.815 33.0113 108.207 32.4385C108.621 31.8367 109.039 31.1694 109.462 30.4366C109.906 29.6748 110.39 28.8167 110.914 27.8623C111.086 27.3972 111.26 26.9449 111.435 26.5054C111.611 26.0658 111.747 25.6187 111.842 25.164C111.952 24.8114 112.069 24.5226 112.195 24.2976C112.322 24.0727 112.434 23.9405 112.533 23.9012C112.654 23.8328 112.808 23.8248 112.997 23.8772C113.211 23.9261 113.402 23.9913 113.568 24.0726C113.757 24.125 113.855 24.1767 113.862 24.2278C113.89 24.2499 113.958 24.2668 114.063 24.2784C114.168 24.2901 114.274 24.3018 114.379 24.3135C114.507 24.2963 114.576 24.3259 114.586 24.4025C114.593 24.4535 114.551 24.6281 114.46 24.9262C114.395 25.2208 114.31 25.5572 114.204 25.9353C114.12 26.2845 114.046 26.6063 113.981 26.901C113.913 27.1701 113.895 27.3284 113.927 27.376C113.985 27.4202 113.972 27.6168 113.888 27.9659C113.801 28.2895 113.693 28.6549 113.565 29.062C113.463 29.4657 113.368 29.8293 113.281 30.1529C113.137 31.0299 112.955 31.912 112.735 32.7994C112.511 33.6612 112.224 34.5316 111.872 35.4107C111.76 35.7378 111.593 36.2412 111.371 36.9208C111.174 37.5971 110.976 38.2605 110.777 38.9112C110.606 39.5839 110.466 40.0966 110.357 40.4492C110.282 40.6672 110.171 41.0071 110.024 41.4687C109.906 41.9524 109.768 42.4778 109.609 43.045C109.476 43.6087 109.337 44.1342 109.194 44.6213C109.054 45.134 108.95 45.5249 108.881 45.794C108.894 46.2859 108.827 46.6589 108.679 46.9128C108.577 46.9266 108.462 46.9422 108.334 46.9595C108.21 47.0023 108.148 47.0237 108.148 47.0237ZM125.599 36.9807C125.106 36.7877 124.814 36.5414 124.722 36.242C124.656 35.9392 124.764 35.3789 125.046 34.5612C125.327 33.7435 125.77 32.4753 126.374 30.7564C126.834 29.5247 127.175 28.5691 127.397 27.8894C127.641 27.1807 127.796 26.6791 127.861 26.3845C127.951 26.0864 127.991 25.8991 127.981 25.8225C127.9 25.5996 127.902 25.4175 127.987 25.276C128.069 25.109 128.218 24.9589 128.434 24.8257C128.544 24.6808 128.718 24.4234 128.955 24.0535C129.217 23.6802 129.446 23.2465 129.64 22.7524C129.799 22.1852 129.994 21.6001 130.226 20.997C130.458 20.3939 130.774 19.6366 131.173 18.725C131.568 17.788 132.083 16.5749 132.718 15.0858C133.11 14.1232 133.551 13.1409 134.042 12.139C134.53 11.1115 135.057 10.0916 135.625 9.07922C135.858 8.6838 136.076 8.36843 136.279 8.1331C136.478 7.87224 136.694 7.73901 136.927 7.73342C137.233 7.69193 137.591 7.74737 138.001 7.89972C138.436 8.04862 138.842 8.26652 139.217 8.55343C139.593 8.84034 139.883 9.16487 140.086 9.52703C140.241 9.71396 140.349 10.1411 140.411 10.8082C140.474 11.4754 140.529 12.2864 140.577 13.2413C140.626 14.1961 140.67 15.2166 140.709 16.3025C140.771 17.3595 140.82 18.6131 140.856 20.0634C140.892 21.5137 140.936 23.0277 140.989 24.6056C141.067 26.1801 141.164 27.7 141.28 29.1654C141.392 30.6053 141.557 31.8561 141.776 32.9179C141.832 33.1442 141.86 33.3612 141.862 33.5688C141.863 33.7765 141.872 33.9442 141.889 34.0718C141.756 34.2457 141.51 34.3441 141.149 34.367C140.817 34.4119 140.476 34.3803 140.124 34.2721C139.797 34.1604 139.593 33.9932 139.512 33.7703C139.425 33.7041 139.361 33.6089 139.318 33.4847C139.298 33.3316 139.27 33.0235 139.235 32.5606C139.2 32.0976 139.129 31.3667 139.023 30.3676L138.394 24.1386L137.902 24.2443C137.672 24.2755 137.242 24.3598 136.611 24.4973C135.98 24.6347 135.301 24.8047 134.574 25.007C133.845 25.1839 133.167 25.3666 132.543 25.5551C131.941 25.7147 131.53 25.8483 131.31 25.956C131.081 25.9871 130.82 26.1783 130.529 26.5296C130.263 26.8774 130.022 27.3128 129.806 27.8359C129.751 28.2071 129.61 28.6159 129.383 29.0624C129.179 29.4799 129.085 29.7524 129.102 29.8801C128.94 30.0319 128.807 30.2058 128.703 30.4018C128.625 30.5943 128.586 30.6906 128.586 30.6906C128.606 30.8437 128.529 31.2439 128.355 31.8912C128.203 32.5094 127.997 33.2129 127.738 34.0015C127.475 34.7647 127.2 35.4385 126.914 36.023L126.272 37.3572L125.599 36.9807ZM131.892 23.5776C131.892 23.5776 132.016 23.5348 132.265 23.4491C132.539 23.3601 132.851 23.2658 133.201 23.1663C133.574 23.0379 133.913 22.9529 134.219 22.9114C135.257 22.511 136.014 22.2396 136.488 22.0973C136.96 21.9295 137.285 21.8335 137.463 21.8093C137.667 21.7816 137.851 21.7957 138.014 21.8516C138.133 21.9654 138.233 22.0299 138.313 22.045C138.418 22.0567 138.471 22.0626 138.471 22.0626C138.489 22.008 138.489 21.7093 138.469 21.1663C138.449 20.6233 138.425 19.951 138.397 19.1493C138.395 18.3441 138.376 17.5151 138.341 16.6624C138.329 15.7806 138.301 14.9789 138.257 14.2572C138.21 13.51 138.174 12.9432 138.149 12.5569C138.111 12.0684 138.079 11.631 138.054 11.2446C138.025 10.8327 138.011 10.6268 138.011 10.6268C137.858 10.6475 137.563 10.9733 137.127 11.604C136.717 12.2313 136.266 13.0459 135.775 14.0479C135.284 15.0498 134.84 16.1104 134.442 17.2296C134.251 17.7492 134.066 18.216 133.887 18.6301C133.708 19.0441 133.555 19.2597 133.427 19.277C133.383 19.335 133.26 19.5855 133.059 20.0285C132.88 20.4425 132.684 20.9238 132.471 21.4724C132.254 21.9954 132.084 22.4733 131.959 22.9059C131.831 23.313 131.809 23.5369 131.892 23.5776ZM158.773 29.4065C158.262 29.4757 157.828 29.4306 157.469 29.2714C157.107 29.0866 156.777 28.7545 156.48 28.275C156.331 27.9315 156.189 27.5479 156.056 27.1243C155.944 26.6717 155.863 26.254 155.812 25.8711C155.758 25.4627 155.761 25.1894 155.82 25.0514C155.909 24.9355 155.924 24.7516 155.864 24.4998C155.827 24.219 155.789 23.9255 155.748 23.6191C155.655 23.112 155.49 22.8485 155.254 22.8286C155.04 22.7797 154.744 22.8977 154.366 23.1828C153.944 23.5258 153.395 23.99 152.719 24.5753C152.039 25.135 151.329 25.751 150.586 26.4233C149.87 27.092 149.195 27.7811 148.561 28.4906C148.081 29.1793 147.799 29.6982 147.715 30.0474C147.653 30.3675 147.521 30.5414 147.316 30.5691C147.126 30.6989 146.949 30.7358 146.786 30.68C146.645 30.5952 146.433 30.4679 146.151 30.2983C145.945 30.1183 145.741 29.951 145.539 29.7965C145.333 29.6165 145.198 29.4789 145.134 29.3837C145.117 29.2561 145.12 28.9829 145.142 28.5641C145.165 28.1453 145.2 27.7247 145.248 27.3025C145.322 26.8767 145.376 26.5966 145.41 26.4621C145.538 26.4448 145.623 26.3033 145.666 26.0377C145.734 25.7686 145.85 25.467 146.013 25.133C146.024 24.8198 146.098 24.3941 146.234 23.8559C146.393 23.2887 146.535 22.7888 146.659 22.3561C146.936 21.6951 147.111 21.1517 147.184 20.726C147.283 20.2968 147.318 19.7724 147.288 19.1529C147.249 19.0542 147.263 18.9614 147.329 18.8745C147.392 18.762 147.475 18.6988 147.577 18.685C147.754 18.4531 147.989 18.3692 148.284 18.4333C148.574 18.4719 148.855 18.6287 149.125 18.9039C149.665 19.4544 149.928 20.0683 149.914 20.7459C149.922 21.3944 149.635 22.3687 149.054 23.6687C148.929 24.1014 148.831 24.4395 148.759 24.6831C148.71 24.8976 148.693 25.0688 148.71 25.1964C148.71 25.1964 148.826 25.0898 149.057 24.8765C149.314 24.6598 149.594 24.4141 149.895 24.1394C150.218 23.8357 150.474 23.6062 150.661 23.4509C150.772 23.306 151.035 23.0365 151.45 22.6424C151.866 22.2483 152.308 21.8636 152.778 21.4881C153.27 21.0836 153.64 20.8386 153.889 20.753C154.079 20.6232 154.284 20.5045 154.504 20.3968C154.72 20.2635 154.879 20.19 154.981 20.1762C155.185 20.1485 155.456 20.2288 155.792 20.4171C156.151 20.5763 156.491 20.7901 156.812 21.0584C157.13 21.3012 157.328 21.5212 157.406 21.7185C157.419 21.8206 157.433 21.9227 157.446 22.0248C157.485 22.1235 157.524 22.2221 157.563 22.3208C157.709 22.6388 157.819 23.0786 157.894 23.6402C157.993 24.1984 158.048 24.7106 158.058 25.177C158.067 25.6434 158.014 25.9236 157.896 26.0174C157.896 26.0174 157.901 26.0557 157.911 26.1323C157.944 26.1799 158.011 26.1968 158.113 26.183C158.126 26.2851 158.135 26.3489 158.138 26.3744C158.011 26.3917 157.975 26.5135 158.031 26.7398C158.083 26.9405 158.19 27.1599 158.351 27.3979C158.538 27.6324 158.718 27.8159 158.892 27.9483C159.238 28.2131 159.405 28.4894 159.391 28.7771C159.373 29.0393 159.167 29.2491 158.773 29.4065ZM167.461 29.9442C167.091 29.8905 166.782 29.8154 166.536 29.7189C166.286 29.5968 165.947 29.3958 165.521 29.1158C165.161 28.7489 164.868 28.3988 164.642 28.0656C164.441 27.729 164.285 27.3344 164.174 26.8818C164.058 26.4037 163.952 25.7945 163.854 25.0542C163.814 24.7479 163.804 24.2815 163.825 23.655C163.872 23.0251 163.928 22.3679 163.993 21.6834C164.08 20.97 164.153 20.3366 164.209 19.7833C164.292 19.2264 164.335 18.8697 164.341 18.7131C164.373 18.3709 164.22 18.1967 163.882 18.1906C163.543 18.1845 163.172 18.2219 162.767 18.3027C162.384 18.3546 162.124 18.3509 161.986 18.2916C161.881 18.2799 161.825 18.2485 161.818 18.1974C161.808 18.1209 161.803 18.0826 161.803 18.0826C161.789 17.9805 161.768 17.9184 161.739 17.8963C161.732 17.8452 161.682 17.7611 161.589 17.6438C161.524 17.5486 161.531 17.4048 161.61 17.2123C161.71 16.9908 161.898 16.8355 162.172 16.7464C162.394 16.6642 162.696 16.5844 163.075 16.507C163.476 16.4007 163.873 16.256 164.264 16.073C164.652 15.8646 164.954 15.5899 165.168 15.249C165.324 14.6563 165.509 13.9945 165.724 13.2638C165.939 12.5331 166.152 11.8807 166.361 11.3066C166.593 10.7035 166.752 10.3312 166.837 10.1898C167.24 9.9012 167.548 9.76864 167.759 9.79203C167.966 9.7899 168.224 9.97576 168.533 10.3497C168.685 10.5111 168.793 10.6394 168.857 10.7346C168.947 10.8263 168.98 10.9777 168.956 11.1889C168.932 11.4 168.834 11.7381 168.662 12.2032C168.515 12.6648 168.279 13.3334 167.953 14.2091C167.859 14.4816 167.774 14.7269 167.699 14.945C167.621 15.1375 167.582 15.2338 167.582 15.2338C167.687 15.2455 167.842 15.2375 168.046 15.2098C168.25 15.1822 168.504 15.1348 168.807 15.0678C169.08 14.9787 169.433 14.892 169.863 14.8077C170.29 14.6979 170.634 14.6512 170.896 14.6677C171.483 14.5882 171.932 14.6443 172.243 14.836C172.551 15.0022 172.751 15.3388 172.844 15.8459C172.932 16.1198 172.891 16.2943 172.719 16.3696C172.572 16.4414 172.155 16.524 171.466 16.6173C171.236 16.6484 170.881 16.7096 170.399 16.8008C169.918 16.892 169.411 16.9867 168.878 17.0848C168.371 17.1795 167.93 17.2783 167.554 17.3812C167.2 17.4552 167.027 17.5177 167.033 17.5687C166.963 17.6301 166.868 17.8899 166.747 18.3481C166.651 18.8028 166.551 19.323 166.447 19.9088C166.364 20.4657 166.288 20.9697 166.218 21.4209C166.154 22.3131 166.128 23.2 166.141 24.0817C166.179 24.96 166.266 25.7148 166.401 26.3461C166.537 26.9773 166.736 27.4051 167 27.6292C167.26 27.8278 167.713 27.8184 168.359 27.6009C169.003 27.3578 169.506 27.0427 169.871 26.6555C170.279 26.2104 170.624 25.9688 170.905 25.9308C171.211 25.8893 171.395 26.0072 171.458 26.2845C171.543 26.5329 171.451 26.9221 171.184 27.452C170.938 27.953 170.61 28.4133 170.198 28.8329C169.782 29.227 169.329 29.5352 168.839 29.7575C168.371 29.9508 167.912 30.0131 167.461 29.9442ZM175.617 27.6698C175.386 27.4932 175.199 27.2587 175.057 26.9662C174.94 26.6703 174.874 26.3674 174.859 26.0576C174.844 25.7478 174.874 25.4839 174.949 25.2659C174.922 25.0617 174.927 24.905 174.965 24.796C175.024 24.658 175.035 24.5397 174.996 24.441C174.956 24.3424 174.958 24.1602 175.001 23.8946C175.044 23.6289 175.088 23.3761 175.135 23.136C175.259 22.7033 175.387 22.1924 175.516 21.6031C175.643 20.9883 175.758 20.388 175.863 19.8022C175.967 19.2164 176.056 18.7107 176.13 18.285C176.203 17.8592 176.246 17.5936 176.258 17.488C176.218 17.1817 176.4 16.9881 176.805 16.9073C177.097 16.7637 177.327 16.7326 177.494 16.8139C177.657 16.8698 177.893 17.0846 178.202 17.4585C178.433 17.635 178.55 17.931 178.553 18.3463C178.556 18.7617 178.458 19.2947 178.258 19.9454C178.183 20.1634 178.094 20.4743 177.992 20.8779C177.915 21.2781 177.871 21.6348 177.861 21.9481C177.786 22.1661 177.697 22.477 177.594 22.8806C177.514 23.2553 177.445 23.6155 177.387 23.9611C177.352 24.0957 177.327 24.2941 177.309 24.5562C177.289 24.7929 177.259 25.0568 177.219 25.348C177.176 25.6136 177.105 25.8572 177.004 26.0787C176.913 27.1564 176.777 27.7985 176.596 28.0048C176.441 28.2077 176.115 28.096 175.617 27.6698ZM177.275 11.6208C177.13 11.5104 176.992 11.3473 176.859 11.1314C176.724 10.8899 176.629 10.6688 176.577 10.4681C176.521 10.2418 176.531 10.1234 176.608 10.1131C176.809 10.0599 177.022 9.81001 177.249 9.36355C177.476 8.91708 177.543 8.54414 177.452 8.24473C177.438 8.14262 177.465 8.04809 177.531 7.96114C177.594 7.84866 177.675 7.77274 177.774 7.73338C178.053 7.48768 178.343 7.42239 178.644 7.53752C178.967 7.62367 179.283 7.85367 179.592 8.22753C179.886 8.68143 180.004 9.08122 179.946 9.4269C179.884 9.74706 179.661 10.2191 179.276 10.8429C178.96 11.4053 178.64 11.7345 178.315 11.8305C178.016 11.9231 177.669 11.8531 177.275 11.6208ZM181.747 27.6187C181.62 27.636 181.471 27.5912 181.301 27.4843C181.157 27.3739 181.02 27.2236 180.891 27.0332C180.758 26.8173 180.668 26.6217 180.618 26.4465C180.602 26.3188 180.732 26.0283 181.01 25.5749C181.31 25.0926 181.7 24.507 182.18 23.8183C182.66 23.1296 183.154 22.4392 183.659 21.747L185.067 19.7243L184.135 17.9797C183.957 17.6141 183.748 17.2137 183.509 16.7784C183.292 16.3141 183.094 15.8992 182.916 15.5335C182.76 15.1389 182.674 14.8778 182.657 14.7502C182.517 14.4832 182.445 14.2331 182.441 13.9999C182.432 13.7412 182.46 13.5556 182.523 13.4431C182.47 13.2424 182.61 13.1195 182.942 13.0746C183.273 13.0296 183.553 13.0826 183.781 13.2337C183.992 13.2571 184.205 13.3971 184.421 13.6537C184.633 13.8847 184.827 14.1703 185.001 14.5104C185.198 14.8215 185.357 15.1378 185.478 15.4593C185.488 15.5359 185.553 15.7349 185.673 16.0564C185.816 16.3489 185.957 16.6286 186.096 16.8956L186.536 18.1612L187.29 17.0846C187.441 16.8562 187.607 16.6388 187.788 16.4325C187.994 16.2227 188.09 16.0667 188.077 15.9646C188.179 15.9508 188.34 15.7989 188.562 15.5091C188.78 15.1937 189.044 14.8331 189.354 14.4273C189.657 13.9705 189.971 13.5902 190.294 13.2866C190.64 12.9539 190.863 12.7807 190.966 12.7668C191.243 12.7033 191.531 12.8201 191.83 13.1174C192.126 13.3892 192.312 13.7148 192.388 14.0942C192.411 14.2729 192.229 14.6614 191.841 15.2597C191.452 15.858 190.842 16.5512 190.012 17.3394C189.504 17.8239 189.116 18.2273 188.847 18.5496C188.578 18.8719 188.169 19.317 187.621 19.885C188.141 20.6721 188.623 21.3733 189.068 21.9886C189.538 22.6004 190.095 23.1746 190.737 23.7112C191.051 23.9285 191.339 24.1364 191.599 24.335C191.884 24.5302 192.027 24.6278 192.027 24.6278C192.126 24.5884 192.236 24.6384 192.358 24.7777C192.503 24.8881 192.576 25.0471 192.577 25.2548C192.677 25.4231 192.672 25.5797 192.562 25.7246C192.473 25.8406 192.355 25.9344 192.209 26.0062C192.063 26.078 191.969 26.1557 191.928 26.2392C191.753 26.2889 191.584 26.2859 191.421 26.23C191.279 26.1452 191.174 26.1335 191.104 26.1949C191.009 26.2598 190.71 26.1574 190.207 25.8878C189.729 25.6147 189.256 25.2761 188.787 24.872C188.584 24.7175 188.318 24.4678 187.986 24.1229C187.677 23.7491 187.404 23.4483 187.166 23.2207C186.95 22.9641 186.752 22.7441 186.572 22.5606C186.392 22.3771 186.27 22.2378 186.205 22.1426C186.117 22.2585 185.897 22.5611 185.546 23.0504C185.192 23.5142 184.741 24.1339 184.194 24.9096C183.327 26.0144 182.748 26.7425 182.457 27.0938C182.188 27.4161 181.952 27.591 181.747 27.6187Z" fill="#EEFF32"/>
	<path d="M222.44 66.4863L208.282 75.2231C207.354 75.7865 206.707 76.1848 205.628 77.0697C204.766 77.7113 203.09 79.0532 203.742 79.5456C204.349 79.8754 204.835 80.0067 206.509 79.1622C210.815 76.8872 214.918 74.1501 219.02 71.4129C222.619 69.0224 225.345 67.15 228.463 64.8558C229.928 63.8191 230.068 62.8766 229.157 62.1332C228.341 61.4453 227.508 60.7378 226.503 60.2705C222.915 58.5779 219.244 56.9533 215.573 55.3287C215.126 55.1325 214.784 54.9497 214.176 54.7856C213.447 54.5888 212.928 54.4185 212.353 55.1226C211.789 55.7844 212.395 56.4458 212.804 56.7069C216.104 58.8345 223.008 63.1717 223.289 63.5039C220.333 64.2738 217.603 65.0897 214.89 65.7593C195.883 70.2615 177.109 73.545 159.258 72.6599C145.102 71.9885 131.893 69.6127 119.802 65.1264C119.112 64.8647 118.339 64.671 117.583 64.4968C116.567 64.2376 115.92 64.3043 115.538 64.8495C115.012 65.9438 115.592 66.2963 116.005 66.6192C116.805 67.2875 117.882 67.729 118.903 68.2159C132.677 74.1366 148.399 76.2715 165.285 76.2928C182.602 76.3249 200.531 72.5418 218.65 67.3776C219.617 67.0809 221.998 66.5177 222.44 66.4863Z" fill="#EEFF32"/>
</svg>
