<svg width="835" height="585" viewBox="0 0 835 585" fill="none" xmlns="http://www.w3.org/2000/svg">
    <path d="M37.2808 128.353V131.822H41.0628V132.939H37.2808V136.512H41.5095V137.629H35.9258V127.236H41.5095V128.353H37.2808ZM43.0535 133.534C43.0535 132.69 43.2222 131.956 43.5597 131.331C43.8972 130.695 44.3638 130.204 44.9594 129.856C45.5649 129.509 46.2548 129.335 47.0291 129.335C48.0316 129.335 48.8555 129.578 49.5008 130.065C50.1559 130.551 50.5877 131.226 50.7962 132.09H49.337C49.198 131.594 48.925 131.201 48.518 130.914C48.121 130.626 47.6246 130.482 47.0291 130.482C46.2548 130.482 45.6294 130.75 45.1529 131.286C44.6765 131.812 44.4382 132.561 44.4382 133.534C44.4382 134.517 44.6765 135.276 45.1529 135.812C45.6294 136.348 46.2548 136.616 47.0291 136.616C47.6246 136.616 48.121 136.477 48.518 136.199C48.9151 135.922 49.1881 135.524 49.337 135.008H50.7962C50.5778 135.842 50.141 136.512 49.4859 137.018C48.8307 137.515 48.0118 137.763 47.0291 137.763C46.2548 137.763 45.5649 137.589 44.9594 137.242C44.3638 136.894 43.8972 136.403 43.5597 135.768C43.2222 135.132 43.0535 134.388 43.0535 133.534ZM56.1628 137.763C55.3984 137.763 54.7036 137.589 54.0782 137.242C53.4628 136.894 52.9764 136.403 52.619 135.768C52.2716 135.122 52.0979 134.378 52.0979 133.534C52.0979 132.7 52.2765 131.966 52.6339 131.331C53.0012 130.685 53.4975 130.194 54.1229 129.856C54.7482 129.509 55.4481 129.335 56.2223 129.335C56.9966 129.335 57.6964 129.509 58.3218 129.856C58.9472 130.194 59.4385 130.68 59.7959 131.316C60.1632 131.951 60.3468 132.69 60.3468 133.534C60.3468 134.378 60.1582 135.122 59.781 135.768C59.4137 136.403 58.9124 136.894 58.2771 137.242C57.6418 137.589 56.937 137.763 56.1628 137.763ZM56.1628 136.572C56.6492 136.572 57.1058 136.458 57.5326 136.229C57.9595 136.001 58.3019 135.658 58.56 135.202C58.828 134.745 58.9621 134.189 58.9621 133.534C58.9621 132.879 58.833 132.323 58.5749 131.867C58.3168 131.41 57.9793 131.072 57.5624 130.854C57.1455 130.626 56.6938 130.512 56.2074 130.512C55.7111 130.512 55.2545 130.626 54.8376 130.854C54.4306 131.072 54.103 131.41 53.8549 131.867C53.6067 132.323 53.4826 132.879 53.4826 133.534C53.4826 134.199 53.6017 134.76 53.84 135.217C54.0881 135.673 54.4157 136.016 54.8227 136.244C55.2297 136.463 55.6764 136.572 56.1628 136.572ZM65.017 137.763C64.3916 137.763 63.8307 137.659 63.3344 137.45C62.8381 137.232 62.446 136.934 62.1581 136.557C61.8703 136.17 61.7114 135.728 61.6816 135.232H63.0813C63.121 135.639 63.3096 135.971 63.6471 136.229C63.9945 136.487 64.4462 136.616 65.0021 136.616C65.5182 136.616 65.9252 136.502 66.223 136.274C66.5208 136.046 66.6697 135.758 66.6697 135.41C66.6697 135.053 66.5109 134.79 66.1933 134.621C65.8756 134.442 65.3842 134.269 64.7192 134.1C64.1136 133.941 63.6173 133.782 63.2302 133.624C62.853 133.455 62.5254 133.212 62.2475 132.894C61.9794 132.566 61.8454 132.14 61.8454 131.613C61.8454 131.197 61.9695 130.814 62.2177 130.467C62.4658 130.119 62.8182 129.847 63.2749 129.648C63.7315 129.44 64.2526 129.335 64.8383 129.335C65.7416 129.335 66.4712 129.564 67.0271 130.02C67.583 130.477 67.8808 131.102 67.9205 131.896H66.5655C66.5357 131.469 66.362 131.127 66.0444 130.869C65.7366 130.611 65.3197 130.482 64.7936 130.482C64.3072 130.482 63.9201 130.586 63.6322 130.794C63.3443 131.003 63.2004 131.276 63.2004 131.613C63.2004 131.881 63.2848 132.105 63.4535 132.283C63.6322 132.452 63.8506 132.591 64.1087 132.7C64.3767 132.8 64.744 132.914 65.2105 133.043C65.7962 133.202 66.2727 133.361 66.6399 133.519C67.0072 133.668 67.3199 133.897 67.578 134.204C67.846 134.512 67.985 134.914 67.9949 135.41C67.9949 135.857 67.8708 136.259 67.6227 136.616C67.3745 136.974 67.0221 137.257 66.5655 137.465C66.1188 137.664 65.6026 137.763 65.017 137.763ZM76.9356 129.469L72.022 141.47H70.6224L72.2305 137.54L68.9398 129.469H70.4437L73.0047 136.08L75.536 129.469H76.9356ZM81.1863 137.763C80.561 137.763 80.0001 137.659 79.5038 137.45C79.0075 137.232 78.6154 136.934 78.3275 136.557C78.0396 136.17 77.8808 135.728 77.851 135.232H79.2507C79.2904 135.639 79.479 135.971 79.8165 136.229C80.1639 136.487 80.6156 136.616 81.1714 136.616C81.6876 136.616 82.0946 136.502 82.3924 136.274C82.6902 136.046 82.8391 135.758 82.8391 135.41C82.8391 135.053 82.6803 134.79 82.3626 134.621C82.045 134.442 81.5536 134.269 80.8885 134.1C80.283 133.941 79.7867 133.782 79.3996 133.624C79.0223 133.455 78.6948 133.212 78.4168 132.894C78.1488 132.566 78.0148 132.14 78.0148 131.613C78.0148 131.197 78.1389 130.814 78.3871 130.467C78.6352 130.119 78.9876 129.847 79.4442 129.648C79.9008 129.44 80.422 129.335 81.0077 129.335C81.911 129.335 82.6406 129.564 83.1965 130.02C83.7523 130.477 84.0501 131.102 84.0898 131.896H82.7349C82.7051 131.469 82.5314 131.127 82.2137 130.869C81.906 130.611 81.4891 130.482 80.963 130.482C80.4766 130.482 80.0895 130.586 79.8016 130.794C79.5137 131.003 79.3698 131.276 79.3698 131.613C79.3698 131.881 79.4542 132.105 79.6229 132.283C79.8016 132.452 80.02 132.591 80.2781 132.7C80.5461 132.8 80.9134 132.914 81.3799 133.043C81.9656 133.202 82.442 133.361 82.8093 133.519C83.1766 133.668 83.4893 133.897 83.7474 134.204C84.0154 134.512 84.1544 134.914 84.1643 135.41C84.1643 135.857 84.0402 136.259 83.792 136.616C83.5439 136.974 83.1915 137.257 82.7349 137.465C82.2882 137.664 81.772 137.763 81.1863 137.763ZM87.7298 130.586V135.395C87.7298 135.792 87.8142 136.075 87.9829 136.244C88.1517 136.403 88.4445 136.482 88.8614 136.482H89.859V137.629H88.6381C87.8837 137.629 87.3179 137.455 86.9407 137.108C86.5634 136.76 86.3748 136.19 86.3748 135.395V130.586H85.3177V129.469H86.3748V127.415H87.7298V129.469H89.859V130.586H87.7298ZM98.9457 133.236C98.9457 133.495 98.9308 133.767 98.901 134.055H92.3793C92.4289 134.859 92.7019 135.49 93.1982 135.946C93.7045 136.393 94.3149 136.616 95.0296 136.616C95.6153 136.616 96.1017 136.482 96.4888 136.214C96.8859 135.936 97.1638 135.569 97.3227 135.113H98.7819C98.5635 135.897 98.1267 136.537 97.4716 137.033C96.8164 137.52 96.0024 137.763 95.0296 137.763C94.2554 137.763 93.5605 137.589 92.9451 137.242C92.3396 136.894 91.8631 136.403 91.5157 135.768C91.1682 135.122 90.9945 134.378 90.9945 133.534C90.9945 132.69 91.1633 131.951 91.5008 131.316C91.8383 130.68 92.3098 130.194 92.9153 129.856C93.5307 129.509 94.2355 129.335 95.0296 129.335C95.8039 129.335 96.4888 129.504 97.0844 129.842C97.68 130.179 98.1366 130.646 98.4543 131.241C98.7819 131.827 98.9457 132.492 98.9457 133.236ZM97.546 132.954C97.546 132.437 97.4319 131.996 97.2036 131.628C96.9752 131.251 96.6626 130.968 96.2655 130.78C95.8784 130.581 95.4466 130.482 94.9701 130.482C94.2852 130.482 93.6995 130.7 93.2131 131.137C92.7366 131.574 92.4636 132.179 92.3942 132.954H97.546ZM110.547 129.32C111.182 129.32 111.748 129.454 112.244 129.722C112.74 129.981 113.132 130.373 113.42 130.899C113.708 131.425 113.852 132.065 113.852 132.82V137.629H112.512V133.013C112.512 132.199 112.309 131.579 111.902 131.152C111.504 130.715 110.963 130.497 110.279 130.497C109.574 130.497 109.013 130.725 108.596 131.182C108.179 131.628 107.971 132.279 107.971 133.132V137.629H106.631V133.013C106.631 132.199 106.427 131.579 106.02 131.152C105.623 130.715 105.082 130.497 104.397 130.497C103.692 130.497 103.131 130.725 102.715 131.182C102.298 131.628 102.089 132.279 102.089 133.132V137.629H100.734V129.469H102.089V130.646C102.357 130.219 102.715 129.891 103.161 129.663C103.618 129.435 104.119 129.32 104.665 129.32C105.35 129.32 105.956 129.474 106.482 129.782C107.008 130.09 107.4 130.541 107.658 131.137C107.886 130.561 108.263 130.115 108.79 129.797C109.316 129.479 109.901 129.32 110.547 129.32ZM127.906 130.258C127.618 129.653 127.201 129.186 126.655 128.859C126.109 128.521 125.474 128.353 124.75 128.353C124.025 128.353 123.37 128.521 122.784 128.859C122.208 129.186 121.752 129.663 121.414 130.288C121.087 130.904 120.923 131.618 120.923 132.432C120.923 133.246 121.087 133.961 121.414 134.577C121.752 135.192 122.208 135.668 122.784 136.006C123.37 136.333 124.025 136.497 124.75 136.497C125.762 136.497 126.596 136.195 127.251 135.589C127.906 134.983 128.288 134.165 128.398 133.132H124.258V132.03H129.842V133.073C129.762 133.926 129.494 134.711 129.038 135.425C128.581 136.13 127.981 136.691 127.236 137.108C126.492 137.515 125.663 137.718 124.75 137.718C123.787 137.718 122.908 137.495 122.114 137.048C121.32 136.592 120.69 135.961 120.223 135.157C119.766 134.353 119.538 133.445 119.538 132.432C119.538 131.42 119.766 130.512 120.223 129.708C120.69 128.894 121.32 128.263 122.114 127.817C122.908 127.36 123.787 127.132 124.75 127.132C125.851 127.132 126.824 127.405 127.668 127.951C128.522 128.497 129.142 129.266 129.529 130.258H127.906ZM132.988 130.794C133.227 130.328 133.564 129.966 134.001 129.708C134.448 129.449 134.989 129.32 135.624 129.32V130.72H135.266C133.748 130.72 132.988 131.544 132.988 133.192V137.629H131.633V129.469H132.988V130.794ZM140.747 137.763C139.982 137.763 139.287 137.589 138.662 137.242C138.047 136.894 137.56 136.403 137.203 135.768C136.855 135.122 136.682 134.378 136.682 133.534C136.682 132.7 136.86 131.966 137.218 131.331C137.585 130.685 138.081 130.194 138.707 129.856C139.332 129.509 140.032 129.335 140.806 129.335C141.58 129.335 142.28 129.509 142.906 129.856C143.531 130.194 144.022 130.68 144.38 131.316C144.747 131.951 144.931 132.69 144.931 133.534C144.931 134.378 144.742 135.122 144.365 135.768C143.998 136.403 143.496 136.894 142.861 137.242C142.226 137.589 141.521 137.763 140.747 137.763ZM140.747 136.572C141.233 136.572 141.69 136.458 142.116 136.229C142.543 136.001 142.886 135.658 143.144 135.202C143.412 134.745 143.546 134.189 143.546 133.534C143.546 132.879 143.417 132.323 143.159 131.867C142.901 131.41 142.563 131.072 142.146 130.854C141.729 130.626 141.278 130.512 140.791 130.512C140.295 130.512 139.838 130.626 139.421 130.854C139.014 131.072 138.687 131.41 138.439 131.867C138.191 132.323 138.066 132.879 138.066 133.534C138.066 134.199 138.186 134.76 138.424 135.217C138.672 135.673 139 136.016 139.407 136.244C139.814 136.463 140.26 136.572 140.747 136.572ZM157.582 129.469L155.036 137.629H153.636L151.671 131.152L149.705 137.629H148.305L145.744 129.469H147.129L149.005 136.319L151.03 129.469H152.415L154.395 136.333L156.242 129.469H157.582ZM160.579 130.586V135.395C160.579 135.792 160.664 136.075 160.832 136.244C161.001 136.403 161.294 136.482 161.711 136.482H162.708V137.629H161.488C160.733 137.629 160.167 137.455 159.79 137.108C159.413 136.76 159.224 136.19 159.224 135.395V130.586H158.167V129.469H159.224V127.415H160.579V129.469H162.708V130.586H160.579ZM168.4 129.32C169.016 129.32 169.572 129.454 170.068 129.722C170.564 129.981 170.951 130.373 171.229 130.899C171.517 131.425 171.661 132.065 171.661 132.82V137.629H170.321V133.013C170.321 132.199 170.117 131.579 169.711 131.152C169.304 130.715 168.748 130.497 168.043 130.497C167.328 130.497 166.757 130.72 166.331 131.167C165.914 131.613 165.705 132.264 165.705 133.117V137.629H164.35V126.61H165.705V130.631C165.973 130.214 166.34 129.891 166.807 129.663C167.283 129.435 167.815 129.32 168.4 129.32Z" fill="#575757"/>
    <path d="M261.566 116.102L261.926 115.45L261.758 115.357H261.566V116.102ZM30.481 116.102L34.7793 120.4L39.0776 116.102L34.7793 111.803L30.481 116.102ZM278.309 125.35L278.669 124.698L261.926 115.45L261.566 116.102L261.206 116.753L277.949 126.001L278.309 125.35ZM261.566 116.102V115.357H34.7793V116.102V116.846H261.566V116.102Z" fill="#575757"/>
    <path d="M38.1192 96.0891C40.311 94.2626 42.0576 92.7443 43.3589 91.5343C44.6603 90.3014 45.7448 89.0229 46.6124 87.6987C47.4799 86.3745 47.9137 85.0731 47.9137 83.7946C47.9137 82.6302 47.6397 81.7169 47.0918 81.0548C46.5439 80.3927 45.6991 80.0617 44.5576 80.0617C43.416 80.0617 42.537 80.4498 41.9206 81.2261C41.3041 81.9795 40.9845 83.0183 40.9617 84.3425H36.3042C36.3955 81.6028 37.206 79.5252 38.7357 78.1096C40.2882 76.6941 42.2516 75.9864 44.6261 75.9864C47.2288 75.9864 49.2265 76.6827 50.6192 78.0754C52.0119 79.4453 52.7082 81.2603 52.7082 83.5206C52.7082 85.3014 52.2288 87.0023 51.2699 88.6233C50.311 90.2443 49.2151 91.6598 47.9822 92.8699C46.7493 94.0571 45.1398 95.4954 43.1535 97.1849H53.2562V101.158H36.3384V97.5959L38.1192 96.0891ZM56.0719 96.637V92.8699L67.2705 76.8425H72.8527V92.4589H75.8664V96.637H72.8527V101.5H68.0582V96.637H56.0719ZM68.3664 81.9795L61.3458 92.4589H68.3664V81.9795ZM81.5901 101.74C80.7225 101.74 80.0033 101.477 79.4325 100.952C78.8846 100.404 78.6106 99.7306 78.6106 98.9315C78.6106 98.1324 78.8846 97.4703 79.4325 96.9452C80.0033 96.3973 80.7225 96.1233 81.5901 96.1233C82.4348 96.1233 83.1312 96.3973 83.6791 96.9452C84.2271 97.4703 84.501 98.1324 84.501 98.9315C84.501 99.7306 84.2271 100.404 83.6791 100.952C83.1312 101.477 82.4348 101.74 81.5901 101.74ZM87.6094 96.637V92.8699L98.808 76.8425H104.39V92.4589H107.404V96.637H104.39V101.5H99.5957V96.637H87.6094ZM99.9039 81.9795L92.8834 92.4589H99.9039V81.9795ZM109.908 82.6644C109.908 80.9293 110.411 79.5708 111.415 78.5891C112.443 77.6074 113.755 77.1165 115.354 77.1165C116.952 77.1165 118.253 77.6074 119.258 78.5891C120.285 79.5708 120.799 80.9293 120.799 82.6644C120.799 84.4224 120.285 85.7923 119.258 86.774C118.253 87.7557 116.952 88.2466 115.354 88.2466C113.755 88.2466 112.443 87.7557 111.415 86.774C110.411 85.7923 109.908 84.4224 109.908 82.6644ZM131.895 77.5274L118.436 101.5H113.778L127.203 77.5274H131.895ZM115.319 79.9932C114.064 79.9932 113.436 80.8836 113.436 82.6644C113.436 84.4681 114.064 85.3699 115.319 85.3699C115.936 85.3699 116.415 85.153 116.758 84.7192C117.1 84.2626 117.271 83.5777 117.271 82.6644C117.271 80.8836 116.621 79.9932 115.319 79.9932ZM124.943 96.3288C124.943 94.5708 125.445 93.2123 126.45 92.2534C127.477 91.2717 128.79 90.7808 130.388 90.7808C131.986 90.7808 133.276 91.2717 134.258 92.2534C135.262 93.2123 135.765 94.5708 135.765 96.3288C135.765 98.0868 135.262 99.4566 134.258 100.438C133.276 101.42 131.986 101.911 130.388 101.911C128.767 101.911 127.454 101.42 126.45 100.438C125.445 99.4566 124.943 98.0868 124.943 96.3288ZM130.354 93.6576C129.052 93.6576 128.402 94.548 128.402 96.3288C128.402 98.1324 129.052 99.0343 130.354 99.0343C131.632 99.0343 132.271 98.1324 132.271 96.3288C132.271 94.548 131.632 93.6576 130.354 93.6576Z" fill="#575757"/>
    <path d="M7.50148 338.519H11.1346V339.621H6.14651V329.243H7.50148V338.519ZM13.2734 330.136C13.0153 330.136 12.7969 330.047 12.6182 329.868C12.4395 329.69 12.3502 329.471 12.3502 329.213C12.3502 328.955 12.4395 328.737 12.6182 328.558C12.7969 328.379 13.0153 328.29 13.2734 328.29C13.5215 328.29 13.73 328.379 13.8987 328.558C14.0774 328.737 14.1668 328.955 14.1668 329.213C14.1668 329.471 14.0774 329.69 13.8987 329.868C13.73 330.047 13.5215 330.136 13.2734 330.136ZM13.9285 331.461V339.621H12.5735V331.461H13.9285ZM15.7316 335.512C15.7316 334.678 15.9003 333.948 16.2378 333.323C16.5753 332.687 17.0369 332.196 17.6226 331.849C18.2182 331.501 18.8832 331.327 19.6178 331.327C20.3226 331.327 20.938 331.486 21.4641 331.804C22.0002 332.112 22.3923 332.494 22.6404 332.95V331.461H24.0103V343.492H22.6404V338.117C22.3823 338.574 21.9853 338.961 21.4493 339.279C20.9132 339.596 20.2879 339.755 19.5731 339.755C18.8584 339.755 18.2082 339.576 17.6226 339.219C17.0369 338.862 16.5753 338.36 16.2378 337.715C15.9003 337.07 15.7316 336.335 15.7316 335.512ZM22.6404 335.526C22.6404 334.911 22.5164 334.375 22.2682 333.918C22.02 333.462 21.6825 333.114 21.2557 332.876C20.8388 332.628 20.3772 332.504 19.8709 332.504C19.3647 332.504 18.9031 332.623 18.4862 332.861C18.0693 333.099 17.7367 333.447 17.4886 333.903C17.2404 334.36 17.1163 334.896 17.1163 335.512C17.1163 336.137 17.2404 336.683 17.4886 337.149C17.7367 337.606 18.0693 337.958 18.4862 338.207C18.9031 338.445 19.3647 338.564 19.8709 338.564C20.3772 338.564 20.8388 338.445 21.2557 338.207C21.6825 337.958 22.02 337.606 22.2682 337.149C22.5164 336.683 22.6404 336.142 22.6404 335.526ZM33.5365 331.461V339.621H32.1815V338.415C31.9234 338.832 31.5611 339.16 31.0946 339.398C30.638 339.626 30.1317 339.74 29.5758 339.74C28.9405 339.74 28.3697 339.611 27.8635 339.353C27.3572 339.085 26.9552 338.688 26.6574 338.162C26.3696 337.636 26.2256 336.996 26.2256 336.241V331.461H27.5657V336.062C27.5657 336.866 27.7692 337.487 28.1762 337.924C28.5832 338.35 29.1391 338.564 29.8438 338.564C30.5685 338.564 31.1392 338.341 31.5562 337.894C31.9731 337.447 32.1815 336.797 32.1815 335.943V331.461H33.5365ZM36.5241 330.136C36.266 330.136 36.0476 330.047 35.869 329.868C35.6903 329.69 35.6009 329.471 35.6009 329.213C35.6009 328.955 35.6903 328.737 35.869 328.558C36.0476 328.379 36.266 328.29 36.5241 328.29C36.7723 328.29 36.9807 328.379 37.1495 328.558C37.3282 328.737 37.4175 328.955 37.4175 329.213C37.4175 329.471 37.3282 329.69 37.1495 329.868C36.9807 330.047 36.7723 330.136 36.5241 330.136ZM37.1793 331.461V339.621H35.8243V331.461H37.1793ZM38.9823 335.512C38.9823 334.678 39.1511 333.948 39.4886 333.323C39.8261 332.687 40.2877 332.196 40.8733 331.849C41.4689 331.501 42.134 331.327 42.8686 331.327C43.5039 331.327 44.0945 331.476 44.6404 331.774C45.1864 332.062 45.6033 332.444 45.8912 332.921V328.603H47.261V339.621H45.8912V338.087C45.6232 338.574 45.2261 338.976 44.7 339.294C44.1739 339.601 43.5585 339.755 42.8537 339.755C42.129 339.755 41.4689 339.576 40.8733 339.219C40.2877 338.862 39.8261 338.36 39.4886 337.715C39.1511 337.07 38.9823 336.335 38.9823 335.512ZM45.8912 335.526C45.8912 334.911 45.7671 334.375 45.5189 333.918C45.2708 333.462 44.9333 333.114 44.5064 332.876C44.0895 332.628 43.6279 332.504 43.1217 332.504C42.6154 332.504 42.1538 332.623 41.7369 332.861C41.32 333.099 40.9875 333.447 40.7393 333.903C40.4912 334.36 40.3671 334.896 40.3671 335.512C40.3671 336.137 40.4912 336.683 40.7393 337.149C40.9875 337.606 41.32 337.958 41.7369 338.207C42.1538 338.445 42.6154 338.564 43.1217 338.564C43.6279 338.564 44.0895 338.445 44.5064 338.207C44.9333 337.958 45.2708 337.606 45.5189 337.149C45.7671 336.683 45.8912 336.142 45.8912 335.526ZM50.2506 330.136C49.9925 330.136 49.7742 330.047 49.5955 329.868C49.4168 329.69 49.3275 329.471 49.3275 329.213C49.3275 328.955 49.4168 328.737 49.5955 328.558C49.7742 328.379 49.9925 328.29 50.2506 328.29C50.4988 328.29 50.7073 328.379 50.876 328.558C51.0547 328.737 51.144 328.955 51.144 329.213C51.144 329.471 51.0547 329.69 50.876 329.868C50.7073 330.047 50.4988 330.136 50.2506 330.136ZM50.9058 331.461V339.621H49.5508V331.461H50.9058ZM54.8679 332.578V337.388C54.8679 337.785 54.9522 338.068 55.121 338.236C55.2897 338.395 55.5826 338.475 55.9995 338.475H56.9971V339.621H55.7761C55.0217 339.621 54.4559 339.447 54.0787 339.1C53.7015 338.753 53.5129 338.182 53.5129 337.388V332.578H52.4557V331.461H53.5129V329.407H54.8679V331.461H56.9971V332.578H54.8679ZM65.6668 331.461L60.7532 343.463H59.3535L60.9616 339.532L57.671 331.461H59.1749L61.7359 338.073L64.2672 331.461H65.6668Z" fill="#575757"/>
    <path d="M273.9 316.177V316.921H274.245L274.468 316.659L273.9 316.177ZM0.70169 316.177L5 320.475L9.29831 316.177L5 311.878L0.70169 316.177ZM287.036 300.723L286.469 300.24L273.333 315.695L273.9 316.177L274.468 316.659L287.604 301.205L287.036 300.723ZM273.9 316.177V315.432H5V316.177V316.921H273.9V316.177Z" fill="#0F0F0F"/>
    <path d="M30.9528 491.444C30.9528 490.432 31.1811 489.523 31.6377 488.719C32.0943 487.905 32.7147 487.27 33.4989 486.813C34.293 486.357 35.1715 486.128 36.1344 486.128C37.266 486.128 38.2537 486.401 39.0975 486.947C39.9412 487.493 40.5567 488.268 40.9438 489.27H39.3208C39.033 488.645 38.616 488.163 38.0701 487.826C37.534 487.488 36.8888 487.32 36.1344 487.32C35.4098 487.32 34.7596 487.488 34.1838 487.826C33.6081 488.163 33.1564 488.645 32.8289 489.27C32.5013 489.886 32.3375 490.61 32.3375 491.444C32.3375 492.268 32.5013 492.993 32.8289 493.618C33.1564 494.233 33.6081 494.71 34.1838 495.047C34.7596 495.385 35.4098 495.554 36.1344 495.554C36.8888 495.554 37.534 495.39 38.0701 495.062C38.616 494.725 39.033 494.243 39.3208 493.618H40.9438C40.5567 494.611 39.9412 495.38 39.0975 495.926C38.2537 496.462 37.266 496.73 36.1344 496.73C35.1715 496.73 34.293 496.507 33.4989 496.06C32.7147 495.603 32.0943 494.973 31.6377 494.169C31.1811 493.365 30.9528 492.457 30.9528 491.444ZM46.5194 496.775C45.7551 496.775 45.0602 496.601 44.4349 496.253C43.8194 495.906 43.333 495.415 42.9757 494.779C42.6283 494.134 42.4545 493.39 42.4545 492.546C42.4545 491.712 42.6332 490.978 42.9906 490.342C43.3579 489.697 43.8542 489.206 44.4795 488.868C45.1049 488.521 45.8047 488.347 46.579 488.347C47.3533 488.347 48.0531 488.521 48.6785 488.868C49.3038 489.206 49.7952 489.692 50.1526 490.327C50.5198 490.963 50.7035 491.702 50.7035 492.546C50.7035 493.39 50.5149 494.134 50.1377 494.779C49.7704 495.415 49.2691 495.906 48.6338 496.253C47.9985 496.601 47.2937 496.775 46.5194 496.775ZM46.5194 495.583C47.0058 495.583 47.4625 495.469 47.8893 495.241C48.3161 495.013 48.6586 494.67 48.9167 494.214C49.1847 493.757 49.3187 493.201 49.3187 492.546C49.3187 491.891 49.1897 491.335 48.9316 490.878C48.6735 490.422 48.336 490.084 47.9191 489.866C47.5022 489.637 47.0505 489.523 46.5641 489.523C46.0678 489.523 45.6112 489.637 45.1943 489.866C44.7873 490.084 44.4597 490.422 44.2115 490.878C43.9634 491.335 43.8393 491.891 43.8393 492.546C43.8393 493.211 43.9584 493.772 44.1966 494.228C44.4448 494.685 44.7724 495.028 45.1794 495.256C45.5864 495.474 46.033 495.583 46.5194 495.583ZM62.2974 488.332C62.9327 488.332 63.4985 488.466 63.9948 488.734C64.4911 488.992 64.8832 489.384 65.1711 489.91C65.459 490.437 65.6029 491.077 65.6029 491.831V496.641H64.2628V492.025C64.2628 491.211 64.0593 490.59 63.6524 490.164C63.2553 489.727 62.7143 489.508 62.0294 489.508C61.3246 489.508 60.7637 489.737 60.3468 490.193C59.9299 490.64 59.7215 491.29 59.7215 492.144V496.641H58.3814V492.025C58.3814 491.211 58.1779 490.59 57.7709 490.164C57.3738 489.727 56.8328 489.508 56.1479 489.508C55.4431 489.508 54.8823 489.737 54.4654 490.193C54.0484 490.64 53.84 491.29 53.84 492.144V496.641H52.485V488.481H53.84V489.657C54.108 489.23 54.4654 488.903 54.9121 488.675C55.3687 488.446 55.87 488.332 56.4159 488.332C57.1009 488.332 57.7064 488.486 58.2325 488.794C58.7586 489.101 59.1507 489.553 59.4088 490.149C59.6371 489.573 60.0143 489.126 60.5404 488.809C61.0665 488.491 61.6522 488.332 62.2974 488.332ZM77.6379 488.332C78.2732 488.332 78.839 488.466 79.3354 488.734C79.8317 488.992 80.2238 489.384 80.5117 489.91C80.7995 490.437 80.9435 491.077 80.9435 491.831V496.641H79.6034V492.025C79.6034 491.211 79.3999 490.59 78.9929 490.164C78.5958 489.727 78.0548 489.508 77.3699 489.508C76.6651 489.508 76.1043 489.737 75.6874 490.193C75.2705 490.64 75.062 491.29 75.062 492.144V496.641H73.7219V492.025C73.7219 491.211 73.5184 490.59 73.1114 490.164C72.7144 489.727 72.1734 489.508 71.4885 489.508C70.7837 489.508 70.2228 489.737 69.8059 490.193C69.389 490.64 69.1805 491.29 69.1805 492.144V496.641H67.8256V488.481H69.1805V489.657C69.4486 489.23 69.8059 488.903 70.2526 488.675C70.7092 488.446 71.2105 488.332 71.7565 488.332C72.4414 488.332 73.0469 488.486 73.573 488.794C74.0991 489.101 74.4912 489.553 74.7493 490.149C74.9776 489.573 75.3548 489.126 75.8809 488.809C76.407 488.491 76.9927 488.332 77.6379 488.332ZM90.4025 488.481V496.641H89.0476V495.435C88.7895 495.851 88.4272 496.179 87.9606 496.417C87.504 496.646 86.9978 496.76 86.4419 496.76C85.8066 496.76 85.2358 496.631 84.7295 496.373C84.2233 496.105 83.8213 495.708 83.5235 495.181C83.2356 494.655 83.0917 494.015 83.0917 493.261V488.481H84.4317V493.082C84.4317 493.886 84.6352 494.506 85.0422 494.943C85.4492 495.37 86.0051 495.583 86.7099 495.583C87.4345 495.583 88.0053 495.36 88.4222 494.913C88.8391 494.467 89.0476 493.817 89.0476 492.963V488.481H90.4025ZM96.6659 488.332C97.6586 488.332 98.4626 488.635 99.0781 489.24C99.6935 489.836 100.001 490.7 100.001 491.831V496.641H98.6611V492.025C98.6611 491.211 98.4577 490.59 98.0507 490.164C97.6437 489.727 97.0878 489.508 96.383 489.508C95.6683 489.508 95.0975 489.732 94.6707 490.178C94.2538 490.625 94.0453 491.275 94.0453 492.129V496.641H92.6903V488.481H94.0453V489.642C94.3133 489.226 94.6756 488.903 95.1323 488.675C95.5988 488.446 96.11 488.332 96.6659 488.332ZM102.914 487.156C102.656 487.156 102.438 487.066 102.259 486.888C102.081 486.709 101.991 486.491 101.991 486.233C101.991 485.975 102.081 485.756 102.259 485.578C102.438 485.399 102.656 485.309 102.914 485.309C103.163 485.309 103.371 485.399 103.54 485.578C103.718 485.756 103.808 485.975 103.808 486.233C103.808 486.491 103.718 486.709 103.54 486.888C103.371 487.066 103.163 487.156 102.914 487.156ZM103.57 488.481V496.641H102.215V488.481H103.57ZM107.532 489.598V494.407C107.532 494.804 107.616 495.087 107.785 495.256C107.953 495.415 108.246 495.494 108.663 495.494H109.661V496.641H108.44C107.685 496.641 107.12 496.467 106.742 496.119C106.365 495.772 106.177 495.201 106.177 494.407V489.598H105.119V488.481H106.177V486.426H107.532V488.481H109.661V489.598H107.532ZM118.331 488.481L113.417 500.482H112.017L113.625 496.551L110.335 488.481H111.839L114.4 495.092L116.931 488.481H118.331ZM129.127 496.641L126.655 492.397H125.017V496.641H123.662V486.262H127.012C127.797 486.262 128.457 486.396 128.993 486.664C129.539 486.932 129.946 487.295 130.214 487.751C130.482 488.208 130.616 488.729 130.616 489.315C130.616 490.03 130.407 490.66 129.99 491.206C129.583 491.752 128.968 492.114 128.144 492.293L130.75 496.641H129.127ZM125.017 491.31H127.012C127.747 491.31 128.298 491.131 128.665 490.774C129.033 490.407 129.216 489.92 129.216 489.315C129.216 488.699 129.033 488.223 128.665 487.885C128.308 487.548 127.757 487.379 127.012 487.379H125.017V491.31ZM140.166 492.248C140.166 492.506 140.151 492.779 140.121 493.067H133.6C133.649 493.871 133.922 494.501 134.419 494.958C134.925 495.405 135.535 495.628 136.25 495.628C136.836 495.628 137.322 495.494 137.709 495.226C138.106 494.948 138.384 494.581 138.543 494.124H140.002C139.784 494.908 139.347 495.549 138.692 496.045C138.037 496.531 137.223 496.775 136.25 496.775C135.476 496.775 134.781 496.601 134.165 496.253C133.56 495.906 133.083 495.415 132.736 494.779C132.389 494.134 132.215 493.39 132.215 492.546C132.215 491.702 132.384 490.963 132.721 490.327C133.059 489.692 133.53 489.206 134.136 488.868C134.751 488.521 135.456 488.347 136.25 488.347C137.024 488.347 137.709 488.516 138.305 488.853C138.9 489.191 139.357 489.657 139.675 490.253C140.002 490.839 140.166 491.504 140.166 492.248ZM138.766 491.965C138.766 491.449 138.652 491.007 138.424 490.64C138.196 490.263 137.883 489.98 137.486 489.791C137.099 489.593 136.667 489.494 136.19 489.494C135.506 489.494 134.92 489.712 134.433 490.149C133.957 490.585 133.684 491.191 133.615 491.965H138.766ZM152.824 488.481L150.278 496.641H148.878L146.913 490.164L144.947 496.641H143.548L140.987 488.481H142.372L144.248 495.33L146.273 488.481H147.657L149.638 495.345L151.484 488.481H152.824ZM153.663 492.531C153.663 491.697 153.831 490.968 154.169 490.342C154.506 489.707 154.968 489.216 155.554 488.868C156.149 488.521 156.809 488.347 157.534 488.347C158.249 488.347 158.869 488.501 159.395 488.809C159.921 489.116 160.313 489.503 160.571 489.97V488.481H161.941V496.641H160.571V495.122C160.303 495.598 159.901 495.995 159.365 496.313C158.839 496.621 158.224 496.775 157.519 496.775C156.794 496.775 156.139 496.596 155.554 496.239C154.968 495.881 154.506 495.38 154.169 494.735C153.831 494.09 153.663 493.355 153.663 492.531ZM160.571 492.546C160.571 491.93 160.447 491.394 160.199 490.938C159.951 490.481 159.614 490.134 159.187 489.896C158.77 489.647 158.308 489.523 157.802 489.523C157.296 489.523 156.834 489.642 156.417 489.881C156 490.119 155.668 490.466 155.42 490.923C155.171 491.38 155.047 491.916 155.047 492.531C155.047 493.156 155.171 493.702 155.42 494.169C155.668 494.626 156 494.978 156.417 495.226C156.834 495.464 157.296 495.583 157.802 495.583C158.308 495.583 158.77 495.464 159.187 495.226C159.614 494.978 159.951 494.626 160.199 494.169C160.447 493.702 160.571 493.161 160.571 492.546ZM165.586 489.806C165.824 489.34 166.162 488.977 166.599 488.719C167.045 488.461 167.586 488.332 168.222 488.332V489.732H167.864C166.345 489.732 165.586 490.556 165.586 492.203V496.641H164.231V488.481H165.586V489.806ZM169.279 492.531C169.279 491.697 169.448 490.968 169.786 490.342C170.123 489.707 170.585 489.216 171.17 488.868C171.766 488.521 172.431 488.347 173.166 488.347C173.801 488.347 174.392 488.496 174.938 488.794C175.484 489.082 175.9 489.464 176.188 489.94V485.622H177.558V496.641H176.188V495.107C175.92 495.593 175.523 495.995 174.997 496.313C174.471 496.621 173.856 496.775 173.151 496.775C172.426 496.775 171.766 496.596 171.17 496.239C170.585 495.881 170.123 495.38 169.786 494.735C169.448 494.09 169.279 493.355 169.279 492.531ZM176.188 492.546C176.188 491.93 176.064 491.394 175.816 490.938C175.568 490.481 175.23 490.134 174.804 489.896C174.387 489.647 173.925 489.523 173.419 489.523C172.913 489.523 172.451 489.642 172.034 489.881C171.617 490.119 171.285 490.466 171.036 490.923C170.788 491.38 170.664 491.916 170.664 492.531C170.664 493.156 170.788 493.702 171.036 494.169C171.285 494.626 171.617 494.978 172.034 495.226C172.451 495.464 172.913 495.583 173.419 495.583C173.925 495.583 174.387 495.464 174.804 495.226C175.23 494.978 175.568 494.626 175.816 494.169C176.064 493.702 176.188 493.161 176.188 492.546ZM182.737 496.775C182.111 496.775 181.55 496.67 181.054 496.462C180.558 496.244 180.166 495.946 179.878 495.569C179.59 495.181 179.431 494.74 179.401 494.243H180.801C180.841 494.65 181.029 494.983 181.367 495.241C181.714 495.499 182.166 495.628 182.722 495.628C183.238 495.628 183.645 495.514 183.943 495.286C184.24 495.057 184.389 494.769 184.389 494.422C184.389 494.065 184.23 493.802 183.913 493.633C183.595 493.454 183.104 493.28 182.439 493.112C181.833 492.953 181.337 492.794 180.95 492.635C180.573 492.467 180.245 492.223 179.967 491.906C179.699 491.578 179.565 491.151 179.565 490.625C179.565 490.208 179.689 489.826 179.937 489.479C180.185 489.131 180.538 488.858 180.994 488.66C181.451 488.451 181.972 488.347 182.558 488.347C183.461 488.347 184.191 488.575 184.747 489.032C185.303 489.489 185.6 490.114 185.64 490.908H184.285C184.255 490.481 184.082 490.139 183.764 489.881C183.456 489.623 183.039 489.494 182.513 489.494C182.027 489.494 181.64 489.598 181.352 489.806C181.064 490.015 180.92 490.288 180.92 490.625C180.92 490.893 181.004 491.117 181.173 491.295C181.352 491.464 181.57 491.603 181.828 491.712C182.096 491.811 182.464 491.926 182.93 492.055C183.516 492.213 183.992 492.372 184.36 492.531C184.727 492.68 185.04 492.908 185.298 493.216C185.566 493.524 185.705 493.926 185.715 494.422C185.715 494.869 185.59 495.271 185.342 495.628C185.094 495.985 184.742 496.268 184.285 496.477C183.838 496.675 183.322 496.775 182.737 496.775Z" fill="#575757"/>
    <path d="M299.213 473.196V473.94H299.657L299.868 473.55L299.213 473.196ZM26.0142 473.196L30.3125 477.494L34.6108 473.196L30.3125 468.897L26.0142 473.196ZM324.029 427.285L323.374 426.931L298.558 472.842L299.213 473.196L299.868 473.55L324.684 427.639L324.029 427.285ZM299.213 473.196V472.451H30.3125V473.196V473.94H299.213V473.196Z" fill="#032A28"/>
    <path d="M31.5454 438.308V433.89H39.7988V458.855H34.8673V438.308H31.5454ZM61.316 438.034H50.2202V443.89C50.6996 443.296 51.3845 442.817 52.2749 442.451C53.1654 442.063 54.1128 441.869 55.1174 441.869C56.9439 441.869 58.4393 442.269 59.6037 443.068C60.7681 443.867 61.6128 444.894 62.1379 446.15C62.663 447.383 62.9256 448.707 62.9256 450.123C62.9256 452.748 62.1722 454.86 60.6653 456.458C59.1813 458.056 57.058 458.855 54.2955 458.855C51.6928 458.855 49.6151 458.205 48.0626 456.903C46.5101 455.602 45.6311 453.901 45.4256 451.801H50.0832C50.2886 452.714 50.7453 453.445 51.453 453.992C52.1836 454.54 53.1083 454.814 54.227 454.814C55.574 454.814 56.59 454.392 57.2749 453.547C57.9599 452.703 58.3023 451.584 58.3023 450.191C58.3023 448.776 57.9484 447.703 57.2407 446.972C56.5558 446.219 55.5398 445.842 54.1927 445.842C53.2338 445.842 52.4348 446.082 51.7955 446.561C51.1562 447.04 50.6996 447.68 50.4256 448.479H45.8366V433.821H61.316V438.034ZM69.246 459.095C68.3784 459.095 67.6592 458.833 67.0884 458.308C66.5405 457.76 66.2665 457.086 66.2665 456.287C66.2665 455.488 66.5405 454.826 67.0884 454.301C67.6592 453.753 68.3784 453.479 69.246 453.479C70.0907 453.479 70.7871 453.753 71.335 454.301C71.8829 454.826 72.1569 455.488 72.1569 456.287C72.1569 457.086 71.8829 457.76 71.335 458.308C70.7871 458.833 70.0907 459.095 69.246 459.095ZM79.6489 445.636C77.3658 444.449 76.2242 442.611 76.2242 440.123C76.2242 438.89 76.5324 437.771 77.1489 436.766C77.7881 435.739 78.7356 434.929 79.9913 434.335C81.2699 433.719 82.8224 433.41 84.6489 433.41C86.4753 433.41 88.0164 433.719 89.2721 434.335C90.5507 434.929 91.4982 435.739 92.1146 436.766C92.7539 437.771 93.0735 438.89 93.0735 440.123C93.0735 441.378 92.7653 442.486 92.1488 443.445C91.5324 444.381 90.7105 445.111 89.6831 445.636C90.9388 446.184 91.9205 446.983 92.6283 448.034C93.3361 449.084 93.6899 450.328 93.6899 451.766C93.6899 453.319 93.2904 454.677 92.4913 455.842C91.7151 456.983 90.642 457.862 89.2721 458.479C87.9023 459.095 86.3612 459.403 84.6489 459.403C82.9365 459.403 81.3954 459.095 80.0256 458.479C78.6786 457.862 77.6055 456.983 76.8064 455.842C76.0302 454.677 75.642 453.319 75.642 451.766C75.642 450.328 75.9959 449.084 76.7037 448.034C77.4114 446.961 78.3932 446.161 79.6489 445.636ZM88.416 440.808C88.416 439.689 88.0735 438.821 87.3886 438.205C86.7265 437.588 85.8132 437.28 84.6489 437.28C83.5073 437.28 82.5941 437.588 81.9091 438.205C81.247 438.821 80.916 439.7 80.916 440.842C80.916 441.869 81.2585 442.691 81.9434 443.308C82.6511 443.924 83.553 444.232 84.6489 444.232C85.7447 444.232 86.6466 443.924 87.3543 443.308C88.0621 442.668 88.416 441.835 88.416 440.808ZM84.6489 447.725C83.3475 447.725 82.2858 448.056 81.4639 448.719C80.6648 449.381 80.2653 450.328 80.2653 451.561C80.2653 452.703 80.6534 453.639 81.4297 454.369C82.2288 455.077 83.3018 455.431 84.6489 455.431C85.9959 455.431 87.0575 455.066 87.8338 454.335C88.61 453.604 88.9982 452.68 88.9982 451.561C88.9982 450.351 88.5986 449.415 87.7995 448.753C87.0005 448.068 85.9502 447.725 84.6489 447.725ZM96.9289 440.02C96.9289 438.285 97.4312 436.926 98.4357 435.945C99.4631 434.963 100.776 434.472 102.374 434.472C103.972 434.472 105.274 434.963 106.278 435.945C107.306 436.926 107.819 438.285 107.819 440.02C107.819 441.778 107.306 443.148 106.278 444.129C105.274 445.111 103.972 445.602 102.374 445.602C100.776 445.602 99.4631 445.111 98.4357 444.129C97.4312 443.148 96.9289 441.778 96.9289 440.02ZM118.915 434.883L105.456 458.855H100.799L114.223 434.883H118.915ZM102.34 437.349C101.084 437.349 100.456 438.239 100.456 440.02C100.456 441.824 101.084 442.725 102.34 442.725C102.956 442.725 103.436 442.508 103.778 442.075C104.121 441.618 104.292 440.933 104.292 440.02C104.292 438.239 103.641 437.349 102.34 437.349ZM111.963 453.684C111.963 451.926 112.465 450.568 113.47 449.609C114.497 448.627 115.81 448.136 117.408 448.136C119.006 448.136 120.296 448.627 121.278 449.609C122.283 450.568 122.785 451.926 122.785 453.684C122.785 455.442 122.283 456.812 121.278 457.794C120.296 458.776 119.006 459.266 117.408 459.266C115.787 459.266 114.475 458.776 113.47 457.794C112.465 456.812 111.963 455.442 111.963 453.684ZM117.374 451.013C116.073 451.013 115.422 451.903 115.422 453.684C115.422 455.488 116.073 456.39 117.374 456.39C118.653 456.39 119.292 455.488 119.292 453.684C119.292 451.903 118.653 451.013 117.374 451.013Z" fill="#575757"/>
    <path d="M10.9931 288.879C8.71004 287.691 7.56849 285.853 7.56849 283.365C7.56849 282.132 7.87671 281.013 8.49314 280.009C9.13241 278.981 10.0799 278.171 11.3356 277.577C12.6141 276.961 14.1666 276.653 15.9931 276.653C17.8196 276.653 19.3607 276.961 20.6164 277.577C21.8949 278.171 22.8424 278.981 23.4589 280.009C24.0981 281.013 24.4178 282.132 24.4178 283.365C24.4178 284.621 24.1095 285.728 23.4931 286.687C22.8767 287.623 22.0548 288.353 21.0274 288.879C22.2831 289.426 23.2648 290.226 23.9726 291.276C24.6803 292.326 25.0342 293.57 25.0342 295.009C25.0342 296.561 24.6347 297.92 23.8356 299.084C23.0593 300.226 21.9863 301.105 20.6164 301.721C19.2465 302.337 17.7055 302.646 15.9931 302.646C14.2808 302.646 12.7397 302.337 11.3698 301.721C10.0228 301.105 8.94976 300.226 8.15068 299.084C7.37442 297.92 6.9863 296.561 6.9863 295.009C6.9863 293.57 7.34018 292.326 8.04794 291.276C8.7557 290.203 9.73743 289.404 10.9931 288.879ZM19.7602 284.05C19.7602 282.931 19.4178 282.063 18.7328 281.447C18.0707 280.831 17.1575 280.522 15.9931 280.522C14.8516 280.522 13.9383 280.831 13.2534 281.447C12.5913 282.063 12.2603 282.942 12.2603 284.084C12.2603 285.111 12.6027 285.933 13.2877 286.55C13.9954 287.166 14.8972 287.474 15.9931 287.474C17.089 287.474 17.9908 287.166 18.6986 286.55C19.4064 285.91 19.7602 285.077 19.7602 284.05ZM15.9931 290.968C14.6918 290.968 13.6301 291.299 12.8082 291.961C12.0091 292.623 11.6096 293.57 11.6096 294.803C11.6096 295.945 11.9977 296.881 12.774 297.611C13.573 298.319 14.6461 298.673 15.9931 298.673C17.3402 298.673 18.4018 298.308 19.1781 297.577C19.9543 296.847 20.3424 295.922 20.3424 294.803C20.3424 293.593 19.9429 292.657 19.1438 291.995C18.3447 291.31 17.2945 290.968 15.9931 290.968ZM31.4923 302.337C30.6248 302.337 29.9056 302.075 29.3348 301.55C28.7869 301.002 28.5129 300.328 28.5129 299.529C28.5129 298.73 28.7869 298.068 29.3348 297.543C29.9056 296.995 30.6248 296.721 31.4923 296.721C32.3371 296.721 33.0334 296.995 33.5814 297.543C34.1293 298.068 34.4033 298.73 34.4033 299.529C34.4033 300.328 34.1293 301.002 33.5814 301.55C33.0334 302.075 32.3371 302.337 31.4923 302.337ZM37.7172 289.289C37.7172 285.34 38.4249 282.246 39.8405 280.009C41.2788 277.771 43.6532 276.653 46.9637 276.653C50.2742 276.653 52.6372 277.771 54.0528 280.009C55.4911 282.246 56.2103 285.34 56.2103 289.289C56.2103 293.262 55.4911 296.378 54.0528 298.639C52.6372 300.899 50.2742 302.029 46.9637 302.029C43.6532 302.029 41.2788 300.899 39.8405 298.639C38.4249 296.378 37.7172 293.262 37.7172 289.289ZM51.4843 289.289C51.4843 287.6 51.3701 286.184 51.1418 285.043C50.9363 283.879 50.5025 282.931 49.8404 282.2C49.2012 281.47 48.2423 281.105 46.9637 281.105C45.6852 281.105 44.7149 281.47 44.0528 282.2C43.4135 282.931 42.9797 283.879 42.7514 285.043C42.5459 286.184 42.4432 287.6 42.4432 289.289C42.4432 291.025 42.5459 292.486 42.7514 293.673C42.9569 294.837 43.3907 295.785 44.0528 296.515C44.7149 297.223 45.6852 297.577 46.9637 297.577C48.2423 297.577 49.2126 297.223 49.8747 296.515C50.5368 295.785 50.9706 294.837 51.1761 293.673C51.3815 292.486 51.4843 291.025 51.4843 289.289ZM59.3091 283.262C59.3091 281.527 59.8113 280.168 60.8159 279.187C61.8433 278.205 63.1561 277.714 64.7543 277.714C66.3524 277.714 67.6538 278.205 68.6584 279.187C69.6858 280.168 70.1995 281.527 70.1995 283.262C70.1995 285.02 69.6858 286.39 68.6584 287.372C67.6538 288.353 66.3524 288.844 64.7543 288.844C63.1561 288.844 61.8433 288.353 60.8159 287.372C59.8113 286.39 59.3091 285.02 59.3091 283.262ZM81.2953 278.125L67.8364 302.098H63.1789L76.6036 278.125H81.2953ZM64.72 280.591C63.4643 280.591 62.8365 281.481 62.8365 283.262C62.8365 285.066 63.4643 285.968 64.72 285.968C65.3365 285.968 65.8159 285.751 66.1584 285.317C66.5008 284.86 66.6721 284.175 66.6721 283.262C66.6721 281.481 66.0214 280.591 64.72 280.591ZM74.3433 296.926C74.3433 295.168 74.8456 293.81 75.8501 292.851C76.8775 291.869 78.1903 291.379 79.7885 291.379C81.3866 291.379 82.6766 291.869 83.6583 292.851C84.6629 293.81 85.1652 295.168 85.1652 296.926C85.1652 298.684 84.6629 300.054 83.6583 301.036C82.6766 302.018 81.3866 302.509 79.7885 302.509C78.1675 302.509 76.8547 302.018 75.8501 301.036C74.8456 300.054 74.3433 298.684 74.3433 296.926ZM79.7542 294.255C78.4529 294.255 77.8022 295.146 77.8022 296.926C77.8022 298.73 78.4529 299.632 79.7542 299.632C81.0328 299.632 81.672 298.73 81.672 296.926C81.672 295.146 81.0328 294.255 79.7542 294.255Z" fill="#575757"/>
    <path d="M688.078 575.852H683.551L682.717 578.16H681.288L685.04 567.842H686.604L690.341 578.16H688.912L688.078 575.852ZM687.691 574.75L685.814 569.509L683.938 574.75H687.691ZM692.676 568.675C692.418 568.675 692.2 568.586 692.021 568.407C691.842 568.229 691.753 568.01 691.753 567.752C691.753 567.494 691.842 567.276 692.021 567.097C692.2 566.918 692.418 566.829 692.676 566.829C692.924 566.829 693.133 566.918 693.301 567.097C693.48 567.276 693.57 567.494 693.57 567.752C693.57 568.01 693.48 568.229 693.301 568.407C693.133 568.586 692.924 568.675 692.676 568.675ZM693.331 570.001V578.16H691.976V570.001H693.331ZM696.996 571.326C697.234 570.859 697.571 570.497 698.008 570.239C698.455 569.981 698.996 569.852 699.631 569.852V571.251H699.274C697.755 571.251 696.996 572.075 696.996 573.723V578.16H695.641V570.001H696.996V571.326ZM700.689 574.051C700.689 573.217 700.858 572.487 701.195 571.862C701.533 571.226 701.994 570.735 702.58 570.388C703.176 570.04 703.841 569.867 704.575 569.867C705.21 569.867 705.801 570.015 706.347 570.313C706.893 570.601 707.31 570.983 707.598 571.46V567.142H708.968V578.16H707.598V576.627C707.33 577.113 706.933 577.515 706.407 577.833C705.88 578.14 705.265 578.294 704.56 578.294C703.836 578.294 703.176 578.115 702.58 577.758C701.994 577.401 701.533 576.899 701.195 576.254C700.858 575.609 700.689 574.874 700.689 574.051ZM707.598 574.065C707.598 573.45 707.474 572.914 707.226 572.457C706.977 572.001 706.64 571.653 706.213 571.415C705.796 571.167 705.335 571.043 704.828 571.043C704.322 571.043 703.86 571.162 703.444 571.4C703.027 571.638 702.694 571.986 702.446 572.442C702.198 572.899 702.074 573.435 702.074 574.051C702.074 574.676 702.198 575.222 702.446 575.688C702.694 576.145 703.027 576.497 703.444 576.746C703.86 576.984 704.322 577.103 704.828 577.103C705.335 577.103 705.796 576.984 706.213 576.746C706.64 576.497 706.977 576.145 707.226 575.688C707.474 575.222 707.598 574.681 707.598 574.065ZM712.612 571.326C712.851 570.859 713.188 570.497 713.625 570.239C714.072 569.981 714.613 569.852 715.248 569.852V571.251H714.891C713.372 571.251 712.612 572.075 712.612 573.723V578.16H711.257V570.001H712.612V571.326ZM720.371 578.294C719.606 578.294 718.911 578.12 718.286 577.773C717.671 577.426 717.184 576.934 716.827 576.299C716.479 575.654 716.306 574.909 716.306 574.065C716.306 573.232 716.484 572.497 716.842 571.862C717.209 571.217 717.705 570.725 718.331 570.388C718.956 570.04 719.656 569.867 720.43 569.867C721.204 569.867 721.904 570.04 722.53 570.388C723.155 570.725 723.646 571.212 724.004 571.847C724.371 572.482 724.555 573.222 724.555 574.065C724.555 574.909 724.366 575.654 723.989 576.299C723.622 576.934 723.12 577.426 722.485 577.773C721.85 578.12 721.145 578.294 720.371 578.294ZM720.371 577.103C720.857 577.103 721.314 576.989 721.741 576.761C722.167 576.532 722.51 576.19 722.768 575.733C723.036 575.277 723.17 574.721 723.17 574.065C723.17 573.41 723.041 572.854 722.783 572.398C722.525 571.941 722.187 571.604 721.77 571.385C721.353 571.157 720.902 571.043 720.415 571.043C719.919 571.043 719.462 571.157 719.045 571.385C718.638 571.604 718.311 571.941 718.063 572.398C717.815 572.854 717.69 573.41 717.69 574.065C717.69 574.731 717.81 575.291 718.048 575.748C718.296 576.205 718.624 576.547 719.031 576.775C719.438 576.994 719.884 577.103 720.371 577.103ZM727.691 571.504C727.959 571.038 728.356 570.651 728.882 570.343C729.418 570.025 730.039 569.867 730.744 569.867C731.468 569.867 732.123 570.04 732.709 570.388C733.305 570.735 733.771 571.226 734.109 571.862C734.446 572.487 734.615 573.217 734.615 574.051C734.615 574.874 734.446 575.609 734.109 576.254C733.771 576.899 733.305 577.401 732.709 577.758C732.123 578.115 731.468 578.294 730.744 578.294C730.049 578.294 729.433 578.14 728.897 577.833C728.371 577.515 727.969 577.123 727.691 576.656V582.032H726.336V570.001H727.691V571.504ZM733.23 574.051C733.23 573.435 733.106 572.899 732.858 572.442C732.61 571.986 732.272 571.638 731.845 571.4C731.429 571.162 730.967 571.043 730.461 571.043C729.964 571.043 729.503 571.167 729.076 571.415C728.659 571.653 728.322 572.006 728.063 572.472C727.815 572.929 727.691 573.46 727.691 574.065C727.691 574.681 727.815 575.222 728.063 575.688C728.322 576.145 728.659 576.497 729.076 576.746C729.503 576.984 729.964 577.103 730.461 577.103C730.967 577.103 731.429 576.984 731.845 576.746C732.272 576.497 732.61 576.145 732.858 575.688C733.106 575.222 733.23 574.676 733.23 574.051Z" fill="#575757"/>
    <path d="M437.547 556.206H436.802V556.951H437.547V556.206ZM739.641 556.206L735.343 551.908L731.044 556.206L735.343 560.505L739.641 556.206ZM437.547 445.277H436.802V556.206H437.547H438.291V445.277H437.547ZM437.547 556.206V556.951H735.343V556.206V555.462H437.547V556.206Z" fill="#055550"/>
    <path d="M659.011 538.316C661.203 536.489 662.949 534.971 664.251 533.761C665.552 532.528 666.637 531.249 667.504 529.925C668.372 528.601 668.806 527.3 668.806 526.021C668.806 524.857 668.532 523.943 667.984 523.281C667.436 522.619 666.591 522.288 665.449 522.288C664.308 522.288 663.429 522.676 662.812 523.453C662.196 524.206 661.876 525.245 661.854 526.569H657.196C657.287 523.829 658.098 521.752 659.628 520.336C661.18 518.921 663.144 518.213 665.518 518.213C668.121 518.213 670.118 518.909 671.511 520.302C672.904 521.672 673.6 523.487 673.6 525.747C673.6 527.528 673.121 529.229 672.162 530.85C671.203 532.471 670.107 533.886 668.874 535.096C667.641 536.284 666.032 537.722 664.045 539.412H674.148V543.384H657.23V539.822L659.011 538.316ZM679.841 543.966C678.973 543.966 678.254 543.704 677.683 543.179C677.135 542.631 676.861 541.957 676.861 541.158C676.861 540.359 677.135 539.697 677.683 539.172C678.254 538.624 678.973 538.35 679.841 538.35C680.685 538.35 681.382 538.624 681.93 539.172C682.477 539.697 682.751 540.359 682.751 541.158C682.751 541.957 682.477 542.631 681.93 543.179C681.382 543.704 680.685 543.966 679.841 543.966ZM702.846 522.905H691.75V528.761C692.23 528.167 692.915 527.688 693.805 527.322C694.695 526.934 695.643 526.74 696.648 526.74C698.474 526.74 699.969 527.14 701.134 527.939C702.298 528.738 703.143 529.765 703.668 531.021C704.193 532.254 704.456 533.578 704.456 534.994C704.456 537.619 703.702 539.731 702.195 541.329C700.711 542.927 698.588 543.727 695.826 543.727C693.223 543.727 691.145 543.076 689.593 541.775C688.04 540.473 687.161 538.772 686.956 536.672H691.613C691.819 537.585 692.275 538.316 692.983 538.864C693.714 539.412 694.638 539.685 695.757 539.685C697.104 539.685 698.12 539.263 698.805 538.418C699.49 537.574 699.832 536.455 699.832 535.062C699.832 533.647 699.479 532.574 698.771 531.843C698.086 531.09 697.07 530.713 695.723 530.713C694.764 530.713 693.965 530.953 693.326 531.432C692.686 531.912 692.23 532.551 691.956 533.35H687.367V518.692H702.846V522.905ZM707.557 524.891C707.557 523.156 708.059 521.797 709.064 520.816C710.091 519.834 711.404 519.343 713.002 519.343C714.6 519.343 715.902 519.834 716.906 520.816C717.934 521.797 718.447 523.156 718.447 524.891C718.447 526.649 717.934 528.019 716.906 529.001C715.902 529.982 714.6 530.473 713.002 530.473C711.404 530.473 710.091 529.982 709.064 529.001C708.059 528.019 707.557 526.649 707.557 524.891ZM729.543 519.754L716.084 543.727H711.427L724.851 519.754H729.543ZM712.968 522.22C711.712 522.22 711.084 523.11 711.084 524.891C711.084 526.695 711.712 527.596 712.968 527.596C713.584 527.596 714.064 527.38 714.406 526.946C714.749 526.489 714.92 525.804 714.92 524.891C714.92 523.11 714.269 522.22 712.968 522.22ZM722.591 538.555C722.591 536.797 723.093 535.439 724.098 534.48C725.125 533.498 726.438 533.007 728.036 533.007C729.634 533.007 730.924 533.498 731.906 534.48C732.911 535.439 733.413 536.797 733.413 538.555C733.413 540.313 732.911 541.683 731.906 542.665C730.924 543.647 729.634 544.138 728.036 544.138C726.415 544.138 725.103 543.647 724.098 542.665C723.093 541.683 722.591 540.313 722.591 538.555ZM728.002 535.884C726.701 535.884 726.05 536.775 726.05 538.555C726.05 540.359 726.701 541.261 728.002 541.261C729.281 541.261 729.92 540.359 729.92 538.555C729.92 536.775 729.281 535.884 728.002 535.884Z" fill="#575757"/>
    <path d="M778.549 375.708V376.81H775.72V386.086H774.365V376.81H771.521V375.708H778.549ZM787.662 381.693C787.662 381.952 787.647 382.225 787.618 382.512H781.096C781.145 383.316 781.418 383.947 781.915 384.403C782.421 384.85 783.032 385.073 783.746 385.073C784.332 385.073 784.818 384.939 785.205 384.671C785.602 384.393 785.88 384.026 786.039 383.57H787.498C787.28 384.354 786.843 384.994 786.188 385.49C785.533 385.977 784.719 386.22 783.746 386.22C782.972 386.22 782.277 386.046 781.662 385.699C781.056 385.351 780.58 384.86 780.232 384.225C779.885 383.579 779.711 382.835 779.711 381.991C779.711 381.147 779.88 380.408 780.217 379.773C780.555 379.137 781.026 378.651 781.632 378.313C782.247 377.966 782.952 377.792 783.746 377.792C784.52 377.792 785.205 377.961 785.801 378.299C786.397 378.636 786.853 379.103 787.171 379.698C787.498 380.284 787.662 380.949 787.662 381.693ZM786.263 381.411C786.263 380.894 786.148 380.453 785.92 380.085C785.692 379.708 785.379 379.425 784.982 379.237C784.595 379.038 784.163 378.939 783.687 378.939C783.002 378.939 782.416 379.157 781.93 379.594C781.453 380.031 781.18 380.636 781.111 381.411H786.263ZM788.945 381.976C788.945 381.143 789.113 380.413 789.451 379.788C789.788 379.152 790.25 378.661 790.836 378.313C791.431 377.966 792.091 377.792 792.816 377.792C793.531 377.792 794.151 377.946 794.677 378.254C795.203 378.562 795.595 378.949 795.853 379.415V377.926H797.223V386.086H795.853V384.567C795.585 385.044 795.183 385.441 794.647 385.758C794.121 386.066 793.506 386.22 792.801 386.22C792.076 386.22 791.421 386.041 790.836 385.684C790.25 385.327 789.788 384.825 789.451 384.18C789.113 383.535 788.945 382.8 788.945 381.976ZM795.853 381.991C795.853 381.376 795.729 380.84 795.481 380.383C795.233 379.927 794.895 379.579 794.469 379.341C794.052 379.093 793.59 378.969 793.084 378.969C792.578 378.969 792.116 379.088 791.699 379.326C791.282 379.564 790.95 379.912 790.702 380.368C790.453 380.825 790.329 381.361 790.329 381.976C790.329 382.602 790.453 383.148 790.702 383.614C790.95 384.071 791.282 384.423 791.699 384.671C792.116 384.91 792.578 385.029 793.084 385.029C793.59 385.029 794.052 384.91 794.469 384.671C794.895 384.423 795.233 384.071 795.481 383.614C795.729 383.148 795.853 382.607 795.853 381.991ZM809.325 377.777C809.961 377.777 810.526 377.911 811.023 378.179C811.519 378.438 811.911 378.83 812.199 379.356C812.487 379.882 812.631 380.522 812.631 381.277V386.086H811.291V381.47C811.291 380.656 811.087 380.036 810.68 379.609C810.283 379.172 809.742 378.954 809.057 378.954C808.353 378.954 807.792 379.182 807.375 379.639C806.958 380.085 806.749 380.736 806.749 381.589V386.086H805.409V381.47C805.409 380.656 805.206 380.036 804.799 379.609C804.402 379.172 803.861 378.954 803.176 378.954C802.471 378.954 801.91 379.182 801.493 379.639C801.076 380.085 800.868 380.736 800.868 381.589V386.086H799.513V377.926H800.868V379.103C801.136 378.676 801.493 378.348 801.94 378.12C802.397 377.892 802.898 377.777 803.444 377.777C804.129 377.777 804.734 377.931 805.26 378.239C805.787 378.547 806.179 378.998 806.437 379.594C806.665 379.018 807.042 378.572 807.568 378.254C808.094 377.936 808.68 377.777 809.325 377.777Z" fill="#575757"/>
    <path d="M628.884 364.129V364.873L628.884 364.873L628.884 364.129ZM817.954 364.129L813.656 368.427L809.358 364.129L813.656 359.831L817.954 364.129ZM581.236 364.129L581.236 363.384L628.884 363.384L628.884 364.129L628.884 364.873L581.236 364.873L581.236 364.129ZM628.884 364.129V363.384H813.656V364.129V364.873H628.884V364.129Z" fill="#0DAAA1"/>
    <path d="M724.418 331.847V327.429H732.671V352.395H727.74V331.847H724.418ZM738.915 346.984C741.106 345.157 742.853 343.639 744.154 342.429C745.456 341.196 746.54 339.917 747.408 338.593C748.275 337.269 748.709 335.968 748.709 334.689C748.709 333.525 748.435 332.611 747.887 331.949C747.339 331.287 746.495 330.956 745.353 330.956C744.211 330.956 743.333 331.344 742.716 332.121C742.1 332.874 741.78 333.913 741.757 335.237H737.1C737.191 332.497 738.001 330.42 739.531 329.004C741.084 327.589 743.047 326.881 745.422 326.881C748.024 326.881 750.022 327.577 751.415 328.97C752.807 330.34 753.504 332.155 753.504 334.415C753.504 336.196 753.024 337.897 752.065 339.518C751.106 341.139 750.011 342.554 748.778 343.764C747.545 344.952 745.935 346.39 743.949 348.079H754.052V352.052H737.134V348.49L738.915 346.984ZM759.744 352.634C758.876 352.634 758.157 352.372 757.587 351.847C757.039 351.299 756.765 350.625 756.765 349.826C756.765 349.027 757.039 348.365 757.587 347.84C758.157 347.292 758.876 347.018 759.744 347.018C760.589 347.018 761.285 347.292 761.833 347.84C762.381 348.365 762.655 349.027 762.655 349.826C762.655 350.625 762.381 351.299 761.833 351.847C761.285 352.372 760.589 352.634 759.744 352.634ZM765.969 339.586C765.969 335.637 766.677 332.543 768.092 330.306C769.531 328.068 771.905 326.949 775.215 326.949C778.526 326.949 780.889 328.068 782.304 330.306C783.743 332.543 784.462 335.637 784.462 339.586C784.462 343.559 783.743 346.675 782.304 348.936C780.889 351.196 778.526 352.326 775.215 352.326C771.905 352.326 769.531 351.196 768.092 348.936C766.677 346.675 765.969 343.559 765.969 339.586ZM779.736 339.586C779.736 337.897 779.622 336.481 779.394 335.34C779.188 334.175 778.754 333.228 778.092 332.497C777.453 331.767 776.494 331.401 775.215 331.401C773.937 331.401 772.967 331.767 772.305 332.497C771.665 333.228 771.231 334.175 771.003 335.34C770.798 336.481 770.695 337.897 770.695 339.586C770.695 341.321 770.798 342.783 771.003 343.97C771.209 345.134 771.642 346.082 772.305 346.812C772.967 347.52 773.937 347.874 775.215 347.874C776.494 347.874 777.464 347.52 778.126 346.812C778.789 346.082 779.222 345.134 779.428 343.97C779.633 342.783 779.736 341.321 779.736 339.586ZM787.561 333.559C787.561 331.824 788.063 330.465 789.068 329.484C790.095 328.502 791.408 328.011 793.006 328.011C794.604 328.011 795.906 328.502 796.91 329.484C797.937 330.465 798.451 331.824 798.451 333.559C798.451 335.317 797.937 336.687 796.91 337.669C795.906 338.65 794.604 339.141 793.006 339.141C791.408 339.141 790.095 338.65 789.068 337.669C788.063 336.687 787.561 335.317 787.561 333.559ZM809.547 328.422L796.088 352.395H791.431L804.855 328.422H809.547ZM792.972 330.888C791.716 330.888 791.088 331.778 791.088 333.559C791.088 335.363 791.716 336.264 792.972 336.264C793.588 336.264 794.068 336.048 794.41 335.614C794.753 335.157 794.924 334.472 794.924 333.559C794.924 331.778 794.273 330.888 792.972 330.888ZM802.595 347.223C802.595 345.465 803.097 344.107 804.102 343.148C805.129 342.166 806.442 341.675 808.04 341.675C809.638 341.675 810.928 342.166 811.91 343.148C812.915 344.107 813.417 345.465 813.417 347.223C813.417 348.981 812.915 350.351 811.91 351.333C810.928 352.315 809.638 352.805 808.04 352.805C806.419 352.805 805.106 352.315 804.102 351.333C803.097 350.351 802.595 348.981 802.595 347.223ZM808.006 344.552C806.705 344.552 806.054 345.442 806.054 347.223C806.054 349.027 806.705 349.929 808.006 349.929C809.284 349.929 809.924 349.027 809.924 347.223C809.924 345.442 809.284 344.552 808.006 344.552Z" fill="#575757"/>
    <path d="M759.713 172.523C759.713 173.386 759.415 174.106 758.819 174.682C758.234 175.247 757.335 175.53 756.124 175.53H754.129V179.863H752.774V169.485H756.124C757.296 169.485 758.184 169.768 758.79 170.334C759.405 170.9 759.713 171.629 759.713 172.523ZM756.124 174.414C756.879 174.414 757.435 174.25 757.792 173.922C758.149 173.595 758.328 173.128 758.328 172.523C758.328 171.242 757.593 170.602 756.124 170.602H754.129V174.414H756.124ZM762.752 173.029C762.99 172.562 763.327 172.2 763.764 171.942C764.211 171.684 764.752 171.555 765.387 171.555V172.954H765.03C763.511 172.954 762.752 173.778 762.752 175.426V179.863H761.397V171.704H762.752V173.029ZM774.396 175.471C774.396 175.729 774.381 176.002 774.352 176.29H767.83C767.879 177.094 768.152 177.724 768.649 178.181C769.155 178.627 769.766 178.851 770.48 178.851C771.066 178.851 771.552 178.717 771.939 178.449C772.336 178.171 772.614 177.804 772.773 177.347H774.232C774.014 178.131 773.577 178.771 772.922 179.268C772.267 179.754 771.453 179.997 770.48 179.997C769.706 179.997 769.011 179.824 768.396 179.476C767.79 179.129 767.314 178.637 766.966 178.002C766.619 177.357 766.445 176.612 766.445 175.769C766.445 174.925 766.614 174.185 766.951 173.55C767.289 172.915 767.76 172.428 768.366 172.091C768.981 171.743 769.686 171.57 770.48 171.57C771.254 171.57 771.939 171.738 772.535 172.076C773.131 172.413 773.587 172.88 773.905 173.476C774.232 174.061 774.396 174.726 774.396 175.471ZM772.997 175.188C772.997 174.672 772.882 174.23 772.654 173.863C772.426 173.485 772.113 173.203 771.716 173.014C771.329 172.815 770.897 172.716 770.421 172.716C769.736 172.716 769.15 172.935 768.664 173.371C768.187 173.808 767.914 174.414 767.845 175.188H772.997ZM781.843 173.833V174.979H775.902V173.833H781.843ZM787.274 179.997C786.649 179.997 786.088 179.893 785.592 179.685C785.096 179.466 784.703 179.168 784.416 178.791C784.128 178.404 783.969 177.962 783.939 177.466H785.339C785.378 177.873 785.567 178.206 785.905 178.464C786.252 178.722 786.704 178.851 787.259 178.851C787.776 178.851 788.183 178.737 788.48 178.508C788.778 178.28 788.927 177.992 788.927 177.645C788.927 177.287 788.768 177.024 788.451 176.856C788.133 176.677 787.642 176.503 786.977 176.334C786.371 176.176 785.875 176.017 785.488 175.858C785.11 175.689 784.783 175.446 784.505 175.128C784.237 174.801 784.103 174.374 784.103 173.848C784.103 173.431 784.227 173.049 784.475 172.701C784.723 172.354 785.076 172.081 785.532 171.882C785.989 171.674 786.51 171.57 787.096 171.57C787.999 171.57 788.729 171.798 789.285 172.255C789.84 172.711 790.138 173.337 790.178 174.131H788.823C788.793 173.704 788.619 173.361 788.302 173.103C787.994 172.845 787.577 172.716 787.051 172.716C786.565 172.716 786.178 172.82 785.89 173.029C785.602 173.237 785.458 173.51 785.458 173.848C785.458 174.116 785.542 174.339 785.711 174.518C785.89 174.687 786.108 174.826 786.366 174.935C786.634 175.034 787.001 175.148 787.468 175.277C788.054 175.436 788.53 175.595 788.897 175.754C789.265 175.903 789.577 176.131 789.835 176.439C790.103 176.746 790.242 177.148 790.252 177.645C790.252 178.091 790.128 178.493 789.88 178.851C789.632 179.208 789.28 179.491 788.823 179.699C788.376 179.898 787.86 179.997 787.274 179.997ZM791.659 175.754C791.659 174.92 791.828 174.19 792.165 173.565C792.503 172.93 792.964 172.438 793.55 172.091C794.145 171.743 794.806 171.57 795.53 171.57C796.245 171.57 796.865 171.724 797.391 172.031C797.918 172.339 798.31 172.726 798.568 173.193V171.704H799.938V179.863H798.568V178.345C798.3 178.821 797.898 179.218 797.362 179.536C796.836 179.843 796.22 179.997 795.515 179.997C794.791 179.997 794.136 179.819 793.55 179.461C792.964 179.104 792.503 178.603 792.165 177.957C791.828 177.312 791.659 176.578 791.659 175.754ZM798.568 175.769C798.568 175.153 798.444 174.617 798.195 174.16C797.947 173.704 797.61 173.356 797.183 173.118C796.766 172.87 796.304 172.746 795.798 172.746C795.292 172.746 794.83 172.865 794.413 173.103C793.997 173.342 793.664 173.689 793.416 174.146C793.168 174.602 793.044 175.138 793.044 175.754C793.044 176.379 793.168 176.925 793.416 177.392C793.664 177.848 793.997 178.201 794.413 178.449C794.83 178.687 795.292 178.806 795.798 178.806C796.304 178.806 796.766 178.687 797.183 178.449C797.61 178.201 797.947 177.848 798.195 177.392C798.444 176.925 798.568 176.384 798.568 175.769ZM803.582 168.845V179.863H802.227V168.845H803.582ZM813.337 175.471C813.337 175.729 813.322 176.002 813.292 176.29H806.77C806.82 177.094 807.093 177.724 807.589 178.181C808.095 178.627 808.706 178.851 809.42 178.851C810.006 178.851 810.493 178.717 810.88 178.449C811.277 178.171 811.555 177.804 811.714 177.347H813.173C812.954 178.131 812.518 178.771 811.862 179.268C811.207 179.754 810.393 179.997 809.42 179.997C808.646 179.997 807.951 179.824 807.336 179.476C806.73 179.129 806.254 178.637 805.907 178.002C805.559 177.357 805.385 176.612 805.385 175.769C805.385 174.925 805.554 174.185 805.892 173.55C806.229 172.915 806.701 172.428 807.306 172.091C807.922 171.743 808.626 171.57 809.42 171.57C810.195 171.57 810.88 171.738 811.475 172.076C812.071 172.413 812.527 172.88 812.845 173.476C813.173 174.061 813.337 174.726 813.337 175.471ZM811.937 175.188C811.937 174.672 811.823 174.23 811.594 173.863C811.366 173.485 811.053 173.203 810.656 173.014C810.269 172.815 809.837 172.716 809.361 172.716C808.676 172.716 808.09 172.935 807.604 173.371C807.127 173.808 806.854 174.414 806.785 175.188H811.937Z" fill="#575757"/>
    <path d="M585.329 154.515L585.258 155.256L585.294 155.259H585.329V154.515ZM817.815 154.515L813.516 150.216L809.218 154.515L813.516 158.813L817.815 154.515ZM561.879 152.281L561.808 153.022L585.258 155.256L585.329 154.515L585.4 153.774L561.949 151.54L561.879 152.281ZM585.329 154.515V155.259H813.516V154.515V153.77H585.329V154.515Z" fill="#61ADB1"/>
    <path d="M716.585 136.292C718.777 134.466 720.524 132.947 721.825 131.737C723.126 130.505 724.211 129.226 725.078 127.902C725.946 126.578 726.38 125.276 726.38 123.998C726.38 122.833 726.106 121.92 725.558 121.258C725.01 120.596 724.165 120.265 723.023 120.265C721.882 120.265 721.003 120.653 720.387 121.429C719.77 122.183 719.45 123.221 719.428 124.546H714.77C714.861 121.806 715.672 119.728 717.202 118.313C718.754 116.897 720.718 116.189 723.092 116.189C725.695 116.189 727.692 116.886 729.085 118.279C730.478 119.648 731.174 121.463 731.174 123.724C731.174 125.505 730.695 127.205 729.736 128.826C728.777 130.447 727.681 131.863 726.448 133.073C725.215 134.26 723.606 135.699 721.619 137.388H731.722V141.361H714.804V137.799L716.585 136.292ZM751.524 120.881H740.428V126.737C740.908 126.144 741.593 125.664 742.483 125.299C743.373 124.911 744.321 124.717 745.325 124.717C747.152 124.717 748.647 125.116 749.812 125.915C750.976 126.715 751.821 127.742 752.346 128.998C752.871 130.231 753.134 131.555 753.134 132.97C753.134 135.596 752.38 137.708 750.873 139.306C749.389 140.904 747.266 141.703 744.504 141.703C741.901 141.703 739.823 141.052 738.271 139.751C736.718 138.45 735.839 136.749 735.634 134.648H740.291C740.497 135.562 740.953 136.292 741.661 136.84C742.392 137.388 743.316 137.662 744.435 137.662C745.782 137.662 746.798 137.24 747.483 136.395C748.168 135.55 748.51 134.431 748.51 133.039C748.51 131.623 748.157 130.55 747.449 129.82C746.764 129.066 745.748 128.689 744.401 128.689C743.442 128.689 742.643 128.929 742.004 129.409C741.364 129.888 740.908 130.527 740.634 131.326H736.045V116.669H751.524V120.881ZM759.454 141.943C758.586 141.943 757.867 141.68 757.296 141.155C756.749 140.607 756.475 139.934 756.475 139.135C756.475 138.336 756.749 137.673 757.296 137.148C757.867 136.6 758.586 136.326 759.454 136.326C760.299 136.326 760.995 136.6 761.543 137.148C762.091 137.673 762.365 138.336 762.365 139.135C762.365 139.934 762.091 140.607 761.543 141.155C760.995 141.68 760.299 141.943 759.454 141.943ZM769.857 128.484C767.574 127.297 766.432 125.459 766.432 122.97C766.432 121.737 766.74 120.619 767.357 119.614C767.996 118.587 768.944 117.776 770.199 117.183C771.478 116.566 773.03 116.258 774.857 116.258C776.683 116.258 778.224 116.566 779.48 117.183C780.759 117.776 781.706 118.587 782.323 119.614C782.962 120.619 783.282 121.737 783.282 122.97C783.282 124.226 782.973 125.333 782.357 126.292C781.74 127.228 780.919 127.959 779.891 128.484C781.147 129.032 782.129 129.831 782.836 130.881C783.544 131.931 783.898 133.176 783.898 134.614C783.898 136.167 783.498 137.525 782.699 138.689C781.923 139.831 780.85 140.71 779.48 141.326C778.11 141.943 776.569 142.251 774.857 142.251C773.145 142.251 771.603 141.943 770.234 141.326C768.887 140.71 767.814 139.831 767.014 138.689C766.238 137.525 765.85 136.167 765.85 134.614C765.85 133.176 766.204 131.931 766.912 130.881C767.619 129.808 768.601 129.009 769.857 128.484ZM778.624 123.655C778.624 122.536 778.282 121.669 777.597 121.052C776.935 120.436 776.021 120.128 774.857 120.128C773.715 120.128 772.802 120.436 772.117 121.052C771.455 121.669 771.124 122.548 771.124 123.689C771.124 124.717 771.467 125.539 772.151 126.155C772.859 126.772 773.761 127.08 774.857 127.08C775.953 127.08 776.855 126.772 777.562 126.155C778.27 125.516 778.624 124.683 778.624 123.655ZM774.857 130.573C773.556 130.573 772.494 130.904 771.672 131.566C770.873 132.228 770.473 133.176 770.473 134.409C770.473 135.55 770.861 136.486 771.638 137.217C772.437 137.925 773.51 138.278 774.857 138.278C776.204 138.278 777.266 137.913 778.042 137.183C778.818 136.452 779.206 135.527 779.206 134.409C779.206 133.199 778.807 132.263 778.008 131.6C777.209 130.915 776.158 130.573 774.857 130.573ZM787.137 122.868C787.137 121.132 787.639 119.774 788.644 118.792C789.671 117.81 790.984 117.32 792.582 117.32C794.18 117.32 795.482 117.81 796.486 118.792C797.514 119.774 798.027 121.132 798.027 122.868C798.027 124.626 797.514 125.995 796.486 126.977C795.482 127.959 794.18 128.45 792.582 128.45C790.984 128.45 789.671 127.959 788.644 126.977C787.639 125.995 787.137 124.626 787.137 122.868ZM809.123 117.731L795.664 141.703H791.007L804.431 117.731H809.123ZM792.548 120.196C791.292 120.196 790.664 121.087 790.664 122.868C790.664 124.671 791.292 125.573 792.548 125.573C793.164 125.573 793.644 125.356 793.986 124.922C794.329 124.466 794.5 123.781 794.5 122.868C794.5 121.087 793.849 120.196 792.548 120.196ZM802.171 136.532C802.171 134.774 802.673 133.415 803.678 132.457C804.705 131.475 806.018 130.984 807.616 130.984C809.215 130.984 810.504 131.475 811.486 132.457C812.491 133.415 812.993 134.774 812.993 136.532C812.993 138.29 812.491 139.66 811.486 140.641C810.504 141.623 809.215 142.114 807.616 142.114C805.995 142.114 804.683 141.623 803.678 140.641C802.673 139.66 802.171 138.29 802.171 136.532ZM807.582 133.861C806.281 133.861 805.63 134.751 805.63 136.532C805.63 138.336 806.281 139.237 807.582 139.237C808.861 139.237 809.5 138.336 809.5 136.532C809.5 134.751 808.861 133.861 807.582 133.861Z" fill="#575757"/>
    <path d="M645.632 262.876L645.043 262.421L645.266 262.131H645.632V262.876ZM834.703 262.876L830.404 267.174L826.106 262.876L830.404 258.578L834.703 262.876ZM611.758 306.801L611.168 306.346L645.043 262.421L645.632 262.876L646.222 263.331L612.347 307.255L611.758 306.801ZM645.632 262.876V262.131H830.404V262.876V263.62H645.632V262.876Z" fill="#0AD4C9"/>
    <path d="M774.418 285.578L770.144 280.843V285.578H768.789V275.2H770.144V280.009L774.433 275.2H776.145L771.44 280.396L776.19 285.578H774.418ZM782.408 285.682C781.445 285.682 780.567 285.459 779.773 285.012C778.979 284.556 778.348 283.925 777.882 283.121C777.425 282.307 777.197 281.394 777.197 280.382C777.197 279.369 777.425 278.461 777.882 277.657C778.348 276.843 778.979 276.212 779.773 275.766C780.567 275.309 781.445 275.081 782.408 275.081C783.381 275.081 784.264 275.309 785.059 275.766C785.853 276.212 786.478 276.838 786.935 277.642C787.391 278.446 787.62 279.359 787.62 280.382C787.62 281.404 787.391 282.317 786.935 283.121C786.478 283.925 785.853 284.556 785.059 285.012C784.264 285.459 783.381 285.682 782.408 285.682ZM782.408 284.506C783.133 284.506 783.783 284.337 784.359 284C784.944 283.662 785.401 283.181 785.729 282.555C786.066 281.93 786.235 281.205 786.235 280.382C786.235 279.548 786.066 278.823 785.729 278.208C785.401 277.582 784.949 277.101 784.374 276.763C783.798 276.426 783.143 276.257 782.408 276.257C781.674 276.257 781.018 276.426 780.443 276.763C779.867 277.101 779.41 277.582 779.073 278.208C778.745 278.823 778.581 279.548 778.581 280.382C778.581 281.205 778.745 281.93 779.073 282.555C779.41 283.181 779.867 283.662 780.443 284C781.028 284.337 781.683 284.506 782.408 284.506ZM790.763 284.476H794.396V285.578H789.408V275.2H790.763V284.476ZM803.096 285.682C802.411 285.682 801.795 285.563 801.249 285.325C800.713 285.077 800.291 284.739 799.984 284.312C799.676 283.876 799.517 283.374 799.507 282.809H800.951C801.001 283.295 801.2 283.707 801.547 284.044C801.904 284.372 802.421 284.536 803.096 284.536C803.741 284.536 804.247 284.377 804.614 284.059C804.992 283.732 805.18 283.315 805.18 282.809C805.18 282.412 805.071 282.089 804.853 281.841C804.634 281.593 804.361 281.404 804.034 281.275C803.706 281.146 803.264 281.007 802.708 280.858C802.024 280.679 801.473 280.501 801.056 280.322C800.649 280.143 800.296 279.865 799.999 279.488C799.711 279.101 799.567 278.585 799.567 277.94C799.567 277.374 799.711 276.873 799.999 276.436C800.286 275.999 800.688 275.662 801.205 275.423C801.731 275.185 802.331 275.066 803.006 275.066C803.979 275.066 804.773 275.309 805.389 275.796C806.014 276.282 806.366 276.927 806.446 277.731H804.957C804.907 277.334 804.699 276.987 804.331 276.689C803.964 276.381 803.478 276.227 802.872 276.227C802.306 276.227 801.845 276.376 801.488 276.674C801.13 276.962 800.951 277.369 800.951 277.895C800.951 278.272 801.056 278.58 801.264 278.818C801.483 279.056 801.746 279.24 802.053 279.369C802.371 279.488 802.813 279.627 803.379 279.786C804.063 279.975 804.614 280.163 805.031 280.352C805.448 280.53 805.806 280.813 806.103 281.201C806.401 281.578 806.55 282.094 806.55 282.749C806.55 283.255 806.416 283.732 806.148 284.178C805.88 284.625 805.483 284.987 804.957 285.265C804.431 285.543 803.81 285.682 803.096 285.682ZM808.038 281.469C808.038 280.635 808.207 279.905 808.544 279.28C808.882 278.644 809.343 278.153 809.929 277.806C810.524 277.458 811.184 277.285 811.909 277.285C812.624 277.285 813.244 277.438 813.77 277.746C814.296 278.054 814.689 278.441 814.947 278.908V277.419H816.316V285.578H814.947V284.059C814.679 284.536 814.277 284.933 813.741 285.251C813.214 285.558 812.599 285.712 811.894 285.712C811.17 285.712 810.514 285.533 809.929 285.176C809.343 284.819 808.882 284.317 808.544 283.672C808.207 283.027 808.038 282.292 808.038 281.469ZM814.947 281.483C814.947 280.868 814.823 280.332 814.574 279.875C814.326 279.419 813.989 279.071 813.562 278.833C813.145 278.585 812.683 278.461 812.177 278.461C811.671 278.461 811.209 278.58 810.792 278.818C810.375 279.056 810.043 279.404 809.795 279.86C809.547 280.317 809.423 280.853 809.423 281.469C809.423 282.094 809.547 282.64 809.795 283.106C810.043 283.563 810.375 283.915 810.792 284.164C811.209 284.402 811.671 284.521 812.177 284.521C812.683 284.521 813.145 284.402 813.562 284.164C813.989 283.915 814.326 283.563 814.574 283.106C814.823 282.64 814.947 282.099 814.947 281.483ZM819.961 274.56V285.578H818.606V274.56H819.961ZM829.715 281.186C829.715 281.444 829.701 281.717 829.671 282.005H823.149C823.199 282.809 823.472 283.439 823.968 283.896C824.474 284.342 825.085 284.566 825.799 284.566C826.385 284.566 826.871 284.432 827.259 284.164C827.656 283.886 827.934 283.518 828.092 283.062H829.552C829.333 283.846 828.896 284.486 828.241 284.983C827.586 285.469 826.772 285.712 825.799 285.712C825.025 285.712 824.33 285.538 823.715 285.191C823.109 284.844 822.633 284.352 822.285 283.717C821.938 283.072 821.764 282.327 821.764 281.483C821.764 280.64 821.933 279.9 822.271 279.265C822.608 278.63 823.08 278.143 823.685 277.806C824.3 277.458 825.005 277.285 825.799 277.285C826.574 277.285 827.259 277.453 827.854 277.791C828.45 278.128 828.906 278.595 829.224 279.19C829.552 279.776 829.715 280.441 829.715 281.186ZM828.316 280.903C828.316 280.387 828.202 279.945 827.973 279.578C827.745 279.2 827.432 278.917 827.035 278.729C826.648 278.53 826.216 278.431 825.74 278.431C825.055 278.431 824.469 278.649 823.983 279.086C823.506 279.523 823.233 280.128 823.164 280.903H828.316Z" fill="#575757"/>
    <path d="M751.224 239.079C751.224 235.129 751.932 232.035 753.347 229.798C754.785 227.56 757.16 226.442 760.47 226.442C763.781 226.442 766.144 227.56 767.559 229.798C768.998 232.035 769.717 235.129 769.717 239.079C769.717 243.051 768.998 246.168 767.559 248.428C766.144 250.688 763.781 251.818 760.47 251.818C757.16 251.818 754.785 250.688 753.347 248.428C751.932 246.168 751.224 243.051 751.224 239.079ZM764.991 239.079C764.991 237.389 764.877 235.974 764.648 234.832C764.443 233.668 764.009 232.72 763.347 231.99C762.708 231.259 761.749 230.894 760.47 230.894C759.192 230.894 758.221 231.259 757.559 231.99C756.92 232.72 756.486 233.668 756.258 234.832C756.053 235.974 755.95 237.389 755.95 239.079C755.95 240.814 756.053 242.275 756.258 243.462C756.463 244.626 756.897 245.574 757.559 246.305C758.221 247.012 759.192 247.366 760.47 247.366C761.749 247.366 762.719 247.012 763.381 246.305C764.043 245.574 764.477 244.626 764.683 243.462C764.888 242.275 764.991 240.814 764.991 239.079ZM776.035 252.126C775.167 252.126 774.448 251.864 773.877 251.339C773.329 250.791 773.055 250.117 773.055 249.318C773.055 248.519 773.329 247.857 773.877 247.332C774.448 246.784 775.167 246.51 776.035 246.51C776.88 246.51 777.576 246.784 778.124 247.332C778.672 247.857 778.946 248.519 778.946 249.318C778.946 250.117 778.672 250.791 778.124 251.339C777.576 251.864 776.88 252.126 776.035 252.126ZM795.205 233.154C794.977 232.195 794.577 231.476 794.006 230.996C793.458 230.517 792.659 230.277 791.609 230.277C790.034 230.277 788.869 230.916 788.116 232.195C787.385 233.451 787.009 235.505 786.986 238.359C787.534 237.446 788.333 236.738 789.383 236.236C790.433 235.711 791.575 235.448 792.808 235.448C794.292 235.448 795.604 235.768 796.746 236.407C797.887 237.047 798.778 237.983 799.417 239.216C800.056 240.426 800.376 241.887 800.376 243.599C800.376 245.22 800.045 246.67 799.383 247.948C798.744 249.204 797.796 250.186 796.54 250.894C795.285 251.601 793.789 251.955 792.054 251.955C789.68 251.955 787.808 251.43 786.438 250.38C785.091 249.33 784.143 247.868 783.595 245.996C783.07 244.101 782.808 241.773 782.808 239.01C782.808 234.832 783.527 231.681 784.965 229.558C786.403 227.412 788.675 226.339 791.78 226.339C794.177 226.339 796.038 226.99 797.362 228.291C798.687 229.592 799.451 231.213 799.657 233.154H795.205ZM791.712 239.387C790.502 239.387 789.486 239.741 788.664 240.448C787.842 241.156 787.431 242.184 787.431 243.531C787.431 244.878 787.808 245.939 788.561 246.715C789.337 247.492 790.422 247.88 791.814 247.88C793.047 247.88 794.018 247.503 794.725 246.75C795.456 245.996 795.821 244.98 795.821 243.702C795.821 242.378 795.467 241.327 794.76 240.551C794.075 239.775 793.059 239.387 791.712 239.387ZM803.617 233.051C803.617 231.316 804.12 229.958 805.124 228.976C806.152 227.994 807.464 227.503 809.063 227.503C810.661 227.503 811.962 227.994 812.967 228.976C813.994 229.958 814.508 231.316 814.508 233.051C814.508 234.809 813.994 236.179 812.967 237.161C811.962 238.142 810.661 238.633 809.063 238.633C807.464 238.633 806.152 238.142 805.124 237.161C804.12 236.179 803.617 234.809 803.617 233.051ZM825.604 227.914L812.145 251.887H807.487L820.912 227.914H825.604ZM809.028 230.38C807.773 230.38 807.145 231.27 807.145 233.051C807.145 234.855 807.773 235.757 809.028 235.757C809.645 235.757 810.124 235.54 810.467 235.106C810.809 234.649 810.98 233.964 810.98 233.051C810.98 231.27 810.33 230.38 809.028 230.38ZM818.652 246.715C818.652 244.958 819.154 243.599 820.158 242.64C821.186 241.658 822.499 241.168 824.097 241.168C825.695 241.168 826.985 241.658 827.967 242.64C828.971 243.599 829.474 244.958 829.474 246.715C829.474 248.473 828.971 249.843 827.967 250.825C826.985 251.807 825.695 252.298 824.097 252.298C822.476 252.298 821.163 251.807 820.158 250.825C819.154 249.843 818.652 248.473 818.652 246.715ZM824.063 244.044C822.761 244.044 822.111 244.935 822.111 246.715C822.111 248.519 822.761 249.421 824.063 249.421C825.341 249.421 825.98 248.519 825.98 246.715C825.98 244.935 825.341 244.044 824.063 244.044Z" fill="#575757"/>
    <path d="M757.638 63.0808C756.953 63.0808 756.337 62.9617 755.791 62.7234C755.255 62.4753 754.834 62.1378 754.526 61.7109C754.218 61.2742 754.059 60.7729 754.049 60.2071H755.494C755.543 60.6935 755.742 61.1054 756.089 61.4429C756.447 61.7705 756.963 61.9343 757.638 61.9343C758.283 61.9343 758.789 61.7755 759.157 61.4578C759.534 61.1302 759.722 60.7133 759.722 60.2071C759.722 59.81 759.613 59.4874 759.395 59.2392C759.176 58.9911 758.903 58.8025 758.576 58.6734C758.248 58.5444 757.807 58.4054 757.251 58.2565C756.566 58.0778 756.015 57.8991 755.598 57.7205C755.191 57.5418 754.839 57.2638 754.541 56.8866C754.253 56.4995 754.109 55.9833 754.109 55.3381C754.109 54.7723 754.253 54.271 754.541 53.8342C754.829 53.3975 755.231 53.06 755.747 52.8217C756.273 52.5835 756.873 52.4644 757.548 52.4644C758.521 52.4644 759.315 52.7076 759.931 53.194C760.556 53.6804 760.909 54.3256 760.988 55.1296H759.499C759.449 54.7326 759.241 54.3852 758.874 54.0874C758.506 53.7796 758.02 53.6258 757.414 53.6258C756.849 53.6258 756.387 53.7747 756.03 54.0725C755.672 54.3603 755.494 54.7673 755.494 55.2934C755.494 55.6706 755.598 55.9784 755.806 56.2166C756.025 56.4548 756.288 56.6385 756.596 56.7675C756.913 56.8866 757.355 57.0256 757.921 57.1844C758.606 57.373 759.157 57.5616 759.573 57.7502C759.99 57.9289 760.348 58.2118 760.646 58.599C760.943 58.9762 761.092 59.4924 761.092 60.1475C761.092 60.6538 760.958 61.1302 760.69 61.5769C760.422 62.0236 760.025 62.3859 759.499 62.6639C758.973 62.9418 758.353 63.0808 757.638 63.0808ZM770.531 58.5841C770.531 58.8422 770.516 59.1151 770.486 59.403H763.965C764.014 60.2071 764.287 60.8374 764.784 61.294C765.29 61.7407 765.9 61.9641 766.615 61.9641C767.201 61.9641 767.687 61.83 768.074 61.562C768.471 61.2841 768.749 60.9168 768.908 60.4602H770.367C770.149 61.2444 769.712 61.8846 769.057 62.381C768.402 62.8674 767.588 63.1106 766.615 63.1106C765.841 63.1106 765.146 62.9369 764.531 62.5894C763.925 62.242 763.449 61.7506 763.101 61.1153C762.754 60.4701 762.58 59.7256 762.58 58.8819C762.58 58.0381 762.749 57.2986 763.086 56.6633C763.424 56.028 763.895 55.5416 764.501 55.2041C765.116 54.8567 765.821 54.683 766.615 54.683C767.389 54.683 768.074 54.8517 768.67 55.1892C769.265 55.5267 769.722 55.9933 770.04 56.5888C770.367 57.1745 770.531 57.8396 770.531 58.5841ZM769.131 58.3012C769.131 57.785 769.017 57.3433 768.789 56.976C768.561 56.5988 768.248 56.3159 767.851 56.1273C767.464 55.9287 767.032 55.8295 766.556 55.8295C765.871 55.8295 765.285 56.0478 764.799 56.4846C764.322 56.9214 764.049 57.5269 763.98 58.3012H769.131ZM779.765 58.5841C779.765 58.8422 779.75 59.1151 779.72 59.403H773.198C773.248 60.2071 773.521 60.8374 774.017 61.294C774.523 61.7407 775.134 61.9641 775.848 61.9641C776.434 61.9641 776.921 61.83 777.308 61.562C777.705 61.2841 777.983 60.9168 778.142 60.4602H779.601C779.382 61.2444 778.946 61.8846 778.29 62.381C777.635 62.8674 776.821 63.1106 775.848 63.1106C775.074 63.1106 774.379 62.9369 773.764 62.5894C773.158 62.242 772.682 61.7506 772.335 61.1153C771.987 60.4701 771.813 59.7256 771.813 58.8819C771.813 58.0381 771.982 57.2986 772.32 56.6633C772.657 56.028 773.129 55.5416 773.734 55.2041C774.35 54.8567 775.054 54.683 775.848 54.683C776.623 54.683 777.308 54.8517 777.903 55.1892C778.499 55.5267 778.955 55.9933 779.273 56.5888C779.601 57.1745 779.765 57.8396 779.765 58.5841ZM778.365 58.3012C778.365 57.785 778.251 57.3433 778.022 56.976C777.794 56.5988 777.481 56.3159 777.084 56.1273C776.697 55.9287 776.265 55.8295 775.789 55.8295C775.104 55.8295 774.518 56.0478 774.032 56.4846C773.555 56.9214 773.282 57.5269 773.213 58.3012H778.365ZM781.047 58.867C781.047 58.0332 781.216 57.3036 781.553 56.6782C781.891 56.0429 782.352 55.5515 782.938 55.2041C783.533 54.8567 784.198 54.683 784.933 54.683C785.568 54.683 786.159 54.8319 786.705 55.1296C787.251 55.4175 787.668 55.7997 787.956 56.2762V51.9581H789.325V62.9766H787.956V61.4429C787.688 61.9293 787.291 62.3313 786.764 62.649C786.238 62.9567 785.623 63.1106 784.918 63.1106C784.193 63.1106 783.533 62.9319 782.938 62.5745C782.352 62.2172 781.891 61.7159 781.553 61.0707C781.216 60.4254 781.047 59.6909 781.047 58.867ZM787.956 58.8819C787.956 58.2664 787.832 57.7304 787.583 57.2738C787.335 56.8172 786.998 56.4697 786.571 56.2315C786.154 55.9833 785.692 55.8592 785.186 55.8592C784.68 55.8592 784.218 55.9784 783.801 56.2166C783.384 56.4548 783.052 56.8023 782.804 57.2589C782.556 57.7155 782.432 58.2515 782.432 58.867C782.432 59.4924 782.556 60.0383 782.804 60.5049C783.052 60.9615 783.384 61.3139 783.801 61.562C784.218 61.8003 784.68 61.9194 785.186 61.9194C785.692 61.9194 786.154 61.8003 786.571 61.562C786.998 61.3139 787.335 60.9615 787.583 60.5049C787.832 60.0383 787.956 59.4973 787.956 58.8819Z" fill="#575757"/>
    <path d="M458.185 38.7891V38.0446H457.736L457.527 38.4416L458.185 38.7891ZM794.432 38.7891L790.133 34.4908L785.835 38.7891L790.133 43.0874L794.432 38.7891ZM443.504 66.6063L444.162 66.9538L458.844 39.1366L458.185 38.7891L457.527 38.4416L442.845 66.2588L443.504 66.6063ZM458.185 38.7891V39.5336H790.133V38.7891V38.0446H458.185V38.7891Z" fill="#AFAFAF"/>
    <path d="M727.67 4.74063H716.574V10.5968C717.053 10.0032 717.738 9.52372 718.629 9.15842C719.519 8.7703 720.466 8.57623 721.471 8.57623C723.297 8.57623 724.793 8.97578 725.957 9.77486C727.122 10.5739 727.966 11.6013 728.492 12.857C729.017 14.0899 729.279 15.4141 729.279 16.8296C729.279 19.4552 728.526 21.5671 727.019 23.1652C725.535 24.7634 723.412 25.5625 720.649 25.5625C718.046 25.5625 715.969 24.9118 714.416 23.6104C712.864 22.3091 711.985 20.6082 711.779 18.5077H716.437C716.642 19.421 717.099 20.1516 717.807 20.6995C718.537 21.2474 719.462 21.5214 720.581 21.5214C721.928 21.5214 722.944 21.099 723.629 20.2543C724.313 19.4095 724.656 18.2908 724.656 16.8981C724.656 15.4826 724.302 14.4096 723.594 13.679C722.909 12.9255 721.893 12.5488 720.546 12.5488C719.587 12.5488 718.788 12.7886 718.149 13.268C717.51 13.7475 717.053 14.3867 716.779 15.1858H712.19V0.528307H727.67V4.74063ZM735.6 25.8022C734.732 25.8022 734.013 25.5397 733.442 25.0146C732.894 24.4666 732.62 23.7931 732.62 22.994C732.62 22.1949 732.894 21.5328 733.442 21.0077C734.013 20.4598 734.732 20.1858 735.6 20.1858C736.444 20.1858 737.141 20.4598 737.689 21.0077C738.237 21.5328 738.51 22.1949 738.51 22.994C738.51 23.7931 738.237 24.4666 737.689 25.0146C737.141 25.5397 736.444 25.8022 735.6 25.8022ZM741.824 12.7543C741.824 8.80454 742.532 5.71094 743.948 3.4735C745.386 1.23607 747.76 0.117348 751.071 0.117348C754.381 0.117348 756.744 1.23607 758.16 3.4735C759.598 5.71094 760.317 8.80454 760.317 12.7543C760.317 16.7269 759.598 19.8433 758.16 22.1036C756.744 24.3639 754.381 25.494 751.071 25.494C747.76 25.494 745.386 24.3639 743.948 22.1036C742.532 19.8433 741.824 16.7269 741.824 12.7543ZM755.591 12.7543C755.591 11.0648 755.477 9.64929 755.249 8.50774C755.044 7.34336 754.61 6.39587 753.948 5.66528C753.308 4.93469 752.349 4.56939 751.071 4.56939C749.792 4.56939 748.822 4.93469 748.16 5.66528C747.521 6.39587 747.087 7.34336 746.859 8.50774C746.653 9.64929 746.55 11.0648 746.55 12.7543C746.55 14.4895 746.653 15.9506 746.859 17.1379C747.064 18.3022 747.498 19.2497 748.16 19.9803C748.822 20.6881 749.792 21.042 751.071 21.042C752.349 21.042 753.32 20.6881 753.982 19.9803C754.644 19.2497 755.078 18.3022 755.283 17.1379C755.489 15.9506 755.591 14.4895 755.591 12.7543ZM763.416 6.72692C763.416 4.99177 763.919 3.63332 764.923 2.65159C765.951 1.66986 767.263 1.17899 768.861 1.17899C770.46 1.17899 771.761 1.66986 772.766 2.65159C773.793 3.63332 774.307 4.99177 774.307 6.72692C774.307 8.48491 773.793 9.85477 772.766 10.8365C771.761 11.8182 770.46 12.3091 768.861 12.3091C767.263 12.3091 765.951 11.8182 764.923 10.8365C763.919 9.85477 763.416 8.48491 763.416 6.72692ZM785.403 1.58995L771.944 25.5625H767.286L780.711 1.58995H785.403ZM768.827 4.0557C767.572 4.0557 766.944 4.94611 766.944 6.72692C766.944 8.53057 767.572 9.4324 768.827 9.4324C769.444 9.4324 769.923 9.2155 770.266 8.78171C770.608 8.32509 770.779 7.64016 770.779 6.72692C770.779 4.94611 770.129 4.0557 768.827 4.0557ZM778.45 20.3913C778.45 18.6333 778.953 17.2748 779.957 16.3159C780.985 15.3342 782.298 14.8433 783.896 14.8433C785.494 14.8433 786.784 15.3342 787.766 16.3159C788.77 17.2748 789.272 18.6333 789.272 20.3913C789.272 22.1493 788.77 23.5191 787.766 24.5009C786.784 25.4826 785.494 25.9735 783.896 25.9735C782.275 25.9735 780.962 25.4826 779.957 24.5009C778.953 23.5191 778.45 22.1493 778.45 20.3913ZM783.861 17.7201C782.56 17.7201 781.909 18.6105 781.909 20.3913C781.909 22.1949 782.56 23.0968 783.861 23.0968C785.14 23.0968 785.779 22.1949 785.779 20.3913C785.779 18.6105 785.14 17.7201 783.861 17.7201Z" fill="#575757"/>
    <path d="M734.909 483.54H730.382L729.548 485.848H728.119L731.871 475.529H733.435L737.172 485.848H735.742L734.909 483.54ZM734.521 482.438L732.645 477.197L730.769 482.438H734.521ZM738.301 481.738C738.301 480.904 738.47 480.175 738.807 479.549C739.145 478.914 739.606 478.423 740.192 478.075C740.788 477.728 741.453 477.554 742.187 477.554C742.822 477.554 743.413 477.703 743.959 478.001C744.505 478.289 744.922 478.671 745.21 479.147V474.829H746.58V485.848H745.21V484.314C744.942 484.8 744.545 485.202 744.019 485.52C743.493 485.828 742.877 485.982 742.172 485.982C741.448 485.982 740.788 485.803 740.192 485.446C739.606 485.088 739.145 484.587 738.807 483.942C738.47 483.297 738.301 482.562 738.301 481.738ZM745.21 481.753C745.21 481.138 745.086 480.601 744.838 480.145C744.589 479.688 744.252 479.341 743.825 479.103C743.408 478.854 742.947 478.73 742.44 478.73C741.934 478.73 741.472 478.849 741.056 479.088C740.639 479.326 740.306 479.673 740.058 480.13C739.81 480.587 739.686 481.123 739.686 481.738C739.686 482.363 739.81 482.909 740.058 483.376C740.306 483.833 740.639 484.185 741.056 484.433C741.472 484.671 741.934 484.79 742.44 484.79C742.947 484.79 743.408 484.671 743.825 484.433C744.252 484.185 744.589 483.833 744.838 483.376C745.086 482.909 745.21 482.368 745.21 481.753ZM751.907 484.597L754.438 477.688H755.883L752.681 485.848H751.103L747.902 477.688H749.361L751.907 484.597ZM757.916 476.363C757.658 476.363 757.439 476.274 757.261 476.095C757.082 475.916 756.993 475.698 756.993 475.44C756.993 475.182 757.082 474.963 757.261 474.785C757.439 474.606 757.658 474.517 757.916 474.517C758.164 474.517 758.372 474.606 758.541 474.785C758.72 474.963 758.809 475.182 758.809 475.44C758.809 475.698 758.72 475.916 758.541 476.095C758.372 476.274 758.164 476.363 757.916 476.363ZM758.571 477.688V485.848H757.216V477.688H758.571ZM763.769 485.982C763.143 485.982 762.583 485.877 762.086 485.669C761.59 485.451 761.198 485.153 760.91 484.776C760.622 484.388 760.463 483.947 760.433 483.45H761.833C761.873 483.857 762.061 484.19 762.399 484.448C762.746 484.706 763.198 484.835 763.754 484.835C764.27 484.835 764.677 484.721 764.975 484.493C765.273 484.264 765.422 483.977 765.422 483.629C765.422 483.272 765.263 483.009 764.945 482.84C764.627 482.661 764.136 482.488 763.471 482.319C762.865 482.16 762.369 482.001 761.982 481.842C761.605 481.674 761.277 481.43 760.999 481.113C760.731 480.785 760.597 480.358 760.597 479.832C760.597 479.415 760.721 479.033 760.969 478.686C761.218 478.338 761.57 478.065 762.027 477.867C762.483 477.658 763.004 477.554 763.59 477.554C764.493 477.554 765.223 477.782 765.779 478.239C766.335 478.696 766.633 479.321 766.672 480.115H765.317C765.288 479.688 765.114 479.346 764.796 479.088C764.488 478.83 764.072 478.701 763.545 478.701C763.059 478.701 762.672 478.805 762.384 479.013C762.096 479.222 761.952 479.495 761.952 479.832C761.952 480.1 762.037 480.324 762.205 480.502C762.384 480.671 762.602 480.81 762.86 480.919C763.128 481.018 763.496 481.133 763.962 481.262C764.548 481.42 765.024 481.579 765.392 481.738C765.759 481.887 766.072 482.115 766.33 482.423C766.598 482.731 766.737 483.133 766.747 483.629C766.747 484.076 766.623 484.478 766.374 484.835C766.126 485.193 765.774 485.475 765.317 485.684C764.871 485.882 764.354 485.982 763.769 485.982ZM772.218 485.982C771.454 485.982 770.759 485.808 770.134 485.461C769.518 485.113 769.032 484.622 768.674 483.986C768.327 483.341 768.153 482.597 768.153 481.753C768.153 480.919 768.332 480.185 768.689 479.549C769.057 478.904 769.553 478.413 770.178 478.075C770.804 477.728 771.503 477.554 772.278 477.554C773.052 477.554 773.752 477.728 774.377 478.075C775.003 478.413 775.494 478.899 775.851 479.534C776.219 480.17 776.402 480.909 776.402 481.753C776.402 482.597 776.214 483.341 775.836 483.986C775.469 484.622 774.968 485.113 774.332 485.461C773.697 485.808 772.992 485.982 772.218 485.982ZM772.218 484.79C772.705 484.79 773.161 484.676 773.588 484.448C774.015 484.22 774.357 483.877 774.615 483.421C774.883 482.964 775.017 482.408 775.017 481.753C775.017 481.098 774.888 480.542 774.63 480.085C774.372 479.629 774.035 479.291 773.618 479.073C773.201 478.844 772.749 478.73 772.263 478.73C771.766 478.73 771.31 478.844 770.893 479.073C770.486 479.291 770.158 479.629 769.91 480.085C769.662 480.542 769.538 481.098 769.538 481.753C769.538 482.418 769.657 482.979 769.895 483.436C770.143 483.892 770.471 484.235 770.878 484.463C771.285 484.681 771.732 484.79 772.218 484.79ZM779.539 479.013C779.777 478.547 780.114 478.184 780.551 477.926C780.998 477.668 781.539 477.539 782.174 477.539V478.939H781.817C780.298 478.939 779.539 479.763 779.539 481.411V485.848H778.184V477.688H779.539V479.013ZM786.627 485.982C786.002 485.982 785.441 485.877 784.944 485.669C784.448 485.451 784.056 485.153 783.768 484.776C783.48 484.388 783.321 483.947 783.292 483.45H784.691C784.731 483.857 784.92 484.19 785.257 484.448C785.604 484.706 786.056 484.835 786.612 484.835C787.128 484.835 787.535 484.721 787.833 484.493C788.131 484.264 788.28 483.977 788.28 483.629C788.28 483.272 788.121 483.009 787.803 482.84C787.486 482.661 786.994 482.488 786.329 482.319C785.724 482.16 785.227 482.001 784.84 481.842C784.463 481.674 784.135 481.43 783.857 481.113C783.589 480.785 783.455 480.358 783.455 479.832C783.455 479.415 783.579 479.033 783.828 478.686C784.076 478.338 784.428 478.065 784.885 477.867C785.341 477.658 785.863 477.554 786.448 477.554C787.352 477.554 788.081 477.782 788.637 478.239C789.193 478.696 789.491 479.321 789.53 480.115H788.175C788.146 479.688 787.972 479.346 787.654 479.088C787.347 478.83 786.93 478.701 786.404 478.701C785.917 478.701 785.53 478.805 785.242 479.013C784.954 479.222 784.81 479.495 784.81 479.832C784.81 480.1 784.895 480.324 785.063 480.502C785.242 480.671 785.461 480.81 785.719 480.919C785.987 481.018 786.354 481.133 786.82 481.262C787.406 481.42 787.883 481.579 788.25 481.738C788.617 481.887 788.93 482.115 789.188 482.423C789.456 482.731 789.595 483.133 789.605 483.629C789.605 484.076 789.481 484.478 789.233 484.835C788.984 485.193 788.632 485.475 788.175 485.684C787.729 485.882 787.213 485.982 786.627 485.982Z" fill="#575757"/>
    <path d="M477.807 463.453L477.064 463.492L477.101 464.197H477.807V463.453ZM794.277 463.453L789.979 459.154L785.681 463.453L789.979 467.751L794.277 463.453ZM476.262 434.09L475.518 434.129L477.064 463.492L477.807 463.453L478.551 463.413L477.005 434.051L476.262 434.09ZM477.807 463.453V464.197H789.979V463.453V462.708H477.807V463.453Z" fill="#0A8078"/>
    <path d="M723.968 432.677C723.739 431.718 723.34 430.999 722.769 430.52C722.221 430.04 721.422 429.801 720.372 429.801C718.797 429.801 717.632 430.44 716.879 431.718C716.148 432.974 715.771 435.029 715.749 437.883C716.297 436.97 717.096 436.262 718.146 435.76C719.196 435.234 720.338 434.972 721.571 434.972C723.055 434.972 724.367 435.291 725.509 435.931C726.65 436.57 727.541 437.506 728.18 438.739C728.819 439.949 729.139 441.41 729.139 443.123C729.139 444.744 728.808 446.193 728.146 447.472C727.507 448.728 726.559 449.709 725.303 450.417C724.048 451.125 722.552 451.479 720.817 451.479C718.443 451.479 716.571 450.954 715.201 449.903C713.854 448.853 712.906 447.392 712.358 445.52C711.833 443.625 711.571 441.296 711.571 438.533C711.571 434.355 712.29 431.205 713.728 429.081C715.166 426.935 717.438 425.862 720.543 425.862C722.94 425.862 724.801 426.513 726.125 427.814C727.449 429.116 728.214 430.737 728.42 432.677H723.968ZM720.475 438.91C719.265 438.91 718.249 439.264 717.427 439.972C716.605 440.68 716.194 441.707 716.194 443.054C716.194 444.401 716.571 445.463 717.324 446.239C718.1 447.015 719.185 447.403 720.577 447.403C721.81 447.403 722.781 447.027 723.488 446.273C724.219 445.52 724.584 444.504 724.584 443.225C724.584 441.901 724.23 440.851 723.523 440.075C722.838 439.298 721.822 438.91 720.475 438.91ZM735.6 451.65C734.732 451.65 734.013 451.387 733.442 450.862C732.894 450.314 732.62 449.641 732.62 448.842C732.62 448.043 732.894 447.38 733.442 446.855C734.013 446.307 734.732 446.033 735.6 446.033C736.444 446.033 737.141 446.307 737.689 446.855C738.237 447.38 738.51 448.043 738.51 448.842C738.51 449.641 738.237 450.314 737.689 450.862C737.141 451.387 736.444 451.65 735.6 451.65ZM741.824 438.602C741.824 434.652 742.532 431.559 743.948 429.321C745.386 427.084 747.76 425.965 751.071 425.965C754.381 425.965 756.744 427.084 758.16 429.321C759.598 431.559 760.317 434.652 760.317 438.602C760.317 442.575 759.598 445.691 758.16 447.951C756.744 450.212 754.381 451.342 751.071 451.342C747.76 451.342 745.386 450.212 743.948 447.951C742.532 445.691 741.824 442.575 741.824 438.602ZM755.591 438.602C755.591 436.912 755.477 435.497 755.249 434.355C755.044 433.191 754.61 432.244 753.948 431.513C753.308 430.782 752.349 430.417 751.071 430.417C749.792 430.417 748.822 430.782 748.16 431.513C747.521 432.244 747.087 433.191 746.859 434.355C746.653 435.497 746.55 436.912 746.55 438.602C746.55 440.337 746.653 441.798 746.859 442.986C747.064 444.15 747.498 445.097 748.16 445.828C748.822 446.536 749.792 446.89 751.071 446.89C752.349 446.89 753.32 446.536 753.982 445.828C754.644 445.097 755.078 444.15 755.283 442.986C755.489 441.798 755.591 440.337 755.591 438.602ZM763.416 432.575C763.416 430.839 763.919 429.481 764.923 428.499C765.951 427.518 767.263 427.027 768.861 427.027C770.46 427.027 771.761 427.518 772.766 428.499C773.793 429.481 774.307 430.839 774.307 432.575C774.307 434.333 773.793 435.702 772.766 436.684C771.761 437.666 770.46 438.157 768.861 438.157C767.263 438.157 765.951 437.666 764.923 436.684C763.919 435.702 763.416 434.333 763.416 432.575ZM785.403 427.438L771.944 451.41H767.286L780.711 427.438H785.403ZM768.827 429.903C767.572 429.903 766.944 430.794 766.944 432.575C766.944 434.378 767.572 435.28 768.827 435.28C769.444 435.28 769.923 435.063 770.266 434.629C770.608 434.173 770.779 433.488 770.779 432.575C770.779 430.794 770.129 429.903 768.827 429.903ZM778.45 446.239C778.45 444.481 778.953 443.123 779.957 442.164C780.985 441.182 782.297 440.691 783.896 440.691C785.494 440.691 786.784 441.182 787.766 442.164C788.77 443.123 789.272 444.481 789.272 446.239C789.272 447.997 788.77 449.367 787.766 450.349C786.784 451.33 785.494 451.821 783.896 451.821C782.275 451.821 780.962 451.33 779.957 450.349C778.953 449.367 778.45 447.997 778.45 446.239ZM783.861 443.568C782.56 443.568 781.909 444.458 781.909 446.239C781.909 448.043 782.56 448.944 783.861 448.944C785.14 448.944 785.779 448.043 785.779 446.239C785.779 444.458 785.14 443.568 783.861 443.568Z" fill="#575757"/>
    <path d="M224.156 292.968C222.37 266.24 226.02 239.428 234.887 214.15C243.753 188.872 257.652 165.655 275.743 145.899C293.834 126.143 315.742 110.26 340.144 99.2084C364.545 88.1569 390.934 82.1665 417.715 81.5991L420.234 200.491C409.521 200.718 398.966 203.114 389.205 207.535C379.445 211.956 370.681 218.309 363.445 226.211C356.209 234.114 350.649 243.401 347.103 253.512C343.556 263.623 342.096 274.348 342.81 285.039L224.156 292.968Z" fill="white"/>
    <path d="M257.109 389.854C237.505 360.51 226.092 326.463 224.048 291.232L342.767 284.345C343.584 298.437 348.15 312.056 355.992 323.793L257.109 389.854Z" fill="#0F0F0F"/>
    <path d="M411.62 81.8222C435.598 80.5752 459.603 83.6955 482.466 91.0311L446.134 204.264C436.989 201.33 427.387 200.082 417.796 200.581L411.62 81.8222Z" fill="#AFAFAF"/>
    <path d="M478.932 89.9336C527.088 104.399 567.945 136.626 593.229 180.088C618.514 223.549 626.334 274.996 615.107 324.008L499.191 297.455C503.681 277.85 500.553 257.271 490.44 239.887C480.326 222.502 463.983 209.611 444.721 203.825L478.932 89.9336Z" fill="#61ADB1"/>
    <path d="M615.492 322.294C614.368 327.407 613.042 332.473 611.518 337.481L497.755 302.844C498.365 300.841 498.895 298.814 499.344 296.769L615.492 322.294Z" fill="#0AD4C9"/>
    <path d="M611.987 335.917C597.71 384.233 565.57 425.298 522.099 450.765L461.988 348.158C479.376 337.971 492.232 321.545 497.942 302.219L611.987 335.917Z" fill="#0DAAA1"/>
    <path d="M525.005 449.029C501.683 463.232 475.679 472.463 448.622 476.143L432.596 358.309C443.419 356.837 453.821 353.145 463.15 347.463L525.005 449.029Z" fill="#0A8078"/>
    <path d="M452.631 475.556C441.564 477.292 430.369 478.087 419.168 477.932L420.815 359.024C425.296 359.087 429.773 358.769 434.2 358.074L452.631 475.556Z" fill="#055550"/>
    <path d="M421.913 477.951C388.488 477.951 355.605 469.497 326.324 453.377C297.043 437.256 272.315 413.992 254.439 385.748L354.923 322.151C362.074 333.448 371.965 342.754 383.677 349.202C395.39 355.651 408.543 359.032 421.913 359.032L421.913 477.951Z" fill="#032A28"/>
    <path d="M406.311 254.804V250.386H414.564V275.352H409.633V254.804H406.311ZM433.41 263.091C434.757 263.342 435.865 264.016 436.732 265.112C437.6 266.208 438.034 267.463 438.034 268.879C438.034 270.158 437.714 271.288 437.075 272.269C436.458 273.228 435.557 273.982 434.369 274.53C433.182 275.078 431.778 275.352 430.157 275.352H419.849V251.448H429.712C431.333 251.448 432.725 251.71 433.89 252.235C435.077 252.76 435.967 253.491 436.561 254.427C437.178 255.363 437.486 256.425 437.486 257.612C437.486 259.005 437.109 260.169 436.356 261.105C435.625 262.041 434.643 262.703 433.41 263.091ZM424.643 261.31H429.027C430.168 261.31 431.047 261.059 431.664 260.557C432.28 260.032 432.588 259.29 432.588 258.331C432.588 257.372 432.28 256.63 431.664 256.105C431.047 255.58 430.168 255.317 429.027 255.317H424.643V261.31ZM429.472 271.447C430.636 271.447 431.538 271.173 432.178 270.626C432.84 270.078 433.171 269.301 433.171 268.297C433.171 267.269 432.828 266.47 432.143 265.9C431.458 265.306 430.534 265.009 429.369 265.009H424.643V271.447H429.472Z" fill="#575757"/>
    <path d="M399.839 293.85C399.839 294.469 399.678 295.053 399.356 295.601C399.047 296.137 398.582 296.584 397.963 296.941C397.355 297.287 396.634 297.489 395.801 297.549V298.996H394.657V297.531C393.466 297.424 392.507 297.066 391.78 296.459C391.054 295.839 390.679 295.005 390.655 293.957H393.335C393.406 294.815 393.847 295.333 394.657 295.512V292.099C393.799 291.885 393.109 291.67 392.584 291.456C392.06 291.241 391.608 290.896 391.226 290.419C390.845 289.943 390.655 289.294 390.655 288.472C390.655 287.435 391.024 286.59 391.763 285.935C392.513 285.279 393.478 284.904 394.657 284.809V283.362H395.801V284.809C396.944 284.904 397.855 285.25 398.534 285.845C399.225 286.441 399.612 287.263 399.696 288.311H396.998C396.962 287.966 396.837 287.668 396.623 287.418C396.42 287.156 396.146 286.971 395.801 286.864V290.241C396.694 290.467 397.397 290.687 397.909 290.902C398.433 291.104 398.886 291.444 399.267 291.92C399.648 292.385 399.839 293.028 399.839 293.85ZM393.263 288.347C393.263 288.74 393.383 289.061 393.621 289.312C393.859 289.55 394.204 289.746 394.657 289.901V286.81C394.228 286.87 393.889 287.03 393.639 287.293C393.388 287.555 393.263 287.906 393.263 288.347ZM395.801 295.547C396.253 295.464 396.605 295.279 396.855 294.994C397.117 294.708 397.248 294.362 397.248 293.957C397.248 293.564 397.123 293.248 396.873 293.01C396.623 292.772 396.265 292.575 395.801 292.421V295.547ZM410.279 295.065H405.312L404.49 297.441H401.863L406.348 284.952H409.26L413.745 297.441H411.101L410.279 295.065ZM409.6 293.064L407.795 287.846L405.991 293.064H409.6ZM426.089 297.441H423.587L417.923 288.883V297.441H415.422V284.952H417.923L423.587 293.528V284.952H426.089V297.441ZM437.048 284.97V286.989H433.724V297.441H431.223V286.989H427.899V284.97H437.048ZM441.374 284.97V297.441H438.873V284.97H441.374ZM451.315 297.441L448.617 293.242L446.169 297.441H443.346L447.276 291.152L443.292 284.97H446.169L448.867 289.151L451.297 284.97H454.12L450.207 291.241L454.191 297.441H451.315Z" fill="#575757"/>
</svg>
