<svg width="2771" height="1382" viewBox="0 0 2771 1382" fill="none" xmlns="http://www.w3.org/2000/svg">
	<g clip-path="url(#clip0_2171_76567)">
		<g opacity="0.9">
			<g filter="url(#filter0_f_2171_76567)">
				<path d="M2516.29 539.161C2574.74 768.374 2363.48 1364.6 1911.39 1126.59C1459.3 888.575 877.515 1201.18 819.064 971.967C760.613 742.754 1093.17 460.052 1561.84 340.536C2030.52 221.02 2457.84 309.947 2516.29 539.161Z" fill="#E1D569" fill-opacity="0.5"/>
			</g>
			<g filter="url(#filter1_f_2171_76567)">
				<path d="M1729.03 677.524C1836.11 925.458 2039.77 886.582 1306.89 1088.08C803.271 991.078 673.987 1194.03 566.913 946.095C459.839 698.16 720.017 580.629 1010.03 455.381C1300.05 330.133 1621.96 429.589 1729.03 677.524Z" fill="url(#paint0_linear_2171_76567)"/>
			</g>
			<g filter="url(#filter2_f_2171_76567)">
				<path d="M2478.51 478.197C2469.84 589.975 2371.48 611.792 2188.39 597.584C2005.29 583.376 1540.21 964.862 1548.89 853.084C1557.56 741.306 1948.19 377.876 2131.28 392.084C2048.98 668.589 2487.19 366.419 2478.51 478.197Z" fill="#00FFFF" fill-opacity="0.8"/>
			</g>
			<g filter="url(#filter3_f_2171_76567)">
				<ellipse cx="726.686" cy="560.795" rx="214.205" ry="387.86" transform="rotate(-47.3986 726.686 560.795)" fill="#00A3FF" fill-opacity="0.6"/>
			</g>
		</g>
	</g>
	<defs>
		<filter id="filter0_f_2171_76567" x="512.4" y="-12.5898" width="2313.43" height="1494.28" filterUnits="userSpaceOnUse" color-interpolation-filters="sRGB">
			<feFlood flood-opacity="0" result="BackgroundImageFix"/>
			<feBlend mode="normal" in="SourceGraphic" in2="BackgroundImageFix" result="shape"/>
			<feGaussianBlur stdDeviation="150" result="effect1_foregroundBlur_2171_76567"/>
		</filter>
		<filter id="filter1_f_2171_76567" x="242.332" y="101.242" width="1896.26" height="1286.84" filterUnits="userSpaceOnUse" color-interpolation-filters="sRGB">
			<feFlood flood-opacity="0" result="BackgroundImageFix"/>
			<feBlend mode="normal" in="SourceGraphic" in2="BackgroundImageFix" result="shape"/>
			<feGaussianBlur stdDeviation="150" result="effect1_foregroundBlur_2171_76567"/>
		</filter>
		<filter id="filter2_f_2171_76567" x="1298.77" y="141.679" width="1429.87" height="981.948" filterUnits="userSpaceOnUse" color-interpolation-filters="sRGB">
			<feFlood flood-opacity="0" result="BackgroundImageFix"/>
			<feBlend mode="normal" in="SourceGraphic" in2="BackgroundImageFix" result="shape"/>
			<feGaussianBlur stdDeviation="125" result="effect1_foregroundBlur_2171_76567"/>
		</filter>
		<filter id="filter3_f_2171_76567" x="106.412" y="-45.499" width="1240.55" height="1212.59" filterUnits="userSpaceOnUse" color-interpolation-filters="sRGB">
			<feFlood flood-opacity="0" result="BackgroundImageFix"/>
			<feBlend mode="normal" in="SourceGraphic" in2="BackgroundImageFix" result="shape"/>
			<feGaussianBlur stdDeviation="150" result="effect1_foregroundBlur_2171_76567"/>
		</filter>
		<linearGradient id="paint0_linear_2171_76567" x1="1634.88" y1="639.921" x2="787.053" y2="1236.72" gradientUnits="userSpaceOnUse">
			<stop stop-color="#5B22FF" stop-opacity="0.33"/>
			<stop offset="1" stop-color="#9B1FFC"/>
		</linearGradient>
		<clipPath id="clip0_2171_76567">
			<rect width="2771" height="1382" fill="white"/>
		</clipPath>
	</defs>
</svg>
