<svg width="22" height="23" viewBox="0 0 22 23" fill="none" xmlns="http://www.w3.org/2000/svg">
	<path d="M2.02584 6.54979L2.69316 6.89212L2.69316 6.89212L2.02584 6.54979ZM6.23775 3.19525L6.61275 3.84477L6.61275 3.84477L6.23775 3.19525ZM2.27378 6.12035L1.64365 5.71361L1.64365 5.71361L2.27378 6.12035ZM6.23775 19.6952L5.86275 20.3448L5.86275 20.3448L6.23775 19.6952ZM2.27378 16.7701L1.64365 17.1769L1.64365 17.1769L2.27378 16.7701ZM2.02584 16.3407L2.69316 15.9984L2.69316 15.9984L2.02584 16.3407ZM15.764 19.6952L16.139 20.3448L16.139 20.3448L15.764 19.6952ZM11.2488 21.6656L11.2116 20.9165L11.2116 20.9165L11.2488 21.6656ZM10.753 21.6656L10.7901 20.9165L10.7901 20.9165L10.753 21.6656ZM19.9759 16.3407L20.6433 16.683L20.6433 16.683L19.9759 16.3407ZM19.728 16.7701L20.3581 17.1769L20.3581 17.1769L19.728 16.7701ZM15.764 3.19525L15.389 3.84477L15.389 3.84477L15.764 3.19525ZM19.728 6.12035L20.3581 5.71361L20.3581 5.71361L19.728 6.12035ZM19.9759 6.54979L20.6433 6.20746L20.6433 6.20746L19.9759 6.54979ZM11.2488 1.2249L11.2116 1.97398L11.2116 1.97398L11.2488 1.2249ZM10.753 1.2249L10.7901 1.97398L10.7901 1.97398L10.753 1.2249ZM12.2246 7.21875C12.2246 6.80454 11.8888 6.46875 11.4746 6.46875C11.0604 6.46875 10.7246 6.80454 10.7246 7.21875H12.2246ZM8.9289 13.8256C8.64476 14.127 8.65873 14.6016 8.96011 14.8858C9.2615 15.1699 9.73617 15.156 10.0203 14.8546L8.9289 13.8256ZM10.9298 12.7966L11.4755 13.3111L10.9298 12.7966ZM1.47461 11.4452H2.22461C2.22461 10.1585 2.2253 9.24211 2.29054 8.51199C2.3545 7.79617 2.47707 7.31334 2.69316 6.89212L2.02584 6.54979L1.35853 6.20746C1.02338 6.86078 0.870337 7.55203 0.79649 8.37849C0.723921 9.19064 0.724609 10.1848 0.724609 11.4452H1.47461ZM6.23775 3.19525L5.86275 2.54573C4.77113 3.17597 3.90986 3.67243 3.2428 4.14136C2.56399 4.61854 2.04187 5.0967 1.64365 5.71361L2.27378 6.12035L2.9039 6.5271C3.16065 6.12936 3.5175 5.78179 4.10544 5.36849C4.70512 4.94693 5.49836 4.48816 6.61275 3.84477L6.23775 3.19525ZM2.02584 6.54979L2.69316 6.89212C2.75732 6.76704 2.82766 6.64522 2.9039 6.5271L2.27378 6.12035L1.64365 5.71361C1.5405 5.87341 1.44534 6.03823 1.35853 6.20746L2.02584 6.54979ZM6.23775 19.6952L6.61275 19.0457C5.49836 18.4023 4.70512 17.9436 4.10544 17.522C3.5175 17.1087 3.16065 16.7611 2.9039 16.3634L2.27378 16.7701L1.64365 17.1769C2.04187 17.7938 2.56399 18.272 3.2428 18.7491C3.90986 19.2181 4.77113 19.7145 5.86275 20.3448L6.23775 19.6952ZM1.47461 11.4452H0.724609C0.724609 12.7057 0.723921 13.6999 0.79649 14.512C0.870337 15.3385 1.02338 16.0297 1.35853 16.683L2.02584 16.3407L2.69316 15.9984C2.47707 15.5772 2.3545 15.0943 2.29054 14.3785C2.2253 13.6484 2.22461 12.732 2.22461 11.4452H1.47461ZM2.27378 16.7701L2.9039 16.3634C2.82766 16.2453 2.75732 16.1235 2.69316 15.9984L2.02584 16.3407L1.35853 16.683C1.44534 16.8523 1.5405 17.0171 1.64365 17.1769L2.27378 16.7701ZM15.764 19.6952L15.389 19.0457C14.2746 19.6891 13.4807 20.1467 12.8158 20.4553C12.1639 20.7578 11.6845 20.893 11.2116 20.9165L11.2488 21.6656L11.286 22.4147C12.0194 22.3783 12.6945 22.1652 13.4472 21.8159C14.1868 21.4727 15.0474 20.975 16.139 20.3448L15.764 19.6952ZM6.23775 19.6952L5.86275 20.3448C6.95436 20.975 7.81494 21.4727 8.55458 21.8159C9.30723 22.1652 9.9824 22.3783 10.7158 22.4147L10.753 21.6656L10.7901 20.9165C10.3173 20.893 9.83788 20.7578 9.18599 20.4553C8.52106 20.1467 7.72713 19.6891 6.61275 19.0457L6.23775 19.6952ZM11.2488 21.6656L11.2116 20.9165C11.0712 20.9235 10.9306 20.9235 10.7901 20.9165L10.753 21.6656L10.7158 22.4147C10.9057 22.4241 11.096 22.4241 11.286 22.4147L11.2488 21.6656ZM20.5272 11.4452H19.7772C19.7772 12.732 19.7765 13.6484 19.7112 14.3785C19.6473 15.0943 19.5247 15.5772 19.3086 15.9984L19.9759 16.3407L20.6433 16.683C20.9784 16.0297 21.1314 15.3385 21.2053 14.512C21.2779 13.6999 21.2772 12.7057 21.2772 11.4452H20.5272ZM15.764 19.6952L16.139 20.3448C17.2306 19.7145 18.0919 19.2181 18.759 18.7491C19.4378 18.272 19.9599 17.7938 20.3581 17.1769L19.728 16.7701L19.0979 16.3634C18.8411 16.7611 18.4843 17.1087 17.8963 17.522C17.2967 17.9436 16.5034 18.4023 15.389 19.0457L15.764 19.6952ZM19.9759 16.3407L19.3086 15.9984C19.2445 16.1235 19.1741 16.2453 19.0979 16.3634L19.728 16.7701L20.3581 17.1769C20.4613 17.0171 20.5564 16.8523 20.6433 16.683L19.9759 16.3407ZM15.764 3.19525L15.389 3.84477C16.5034 4.48816 17.2967 4.94693 17.8963 5.36849C18.4843 5.78179 18.8411 6.12936 19.0979 6.5271L19.728 6.12035L20.3581 5.71361C19.9599 5.0967 19.4378 4.61854 18.759 4.14136C18.0919 3.67243 17.2306 3.17597 16.139 2.54573L15.764 3.19525ZM20.5272 11.4452H21.2772C21.2772 10.1848 21.2779 9.19064 21.2053 8.37849C21.1314 7.55203 20.9784 6.86078 20.6433 6.20746L19.9759 6.54979L19.3086 6.89212C19.5247 7.31334 19.6473 7.79617 19.7112 8.51199C19.7765 9.24211 19.7772 10.1585 19.7772 11.4452H20.5272ZM19.728 6.12035L19.0979 6.5271C19.1741 6.64522 19.2445 6.76704 19.3086 6.89213L19.9759 6.54979L20.6433 6.20746C20.5564 6.03823 20.4613 5.87341 20.3581 5.71361L19.728 6.12035ZM15.764 3.19525L16.139 2.54573C15.0474 1.91548 14.1868 1.41783 13.4472 1.0746C12.6945 0.725324 12.0194 0.512234 11.286 0.475824L11.2488 1.2249L11.2116 1.97398C11.6845 1.99745 12.1639 2.13272 12.8158 2.43523C13.4807 2.74379 14.2746 3.20137 15.389 3.84477L15.764 3.19525ZM6.23775 3.19525L6.61275 3.84477C7.72714 3.20137 8.52107 2.74379 9.18599 2.43523C9.83788 2.13272 10.3173 1.99745 10.7901 1.97398L10.753 1.2249L10.7158 0.475824C9.9824 0.512234 9.30724 0.725324 8.55458 1.0746C7.81495 1.41783 6.95437 1.91548 5.86275 2.54573L6.23775 3.19525ZM11.2488 1.2249L11.286 0.475824C11.096 0.466392 10.9057 0.466392 10.7158 0.475824L10.753 1.2249L10.7901 1.97398C10.9306 1.96701 11.0712 1.96701 11.2116 1.97398L11.2488 1.2249ZM11.4746 7.21875H10.7246V11.4246H11.4746H12.2246V7.21875H11.4746ZM9.47461 14.3401L10.0203 14.8546L11.4755 13.3111L10.9298 12.7966L10.3841 12.2821L8.9289 13.8256L9.47461 14.3401ZM11.4746 11.4246H10.7246C10.7246 11.7434 10.6028 12.0501 10.3841 12.2821L10.9298 12.7966L11.4755 13.3111C11.9566 12.8008 12.2246 12.1259 12.2246 11.4246H11.4746Z" fill="#949494"/>
</svg>
