<svg width="22" height="23" viewBox="0 0 22 23" fill="none" xmlns="http://www.w3.org/2000/svg">
	<path d="M2.02584 6.54979L2.55969 6.82366L2.55969 6.82366L2.02584 6.54979ZM6.23775 3.19525L6.53775 3.71486L6.53775 3.71486L6.23775 3.19525ZM2.27378 6.12035L1.76968 5.79496L1.76968 5.79496L2.27378 6.12035ZM6.23775 19.6952L5.93775 20.2149L5.93775 20.2149L6.23775 19.6952ZM2.27378 16.7701L1.76968 17.0955L1.76968 17.0955L2.27378 16.7701ZM2.02584 16.3407L2.55969 16.0668L2.55969 16.0668L2.02584 16.3407ZM15.764 19.6952L16.064 20.2149L16.064 20.2149L15.764 19.6952ZM11.2488 21.6656L11.2191 21.0663L11.2191 21.0663L11.2488 21.6656ZM10.753 21.6656L10.7827 21.0663L10.7827 21.0663L10.753 21.6656ZM19.9759 16.3407L20.5098 16.6146L20.5098 16.6146L19.9759 16.3407ZM19.728 16.7701L20.2321 17.0955L20.2321 17.0955L19.728 16.7701ZM15.764 3.19525L15.464 3.71486L15.464 3.71486L15.764 3.19525ZM19.728 6.12035L20.2321 5.79496L20.2321 5.79496L19.728 6.12035ZM19.9759 6.54979L20.5098 6.27593L20.5098 6.27593L19.9759 6.54979ZM11.2488 1.2249L11.2191 1.82416L11.2191 1.82416L11.2488 1.2249ZM10.753 1.2249L10.7827 1.82416L10.7827 1.82416L10.753 1.2249ZM15.9216 9.61897C16.1427 9.37208 16.1217 8.99276 15.8748 8.77173C15.6279 8.5507 15.2486 8.57165 15.0276 8.81853L15.9216 9.61897ZM12.7793 12.2293L13.2263 12.6295L13.2263 12.6295L12.7793 12.2293ZM8.16995 12.2293L8.61697 11.8291L8.61697 11.8291L8.16995 12.2293ZM7.92163 11.0524C7.7006 10.8055 7.32127 10.7846 7.07439 11.0056C6.82751 11.2267 6.80656 11.606 7.02759 11.8529L7.92163 11.0524ZM1.47461 11.4452H2.07461C2.07461 10.1611 2.07516 9.23696 2.14113 8.49864C2.20608 7.77176 2.3317 7.26809 2.55969 6.82366L2.02584 6.54979L1.49199 6.27593C1.16875 6.90603 1.01875 7.57645 0.945894 8.39184C0.874058 9.19579 0.874609 10.1821 0.874609 11.4452H1.47461ZM6.23775 3.19525L5.93775 2.67563C4.84385 3.30719 3.98939 3.79988 3.32906 4.26407C2.65934 4.73486 2.15374 5.19997 1.76968 5.79496L2.27378 6.12035L2.77788 6.44575C3.04877 6.02609 3.42215 5.66547 4.01917 5.24578C4.62559 4.81948 5.42564 4.35694 6.53775 3.71486L6.23775 3.19525ZM2.02584 6.54979L2.55969 6.82366C2.62613 6.69416 2.69894 6.56803 2.77788 6.44575L2.27378 6.12035L1.76968 5.79496C1.66922 5.95059 1.57654 6.11111 1.49199 6.27593L2.02584 6.54979ZM6.23775 19.6952L6.53775 19.1756C5.42564 18.5336 4.62559 18.071 4.01917 17.6447C3.42215 17.225 3.04877 16.8644 2.77788 16.4447L2.27378 16.7701L1.76968 17.0955C2.15374 17.6905 2.65934 18.1556 3.32906 18.6264C3.98939 19.0906 4.84385 19.5833 5.93775 20.2149L6.23775 19.6952ZM1.47461 11.4452H0.874609C0.874609 12.7084 0.874058 13.6947 0.945894 14.4987C1.01875 15.314 1.16875 15.9845 1.49199 16.6146L2.02584 16.3407L2.55969 16.0668C2.3317 15.6224 2.20608 15.1187 2.14113 14.3919C2.07516 13.6535 2.07461 12.7294 2.07461 11.4452H1.47461ZM2.27378 16.7701L2.77788 16.4447C2.69894 16.3225 2.62613 16.1963 2.55969 16.0668L2.02584 16.3407L1.49199 16.6146C1.57654 16.7794 1.66922 16.9399 1.76968 17.0955L2.27378 16.7701ZM15.764 19.6952L15.464 19.1756C14.3519 19.8177 13.5513 20.2793 12.8789 20.5913C12.217 20.8985 11.718 21.0416 11.2191 21.0663L11.2488 21.6656L11.2786 22.2649C11.9859 22.2297 12.6415 22.0244 13.3841 21.6798C14.1162 21.3401 14.9701 20.8464 16.064 20.2149L15.764 19.6952ZM6.23775 19.6952L5.93775 20.2149C7.03164 20.8464 7.88556 21.3401 8.61772 21.6798C9.3603 22.0244 10.0159 22.2297 10.7232 22.2649L10.753 21.6656L10.7827 21.0663C10.2838 21.0416 9.78482 20.8985 9.12285 20.5913C8.45045 20.2793 7.64986 19.8177 6.53775 19.1756L6.23775 19.6952ZM11.2488 21.6656L11.2191 21.0663C11.0737 21.0735 10.9281 21.0735 10.7827 21.0663L10.753 21.6656L10.7232 22.2649C10.9082 22.274 11.0936 22.274 11.2786 22.2649L11.2488 21.6656ZM20.5272 11.4452H19.9272C19.9272 12.7294 19.9266 13.6535 19.8606 14.3919C19.7957 15.1187 19.6701 15.6224 19.4421 16.0668L19.9759 16.3407L20.5098 16.6146C20.833 15.9845 20.983 15.314 21.0559 14.4987C21.1277 13.6947 21.1272 12.7084 21.1272 11.4452H20.5272ZM15.764 19.6952L16.064 20.2149C17.1579 19.5833 18.0124 19.0906 18.6727 18.6264C19.3424 18.1556 19.848 17.6905 20.2321 17.0955L19.728 16.7701L19.2239 16.4447C18.953 16.8644 18.5796 17.225 17.9826 17.6447C17.3762 18.071 16.5761 18.5336 15.464 19.1756L15.764 19.6952ZM19.9759 16.3407L19.4421 16.0668C19.3757 16.1963 19.3028 16.3225 19.2239 16.4447L19.728 16.7701L20.2321 17.0955C20.3326 16.9399 20.4252 16.7794 20.5098 16.6146L19.9759 16.3407ZM15.764 3.19525L15.464 3.71486C16.5761 4.35694 17.3762 4.81948 17.9826 5.24578C18.5796 5.66546 18.953 6.02609 19.2239 6.44575L19.728 6.12035L20.2321 5.79496C19.848 5.19997 19.3424 4.73486 18.6727 4.26407C18.0124 3.79988 17.1579 3.30719 16.064 2.67563L15.764 3.19525ZM20.5272 11.4452H21.1272C21.1272 10.1821 21.1277 9.19579 21.0559 8.39184C20.983 7.57645 20.833 6.90603 20.5098 6.27593L19.9759 6.54979L19.4421 6.82366C19.6701 7.26809 19.7957 7.77176 19.8606 8.49864C19.9266 9.23696 19.9272 10.1611 19.9272 11.4452H20.5272ZM19.728 6.12035L19.2239 6.44575C19.3028 6.56804 19.3757 6.69416 19.4421 6.82366L19.9759 6.54979L20.5098 6.27593C20.4252 6.11111 20.3326 5.95059 20.2321 5.79496L19.728 6.12035ZM15.764 3.19525L16.064 2.67563C14.9701 2.04407 14.1162 1.55043 13.3841 1.21066C12.6415 0.866064 11.9859 0.660756 11.2786 0.625639L11.2488 1.2249L11.2191 1.82416C11.718 1.84893 12.217 1.99198 12.8789 2.29917C13.5513 2.6112 14.3519 3.07278 15.464 3.71486L15.764 3.19525ZM6.23775 3.19525L6.53775 3.71486C7.64986 3.07278 8.45045 2.6112 9.12285 2.29917C9.78482 1.99198 10.2838 1.84893 10.7827 1.82416L10.753 1.2249L10.7232 0.625639C10.0159 0.660756 9.3603 0.866064 8.61772 1.21066C7.88556 1.55043 7.03165 2.04407 5.93775 2.67563L6.23775 3.19525ZM11.2488 1.2249L11.2786 0.625639C11.0936 0.616454 10.9082 0.616454 10.7232 0.625639L10.753 1.2249L10.7827 1.82416C10.9281 1.81695 11.0737 1.81695 11.2191 1.82416L11.2488 1.2249ZM15.4746 9.21875L15.0276 8.81853L12.3323 11.8291L12.7793 12.2293L13.2263 12.6295L15.9216 9.61897L15.4746 9.21875ZM8.16995 12.2293L8.61697 11.8291L7.92163 11.0524L7.47461 11.4526L7.02759 11.8529L7.72293 12.6295L8.16995 12.2293ZM12.7793 12.2293L12.3323 11.8291C11.7861 12.4391 11.4183 12.8478 11.1038 13.1121C10.8043 13.3639 10.6283 13.4188 10.4746 13.4188V14.0188V14.6188C11.0235 14.6188 11.4658 14.3754 11.8759 14.0307C12.2711 13.6985 12.7044 13.2125 13.2263 12.6295L12.7793 12.2293ZM8.16995 12.2293L7.72293 12.6295C8.24483 13.2124 8.67808 13.6985 9.07329 14.0307C9.4834 14.3754 9.92575 14.6188 10.4746 14.6188V14.0188V13.4188C10.3209 13.4188 10.145 13.3639 9.84539 13.1121C9.53093 12.8478 9.16312 12.4391 8.61697 11.8291L8.16995 12.2293Z" fill="#31CC7E"/>
</svg>
