<svg width="24" height="25" viewBox="0 0 24 25" fill="none" xmlns="http://www.w3.org/2000/svg">
	<path d="M8.45492 19.2006L8.68668 18.4873L8.45492 19.2006ZM5.24472 15.9904L5.95801 15.7586L5.24472 15.9904ZM18.7553 15.9904L18.042 15.7586L18.7553 15.9904ZM15.5451 19.2006L15.3133 18.4873L15.5451 19.2006ZM15.5451 5.69003L15.3133 6.40332L15.5451 5.69003ZM18.7553 8.90023L18.042 9.13199L18.7553 8.90023ZM8.45492 5.69003L8.68668 6.40332L8.45492 5.69003ZM5.24472 8.90023L5.95801 9.13199L5.24472 8.90023ZM6 13.1953C6.41421 13.1953 6.75 12.8595 6.75 12.4453C6.75 12.0311 6.41421 11.6953 6 11.6953V13.1953ZM1 11.6953C0.585786 11.6953 0.25 12.0311 0.25 12.4453C0.25 12.8595 0.585786 13.1953 1 13.1953V11.6953ZM11.25 6.44531C11.25 6.85953 11.5858 7.19531 12 7.19531C12.4142 7.19531 12.75 6.85953 12.75 6.44531H11.25ZM12.75 1.44531C12.75 1.0311 12.4142 0.695312 12 0.695312C11.5858 0.695312 11.25 1.0311 11.25 1.44531H12.75ZM11.25 23.4453C11.25 23.8595 11.5858 24.1953 12 24.1953C12.4142 24.1953 12.75 23.8595 12.75 23.4453H11.25ZM12.75 18.4453C12.75 18.0311 12.4142 17.6953 12 17.6953C11.5858 17.6953 11.25 18.0311 11.25 18.4453H12.75ZM23 13.1953C23.4142 13.1953 23.75 12.8595 23.75 12.4453C23.75 12.0311 23.4142 11.6953 23 11.6953V13.1953ZM18 11.6953C17.5858 11.6953 17.25 12.0311 17.25 12.4453C17.25 12.8595 17.5858 13.1953 18 13.1953V11.6953ZM12 19.4453V18.6953C10.0803 18.6953 9.29839 18.6861 8.68668 18.4873L8.45492 19.2006L8.22315 19.9139C9.11777 20.2046 10.1971 20.1953 12 20.1953V19.4453ZM5 12.4453H4.25C4.25 14.2482 4.24075 15.3275 4.53143 16.2222L5.24472 15.9904L5.95801 15.7586C5.75925 15.1469 5.75 14.365 5.75 12.4453H5ZM8.45492 19.2006L8.68668 18.4873C7.39282 18.0669 6.37841 17.0525 5.95801 15.7586L5.24472 15.9904L4.53143 16.2222C5.1002 17.9727 6.47263 19.3451 8.22315 19.9139L8.45492 19.2006ZM19 12.4453H18.25C18.25 14.365 18.2407 15.1469 18.042 15.7586L18.7553 15.9904L19.4686 16.2222C19.7593 15.3275 19.75 14.2482 19.75 12.4453H19ZM12 19.4453V20.1953C13.8029 20.1953 14.8822 20.2046 15.7768 19.9139L15.5451 19.2006L15.3133 18.4873C14.7016 18.6861 13.9197 18.6953 12 18.6953V19.4453ZM18.7553 15.9904L18.042 15.7586C17.6216 17.0525 16.6072 18.0669 15.3133 18.4873L15.5451 19.2006L15.7768 19.9139C17.5274 19.3451 18.8998 17.9727 19.4686 16.2222L18.7553 15.9904ZM12 5.44531V6.19531C13.9197 6.19531 14.7016 6.20457 15.3133 6.40332L15.5451 5.69003L15.7768 4.97674C14.8822 4.68606 13.8029 4.69531 12 4.69531V5.44531ZM19 12.4453H19.75C19.75 10.6424 19.7593 9.56308 19.4686 8.66846L18.7553 8.90023L18.042 9.13199C18.2407 9.7437 18.25 10.5257 18.25 12.4453H19ZM15.5451 5.69003L15.3133 6.40332C16.6072 6.82372 17.6216 7.83813 18.042 9.13199L18.7553 8.90023L19.4686 8.66846C18.8998 6.91795 17.5274 5.54552 15.7768 4.97674L15.5451 5.69003ZM12 5.44531V4.69531C10.1971 4.69531 9.11777 4.68606 8.22315 4.97674L8.45492 5.69003L8.68668 6.40332C9.29839 6.20457 10.0803 6.19531 12 6.19531V5.44531ZM5 12.4453H5.75C5.75 10.5257 5.75925 9.7437 5.95801 9.13199L5.24472 8.90023L4.53143 8.66846C4.24075 9.56308 4.25 10.6424 4.25 12.4453H5ZM8.45492 5.69003L8.22315 4.97674C6.47263 5.54552 5.1002 6.91795 4.53143 8.66846L5.24472 8.90023L5.95801 9.13199C6.37841 7.83813 7.39282 6.82372 8.68668 6.40332L8.45492 5.69003ZM6 12.4453V11.6953H1V12.4453V13.1953H6V12.4453ZM12 6.44531H12.75V1.44531H12H11.25V6.44531H12ZM12 23.4453H12.75V18.4453H12H11.25V23.4453H12ZM23 12.4453V11.6953H18V12.4453V13.1953H23V12.4453Z" fill="#12FFF1"/>
	<path d="M12 10.6953C12.9665 10.6953 13.75 11.4788 13.75 12.4453C13.75 13.4118 12.9665 14.1953 12 14.1953C11.0335 14.1953 10.25 13.4118 10.25 12.4453C10.25 11.4788 11.0335 10.6953 12 10.6953Z" stroke="#12FFF1" stroke-width="1.5"/>
</svg>
