<svg width="16" height="16" viewBox="0 0 16 16" fill="none" xmlns="http://www.w3.org/2000/svg">
	<path d="M1.47886 0.041412L1.53532 0C2.71334 1.38055 6.06936 5.13034 7.99938 5.13034C9.4902 5.13034 10.3487 2.93457 10.4655 2.61733L10.5336 2.64041C10.5336 2.64041 9.46277 5.55227 10.4691 6.31947C11.4588 7.07381 15.6232 5.80028 15.9797 5.69056L16 5.75654C16 5.75654 11.2144 7.17181 10.9103 8.52072C10.6929 9.48483 11.9392 10.8462 12.272 11.1955L12.2219 11.2424C12.2219 11.2424 10.7736 9.66341 9.69566 10.1048C8.09277 10.7614 7.1763 15.3534 7.06536 16L6.99466 15.9871C6.99466 15.9871 8.00024 10.8125 5.48154 9.65197C4.06664 8.99961 0.574347 9.83204 0.020309 9.96679L0 9.89923C0 9.89923 4.88461 8.70861 4.88461 6.09128C4.88461 3.97285 1.47886 0.041412 1.47886 0.041412Z" fill="white"/>
</svg>
