<svg width="17" height="17" viewBox="0 0 17 17" fill="none" xmlns="http://www.w3.org/2000/svg">
	<path d="M16.5847 16.6326V10.7791C16.5847 7.90231 15.9654 5.70476 12.6092 5.70476C10.991 5.70476 9.91217 6.58378 9.47266 7.42285H9.4327V5.96447H6.25624V16.6326H9.57255V11.3385C9.57255 9.94004 9.83226 8.60153 11.5503 8.60153C13.2485 8.60153 13.2684 10.1798 13.2684 11.4184V16.6126H16.5847V16.6326ZM0.86225 5.96447H4.17856V16.6326H0.86225V5.96447ZM2.5204 0.650391C1.46158 0.650391 0.602539 1.50943 0.602539 2.56825C0.602539 3.62708 1.46158 4.5061 2.5204 4.5061C3.57922 4.5061 4.43827 3.62708 4.43827 2.56825C4.43827 1.50943 3.57922 0.650391 2.5204 0.650391Z" fill="#F0F0F0"/>
</svg>
