<svg width="27" height="21" viewBox="0 0 27 21" fill="none" xmlns="http://www.w3.org/2000/svg">
	<path d="M22.5984 1.95942C20.8965 1.15409 19.1004 0.579892 17.255 0.251222C17.2382 0.248188 17.2209 0.250565 17.2054 0.258029C17.19 0.265493 17.1771 0.277682 17.1686 0.29294C16.9378 0.715761 16.6819 1.26825 16.5036 1.70121C14.5144 1.39001 12.491 1.39001 10.5017 1.70121C10.302 1.21941 10.0767 0.749275 9.82686 0.29294C9.81812 0.277903 9.80523 0.265898 9.78984 0.258465C9.77444 0.251032 9.75724 0.248509 9.74045 0.251222C7.89496 0.579171 6.09875 1.15339 4.3971 1.95942C4.38249 1.96531 4.37019 1.97601 4.3621 1.98986C0.959199 7.23057 0.0261645 12.3428 0.483384 17.3918C0.484579 17.4041 0.488202 17.4161 0.494032 17.427C0.499861 17.4378 0.507776 17.4473 0.517293 17.4549C2.49864 18.9684 4.71538 20.1233 7.0726 20.8702C7.0892 20.8755 7.10698 20.8753 7.12346 20.8696C7.13994 20.864 7.15429 20.8531 7.16448 20.8386C7.66983 20.1283 8.11939 19.3785 8.50551 18.5903C8.51087 18.5795 8.51392 18.5676 8.51447 18.5555C8.51503 18.5433 8.51307 18.5312 8.50872 18.5199C8.50437 18.5086 8.49774 18.4984 8.48927 18.4899C8.4808 18.4814 8.47067 18.4749 8.45957 18.4708C7.75255 18.1913 7.0679 17.855 6.41193 17.4651C6.40012 17.4577 6.39022 17.4475 6.38307 17.4354C6.37592 17.4232 6.37174 17.4095 6.37088 17.3953C6.37002 17.3811 6.37251 17.3669 6.37813 17.3539C6.38376 17.3409 6.39235 17.3296 6.40318 17.3208C6.54137 17.2148 6.67704 17.1054 6.81008 16.9926C6.82184 16.9827 6.83608 16.9764 6.85117 16.9744C6.86626 16.9724 6.88159 16.9748 6.8954 16.9814C11.192 19.003 15.8429 19.003 20.0881 16.9814C20.102 16.9746 20.1175 16.972 20.1329 16.974C20.1482 16.976 20.1626 16.9825 20.1745 16.9926C20.3057 17.1043 20.4435 17.2159 20.5825 17.3219C20.6306 17.358 20.6273 17.4346 20.5748 17.4662C19.9207 17.8597 19.2414 18.1935 18.5261 18.4708C18.515 18.4752 18.505 18.4819 18.4966 18.4905C18.4883 18.4991 18.4818 18.5095 18.4775 18.5208C18.4733 18.5322 18.4715 18.5444 18.4721 18.5566C18.4727 18.5687 18.4758 18.5806 18.4812 18.5915C18.875 19.3785 19.3257 20.1283 19.8212 20.8386C19.8312 20.8533 19.8455 20.8644 19.862 20.8703C19.8785 20.8761 19.8963 20.8765 19.913 20.8713C22.2739 20.1261 24.4942 18.9711 26.4782 17.4561C26.4878 17.4488 26.4958 17.4396 26.5017 17.4289C26.5075 17.4182 26.5111 17.4063 26.5121 17.394C27.059 11.5569 25.5955 6.48641 22.6312 1.99211C22.6283 1.98455 22.6239 1.97771 22.6183 1.97207C22.6126 1.96642 22.6058 1.96211 22.5984 1.95942ZM9.14759 14.3182C7.85359 14.3182 6.78821 13.0937 6.78821 11.5907C6.78821 10.0877 7.83281 8.86322 9.14759 8.86322C10.4722 8.86322 11.5278 10.0979 11.507 11.5907C11.507 13.0948 10.4613 14.3182 9.14759 14.3182ZM17.8709 14.3182C16.578 14.3182 15.5115 13.0937 15.5115 11.5907C15.5115 10.0877 16.5561 8.86322 17.8709 8.86322C19.1955 8.86322 20.251 10.0979 20.2303 11.5907C20.2303 13.0948 19.1955 14.3182 17.8709 14.3182Z" fill="#F0F0F0"/>
</svg>
