<svg width="64" height="65" viewBox="0 0 64 65" fill="none" xmlns="http://www.w3.org/2000/svg">
	<g filter="url(#filter0_f_1073_1687)">
		<path d="M18 32.4434C18 24.7114 24.268 18.4434 32 18.4434V18.4434C39.732 18.4434 46 24.7114 46 32.4434V32.4434C46 40.1753 39.732 46.4434 32 46.4434V46.4434C24.268 46.4434 18 40.1753 18 32.4434V32.4434Z" fill="#00A1B2"/>
	</g>
	<path d="M20.588 19.5107L20.6868 19.4434C22.7483 21.6868 28.6214 27.7802 31.9989 27.7802C34.6078 27.7802 36.1102 24.212 36.3146 23.6965L36.4337 23.734C36.4337 23.734 34.5599 28.4658 36.3209 29.7125C38.0528 30.9383 45.3407 28.8688 45.9645 28.6905L46 28.7977C46 28.7977 37.6252 31.0975 37.093 33.2895C36.7126 34.8562 38.8937 37.0685 39.4759 37.636L39.3882 37.7122C39.3882 37.7122 36.8537 35.1464 34.9674 35.8637C32.1623 36.9307 30.5585 44.3927 30.3644 45.4434L30.2406 45.4223C30.2406 45.4223 32.0004 37.0137 27.5927 35.1278C25.1166 34.0677 19.0051 35.4204 18.0355 35.6394L18 35.5296C18 35.5296 26.5481 33.5948 26.5481 29.3417C26.5481 25.8992 20.588 19.5107 20.588 19.5107Z" fill="white"/>
	<defs>
		<filter id="filter0_f_1073_1687" x="0" y="0.443359" width="64" height="64" filterUnits="userSpaceOnUse" color-interpolation-filters="sRGB">
			<feFlood flood-opacity="0" result="BackgroundImageFix"/>
			<feBlend mode="normal" in="SourceGraphic" in2="BackgroundImageFix" result="shape"/>
			<feGaussianBlur stdDeviation="9" result="effect1_foregroundBlur_1073_1687"/>
		</filter>
	</defs>
</svg>
