<svg width="84" height="84" viewBox="0 0 84 84" fill="none" xmlns="http://www.w3.org/2000/svg">
	<g filter="url(#filter0_d_86_727)">
		<path d="M31.5 48.0781V54.0781M33 30.0781V36.0781M34.5 51.0781H28.5M36 33.0781H30M43.5 30.0781L46.1293 36.7447C46.4111 37.4594 46.5521 37.8167 46.7679 38.118C46.9591 38.3851 47.193 38.619 47.4601 38.8103C47.7614 39.0261 48.1188 39.167 48.8334 39.4489L55.5 42.0781L48.8334 44.7074C48.1188 44.9892 47.7614 45.1302 47.4601 45.346C47.193 45.5373 46.9591 45.7711 46.7679 46.0382C46.5521 46.3395 46.4111 46.6969 46.1293 47.4116L43.5 54.0781L40.8707 47.4116C40.5889 46.6969 40.4479 46.3395 40.2321 46.0382C40.0409 45.7711 39.807 45.5373 39.5399 45.346C39.2386 45.1302 38.8812 44.9892 38.1666 44.7074L31.5 42.0781L38.1666 39.4489C38.8812 39.167 39.2386 39.0261 39.5399 38.8103C39.807 38.619 40.0409 38.3851 40.2321 38.118C40.4479 37.8167 40.5889 37.4594 40.8707 36.7447L43.5 30.0781Z" stroke="#12FFF1" stroke-linecap="round" stroke-linejoin="round"/>
		<path d="M43.5 30.0781L46.1293 36.7447C46.4111 37.4594 46.5521 37.8167 46.7679 38.118C46.9591 38.3851 47.193 38.619 47.4601 38.8103C47.7614 39.0261 48.1188 39.167 48.8334 39.4489L55.5 42.0781L48.8334 44.7074C48.1188 44.9892 47.7614 45.1302 47.4601 45.346C47.193 45.5373 46.9591 45.7711 46.7679 46.0382C46.5521 46.3395 46.4111 46.6969 46.1293 47.4116L43.5 54.0781L40.8707 47.4116C40.5889 46.6969 40.4479 46.3395 40.2321 46.0382C40.0409 45.7711 39.807 45.5373 39.5399 45.346C39.2386 45.1302 38.8812 44.9892 38.1666 44.7074L31.5 42.0781L38.1666 39.4489C38.8812 39.167 39.2386 39.0261 39.5399 38.8103C39.807 38.619 40.0409 38.3851 40.2321 38.118C40.4479 37.8167 40.5889 37.4594 40.8707 36.7447L43.5 30.0781Z" fill="#12FFF1"/>
	</g>
	<defs>
		<filter id="filter0_d_86_727" x="-3.77712" y="-3.699" width="91.5542" height="91.5542" filterUnits="userSpaceOnUse" color-interpolation-filters="sRGB">
			<feFlood flood-opacity="0" result="BackgroundImageFix"/>
			<feColorMatrix in="SourceAlpha" type="matrix" values="0 0 0 0 0 0 0 0 0 0 0 0 0 0 0 0 0 0 127 0" result="hardAlpha"/>
			<feOffset/>
			<feGaussianBlur stdDeviation="11.8886"/>
			<feColorMatrix type="matrix" values="0 0 0 0 0.0708333 0 0 0 0 1 0 0 0 0 0.94425 0 0 0 0.3 0"/>
			<feBlend mode="normal" in2="BackgroundImageFix" result="effect1_dropShadow_86_727"/>
			<feBlend mode="normal" in="SourceGraphic" in2="effect1_dropShadow_86_727" result="shape"/>
		</filter>
	</defs>
</svg>
