<svg width="84" height="84" viewBox="0 0 84 84" fill="none" xmlns="http://www.w3.org/2000/svg">
	<g filter="url(#filter0_d_86_704)">
		<rect x="26.25" y="55.2051" width="15.7518" height="3.93795" rx="0.8751" fill="#12FFF1"/>
		<path fill-rule="evenodd" clip-rule="evenodd" d="M27.4876 39.5476C26.8041 40.2311 26.8041 41.3392 27.4876 42.0227L34.2943 48.8294C34.9778 49.5129 36.0859 49.5129 36.7694 48.8294L42.0277 43.5711L51.4183 52.9618C51.7601 53.3035 52.3142 53.3035 52.6559 52.9618L55.1311 50.4866C55.4728 50.1449 55.4728 49.5908 55.1311 49.249L45.7404 39.8584L51.0016 34.5973C51.6851 33.9138 51.6851 32.8056 51.0016 32.1221L44.1949 25.3154C43.5114 24.6319 42.4032 24.6319 41.7197 25.3154L27.4876 39.5476Z" fill="#12FFF1"/>
	</g>
	<defs>
		<filter id="filter0_d_86_704" x="-3.77712" y="-3.699" width="91.5542" height="91.5542" filterUnits="userSpaceOnUse" color-interpolation-filters="sRGB">
			<feFlood flood-opacity="0" result="BackgroundImageFix"/>
			<feColorMatrix in="SourceAlpha" type="matrix" values="0 0 0 0 0 0 0 0 0 0 0 0 0 0 0 0 0 0 127 0" result="hardAlpha"/>
			<feOffset/>
			<feGaussianBlur stdDeviation="11.8886"/>
			<feColorMatrix type="matrix" values="0 0 0 0 0.0708333 0 0 0 0 1 0 0 0 0 0.94425 0 0 0 0.3 0"/>
			<feBlend mode="normal" in2="BackgroundImageFix" result="effect1_dropShadow_86_704"/>
			<feBlend mode="normal" in="SourceGraphic" in2="effect1_dropShadow_86_704" result="shape"/>
		</filter>
	</defs>
</svg>
