<svg width="84" height="84" viewBox="0 0 84 84" fill="none" xmlns="http://www.w3.org/2000/svg">
	<g filter="url(#filter0_d_86_35)">
		<path d="M30 42.3781C30 40.698 30 39.8579 30.327 39.2162C30.6146 38.6517 31.0735 38.1927 31.638 37.9051C32.2798 37.5781 33.1198 37.5781 34.8 37.5781H49.2C50.8802 37.5781 51.7202 37.5781 52.362 37.9051C52.9265 38.1927 53.3854 38.6517 53.673 39.2162C54 39.8579 54 40.698 54 42.3781V45.9781C54 49.3384 54 51.0186 53.346 52.3021C52.7708 53.431 51.8529 54.3489 50.7239 54.9242C49.4405 55.5781 47.7603 55.5781 44.4 55.5781H39.6C36.2397 55.5781 34.5595 55.5781 33.2761 54.9242C32.1471 54.3489 31.2292 53.431 30.654 52.3021C30 51.0186 30 49.3384 30 45.9781V42.3781Z" fill="#12FFF1"/>
		<path d="M37.5 40.5781V33.0781C37.5 30.5928 39.5147 28.5781 42 28.5781C44.4853 28.5781 46.5 30.5928 46.5 33.0781V40.529M39.6 55.5781H44.4C47.7603 55.5781 49.4405 55.5781 50.7239 54.9242C51.8529 54.3489 52.7708 53.431 53.346 52.3021C54 51.0186 54 49.3384 54 45.9781V42.3781C54 40.698 54 39.8579 53.673 39.2162C53.3854 38.6517 52.9265 38.1927 52.362 37.9051C51.7202 37.5781 50.8802 37.5781 49.2 37.5781H34.8C33.1198 37.5781 32.2798 37.5781 31.638 37.9051C31.0735 38.1927 30.6146 38.6517 30.327 39.2162C30 39.8579 30 40.698 30 42.3781V45.9781C30 49.3384 30 51.0186 30.654 52.3021C31.2292 53.431 32.1471 54.3489 33.2761 54.9242C34.5595 55.5781 36.2397 55.5781 39.6 55.5781Z" stroke="#12FFF1" stroke-linecap="round" stroke-linejoin="round"/>
	</g>
	<defs>
		<filter id="filter0_d_86_35" x="-3.77712" y="-3.699" width="91.5542" height="91.5542" filterUnits="userSpaceOnUse" color-interpolation-filters="sRGB">
			<feFlood flood-opacity="0" result="BackgroundImageFix"/>
			<feColorMatrix in="SourceAlpha" type="matrix" values="0 0 0 0 0 0 0 0 0 0 0 0 0 0 0 0 0 0 127 0" result="hardAlpha"/>
			<feOffset/>
			<feGaussianBlur stdDeviation="11.8886"/>
			<feColorMatrix type="matrix" values="0 0 0 0 0.0708333 0 0 0 0 1 0 0 0 0 0.94425 0 0 0 0.3 0"/>
			<feBlend mode="normal" in2="BackgroundImageFix" result="effect1_dropShadow_86_35"/>
			<feBlend mode="normal" in="SourceGraphic" in2="effect1_dropShadow_86_35" result="shape"/>
		</filter>
	</defs>
</svg>
