<svg width="215" height="234" viewBox="0 0 215 234" fill="none" xmlns="http://www.w3.org/2000/svg">
	<path opacity="0.02" d="M29.5772 -91.6015L30.7065 -92.4453C54.2668 -64.3165 121.387 12.0853 159.988 12.0853C189.804 12.0853 206.974 -32.6534 209.31 -39.1172L210.671 -38.647C210.671 -38.647 189.255 20.6823 209.382 36.3138C229.175 51.6837 312.465 25.7354 319.594 23.4999L320 24.8442C320 24.8442 224.288 53.6803 218.206 81.1644C213.858 100.808 238.785 128.546 245.439 135.662L244.437 136.618C244.437 136.618 215.471 104.447 193.913 113.44C161.855 126.819 143.526 220.381 141.307 233.555L139.893 233.291C139.893 233.291 160.005 127.86 109.631 104.213C81.3329 90.9217 11.4869 107.882 0.40618 110.628L0 109.251C0 109.251 97.6921 84.9926 97.6921 31.6645C97.6921 -11.4985 29.5772 -91.6015 29.5772 -91.6015Z" fill="#0F0F0F"/>
</svg>
