<svg width="84" height="84" viewBox="0 0 84 84" fill="none" xmlns="http://www.w3.org/2000/svg">
	<g filter="url(#filter0_d_86_3)">
		<path fill-rule="evenodd" clip-rule="evenodd" d="M45.9378 26.0388C43.9634 23.4246 40.0366 23.4246 38.0622 26.0388C36.9836 27.4673 35.2158 28.1995 33.4429 27.9522C30.1983 27.4997 27.4216 30.2764 27.8741 33.521C28.1214 35.2939 27.3892 37.0616 25.9607 38.1405C23.3464 40.1147 23.3464 44.0416 25.9607 46.0159C27.3892 47.0946 28.1214 48.8623 27.8741 50.6353C27.4216 53.8799 30.1983 56.6566 33.4429 56.204C35.2158 55.9568 36.9836 56.6889 38.0622 58.1175C40.0366 60.7317 43.9634 60.7317 45.9378 58.1175C47.0165 56.6889 48.7842 55.9568 50.5571 56.204C53.8017 56.6566 56.5784 53.8799 56.1259 50.6353C55.8786 48.8623 56.6108 47.0946 58.0392 46.0159C60.6536 44.0416 60.6536 40.1147 58.0392 38.1405C56.6108 37.0616 55.8786 35.2939 56.1259 33.521C56.5784 30.2764 53.8017 27.4997 50.5571 27.9522C48.7842 28.1995 47.0165 27.4673 45.9378 26.0388ZM51.645 38.61C52.3453 37.7947 52.2317 36.583 51.3914 35.9035C50.5512 35.2241 49.3024 35.3342 48.6021 36.1496L40.4768 45.6105C40.3202 45.7931 40.1966 45.9369 40.088 46.0593C39.9682 45.9469 39.8319 45.8145 39.6588 45.6466L36.6704 42.7469C35.897 41.9965 34.643 41.9965 33.8696 42.7469C33.0962 43.4974 33.0962 44.7141 33.8696 45.4646L36.8579 48.3642L36.9014 48.4065C37.2038 48.7 37.5113 48.9985 37.7951 49.2309C38.1086 49.4878 38.5358 49.787 39.1058 49.9501C39.8702 50.169 40.6883 50.1331 41.4291 49.8479C41.9815 49.6353 42.379 49.2998 42.6673 49.0164C42.9283 48.7601 43.2066 48.4357 43.4804 48.1168L43.5197 48.0711L51.645 38.61Z" fill="#12FFF1"/>
	</g>
	<defs>
		<filter id="filter0_d_86_3" x="-3.77712" y="-3.699" width="91.5542" height="91.5542" filterUnits="userSpaceOnUse" color-interpolation-filters="sRGB">
			<feFlood flood-opacity="0" result="BackgroundImageFix"/>
			<feColorMatrix in="SourceAlpha" type="matrix" values="0 0 0 0 0 0 0 0 0 0 0 0 0 0 0 0 0 0 127 0" result="hardAlpha"/>
			<feOffset/>
			<feGaussianBlur stdDeviation="11.8886"/>
			<feColorMatrix type="matrix" values="0 0 0 0 0.0708333 0 0 0 0 1 0 0 0 0 0.94425 0 0 0 0.3 0"/>
			<feBlend mode="normal" in2="BackgroundImageFix" result="effect1_dropShadow_86_3"/>
			<feBlend mode="normal" in="SourceGraphic" in2="effect1_dropShadow_86_3" result="shape"/>
		</filter>
	</defs>
</svg>
