<svg width="84" height="79" viewBox="0 0 84 79" fill="none" xmlns="http://www.w3.org/2000/svg">
	<g filter="url(#filter0_d_86_359)">
		<path fill-rule="evenodd" clip-rule="evenodd" d="M49.4573 24.1464C49.3634 24.1831 48.6832 24.796 47.9457 25.5085C47.2081 26.221 46.494 26.8614 46.3586 26.9317C46.1373 27.0466 45.8613 27.0639 43.6165 27.1034C40.9826 27.1498 40.8665 27.1634 40.163 27.5089C39.826 27.6745 35.105 32.2093 34.9279 32.5376C34.6995 32.961 34.8608 33.5316 35.3063 33.8762C35.9826 34.3994 36.5577 34.6062 37.3589 34.6144C38.2397 34.6235 38.855 34.3776 39.714 33.6732C40.3756 33.1308 40.9192 32.9124 41.6905 32.8794C42.5044 32.8445 42.8839 32.9496 43.7479 33.4493C44.6011 33.9428 44.8985 34.068 45.5578 34.2114C46.7879 34.4789 48.0321 34.164 48.9837 33.3444L49.3238 33.0515L52.9359 36.5816C54.9226 38.5231 56.5715 40.0886 56.6004 40.0604C56.6513 40.0107 56.6539 39.7865 56.6177 38.5714C56.5904 37.6571 56.6568 37.5549 58.3866 35.8474C59.1959 35.0484 59.8582 34.343 59.8582 34.2799C59.8582 34.2167 59.8898 34.1841 59.9285 34.2075C60.0474 34.2793 60.0085 33.634 59.8818 33.432C59.7129 33.1624 50.6489 24.2872 50.4226 24.1696C50.2081 24.0582 49.7136 24.0463 49.4573 24.1464ZM33.527 24.2386C33.411 24.29 31.22 26.3845 28.658 28.893L24 33.454V33.9576V34.4612L25.1824 35.6438C26.7038 37.1654 26.9599 37.5319 27.4421 38.8781C27.5635 39.2169 27.6762 39.5074 27.6928 39.5235C27.7092 39.5395 27.9223 39.3705 28.1664 39.148C29.3049 38.1095 30.9245 37.8774 32.3431 38.5495C33.0995 38.9078 33.8703 39.8034 34.1502 40.6489C34.1872 40.7609 34.2072 40.7605 34.4931 40.6407C35.8428 40.0752 37.428 40.379 38.4769 41.4041C39.5136 42.4174 39.8241 43.9792 39.2495 45.2897C39.127 45.5691 39.1265 45.5886 39.2411 45.6248C40.5649 46.0435 41.5303 47.1626 41.7315 48.5118L41.8144 49.0681L42.3815 49.1464C43.3797 49.2841 43.8075 49.5382 45.0539 50.7336C46.1839 51.8173 46.5159 52.037 47.0266 52.039C47.5176 52.041 47.8505 51.9073 48.1963 51.5693C48.5422 51.2313 48.6789 50.9059 48.6769 50.426C48.6747 49.8863 48.4662 49.6101 46.8881 48.0562C45.288 46.4808 45.2203 46.3846 45.3389 45.8572C45.4041 45.5668 45.8064 45.186 46.106 45.131C46.6328 45.0344 46.7285 45.0998 48.3285 46.6502C49.3858 47.6747 49.9363 48.1583 50.1566 48.2559C50.7341 48.5119 51.3888 48.4131 51.8588 47.9989C52.2191 47.6815 52.4022 47.295 52.4022 46.8524C52.4022 46.2342 52.2359 46.0072 50.6144 44.4128C49.0129 42.8381 48.9465 42.7438 49.0653 42.215C49.1305 41.9245 49.5329 41.5437 49.8324 41.4887C50.3574 41.3925 50.456 41.4596 52.0538 43.0027C52.8852 43.8055 53.67 44.5148 53.7977 44.5787C54.1176 44.7389 54.6308 44.7869 54.9956 44.6908C55.3921 44.5862 55.8791 44.1462 56.0323 43.7541C56.1838 43.3662 56.1355 42.7237 55.9308 42.4044C55.8514 42.2806 54.318 40.7455 52.5232 38.9931L49.2599 35.8068L48.6706 36.0888C47.9376 36.4396 47.4166 36.5748 46.6047 36.6249C45.3814 36.7003 44.1684 36.333 43.1823 35.5888C42.2307 34.8704 42.2127 34.8604 41.8789 34.8604C41.4989 34.8604 41.4044 34.9082 40.7932 35.4097C40.1975 35.8986 39.5315 36.2469 38.7971 36.4537C37.9959 36.6793 36.7029 36.6777 35.9552 36.4503C34.6935 36.0664 33.717 35.3674 33.1583 34.448C32.8912 34.0085 32.77 33.4489 32.8017 32.8013C32.8267 32.2906 32.8678 32.1301 33.0919 31.669C33.3374 31.1637 33.4743 31.0122 35.3899 29.1271L37.4269 27.1225L35.9691 25.7042C35.1674 24.9242 34.4223 24.2531 34.3134 24.2128C34.0507 24.1158 33.7845 24.1244 33.527 24.2386ZM30.1792 40.2427C29.7809 40.3883 29.6008 40.5403 28.2781 41.848C27.1081 43.0046 27.0299 43.0984 26.9161 43.4808C26.8146 43.8221 26.8084 43.9433 26.8772 44.2438C27.0372 44.9425 27.7032 45.4662 28.4295 45.4644C29.0842 45.4628 29.2686 45.338 30.7249 43.9109C31.9649 42.6957 32.0808 42.5613 32.1935 42.2066C32.3477 41.721 32.2934 41.3131 32.0179 40.8885C31.6442 40.3125 30.7997 40.0159 30.1792 40.2427ZM35.2103 42.5207C34.9552 42.645 34.3137 43.2287 32.8123 44.7026C30.8417 46.6372 30.758 46.7301 30.6468 47.1064C30.2772 48.3569 31.4672 49.438 32.7536 49.0205C33.1497 48.8921 37.0678 45.0952 37.325 44.5907C37.64 43.9727 37.532 43.3496 37.0202 42.834C36.5125 42.3224 35.8521 42.2081 35.2103 42.5207ZM37.6321 47.5273C37.2344 47.6725 37.0529 47.8254 35.7599 49.1044C34.4509 50.3992 34.316 50.5963 34.3143 51.2163C34.3116 52.2549 35.3244 52.9852 36.3598 52.691C36.7323 52.5852 36.8469 52.4928 38.0496 51.3299C39.5607 49.8687 39.7143 49.6548 39.7143 49.0118C39.7143 48.6285 39.6819 48.5085 39.5016 48.2233C39.1094 47.6033 38.2745 47.2925 37.6321 47.5273ZM41.3047 51.1919C40.9161 51.3313 40.0174 52.155 39.7421 52.6241C39.2821 53.4079 39.5906 54.3987 40.4165 54.7894C40.792 54.9671 41.3712 54.9847 41.7502 54.8299C42.0818 54.6945 43.008 53.8233 43.2542 53.4154C43.4051 53.1652 43.4408 53.0198 43.4408 52.6541C43.4408 52.2708 43.4083 52.1508 43.228 51.8656C42.821 51.2221 42.0114 50.9386 41.3047 51.1919Z" fill="#12FFF1"/>
	</g>
	<defs>
		<filter id="filter0_d_86_359" x="-3.77712" y="-6.699" width="91.5542" height="91.5542" filterUnits="userSpaceOnUse" color-interpolation-filters="sRGB">
			<feFlood flood-opacity="0" result="BackgroundImageFix"/>
			<feColorMatrix in="SourceAlpha" type="matrix" values="0 0 0 0 0 0 0 0 0 0 0 0 0 0 0 0 0 0 127 0" result="hardAlpha"/>
			<feOffset/>
			<feGaussianBlur stdDeviation="11.8886"/>
			<feColorMatrix type="matrix" values="0 0 0 0 0.0708333 0 0 0 0 1 0 0 0 0 0.94425 0 0 0 0.3 0"/>
			<feBlend mode="normal" in2="BackgroundImageFix" result="effect1_dropShadow_86_359"/>
			<feBlend mode="normal" in="SourceGraphic" in2="effect1_dropShadow_86_359" result="shape"/>
		</filter>
	</defs>
</svg>
