<svg width="80" height="80" viewBox="0 0 80 80" fill="none" xmlns="http://www.w3.org/2000/svg">
<path d="M68.5725 31.2596V27.3111C68.5725 26.4289 67.856 25.7151 66.9737 25.7151H63.0248C62.1425 25.7151 61.4286 26.4289 61.4286 27.3111V31.2596C61.4286 32.1418 62.1425 32.8556 63.0248 32.8556H66.9737C67.856 32.8556 68.5725 32.1391 68.5725 31.2596Z" fill="#00E3A5"/>
<path d="M61.4288 16.9732V13.0247C61.4288 12.1425 60.7122 11.4287 59.83 11.4287H55.881C54.9988 11.4287 54.2849 12.1425 54.2849 13.0247V16.9732C54.2849 17.8554 55.0014 18.5692 55.881 18.5692H59.83C60.7122 18.5692 61.4288 17.8528 61.4288 16.9732Z" fill="#00E3A5"/>
<path d="M55.822 27.8645V23.916C55.822 23.0338 55.1055 22.32 54.2259 22.32H50.277C49.3947 22.32 48.6808 23.0338 48.6808 23.916V27.8645C48.6808 28.7468 49.3947 29.4605 50.277 29.4605H54.2259C55.1082 29.4605 55.822 28.7468 55.822 27.8645Z" fill="#00E3A5"/>
<path d="M54.2849 40.0042H48.7371C47.8549 40.0042 47.141 39.2904 47.141 38.4082V34.4597C47.141 33.5775 46.4271 32.8637 45.5449 32.8637H41.5959C40.7137 32.8637 39.9998 32.1499 39.9998 31.2677V20.1733C39.9998 19.2911 39.2859 18.5773 38.4037 18.5773H27.3082C26.4259 18.5773 25.7121 19.2911 25.7121 20.1733V24.1192C25.7121 25.0014 24.9982 25.7151 24.1159 25.7151H20.167C19.2847 25.7151 18.5709 26.4289 18.5709 27.3111V31.257C18.5709 32.1392 17.857 32.853 16.9747 32.853H13.0258C12.1435 32.853 11.4297 33.5668 11.4297 34.449V52.6892C11.4297 53.5714 12.1462 54.2879 13.0285 54.2879H16.9774C17.8597 54.2879 18.5735 55.0017 18.5735 55.8839V59.8324C18.5735 60.7146 19.2901 61.4284 20.1697 61.4284H24.1186C25.0009 61.4284 25.7147 62.1422 25.7147 63.0244V66.9729C25.7147 67.8551 26.4313 68.5716 27.3135 68.5716H45.5555C46.4378 68.5716 47.1517 67.8578 47.1517 66.9756V63.0244C47.1517 62.1422 47.8655 61.4284 48.7478 61.4284H52.6967C53.579 61.4284 54.2929 60.7119 54.2929 59.8324V55.8812C54.2929 54.999 55.0067 54.2852 55.889 54.2852H59.8406C60.7229 54.2852 61.4394 53.5687 61.4394 52.6865V41.5921C61.4394 40.7099 60.7256 39.9962 59.8433 39.9962H54.2929L54.2849 40.0042ZM48.7371 54.2959C47.8549 54.2959 47.141 55.0097 47.141 55.8946V59.8404C47.141 60.7226 46.4271 61.4364 45.5449 61.4364H27.3055C26.4232 61.4364 25.7094 60.7226 25.7094 59.8404V55.8919C25.7094 55.0097 24.9929 54.2959 24.1132 54.2959H20.1643C19.282 54.2959 18.5682 53.5821 18.5682 52.6999V34.4597C18.5682 33.5775 19.282 32.8637 20.1643 32.8637H24.1132C24.9955 32.8637 25.7094 32.1499 25.7094 31.2677V27.3191C25.7094 26.4369 26.4232 25.7232 27.3055 25.7232H31.2544C32.1367 25.7232 32.8506 26.4369 32.8506 27.3191V31.2677C32.8506 32.1499 33.5644 32.8637 34.4467 32.8637H38.3956C39.2779 32.8637 39.9918 33.5801 39.9918 34.4597V38.4082C39.9918 39.2904 40.7083 40.0042 41.5879 40.0042H45.5368C46.4191 40.0042 47.1357 40.7206 47.1357 41.6028V45.5514C47.1357 46.4336 47.8522 47.1474 48.7318 47.1474H52.6807C53.563 47.1474 54.2795 47.8638 54.2795 48.746V52.6972C54.2795 53.5794 53.5657 54.2932 52.6834 54.2932L48.7318 54.2986L48.7371 54.2959Z" fill="#00E3A5"/>
</svg>
